<?xml version="1.0" encoding="UTF-8" standalone="no"?>
<svg
   width="76"
   height="66"
   viewBox="0 0 76 66"
   version="1.1"
   id="svg10"
   sodipodi:docname="Home.svg"
   xml:space="preserve"
   inkscape:version="1.4 (86a8ad7, 2024-10-11)"
   xmlns:inkscape="http://www.inkscape.org/namespaces/inkscape"
   xmlns:sodipodi="http://sodipodi.sourceforge.net/DTD/sodipodi-0.dtd"
   xmlns:xlink="http://www.w3.org/1999/xlink"
   xmlns="http://www.w3.org/2000/svg"
   xmlns:svg="http://www.w3.org/2000/svg"><defs
     id="defs10"><linearGradient
       id="swatch12"
       inkscape:swatch="solid"><stop
         style="stop-color:#308ba0;stop-opacity:1;"
         offset="0"
         id="stop12" /></linearGradient><linearGradient
       inkscape:collect="always"
       xlink:href="#swatch12"
       id="linearGradient12"
       x1="17.462828"
       y1="44.523515"
       x2="32.58465"
       y2="44.523515"
       gradientUnits="userSpaceOnUse" /></defs><sodipodi:namedview
     id="namedview10"
     pagecolor="#ffffff"
     bordercolor="#111111"
     borderopacity="1"
     inkscape:showpageshadow="0"
     inkscape:pageopacity="0"
     inkscape:pagecheckerboard="1"
     inkscape:deskcolor="#d1d1d1"
     inkscape:zoom="1"
     inkscape:cx="36.5"
     inkscape:cy="32.5"
     inkscape:window-width="1920"
     inkscape:window-height="1017"
     inkscape:window-x="-8"
     inkscape:window-y="-8"
     inkscape:window-maximized="1"
     inkscape:current-layer="svg10" /><circle
     fill="#308BA0"
     cx="35"
     cy="45"
     r="3"
     id="circle2" /><circle
     fill="#FFF"
     cx="35"
     cy="45"
     r="2"
     id="circle3" /><circle
     fill="#308BA0"
     cx="40"
     cy="45"
     r="3"
     id="circle4" /><circle
     fill="#FFF"
     cx="40"
     cy="45"
     r="2"
     id="circle5" /><circle
     fill="#308BA0"
     cx="45"
     cy="45"
     r="3"
     id="circle6" /><circle
     fill="#FFF"
     cx="45"
     cy="45"
     r="2"
     id="circle7" /><g
     id="g9"><circle
       fill="#308BA0"
       cx="50"
       cy="45"
       r="3"
       id="circle8" /><circle
       fill="#FFF"
       cx="50"
       cy="45"
       r="2"
       id="circle9" /></g><path
     fill="#308BA0"
     d="M47.143 38.557l.832-.701c.195-.164.389-.332.571-.516a8.937 8.937 0 0 0 2.632-6.365 8.94 8.94 0 0 0-2.631-6.363 8.82 8.82 0 0 0-6.281-2.598c-2.445 0-4.793.947-6.447 2.598l-.744.744-.041.032c-.049.148.193.686.61 1.012l2.085 1.838c.59.459.966 1.146 1.012 1.896.038.625-.136 1.59-1.181 2.635-.554.554-1.815 1.189-6.693 1.189-3.384 0-6.903-.3-7.408-.345l-.071.002c-.745 0-1.429-.29-1.928-.816a2.644 2.644 0 0 1-.717-1.899c-.311-2.908-1.119-12.136.846-14.102.814-.813 1.647-1.227 2.477-1.227.805 0 1.528.383 2.093 1.106l1.761 1.993c.261.329.52.458.631.458.039 0 .09-.053.126-.097.052-.06.518-.548.808-.814 3.857-3.857 8.728-5.999 13.685-5.999 4.596 0 9.016 1.891 12.447 5.322 7.408 7.408 7.408 19.462 0 26.87-.146.146-.299.279-.453.415l-.92.834-7.101-7.102z"
     id="path9" /><path
     fill="#FFF"
     d="M54.91 18.247c-7.071-7.071-17.493-6.549-24.749.707-.271.249-.707.707-.707.707-.697.858-1.705.405-2.283-.33l-1.799-2.039c-.691-.885-1.753-1.109-3.075.212-1.797 1.798-.551 13.36-.551 13.36-.056 1.019.73 1.805 1.747 1.747 0 0 11.741 1.069 13.361-.551 1.211-1.211 1.096-2.384.214-3.073l-2.041-1.801c-.733-.575-1.481-1.879-.623-2.575l.707-.707c3.514-3.515 9.964-4.179 14.142 0 3.899 3.898 3.899 10.243 0 14.142a9.447 9.447 0 0 1-.634.573l5.656 5.656c.211-.191.432-.369.635-.572 7.018-7.017 7.018-18.437 0-25.456z"
     id="path10" /><path
     style="fill:#f9f9f9;fill-opacity:1;stroke:url(#linearGradient12);stroke-width:0.878;stroke-dasharray:none"
     d="m 18.330042,47.449255 c 0,-3.045211 -0.02004,-3.729167 -0.112727,-3.846684 -0.08751,-0.110964 -0.22794,-0.146479 -0.627837,-0.158786 -0.283315,-0.0087 -0.525967,-0.01846 -0.539227,-0.02165 -0.05294,-0.01275 0.79095,-0.756929 0.858316,-0.756929 0.03977,0 0.138288,-0.0676 0.218941,-0.150227 0.08065,-0.08262 0.2173,-0.150227 0.303679,-0.150227 0.08892,0 0.175432,-0.06517 0.199421,-0.150226 0.0233,-0.08262 0.06545,-0.150436 0.09368,-0.150688 0.09708,-8.75e-4 0.901928,-0.727332 0.901928,-0.814073 0,-0.04776 0.10809,-0.08682 0.240182,-0.08682 0.157272,0 0.270119,-0.05186 0.326896,-0.150226 0.04769,-0.08262 0.141257,-0.150228 0.207919,-0.150228 0.06666,0 0.141663,-0.04942 0.166658,-0.109812 0.02498,-0.0604 0.114981,-0.130273 0.199985,-0.155287 0.085,-0.02501 0.155752,-0.08544 0.157234,-0.134307 0.0043,-0.136298 0.270105,-0.401636 0.458019,-0.456937 0.09246,-0.0272 0.250077,-0.115377 0.350232,-0.195916 0.100159,-0.08055 0.213696,-0.128325 0.252311,-0.106193 0.03862,0.02213 0.112692,-0.04619 0.164569,-0.151785 0.05191,-0.10561 0.134274,-0.192019 0.183076,-0.192019 0.0488,0 0.195099,-0.118301 0.325125,-0.262897 0.13002,-0.144593 0.284061,-0.262897 0.342302,-0.262897 0.05824,0 0.126804,-0.07728 0.152376,-0.171742 0.03196,-0.118141 0.113159,-0.176855 0.260104,-0.188133 0.131732,-0.01003 0.303079,-0.117025 0.44702,-0.278939 0.243563,-0.273972 0.383632,-0.333097 0.383632,-0.161933 0,0.05534 0.09113,0.139116 0.202528,0.186173 0.111395,0.04707 0.202528,0.120074 0.202528,0.162284 0,0.0422 0.05042,0.07672 0.112061,0.07672 0.06164,0 0.131142,0.0676 0.154436,0.150227 0.02693,0.0955 0.110496,0.150227 0.229381,0.150227 0.102858,0 0.261203,0.06717 0.351883,0.149278 0.29142,0.263859 1.244984,1.086763 1.381068,1.191834 0.203069,0.156785 0.701935,0.190683 0.890095,0.0605 0.144941,-0.100302 0.166294,-0.224379 0.202528,-1.17692 l 0.04051,-1.064803 0.526573,-0.01189 0.526573,-0.01189 0.02171,1.874842 0.02171,1.874844 0.484613,0.426236 c 0.266539,0.234432 0.484617,0.463936 0.484617,0.510008 0,0.04608 0.04909,0.08377 0.109117,0.08377 0.06001,0 0.193188,0.0676 0.295935,0.150227 0.102752,0.08261 0.247571,0.150227 0.321832,0.150227 0.134189,0 0.48828,0.319048 0.48828,0.439972 0,0.03479 -0.273413,0.04699 -0.607584,0.02711 -0.596445,-0.03549 -0.607629,-0.03288 -0.609934,0.14273 -0.0013,0.0984 -0.0104,1.835132 -0.02027,3.859437 l -0.01791,3.680553 -1.640478,0.02031 -1.640477,0.02033 v -2.522781 c 0,-1.491372 -0.03222,-2.578615 -0.07881,-2.659336 -0.04336,-0.0751 -0.203877,-0.158302 -0.356728,-0.184889 -0.152854,-0.02658 -0.298516,-0.09812 -0.323699,-0.158969 -0.06884,-0.166332 -3.547383,-0.16441 -3.696376,0.002 -0.05546,0.06197 -0.166692,0.112674 -0.247167,0.112674 -0.08047,0 -0.203603,0.05312 -0.273619,0.118041 -0.1108,0.102735 -0.127309,0.453281 -0.127309,2.704081 v 2.586045 H 19.990741 18.33001 Z"
     id="path11-0"
     sodipodi:nodetypes="csccssssssssscsccsscsssccsscsssscscscccccssscssssccccscsscssscccc" /></svg>
