<?xml version="1.0" encoding="UTF-8" standalone="no"?>
<svg
   width="76"
   height="66"
   viewBox="0 0 76 66"
   version="1.1"
   id="svg10"
   sodipodi:docname="Home.svg"
   xml:space="preserve"
   inkscape:version="1.4 (86a8ad7, 2024-10-11)"
   xmlns:inkscape="http://www.inkscape.org/namespaces/inkscape"
   xmlns:sodipodi="http://sodipodi.sourceforge.net/DTD/sodipodi-0.dtd"
   xmlns:xlink="http://www.w3.org/1999/xlink"
   xmlns="http://www.w3.org/2000/svg"
   xmlns:svg="http://www.w3.org/2000/svg"><defs
     id="defs10"><linearGradient
       id="swatch12"
       inkscape:swatch="solid"><stop
         style="stop-color:#308ba0;stop-opacity:1;"
         offset="0"
         id="stop12" /></linearGradient><linearGradient
       inkscape:collect="always"
       xlink:href="#swatch12"
       id="linearGradient12"
       x1="17.462828"
       y1="44.523515"
       x2="32.58465"
       y2="44.523515"
       gradientUnits="userSpaceOnUse" /></defs><sodipodi:namedview
     id="namedview10"
     pagecolor="#ffffff"
     bordercolor="#111111"
     borderopacity="1"
     inkscape:showpageshadow="0"
     inkscape:pageopacity="0"
     inkscape:pagecheckerboard="1"
     inkscape:deskcolor="#d1d1d1"
     inkscape:zoom="2"
     inkscape:cx="37.25"
     inkscape:cy="33.25"
     inkscape:window-width="1920"
     inkscape:window-height="1017"
     inkscape:window-x="-8"
     inkscape:window-y="-8"
     inkscape:window-maximized="1"
     inkscape:current-layer="svg10" /><circle
     fill="#308BA0"
     cx="35"
     cy="45"
     r="3"
     id="circle2" /><circle
     fill="#FFF"
     cx="35"
     cy="45"
     r="2"
     id="circle3" /><circle
     fill="#308BA0"
     cx="40"
     cy="45"
     r="3"
     id="circle4" /><circle
     fill="#FFF"
     cx="40"
     cy="45"
     r="2"
     id="circle5" /><circle
     fill="#308BA0"
     cx="45"
     cy="45"
     r="3"
     id="circle6" /><circle
     fill="#FFF"
     cx="45"
     cy="45"
     r="2"
     id="circle7" /><g
     id="g9"><circle
       fill="#308BA0"
       cx="50"
       cy="45"
       r="3"
       id="circle8" /><circle
       fill="#FFF"
       cx="50"
       cy="45"
       r="2"
       id="circle9" /></g><path
     fill="#308BA0"
     d="M47.143 38.557l.832-.701c.195-.164.389-.332.571-.516a8.937 8.937 0 0 0 2.632-6.365 8.94 8.94 0 0 0-2.631-6.363 8.82 8.82 0 0 0-6.281-2.598c-2.445 0-4.793.947-6.447 2.598l-.744.744-.041.032c-.049.148.193.686.61 1.012l2.085 1.838c.59.459.966 1.146 1.012 1.896.038.625-.136 1.59-1.181 2.635-.554.554-1.815 1.189-6.693 1.189-3.384 0-6.903-.3-7.408-.345l-.071.002c-.745 0-1.429-.29-1.928-.816a2.644 2.644 0 0 1-.717-1.899c-.311-2.908-1.119-12.136.846-14.102.814-.813 1.647-1.227 2.477-1.227.805 0 1.528.383 2.093 1.106l1.761 1.993c.261.329.52.458.631.458.039 0 .09-.053.126-.097.052-.06.518-.548.808-.814 3.857-3.857 8.728-5.999 13.685-5.999 4.596 0 9.016 1.891 12.447 5.322 7.408 7.408 7.408 19.462 0 26.87-.146.146-.299.279-.453.415l-.92.834-7.101-7.102z"
     id="path9" /><path
     fill="#FFF"
     d="M54.91 18.247c-7.071-7.071-17.493-6.549-24.749.707-.271.249-.707.707-.707.707-.697.858-1.705.405-2.283-.33l-1.799-2.039c-.691-.885-1.753-1.109-3.075.212-1.797 1.798-.551 13.36-.551 13.36-.056 1.019.73 1.805 1.747 1.747 0 0 11.741 1.069 13.361-.551 1.211-1.211 1.096-2.384.214-3.073l-2.041-1.801c-.733-.575-1.481-1.879-.623-2.575l.707-.707c3.514-3.515 9.964-4.179 14.142 0 3.899 3.898 3.899 10.243 0 14.142a9.447 9.447 0 0 1-.634.573l5.656 5.656c.211-.191.432-.369.635-.572 7.018-7.017 7.018-18.437 0-25.456z"
     id="path10" /><path
     style="fill:#f9f9f9;fill-opacity:1;stroke:url(#linearGradient12);stroke-width:1.21918;stroke-dasharray:none"
     d="m 13.122717,51.336149 c 0,-4.22853 -0.02783,-5.178259 -0.15653,-5.341442 -0.121515,-0.154082 -0.316514,-0.203398 -0.871804,-0.220487 -0.393407,-0.01208 -0.730349,-0.02563 -0.748762,-0.03006 -0.07351,-0.0177 1.0983,-1.051059 1.191843,-1.051059 0.05522,0 0.192025,-0.09387 0.304018,-0.208603 0.111989,-0.114724 0.301739,-0.208602 0.421684,-0.208602 0.123473,0 0.243602,-0.09049 0.276912,-0.208602 0.03235,-0.114724 0.09088,-0.208893 0.130083,-0.209243 0.134804,-0.0012 1.252402,-1.009961 1.252402,-1.130408 0,-0.06632 0.150092,-0.120557 0.333513,-0.120557 0.218385,0 0.375083,-0.07201 0.453922,-0.208601 0.06622,-0.114725 0.196147,-0.208604 0.288713,-0.208604 0.09256,0 0.196711,-0.06862 0.231419,-0.152483 0.03469,-0.08387 0.15966,-0.180895 0.277695,-0.215629 0.11803,-0.03473 0.216275,-0.118641 0.218333,-0.186497 0.006,-0.189261 0.375063,-0.557705 0.635997,-0.634495 0.128389,-0.03777 0.347253,-0.16021 0.486327,-0.272045 0.139079,-0.111851 0.296734,-0.17819 0.350355,-0.147458 0.05363,0.03073 0.156482,-0.06414 0.228517,-0.210766 0.07208,-0.146649 0.186451,-0.266635 0.254217,-0.266635 0.06776,0 0.270911,-0.16427 0.451463,-0.365054 0.180543,-0.200779 0.394442,-0.365054 0.475315,-0.365054 0.08087,0 0.176078,-0.10731 0.211586,-0.238479 0.04438,-0.164048 0.157131,-0.245577 0.361177,-0.261238 0.18292,-0.01393 0.42085,-0.162499 0.620724,-0.38733 0.338208,-0.380433 0.532705,-0.462533 0.532705,-0.224857 0,0.07684 0.126542,0.193174 0.281227,0.258516 0.154681,0.06536 0.281227,0.166733 0.281227,0.225345 0,0.0586 0.07001,0.106532 0.155606,0.106532 0.08559,0 0.182102,0.09387 0.214447,0.208603 0.0374,0.13261 0.153433,0.208603 0.318515,0.208603 0.142827,0 0.362702,0.09327 0.488619,0.207285 0.404661,0.36639 1.728764,1.509061 1.917728,1.654961 0.281978,0.217709 0.974695,0.264779 1.235971,0.08401 0.201263,-0.139278 0.230913,-0.311569 0.281227,-1.634252 l 0.05625,-1.478567 0.73119,-0.01651 0.731191,-0.01651 0.03015,2.603374 0.03015,2.603378 0.672925,0.591864 c 0.370112,0.325528 0.672931,0.644214 0.672931,0.708188 0,0.06399 0.06817,0.116322 0.151518,0.116322 0.08333,0 0.268258,0.09387 0.410931,0.208603 0.14268,0.114711 0.343773,0.208602 0.44689,0.208602 0.186333,0 0.678018,0.443025 0.678018,0.610938 0,0.04831 -0.379657,0.06525 -0.843681,0.03764 -0.828214,-0.04928 -0.843744,-0.04566 -0.846944,0.198192 -0.0018,0.136637 -0.01444,2.548234 -0.02815,5.35915 l -0.02487,5.110755 -2.277941,0.0282 -2.277939,0.02823 v -3.503092 c 0,-2.070894 -0.04474,-3.580622 -0.109434,-3.69271 -0.06021,-0.104282 -0.2831,-0.219815 -0.495347,-0.256733 -0.21225,-0.03691 -0.414514,-0.136248 -0.449483,-0.220742 -0.09559,-0.230966 -4.925837,-0.228297 -5.132726,0.0028 -0.07701,0.08605 -0.231466,0.156457 -0.343212,0.156457 -0.111739,0 -0.28272,0.07376 -0.379943,0.16391 -0.153855,0.142656 -0.176779,0.629419 -0.176779,3.754842 v 3.590939 h -2.306065 -2.306063 z"
     id="path11-0"
     sodipodi:nodetypes="csccssssssssscsccsscsssccsscsssscscscccccssscssssccccscsscssscccc" /></svg>
