<?xml version="1.0" encoding="UTF-8" standalone="no"?>
<svg
   width="76"
   height="66"
   viewBox="0 0 76 66"
   version="1.1"
   id="svg4"
   sodipodi:docname="LetterSend_Green.svg"
   inkscape:version="1.4 (86a8ad7, 2024-10-11)"
   xmlns:inkscape="http://www.inkscape.org/namespaces/inkscape"
   xmlns:sodipodi="http://sodipodi.sourceforge.net/DTD/sodipodi-0.dtd"
   xmlns="http://www.w3.org/2000/svg"
   xmlns:svg="http://www.w3.org/2000/svg">
  <defs
     id="defs4" />
  <sodipodi:namedview
     id="namedview4"
     pagecolor="#ffffff"
     bordercolor="#111111"
     borderopacity="1"
     inkscape:showpageshadow="0"
     inkscape:pageopacity="0"
     inkscape:pagecheckerboard="1"
     inkscape:deskcolor="#d1d1d1"
     inkscape:zoom="11.712121"
     inkscape:cx="38.037516"
     inkscape:cy="33"
     inkscape:window-width="1920"
     inkscape:window-height="1017"
     inkscape:window-x="-8"
     inkscape:window-y="-8"
     inkscape:window-maximized="1"
     inkscape:current-layer="svg4" />
  <path
     fill="#00561D"
     d="M59.939 45.6c.04-.194.061-.395.061-.6V23c0-.205-.021-.406-.061-.6L47.874 33l12.065 12.6zM24.061 22.4c-.04.194-.061.395-.061.6v22c0 .205.021.406.061.6L36.126 33 24.061 22.4z"
     id="path1" />
  <path
     fill="#007F2F"
     d="M27 47c-1.103 0-2-.896-2-2V23c0-1.103.897-2 2-2h30c1.104 0 2 .897 2 2v22a2 2 0 0 1-2 2H27z"
     id="path2" />
  <path
     fill="#00561D"
     d="M25 35.777l-13-1.809 13-1.81v3.619zm0-5.999l-7.062-1.809L25 26.159v3.619zm0 11.999l-7.062-1.809L25 38.159v3.618zM36.817 32.393l-.691.607.691.607L37.5 33zM47.184 33.607l.69-.607-.69-.607L46.5 33z"
     id="path3" />
  <path
     fill="#00561D"
     d="M47.184 33.607l12.354 12.979c.188-.3.331-.63.402-.987L47.874 33l-.69.607zM59.223 47H24.778c.549.609 1.336 1 2.222 1h30c.887 0 1.673-.391 2.223-1zM36.817 33.607L36.126 33 24.061 45.6c.072.358.215.688.403.988l12.353-12.981zM24.778 21h34.443a2.982 2.982 0 0 0-2.222-1H27c-.886 0-1.673.391-2.222 1zm12.039 11.393l-12.354-10.98c-.188.3-.331.63-.403.988L36.126 33l.691-.607zm10.367 0l.69.607 12.065-10.6a2.959 2.959 0 0 0-.403-.988L47.184 32.393zm0 1.214L46.5 33 42 37l-4.5-4-.683.607L42 38.16l5.184-4.553zM25.229 45.908l-.765.68c.092.146.198.283.314.412H27a1.995 1.995 0 0 1-1.771-1.092zM57 47h2.223c.115-.129.223-.266.313-.412l-.765-.68A1.995 1.995 0 0 1 57 47zm1.771-24.908l.765-.68a3.147 3.147 0 0 0-.313-.412H57c.773 0 1.439.447 1.771 1.092zM27 21h-2.222a2.91 2.91 0 0 0-.314.412l.765.68A1.995 1.995 0 0 1 27 21z"
     id="path4" />
  <path
     style="fill:#00ac00;fill-opacity:1;stroke:#d97c00;stroke-width:0.0853816"
     d="m 26.20611,46.756996 c -0.390353,-0.182103 -1.00962,-0.777198 -0.954942,-0.917665 0.01199,-0.03079 2.557629,-2.715804 5.656982,-5.966687 3.099353,-3.250883 5.693443,-5.98366 5.764644,-6.072838 0.12277,-0.153765 0.261142,-0.04631 2.679059,2.080476 1.402281,1.233439 2.581006,2.254716 2.61939,2.269506 0.03838,0.01479 1.208297,-0.97457 2.59981,-2.198577 1.391512,-1.224007 2.561103,-2.225467 2.59909,-2.225467 0.0674,0 1.419203,1.405797 8.263727,8.593794 l 3.345692,3.513587 -0.190874,0.283239 c -0.104981,0.155781 -0.379241,0.399699 -0.609466,0.54204 l -0.418592,0.258802 -15.460781,0.02088 -15.46078,0.02088 z"
     id="path5" />
  <path
     style="fill:#00ac00;fill-opacity:1;stroke:#d97c00;stroke-width:0.0853816"
     d="m 25.059508,33.958901 c 0,-5.810384 0.01907,-10.564334 0.04237,-10.564334 0.03522,0 10.355385,9.030301 10.823524,9.470745 0.142228,0.133814 0.07182,0.223637 -1.280724,1.633974 -1.159818,1.209374 -8.41886,8.80003 -9.342647,9.769447 l -0.242524,0.254503 z"
     id="path6" />
  <path
     style="fill:#50dc00;fill-opacity:1;stroke:#d97c00;stroke-width:0.0853816"
     d="M 53.833118,39.181876 C 51.039004,36.266417 48.572227,33.678903 48.35139,33.431847 l -0.40152,-0.449194 3.389651,-2.979684 c 1.864308,-1.638826 4.340691,-3.815617 5.503073,-4.837313 l 2.113422,-1.85763 v 10.587901 c 0,5.823346 -0.0096,10.58765 -0.02135,10.587343 -0.01174,-3.07e-4 -2.307438,-2.385934 -5.101552,-5.301394 z"
     id="path7" />
  <path
     style="fill:#50dc00;fill-opacity:1;stroke:#d97c00;stroke-width:0.0853816"
     d="M 25.14489,33.881624 V 23.535563 l 0.192109,0.17232 c 0.105659,0.09478 2.504318,2.194758 5.330352,4.666627 2.826034,2.47187 5.159403,4.528546 5.185265,4.570392 0.02586,0.04185 -0.362556,0.513211 -0.863151,1.047479 -1.563179,1.668327 -9.774562,10.235303 -9.810462,10.235303 -0.01876,0 -0.03411,-4.655727 -0.03411,-10.34606 z"
     id="path8" />
</svg>
