<?xml version="1.0" encoding="UTF-8" standalone="no"?>
<svg
   width="76"
   height="66"
   viewBox="0 0 76 66"
   version="1.1"
   id="svg4"
   sodipodi:docname="LetterSend_Purple.svg"
   inkscape:version="1.4 (86a8ad7, 2024-10-11)"
   xmlns:inkscape="http://www.inkscape.org/namespaces/inkscape"
   xmlns:sodipodi="http://sodipodi.sourceforge.net/DTD/sodipodi-0.dtd"
   xmlns="http://www.w3.org/2000/svg"
   xmlns:svg="http://www.w3.org/2000/svg">
  <defs
     id="defs4" />
  <sodipodi:namedview
     id="namedview4"
     pagecolor="#ffffff"
     bordercolor="#111111"
     borderopacity="1"
     inkscape:showpageshadow="0"
     inkscape:pageopacity="0"
     inkscape:pagecheckerboard="1"
     inkscape:deskcolor="#d1d1d1"
     inkscape:zoom="11.712121"
     inkscape:cx="38.037516"
     inkscape:cy="33"
     inkscape:window-width="1920"
     inkscape:window-height="1017"
     inkscape:window-x="-8"
     inkscape:window-y="-8"
     inkscape:window-maximized="1"
     inkscape:current-layer="svg4" />
  <path
     fill="#78519B"
     d="M59.939 45.6c.04-.194.061-.395.061-.6V23c0-.205-.021-.406-.061-.6L47.874 33l12.065 12.6zM24.061 22.4c-.04.194-.061.395-.061.6v22c0 .205.021.406.061.6L36.126 33 24.061 22.4z"
     id="path1" />
  <path
     fill="#C475FF"
     d="M27 47c-1.103 0-2-.896-2-2V23c0-1.103.897-2 2-2h30c1.104 0 2 .897 2 2v22a2 2 0 0 1-2 2H27z"
     id="path2" />
  <path
     fill="#78519B"
     d="M25 35.777l-13-1.809 13-1.81v3.619zm0-5.999l-7.062-1.809L25 26.159v3.619zm0 11.999l-7.062-1.809L25 38.159v3.618zM36.817 32.393l-.691.607.691.607L37.5 33zM47.184 33.607l.69-.607-.69-.607L46.5 33z"
     id="path3" />
  <path
     fill="#78519B"
     d="M47.184 33.607l12.354 12.979c.188-.3.331-.63.402-.987L47.874 33l-.69.607zM59.223 47H24.778c.549.609 1.336 1 2.222 1h30c.887 0 1.673-.391 2.223-1zM36.817 33.607L36.126 33 24.061 45.6c.072.358.215.688.403.988l12.353-12.981zM24.778 21h34.443a2.982 2.982 0 0 0-2.222-1H27c-.886 0-1.673.391-2.222 1zm12.039 11.393l-12.354-10.98c-.188.3-.331.63-.403.988L36.126 33l.691-.607zm10.367 0l.69.607 12.065-10.6a2.959 2.959 0 0 0-.403-.988L47.184 32.393zm0 1.214L46.5 33 42 37l-4.5-4-.683.607L42 38.16l5.184-4.553zM25.229 45.908l-.765.68c.092.146.198.283.314.412H27a1.995 1.995 0 0 1-1.771-1.092zM57 47h2.223c.115-.129.223-.266.313-.412l-.765-.68A1.995 1.995 0 0 1 57 47zm1.771-24.908l.765-.68a3.147 3.147 0 0 0-.313-.412H57c.773 0 1.439.447 1.771 1.092zM27 21h-2.222a2.91 2.91 0 0 0-.314.412l.765.68A1.995 1.995 0 0 1 27 21z"
     id="path4" />
  <path
     style="fill:#800080;fill-opacity:1;stroke:#d97c00;stroke-width:0.0853816"
     d="m 26.208671,46.758306 c -0.4393,-0.205072 -0.893018,-0.650339 -0.893018,-0.876385 0,-0.140904 11.385869,-12.157208 11.51778,-12.155518 0.02829,3.62e-4 1.165661,0.982631 2.527498,2.18282 1.361837,1.200189 2.523198,2.202624 2.580801,2.227633 0.0576,0.02501 1.246685,-0.957259 2.642404,-2.18282 1.39572,-1.225561 2.563117,-2.228292 2.594216,-2.228292 0.07342,0 11.302569,11.793206 11.442495,12.017262 0.08988,0.143921 0.07693,0.211582 -0.08366,0.43711 -0.1045,0.146758 -0.369993,0.37264 -0.589984,0.501961 l -0.399983,0.235129 -15.454075,0.02101 -15.454075,0.02101 z"
     id="path5" />
  <path
     style="fill:#9370db;fill-opacity:1;stroke:#d97c00;stroke-width:0.0853816"
     d="m 33.687256,29.54578 c -4.573684,-4.065915 -8.329269,-7.433009 -8.345743,-7.482431 -0.04471,-0.13413 0.505182,-0.665844 0.882092,-0.852932 0.321771,-0.15972 0.719197,-0.163845 15.784157,-0.163845 h 15.454075 l 0.34961,0.187078 c 0.192286,0.102893 0.47441,0.329217 0.626942,0.502942 l 0.277332,0.315863 -0.285416,0.275659 c -0.156978,0.151612 -3.91733,3.500939 -8.356337,7.442949 l -8.070922,7.16729 z"
     id="path6" />
  <path
     style="fill:#9370db;fill-opacity:1;stroke:#d97c00;stroke-width:0.0853816"
     d="m 26.254851,46.664942 c -0.211319,-0.110893 -0.495667,-0.318963 -0.631883,-0.46238 l -0.247665,-0.260757 0.325284,-0.366115 c 2.018132,-2.271463 11.00683,-11.679183 11.158989,-11.679183 0.03436,0 1.183382,0.978191 2.553391,2.173759 2.121434,1.851312 2.514616,2.161081 2.65062,2.088293 0.21358,-0.114304 1.296219,-1.019729 3.342255,-2.795171 0.929746,-0.806785 1.724089,-1.466881 1.765208,-1.466881 0.10264,0 10.793464,11.194065 11.264087,11.794315 l 0.176492,0.225102 -0.18465,0.234745 c -0.101558,0.12911 -0.358178,0.344792 -0.570267,0.479295 l -0.385616,0.244551 -15.416014,-0.004 -15.416013,-0.004 z"
     id="path7" />
  <path
     style="fill:#9400d3;fill-opacity:1;stroke:#d97c00;stroke-width:0.0853816"
     d="M 36.832333,32.218157 C 28.003057,24.369482 25.486417,22.099394 25.486417,21.983788 c 0,-0.155156 0.619586,-0.630776 0.958139,-0.735507 0.182236,-0.05637 5.61266,-0.103493 15.563954,-0.135045 l 15.28406,-0.04846 0.340778,0.175525 c 0.187428,0.09654 0.47166,0.311793 0.631627,0.478343 0.257906,0.268521 0.277247,0.319454 0.170763,0.449684 -0.104759,0.12812 -15.955713,14.243019 -16.311871,14.525333 -0.116924,0.09268 -0.851968,-0.529008 -5.291534,-4.475504 z"
     id="path8" />
  <path
     style="fill:#ba55d3;fill-opacity:1;stroke:#d97c00;stroke-width:0.0853816"
     d="m 26.250222,46.548336 c -0.428776,-0.272001 -0.678424,-0.500812 -0.678424,-0.621798 0,-0.152087 4.703234,-5.164846 8.901272,-9.487075 l 2.38142,-2.45187 2.192418,1.888583 c 2.299569,1.980884 2.79101,2.374794 2.962782,2.374794 0.137737,0 0.725564,-0.475932 3.058202,-2.476067 1.067947,-0.915718 1.993298,-1.676503 2.056336,-1.690633 0.110731,-0.02482 3.569595,3.527239 8.256025,8.478473 2.84775,3.00866 3.063473,3.24409 3.063473,3.343334 0,0.09344 -0.455528,0.534691 -0.766088,0.742081 -0.194291,0.129746 -1.43921,0.140975 -15.629467,0.140975 H 26.62981 Z"
     id="path9" />
</svg>
