<?xml version="1.0" encoding="UTF-8" standalone="no"?>
<svg
   width="76"
   height="66"
   viewBox="0 0 76 66"
   version="1.1"
   id="svg4"
   sodipodi:docname="LetterSend_Red.svg"
   inkscape:version="1.4 (86a8ad7, 2024-10-11)"
   xmlns:inkscape="http://www.inkscape.org/namespaces/inkscape"
   xmlns:sodipodi="http://sodipodi.sourceforge.net/DTD/sodipodi-0.dtd"
   xmlns="http://www.w3.org/2000/svg"
   xmlns:svg="http://www.w3.org/2000/svg">
  <defs
     id="defs4" />
  <sodipodi:namedview
     id="namedview4"
     pagecolor="#ffffff"
     bordercolor="#111111"
     borderopacity="1"
     inkscape:showpageshadow="0"
     inkscape:pageopacity="0"
     inkscape:pagecheckerboard="1"
     inkscape:deskcolor="#d1d1d1"
     inkscape:zoom="11.712121"
     inkscape:cx="38.037516"
     inkscape:cy="33"
     inkscape:window-width="1920"
     inkscape:window-height="1017"
     inkscape:window-x="-8"
     inkscape:window-y="-8"
     inkscape:window-maximized="1"
     inkscape:current-layer="svg4" />
  <path
     fill="#A5000C"
     d="M59.939 45.6c.04-.194.061-.395.061-.6V23c0-.205-.021-.406-.061-.6L47.874 33l12.065 12.6zM24.061 22.4c-.04.194-.061.395-.061.6v22c0 .205.021.406.061.6L36.126 33 24.061 22.4z"
     id="path1" />
  <path
     fill="#F00"
     d="M27 47c-1.103 0-2-.896-2-2V23c0-1.103.897-2 2-2h30c1.104 0 2 .897 2 2v22a2 2 0 0 1-2 2H27z"
     id="path2" />
  <path
     fill="#A5000C"
     d="M25 35.777l-13-1.809 13-1.81v3.619zm0-5.999l-7.062-1.809L25 26.159v3.619zm0 11.999l-7.062-1.809L25 38.159v3.618zM36.817 32.393l-.691.607.691.607L37.5 33zM47.184 33.607l.69-.607-.69-.607L46.5 33z"
     id="path3" />
  <path
     fill="#A5000C"
     d="M47.184 33.607l12.354 12.979c.188-.3.331-.63.402-.987L47.874 33l-.69.607zM59.223 47H24.778c.549.609 1.336 1 2.222 1h30c.887 0 1.673-.391 2.223-1zM36.817 33.607L36.126 33 24.061 45.6c.072.358.215.688.403.988l12.353-12.981zM24.778 21h34.443a2.982 2.982 0 0 0-2.222-1H27c-.886 0-1.673.391-2.222 1zm12.039 11.393l-12.354-10.98c-.188.3-.331.63-.403.988L36.126 33l.691-.607zm10.367 0l.69.607 12.065-10.6a2.959 2.959 0 0 0-.403-.988L47.184 32.393zm0 1.214L46.5 33 42 37l-4.5-4-.683.607L42 38.16l5.184-4.553zM25.229 45.908l-.765.68c.092.146.198.283.314.412H27a1.995 1.995 0 0 1-1.771-1.092zM57 47h2.223c.115-.129.223-.266.313-.412l-.765-.68A1.995 1.995 0 0 1 57 47zm1.771-24.908l.765-.68a3.147 3.147 0 0 0-.313-.412H57c.773 0 1.439.447 1.771 1.092zM27 21h-2.222a2.91 2.91 0 0 0-.314.412l.765.68A1.995 1.995 0 0 1 27 21z"
     id="path4" />
  <path
     style="fill:#fc5454;stroke:#d97c00;stroke-width:0.0853816"
     d="m 53.457076,38.768473 c -3.000938,-3.135314 -5.454214,-5.729882 -5.451726,-5.765707 0.0062,-0.0889 10.871471,-9.630473 10.915919,-9.586025 0.01948,0.01948 0.02566,4.76422 0.01374,10.543863 l -0.02168,10.508441 z"
     id="path5" />
  <path
     style="fill:#fc5454;stroke:#d97c00;stroke-width:0.0853816"
     d="m 25.059508,33.939271 c 0,-8.421984 0.02157,-10.541491 0.106727,-10.489008 0.08327,0.05132 10.365187,9.05354 10.797943,9.454022 0.09728,0.09002 -1.703341,2.007347 -9.977419,10.624113 l -0.927251,0.965655 z"
     id="path6" />
  <path
     style="fill:#c40000;stroke:#d97c00;stroke-width:0.0853816"
     d="m 33.661708,29.532401 c -4.59033,-4.080872 -8.346055,-7.456636 -8.346055,-7.501699 0,-0.141959 0.557494,-0.646469 0.904755,-0.818769 0.325948,-0.161724 0.673194,-0.165361 15.787354,-0.165361 14.902868,0 15.464734,0.0057 15.752911,0.158825 0.30907,0.164266 0.939198,0.724552 0.939198,0.835102 0,0.03452 -3.448351,3.126687 -7.663002,6.871483 -4.21465,3.744795 -7.970375,7.085799 -8.346054,7.424452 l -0.683053,0.615734 z"
     id="path7" />
</svg>
