<?xml version="1.0" encoding="UTF-8" standalone="no"?>
<svg
   width="76"
   height="66"
   viewBox="0 0 76 66"
   version="1.1"
   id="svg2"
   sodipodi:docname="repeat.svg"
   inkscape:version="1.4 (86a8ad7, 2024-10-11)"
   xmlns:inkscape="http://www.inkscape.org/namespaces/inkscape"
   xmlns:sodipodi="http://sodipodi.sourceforge.net/DTD/sodipodi-0.dtd"
   xmlns="http://www.w3.org/2000/svg"
   xmlns:svg="http://www.w3.org/2000/svg">
  <defs
     id="defs2" />
  <sodipodi:namedview
     id="namedview2"
     pagecolor="#ffffff"
     bordercolor="#111111"
     borderopacity="1"
     inkscape:showpageshadow="0"
     inkscape:pageopacity="0"
     inkscape:pagecheckerboard="1"
     inkscape:deskcolor="#d1d1d1"
     inkscape:zoom="1"
     inkscape:cx="37.5"
     inkscape:cy="32.5"
     inkscape:window-width="1920"
     inkscape:window-height="1017"
     inkscape:window-x="-8"
     inkscape:window-y="-8"
     inkscape:window-maximized="1"
     inkscape:current-layer="svg2" />
  <path
     fill="#A8721B"
     d="M28.604 24c.05.527.195 2.029.381 2.752l.018.068.008.071c.099.902-.119 1.681-.63 2.252-.558.623-1.396.938-2.494.938-2.552-.004-7.663-6.716-9.788-9.67a2.809 2.809 0 0 1 .006-3.831c2.704-3.634 7.53-9.663 9.782-9.663 1.324 0 2.073.525 2.468.967.517.577.75 1.366.656 2.222l-.008.071-.018.07c-.188.728-.333 2.232-.382 2.752H41c10.201 0 18.5 8.299 18.5 18.5S51.201 50 41 50h-4c-.999 0-2-.992-2-1.996v-6.999C35 40 35.999 39 37 39h4c4.136 0 7.5-3.364 7.5-7.5S45.136 24 41 24H28.604z"
     id="path1" />
  <path
     fill="#FFF"
     d="M27.864 23c-.699 0 .153 4.001.153 4.001.126 1.144-.417 2.081-2.13 2.081-2.332-.004-9.018-9.312-9.018-9.312a1.81 1.81 0 0 1 0-2.541s6.92-9.312 9.018-9.312c1.57 0 2.256.934 2.13 2.079 0 0-.853 4.003-.153 4.003H41c9.649 0 17.5 7.851 17.5 17.5S50.649 49 41 49h-4s-1 .006-1-.997v-7.006S35.999 40 37 40h4c4.687 0 8.5-3.813 8.5-8.5S45.687 23 41 23H27.864z"
     id="path2"
     style="fill-opacity:1;fill:#ffffff;stroke:#ffd600;stroke-opacity:1" />
  <path
     style="fill:#d09c10;stroke:#ffd600;stroke-width:0.0853816"
     d="M 36.360223,49.824742 C 35.948476,49.645585 35.426811,49.131283 35.228148,48.708647 35.054729,48.339713 35.049159,48.208573 35.049159,44.49451 v -3.833355 l 0.238449,-0.456442 c 0.266509,-0.510157 0.792559,-0.960871 1.279232,-1.096032 0.184723,-0.0513 1.340355,-0.08852 2.757065,-0.0888 1.341472,-2.62e-4 2.667022,-0.04086 2.945666,-0.09021 3.100501,-0.549167 5.472807,-2.859189 6.115673,-5.955108 0.324313,-1.561829 0.08529,-3.406462 -0.625068,-4.823948 -0.817213,-1.630706 -2.303681,-2.993053 -4.002091,-3.667913 -1.226419,-0.487317 -1.28123,-0.490464 -8.540707,-0.490464 h -6.66951 l 0.05592,0.490944 c 0.03076,0.27002 0.119969,0.894373 0.198253,1.387452 0.219242,1.380915 0.192983,2.072217 -0.101536,2.673032 -0.453667,0.925478 -1.408023,1.449932 -2.659105,1.461275 -0.480439,0.0044 -0.696094,-0.04056 -1.09945,-0.228975 -1.862646,-0.870094 -4.922827,-4.110262 -8.567047,-9.070921 -0.8199,-1.116082 -1.004274,-1.587586 -0.944795,-2.416156 0.05297,-0.737931 0.213563,-1.042648 1.282159,-2.432841 2.316926,-3.014212 3.702984,-4.645387 5.312575,-6.2520701 1.309359,-1.3069937 2.109078,-1.9521197 2.922393,-2.3574693 0.487432,-0.2429317 0.582743,-0.2607227 1.238034,-0.2310965 1.185931,0.053617 2.065813,0.5797877 2.52047,1.5072453 0.287833,0.5871534 0.313705,1.2993949 0.09515,2.6196456 -0.07774,0.469599 -0.167265,1.092144 -0.198953,1.383434 l -0.05762,0.529618 7.286701,0.0284 c 7.080984,0.0276 7.314422,0.03368 8.26859,0.215527 2.013595,0.383748 3.801228,0.994297 5.441013,1.858325 7.262907,3.826942 11.17866,12.022935 9.544264,19.976934 -0.45346,2.206825 -1.473517,4.677323 -2.679277,6.489004 -2.289061,3.439363 -5.651011,6.037115 -9.488406,7.331617 -2.404765,0.811219 -3.811482,0.994454 -7.598442,0.98975 -2.082405,-0.0026 -2.750694,-0.02973 -2.958541,-0.12017 z m 6.945236,-0.947204 C 54.19463,47.456236 61.100127,36.402041 57.624413,25.956016 55.635994,19.979953 50.616263,15.548057 44.42682,14.303924 42.819619,13.980862 41.188122,13.919753 34.13431,13.918411 l -6.336581,-0.0012 -0.09987,-0.186616 c -0.12708,-0.237451 -0.05181,-1.377329 0.179362,-2.71636 0.20948,-1.2133723 0.211433,-1.6538291 0.0093,-2.0918497 C 27.599909,8.3014422 27.124453,8.0067378 26.230455,7.8959111 25.784511,7.8406285 25.68485,7.8601719 25.205876,8.09683 c -1.430634,0.7068666 -4.225815,3.709758 -7.948262,8.538899 -0.840675,1.09061 -0.919139,1.248487 -0.919139,1.849394 0,0.601508 0.0935,0.794599 0.926009,1.912431 2.008182,2.69642 4.147171,5.236925 5.667634,6.731525 1.86379,1.832083 2.675846,2.219669 3.893165,1.858164 0.537715,-0.159684 0.837938,-0.392063 1.054201,-0.815975 0.213605,-0.418699 0.214051,-0.906565 0.002,-2.147137 -0.22421,-1.311488 -0.300893,-2.441446 -0.185694,-2.736291 l 0.09174,-0.2348 h 6.993975 c 7.552227,0 7.603801,0.0027 8.962348,0.464746 3.702473,1.259293 6.141562,5.114961 5.649849,8.931181 -0.469138,3.641006 -3.048736,6.496753 -6.607614,7.314967 -0.467327,0.107442 -1.262269,0.150947 -3.444702,0.188517 l -2.837175,0.04884 -0.236564,0.236676 -0.236563,0.236676 -0.02389,3.901854 c -0.02558,4.17857 -0.01671,4.278824 0.398548,4.504514 0.33278,0.180862 5.507436,0.178255 6.899752,-0.0035 z"
     id="path3" />
</svg>
