<?xml version="1.0" encoding="utf-8"?>
<!-- Svg Vector Icons : http://www.onlinewebfonts.com/icon -->
<!DOCTYPE svg PUBLIC "-//W3C//DTD SVG 1.1//EN" "http://www.w3.org/Graphics/SVG/1.1/DTD/svg11.dtd">
<svg version="1.1" xmlns="http://www.w3.org/2000/svg" xmlns:xlink="http://www.w3.org/1999/xlink" x="0px" y="0px" viewBox="0 0 256 256" enable-background="new 0 0 256 256" xml:space="preserve">
<metadata> Svg Vector Icons : http://www.onlinewebfonts.com/icon </metadata>
<g><g><g><g><path fill="#000000" d="M245.9,194.1c0-0.5,0-1,0-1.5c0-0.5,0-1,0-1.6l0-0.4v-0.2v0V190v0v-0.1l0-0.7c-0.1-0.9-0.1-1.7-0.2-2.6l0-0.6l-0.1-0.8c0-0.6-0.1-1.1-0.2-1.7c0-0.6-0.1-1.1-0.2-1.7c0-0.3,0-0.6-0.1-0.8c0-0.3-0.1-0.5-0.1-0.8c-0.3-2-0.5-4.1-0.9-6c-0.2-1-0.3-1.9-0.5-2.8c-0.2-0.9-0.4-1.8-0.6-2.7c-0.3-1.8-0.8-3.4-1.2-4.9c-0.1-0.4-0.2-0.7-0.3-1.1c-0.1-0.4-0.2-0.7-0.3-1.1c-0.2-0.7-0.4-1.3-0.6-2s-0.3-1.2-0.5-1.7c-0.2-0.5-0.3-1-0.5-1.4c-0.2-0.7-0.4-1.2-0.5-1.6c-0.2-0.6-0.9-1-1.5-0.8l-39.9,11.4c-0.6,0.2-1,0.8-0.9,1.4c0,0.2,0.1,0.5,0.1,0.8c0,0.3,0.1,0.6,0.2,1c0.1,0.4,0.1,0.7,0.2,1.2c0.1,0.4,0.1,0.9,0.2,1.3c0,0.2,0.1,0.5,0.1,0.7c0,0.2,0,0.5,0.1,0.8c0.1,1,0.3,2.1,0.4,3.3c0,0.6,0.1,1.2,0.1,1.8c0,0.6,0,1.3,0.1,1.9c0.1,1.3,0.1,2.6,0.1,4v0.5l0,0.5c0,0.3,0,0.6,0,0.9c0,0.3,0,0.6,0,0.9v0.5l0,0.6c0,0.9-0.1,1.7-0.1,2.6l0,0.7v0.1v0c0,0.1,0-0.8,0-0.4v0l0,0.1l0,0.3c0,0.3-0.1,0.7-0.1,1c0,0.3,0,0.7-0.1,1c0,0.3-0.1,0.7-0.1,1c-0.1,0.6-0.1,1.3-0.2,2c-0.1,0.6-0.2,1.3-0.3,1.9c-0.1,0.6-0.2,1.2-0.3,1.8c-0.1,0.6-0.2,1.1-0.3,1.7c-0.1,0.5-0.2,1.1-0.3,1.6c-0.1,0.5-0.2,1-0.3,1.4c0,0.2-0.1,0.4-0.1,0.6c0,0.2-0.1,0.4-0.1,0.5c0,0.1,0,0.2-0.1,0.3h48.8c0.6,0,1.2-0.5,1.2-1.2l0,0c0-0.9,0.1-1.8,0.1-2.8c0-1,0-1.9,0-2.9c0-1,0-2,0-3C245.9,195.2,245.9,194.6,245.9,194.1z"/><path fill="#000000" d="M233.3,142.9c0.7-0.3,1-1,0.7-1.7c-0.1-0.3-0.3-0.6-0.5-1c-0.2-0.4-0.4-0.7-0.6-1.2c-0.3-0.5-0.6-1.1-0.8-1.7c-0.3-0.6-0.6-1.3-1-1.9c-0.2-0.4-0.3-0.7-0.5-1c-0.2-0.3-0.4-0.7-0.6-1c-0.4-0.7-0.7-1.4-1.2-2.1c-0.4-0.7-0.9-1.5-1.3-2.2c-0.2-0.4-0.5-0.8-0.7-1.2c-0.2-0.4-0.5-0.8-0.7-1.2c-0.5-0.8-1-1.6-1.5-2.4c-1.1-1.6-2.2-3.3-3.4-4.9c-0.3-0.4-0.6-0.8-0.9-1.2l-0.5-0.6l-0.5-0.6c-0.6-0.8-1.3-1.6-1.9-2.4c-0.7-0.8-1.3-1.6-2-2.4c-0.3-0.4-0.7-0.8-1-1.2s-0.7-0.8-1-1.1c-0.3-0.4-0.7-0.7-1-1.1c-0.3-0.4-0.7-0.7-1-1.1c-0.7-0.7-1.3-1.4-2-2.1c-0.7-0.7-1.3-1.3-2-2c-0.7-0.7-1.3-1.3-1.9-1.9c-0.6-0.6-1.3-1.2-1.9-1.8c-0.6-0.6-1.2-1.1-1.8-1.6c-0.6-0.5-1.1-1-1.7-1.4c-0.5-0.4-1.1-0.9-1.5-1.3c-0.5-0.4-0.9-0.8-1.3-1.1c-0.4-0.3-0.8-0.6-1.2-0.9c-0.5-0.4-0.9-0.7-1.3-1c-0.5-0.4-1.3-0.3-1.7,0.2L172,118.6c-0.4,0.5-0.4,1.2,0.1,1.6c0.2,0.2,0.4,0.4,0.6,0.6c0.2,0.2,0.5,0.5,0.7,0.7c0.3,0.3,0.6,0.6,0.8,0.9c0.3,0.3,0.6,0.6,1,1c0.3,0.4,0.7,0.7,1,1.2c0.4,0.4,0.7,0.8,1.1,1.3s0.7,0.9,1.2,1.4c0.4,0.5,0.8,1,1.2,1.5c0.4,0.5,0.8,1,1.2,1.6c0.4,0.6,0.8,1.1,1.2,1.7c0.2,0.3,0.4,0.6,0.6,0.8c0.2,0.3,0.4,0.6,0.6,0.9c0.2,0.3,0.4,0.6,0.6,0.9c0.2,0.3,0.4,0.6,0.6,0.9c0.4,0.6,0.8,1.2,1.1,1.8c0.4,0.6,0.7,1.2,1.1,1.8l0.3,0.5l0.3,0.5c0.2,0.3,0.3,0.6,0.5,0.9c0.7,1.2,1.3,2.5,1.9,3.6c0.3,0.6,0.6,1.2,0.8,1.8c0.1,0.3,0.3,0.6,0.4,0.9c0.1,0.3,0.2,0.6,0.4,0.8c0.2,0.6,0.5,1.1,0.7,1.6c0.2,0.5,0.4,1,0.6,1.5c0.1,0.2,0.2,0.5,0.3,0.7c0.1,0.2,0.2,0.5,0.3,0.7c0.1,0.4,0.3,0.8,0.4,1.1c0.1,0.4,0.2,0.7,0.4,1c0.1,0.4,0.3,0.8,0.4,1.2c0.1,0.4,0.2,0.7,0.3,1c0.2,0.7,1,1,1.6,0.7L233.3,142.9z"/><path fill="#000000" d="M124.2,96.6c0.3,0,0.7,0.1,1.1,0.1c0.4,0.1,0.8,0.1,1.3,0.2c0.5,0.1,0.9,0.2,1.4,0.2c0.4,0.1,0.9,0.2,1.3,0.3l13.5-27.6c-0.7-0.1-1.3-0.2-2-0.3c-0.5-0.1-0.9-0.1-1.3-0.2c-0.4,0-0.9-0.1-1.3-0.2c-0.8-0.1-1.7-0.2-2.5-0.3c-0.8-0.1-1.6-0.1-2.3-0.2c-0.7,0-1.4-0.1-2.1-0.2c-0.7,0-1.3-0.1-1.9-0.1c-0.6,0-1.2,0-1.7-0.1c-0.5,0-1,0-1.4,0c-0.6,0-1.1,0-1.5,0c-0.6,0-1.2,0.5-1.2,1.2l-1.2,25.7c0,0.6,0.4,1.2,1.1,1.3C123.6,96.5,123.9,96.6,124.2,96.6z"/><path fill="#000000" d="M160.5,110.8c0.4,0.3,0.7,0.5,1,0.7c0.3,0.2,0.6,0.5,0.9,0.7c0.1,0.1,0.3,0.2,0.5,0.4s0.3,0.2,0.5,0.4c0.3,0.2,0.6,0.5,0.9,0.6c0.6,0.4,1.4,0.3,1.8-0.3l17.6-26.9c0.4-0.6,0.2-1.4-0.4-1.7c-0.3-0.1-0.6-0.3-0.9-0.6c-0.2-0.1-0.3-0.2-0.5-0.3c-0.2-0.1-0.4-0.2-0.6-0.4c-0.5-0.3-1-0.6-1.6-0.9c-0.6-0.3-1.2-0.7-1.9-1c-0.6-0.3-1.3-0.6-2-1c-0.7-0.3-1.4-0.7-2.1-1c-0.7-0.3-1.5-0.7-2.3-1.1c-0.8-0.4-1.6-0.7-2.5-1.1c-0.8-0.3-1.7-0.7-2.6-1.1c-0.2-0.1-0.5-0.2-0.7-0.3l-7.6,33c0.4,0.3,0.8,0.6,1.2,0.8C159.7,110.2,160.1,110.5,160.5,110.8z"/><path fill="#000000" d="M100.5,96.5c0.3,0,0.7-0.1,1-0.1c0.3,0,0.7-0.1,1-0.1c0.7-0.1,1.3-0.1,1.9-0.2c0.6,0,1.2-0.1,1.8-0.1c0.3,0,0.6,0,0.8,0c0.3,0,0.6,0,0.8,0c0.5,0,0.9,0,1.4,0c0.4,0,0.8,0,1.2,0c0.5,0,0.9,0,1.3,0c0.4,0,0.8,0,1.1,0c0.7,0,1.3-0.6,1.2-1.3l-1.6-24.2c0-0.7-0.7-1.2-1.4-1.1c-0.3,0-0.7,0.1-1.1,0.1c-0.4,0-0.8,0.1-1.3,0.2c-0.6,0.1-1.1,0.2-1.8,0.3c-0.6,0.1-1.3,0.2-2,0.3c-0.4,0-0.7,0.1-1,0.2c-0.3,0.1-0.7,0.1-1.1,0.2c-0.7,0.1-1.5,0.3-2.3,0.4c-0.8,0.2-1.6,0.4-2.4,0.6c-0.4,0.1-0.8,0.2-1.3,0.3c-0.4,0.1-0.8,0.2-1.3,0.3c-0.8,0.2-1.7,0.5-2.6,0.7c-0.9,0.3-1.8,0.5-2.7,0.8c-0.5,0.1-0.9,0.3-1.3,0.4c-0.5,0.1-0.9,0.3-1.3,0.5c-0.5,0.1-0.9,0.3-1.4,0.5c-0.5,0.1-0.9,0.3-1.4,0.5c-0.9,0.3-1.8,0.7-2.7,1c-0.9,0.4-1.8,0.7-2.7,1.1c-0.4,0.2-0.9,0.4-1.3,0.6c-0.4,0.2-0.9,0.4-1.3,0.6c-0.4,0.2-0.9,0.4-1.3,0.6c-0.4,0.2-0.9,0.4-1.3,0.6c-0.8,0.4-1.7,0.8-2.5,1.3c-0.8,0.4-1.6,0.8-2.3,1.3c-0.8,0.4-1.5,0.8-2.2,1.3c-0.7,0.4-1.4,0.8-2.1,1.2c-0.7,0.4-1.3,0.8-1.9,1.2c-0.6,0.4-1.2,0.8-1.7,1.1c-0.5,0.4-1.1,0.7-1.5,1.1c-0.5,0.3-0.9,0.7-1.3,0.9c-0.4,0.3-0.8,0.6-1.1,0.8c-0.5,0.3-0.8,0.6-1.2,0.9c-0.5,0.4-0.7,1.1-0.3,1.7l10.1,14.8c0.4,0.5,1.1,0.7,1.6,0.4c0.3-0.1,0.6-0.3,0.9-0.5c0.3-0.2,0.6-0.4,1-0.6c0.4-0.2,0.8-0.4,1.2-0.6c0.4-0.2,0.9-0.5,1.3-0.7c0.5-0.2,1-0.5,1.5-0.7c0.5-0.2,1.1-0.5,1.7-0.8c0.6-0.3,1.2-0.5,1.8-0.8c0.6-0.3,1.3-0.5,1.9-0.8c0.7-0.3,1.3-0.5,2-0.8c0.7-0.2,1.4-0.5,2.1-0.7c0.3-0.1,0.7-0.2,1.1-0.4c0.4-0.1,0.7-0.2,1.1-0.3c0.4-0.1,0.7-0.2,1.1-0.4c0.4-0.1,0.7-0.2,1.1-0.3c0.7-0.2,1.5-0.4,2.2-0.6c0.7-0.2,1.5-0.4,2.2-0.6c0.4-0.1,0.7-0.2,1.1-0.2c0.4-0.1,0.7-0.1,1.1-0.2c0.4-0.1,0.7-0.1,1.1-0.2c0.4-0.1,0.7-0.1,1.1-0.2c0.7-0.1,1.4-0.2,2.1-0.4C99.1,96.7,99.8,96.6,100.5,96.5z"/><path fill="#000000" d="M31.9,115.6c-0.3,0.4-0.5,0.7-0.8,1.1s-0.5,0.7-0.8,1.1s-0.5,0.8-0.8,1.2c-0.5,0.8-1,1.5-1.5,2.3c-0.5,0.8-1,1.6-1.5,2.4l-0.4,0.6l-0.3,0.6c-0.2,0.4-0.5,0.8-0.7,1.2c-0.9,1.6-1.7,3.2-2.6,4.7c-0.4,0.8-0.7,1.5-1.1,2.3c-0.2,0.4-0.4,0.7-0.5,1.1c-0.2,0.4-0.3,0.7-0.5,1.1c-0.3,0.7-0.7,1.4-0.9,2.1c-0.3,0.7-0.6,1.3-0.8,2s-0.5,1.3-0.7,1.8c-0.2,0.6-0.4,1.2-0.6,1.7c-0.2,0.5-0.4,1-0.6,1.5c-0.2,0.5-0.3,0.9-0.4,1.3c-0.2,0.5-0.3,0.9-0.4,1.3c-0.2,0.6,0.1,1.3,0.7,1.5l9.4,3.6c0.6,0.2,1.3,0,1.5-0.6c0.1-0.3,0.3-0.6,0.5-1c0.1-0.3,0.3-0.7,0.5-1.1c0.2-0.4,0.4-0.8,0.6-1.3c0.2-0.4,0.5-0.9,0.7-1.4c0.3-0.5,0.6-1,0.8-1.5c0.3-0.5,0.6-1.1,0.9-1.7c0.3-0.6,0.7-1.2,1.1-1.8c0.2-0.3,0.4-0.6,0.6-0.9c0.2-0.3,0.4-0.6,0.6-0.9c0.4-0.6,0.8-1.3,1.2-1.9c0.9-1.3,1.7-2.6,2.7-3.8c0.2-0.3,0.5-0.6,0.7-1l0.4-0.5l0.4-0.5c0.5-0.6,1-1.3,1.5-1.9c0.5-0.6,1-1.2,1.6-1.9c0.3-0.3,0.5-0.6,0.8-0.9c0.3-0.3,0.5-0.6,0.8-0.9c0.3-0.3,0.5-0.6,0.8-0.9c0.3-0.3,0.5-0.6,0.8-0.9c0.5-0.6,1.1-1.1,1.6-1.6c0.5-0.5,1.1-1,1.6-1.5c0.5-0.5,1-1,1.5-1.4c0.5-0.5,1-0.9,1.5-1.3c0.5-0.4,1-0.8,1.4-1.2c0.5-0.4,0.9-0.7,1.3-1.1c0.4-0.3,0.8-0.6,1.2-0.9s0.7-0.6,1-0.8c0.1-0.1,0.3-0.3,0.5-0.4c0.2-0.1,0.3-0.2,0.5-0.4c0.3-0.2,0.6-0.5,0.9-0.6c0.6-0.4,0.7-1.2,0.2-1.8L48,99.4c-0.5-0.5-1.3-0.6-1.8-0.1c-0.2,0.2-0.5,0.5-0.8,0.8c-0.1,0.1-0.3,0.3-0.4,0.4c-0.1,0.1-0.3,0.3-0.5,0.5c-0.4,0.4-0.8,0.8-1.2,1.2c-0.4,0.4-0.9,0.9-1.3,1.3c-0.4,0.5-0.9,1-1.4,1.5c-0.5,0.5-1,1.1-1.5,1.6c-0.5,0.6-1,1.2-1.5,1.8c-0.5,0.6-1.1,1.3-1.6,1.9s-1.1,1.3-1.6,2c-0.5,0.7-1.1,1.4-1.6,2.1C32.4,114.9,32.2,115.2,31.9,115.6z"/><path fill="#000000" d="M12.5,159.4c-0.1,0.3-0.1,0.7-0.2,1.1c-0.1,0.4-0.2,0.8-0.2,1.2c-0.1,0.5-0.2,1-0.3,1.6c-0.1,0.6-0.2,1.2-0.3,1.8c0,0.3-0.1,0.6-0.2,1c0,0.3-0.1,0.7-0.1,1c-0.2,1.3-0.4,2.8-0.5,4.4c-0.1,0.8-0.1,1.6-0.2,2.4c-0.1,0.8-0.1,1.7-0.2,2.5c-0.1,1.7-0.2,3.4-0.2,5.2l0,0.7v0.7c0,0.5,0,0.9,0,1.3s0,0.9,0,1.3v0.7l0,0.7c0,0.9,0.1,1.8,0.1,2.7l0,0.7v0.2v0.2l0,0.3c0,0.4,0.1,0.9,0.1,1.3c0,0.4,0.1,0.8,0.1,1.3c0,0.4,0.1,0.9,0.1,1.3c0,0.4,0.1,0.9,0.1,1.3c0,0.2,0,0.4,0.1,0.7c0,0.2,0,0.4,0.1,0.6c0.1,0.8,0.2,1.7,0.3,2.5c0.1,0.8,0.2,1.6,0.4,2.3c0.1,0.8,0.2,1.5,0.4,2.2c0,0,0,0.1,0,0.2c0.1,0.6,0.6,1,1.2,1h3.3c0.7,0,1.3-0.6,1.2-1.3c0-0.2,0-0.4,0-0.6c0-0.7-0.1-1.4-0.1-2.1c0-0.7,0-1.5-0.1-2.2c0-0.8,0-1.5,0-2.3c0-0.2,0-0.4,0-0.6c0-0.2,0-0.4,0-0.6c0-0.4,0-0.8,0-1.2c0-0.4,0-0.8,0-1.2c0-0.4,0-0.8,0-1.3c0-0.4,0-0.9,0-1.3l0-0.3v-0.2v0c0,0,0,0,0,0v0v-0.1l0-0.6c0.1-0.8,0.1-1.7,0.2-2.5l0-0.6l0.1-0.6c0-0.4,0.1-0.8,0.1-1.3c0-0.4,0.1-0.8,0.1-1.3l0.1-0.6l0.1-0.6c0.2-1.6,0.5-3.2,0.8-4.8c0.1-0.8,0.3-1.5,0.4-2.3c0.2-0.7,0.3-1.4,0.5-2.1c0.3-1.4,0.7-2.7,1-3.9c0.1-0.3,0.1-0.6,0.2-0.9c0.1-0.3,0.2-0.6,0.2-0.8c0.2-0.5,0.3-1,0.5-1.5c0.1-0.5,0.3-0.9,0.4-1.3c0.1-0.4,0.3-0.8,0.4-1.2c0.1-0.4,0.2-0.7,0.3-1c0.2-0.7-0.2-1.4-0.8-1.6l-8.3-2.2C13.3,158.3,12.7,158.7,12.5,159.4z"/><path fill="#000000" d="M106.2,202.3c2.7,1.3,5.5,2,8.4,2c7.1,0,13.8-3.9,17.1-10.7c0.6-1.3,1.1-2.7,1.4-4.1l19.3-83.6l7.3-31.9l4.6-19.7c0.5-2.3-1.3-3.9-3.1-3.9c-1.1,0-2.1,0.5-2.7,1.8l-9.2,18.9L135.5,99l-38,77.8C92.8,186.3,96.8,197.7,106.2,202.3z M115.3,175.4c5.2,0,9.3,4.2,9.3,9.3c0,5.2-4.2,9.3-9.3,9.3c-5.2,0-9.3-4.2-9.3-9.3C105.9,179.6,110.1,175.4,115.3,175.4z"/></g></g><g></g><g></g><g></g><g></g><g></g><g></g><g></g><g></g><g></g><g></g><g></g><g></g><g></g><g></g><g></g></g></g>
</svg>