<?xml version="1.0" encoding="UTF-8" standalone="no" ?>
<!DOCTYPE svg PUBLIC "-//W3C//DTD SVG 1.1//EN" "http://www.w3.org/Graphics/SVG/1.1/DTD/svg11.dtd">
<svg xmlns="http://www.w3.org/2000/svg" xmlns:xlink="http://www.w3.org/1999/xlink" version="1.1" width="107" height="92" viewBox="0 0 107 92" xml:space="preserve">
<desc>Created with Fabric.js 3.6.6</desc>
<defs>
</defs>
<g transform="matrix(1.41 0 0 1.41 53.52 46.48)"  >
<g style=""   >
		<g transform="matrix(1 0 0 1 0 0)" id="path1"  >
<linearGradient id="SVGID_linearGradient30_6" gradientUnits="userSpaceOnUse" gradientTransform="matrix(1 0 0 1 0 0)"  x1="6" y1="5.5" x2="59" y2="60">
<stop offset="9.975670000000001%" style="stop-color:rgb(255,147,0);stop-opacity: 1"/>
<stop offset="100%" style="stop-color:rgb(245,178,0);stop-opacity: 1"/>
</linearGradient>
<path style="stroke: rgb(217,124,0); stroke-width: 1; stroke-dasharray: none; stroke-linecap: butt; stroke-dashoffset: 0; stroke-linejoin: miter; stroke-miterlimit: 4; fill: url(#SVGID_linearGradient30_6); fill-rule: nonzero; opacity: 1;"  transform=" translate(-38, -33)" d="M 9.742 65.075 c -4.649 0 -8.728 -3.838 -8.728 -8.213 c 0 -0.001 0.014 -5.811 0.014 -9.332 c 0 -1.348 0.13 -2.726 1.092 -2.726 c 0.555 0 1.032 0.544 1.579 1.361 c 0.714 1.063 1.738 1.621 3.13 1.709 c 0.084 0.005 0.166 0.008 0.245 0.008 c 1.001 0 1.584 -0.409 2.373 -1.216 c 1.232 -1.264 1.289 -3.468 1.353 -13.671 c -0.063 -10.194 -0.12 -12.397 -1.353 -13.661 c -0.789 -0.807 -1.373 -1.217 -2.375 -1.217 c -0.078 0 -0.159 0.003 -0.242 0.008 c -1.392 0.086 -2.416 0.645 -3.13 1.708 c -0.546 0.817 -1.024 1.362 -1.579 1.362 c -0.961 0 -1.091 -1.378 -1.091 -2.726 c 0 -3.52 -0.014 -9.331 -0.014 -9.331 c 0 -4.376 4.078 -8.214 8.728 -8.214 H 57.29 c 4.433 0 8.039 3.684 8.039 8.213 c 0 0 0.107 9.542 0.107 9.749 c 0 3.01 0.918 3.01 1.807 3.01 c 0.978 0 1.312 -0.513 1.774 -1.223 c 0.523 -0.804 1.175 -1.804 2.921 -1.804 c 3.013 0 3.023 4.756 3.04 11.956 l 0.007 2.276 l -0.007 2.074 c -0.016 7.2 -0.027 11.957 -3.04 11.957 c -1.747 0 -2.398 -1.001 -2.921 -1.806 c -0.462 -0.71 -0.797 -1.224 -1.774 -1.224 c -0.888 0 -1.807 0 -1.807 3.012 c 0 0.207 -0.107 9.754 -0.107 9.754 c 0 4.522 -3.606 8.207 -8.039 8.207 H 9.742 z" stroke-linecap="round" />
</g>
		<g transform="matrix(1 0 0 1 0 0)" id="path2"  >
<path style="stroke: rgb(217,124,0); stroke-width: 1; stroke-dasharray: none; stroke-linecap: butt; stroke-dashoffset: 0; stroke-linejoin: miter; stroke-miterlimit: 4; fill: rgb(248,244,120); fill-rule: nonzero; opacity: 1;"  transform=" translate(-38, -33)" d="M 57.29 1.424 c 4.162 0 7.539 3.454 7.539 7.713 c 0 0 0.107 9.542 0.107 9.749 c 0 3.113 0.975 3.51 2.307 3.51 c 2.568 0 1.824 -3.027 4.695 -3.027 c 2.762 0 2.502 5.62 2.547 13.531 c 0 0.035 0 0.066 0 0.1 s 0 0.064 0 0.102 c -0.045 7.908 0.215 13.531 -2.547 13.531 c -2.871 0 -2.127 -3.029 -4.695 -3.029 c -1.332 0 -2.307 0.4 -2.307 3.512 c 0 0.207 -0.107 9.748 -0.107 9.748 c 0 4.262 -3.377 7.713 -7.539 7.713 H 28.034 H 9.849 H 9.742 c -4.165 0 -8.228 -3.451 -8.228 -7.713 c 0 0 0.014 -5.811 0.014 -9.332 c 0 -1.685 0.254 -2.226 0.592 -2.226 c 0.364 0 0.825 0.634 1.163 1.14 c 0.587 0.873 1.59 1.809 3.515 1.93 c 0.095 0.006 0.187 0.009 0.276 0.009 c 1.239 0 1.941 -0.559 2.73 -1.366 c 1.385 -1.42 1.43 -3.541 1.495 -14.018 c -0.065 -10.475 -0.11 -12.593 -1.495 -14.013 c -0.79 -0.808 -1.492 -1.368 -2.733 -1.368 c -0.088 0 -0.179 0.003 -0.273 0.009 c -1.925 0.119 -2.928 1.055 -3.515 1.928 c -0.338 0.506 -0.799 1.141 -1.164 1.141 c -0.337 0 -0.591 -0.542 -0.591 -2.226 c 0 -3.521 -0.014 -9.332 -0.014 -9.332 c 0 -4.259 4.063 -7.713 8.228 -7.713 h 0.106 h 18.186 H 57.29 M 57.29 0.424 H 28.034 H 9.849 H 9.742 c -4.916 0 -9.228 4.071 -9.228 8.713 c 0 0.002 0.014 5.813 0.014 9.332 c 0 0.965 0 3.226 1.591 3.226 c 0.863 0 1.482 -0.818 1.995 -1.585 c 0.395 -0.588 1.111 -1.384 2.745 -1.485 c 0.072 -0.004 0.143 -0.007 0.211 -0.007 c 0.834 0 1.296 0.33 2.018 1.067 c 1.096 1.124 1.148 3.287 1.21 13.32 c -0.063 10.025 -0.114 12.188 -1.211 13.313 c -0.719 0.735 -1.181 1.064 -2.014 1.064 c -0.069 0 -0.14 -0.002 -0.214 -0.007 c -1.633 -0.103 -2.35 -0.899 -2.747 -1.489 c -0.511 -0.765 -1.129 -1.582 -1.993 -1.582 h 0 c -0.305 0 -1.05 0.116 -1.378 1.188 c -0.143 0.469 -0.213 1.136 -0.213 2.037 c 0 3.521 -0.014 9.329 -0.014 9.33 c 0 4.644 4.312 8.715 9.228 8.715 h 0.106 h 18.186 H 57.29 c 4.708 0 8.539 -3.908 8.539 -8.713 c 0.004 -0.379 0.107 -9.538 0.107 -9.748 c 0 -2.512 0.548 -2.512 1.307 -2.512 c 0.672 0 0.873 0.256 1.355 0.997 c 0.526 0.81 1.322 2.032 3.34 2.032 c 3.511 0 3.522 -4.955 3.54 -12.455 c 0.001 -0.671 0.003 -1.361 0.007 -2.07 v -0.107 v -0.1 c -0.004 -0.715 -0.006 -1.406 -0.007 -2.076 c -0.017 -7.5 -0.028 -12.455 -3.54 -12.455 c -2.018 0 -2.813 1.222 -3.34 2.031 c -0.482 0.74 -0.683 0.996 -1.355 0.996 c -0.759 0 -1.307 0 -1.307 -2.51 c 0 -0.21 -0.103 -9.371 -0.107 -9.76 C 65.829 4.333 61.999 0.424 57.29 0.424 L 57.29 0.424 z" stroke-linecap="round" />
</g>
</g>
</g>
</svg>