<?xml version="1.0" encoding="UTF-8" standalone="no"?>
<!-- Generator: Adobe Illustrator 15.0.0, SVG Export Plug-In . SVG Version: 6.00 Build 0)  -->

<svg
   version="1.1"
   id="Layer_1"
   x="0px"
   y="0px"
   width="76px"
   height="66px"
   viewBox="0 0 76 66"
   enable-background="new 0 0 76 66"
   xml:space="preserve"
   sodipodi:docname="looks.svg"
   inkscape:version="1.4 (86a8ad7, 2024-10-11)"
   xmlns:inkscape="http://www.inkscape.org/namespaces/inkscape"
   xmlns:sodipodi="http://sodipodi.sourceforge.net/DTD/sodipodi-0.dtd"
   xmlns:xlink="http://www.w3.org/1999/xlink"
   xmlns="http://www.w3.org/2000/svg"
   xmlns:svg="http://www.w3.org/2000/svg"><defs
   id="defs17"><linearGradient
     id="linearGradient43"
     inkscape:collect="always"><stop
       style="stop-color:#e755a1;stop-opacity:1;"
       offset="0.09170245"
       id="stop42" /><stop
       style="stop-color:#ab55a1;stop-opacity:0.32222223;"
       offset="0.84850508"
       id="stop43" /></linearGradient><linearGradient
     id="linearGradient41"
     inkscape:collect="always"><stop
       style="stop-color:#ab55a1;stop-opacity:1;"
       offset="0"
       id="stop40" /><stop
       style="stop-color:#e62ba1;stop-opacity:0.88518518;"
       offset="0.73365611"
       id="stop41" /></linearGradient><linearGradient
     id="linearGradient38"
     inkscape:collect="always"><stop
       style="stop-color:#ab55a1;stop-opacity:1;"
       offset="0"
       id="stop37" /><stop
       style="stop-color:#ab55a1;stop-opacity:0;"
       offset="0.01694915"
       id="stop38" /></linearGradient><linearGradient
     id="linearGradient26"
     inkscape:collect="always"><stop
       style="stop-color:#ab55a1;stop-opacity:1;"
       offset="0"
       id="stop27" /><stop
       style="stop-color:#ab55a1;stop-opacity:0;"
       offset="1"
       id="stop28" /></linearGradient><linearGradient
     id="linearGradient25"
     gradientUnits="userSpaceOnUse"
     x1="10.758085"
     y1="60.767139"
     x2="46.61837"
     y2="7.1474776"
     gradientTransform="matrix(1 0 0 -1 0 67)">
			<stop
   offset="0"
   style="stop-color:#ff00ff;stop-opacity:0.50196081;"
   id="stop24" /><stop
   offset="0.98414439"
   style="stop-color:#7e4bff;stop-opacity:0.17254902;"
   id="stop26" />
			<stop
   offset="1"
   style="stop-color:#7c4dff;stop-opacity:0.16862746;"
   id="stop25" />
		</linearGradient><linearGradient
     id="linearGradient23"
     gradientUnits="userSpaceOnUse"
     x1="10.758085"
     y1="60.767139"
     x2="46.61837"
     y2="7.1474776"
     gradientTransform="matrix(1 0 0 -1 0 67)">
			<stop
   offset="0"
   style="stop-color:#ff00ff;stop-opacity:0.50196081;"
   id="stop22" />
			<stop
   offset="1"
   style="stop-color:#7c4dff;stop-opacity:0.16862746;"
   id="stop23" />
		</linearGradient><linearGradient
     id="linearGradient19"
     gradientUnits="userSpaceOnUse"
     x1="10.758085"
     y1="60.767139"
     x2="46.61837"
     y2="7.1474776"
     gradientTransform="matrix(1 0 0 -1 0 67)">
			<stop
   offset="0"
   style="stop-color:#ff00ff;stop-opacity:0.50196081;"
   id="stop18" />
			<stop
   offset="1"
   style="stop-color:#da82ff;stop-opacity:0.16862746;"
   id="stop19" />
		</linearGradient><linearGradient
     inkscape:collect="always"
     xlink:href="#linearGradient26"
     id="linearGradient28"
     x1="3.5860286"
     y1="2.9883571"
     x2="70.09832"
     y2="64.633896"
     gradientUnits="userSpaceOnUse" /><linearGradient
     inkscape:collect="always"
     xlink:href="#linearGradient26"
     id="linearGradient29"
     x1="3.5860286"
     y1="2.9883571"
     x2="70.09832"
     y2="64.633896"
     gradientUnits="userSpaceOnUse" /><linearGradient
     inkscape:collect="always"
     xlink:href="#linearGradient41"
     id="linearGradient30"
     x1="6.6597672"
     y1="7.5989652"
     x2="70.695992"
     y2="40.385513"
     gradientUnits="userSpaceOnUse" /><linearGradient
     inkscape:collect="always"
     xlink:href="#linearGradient43"
     id="linearGradient31"
     x1="23.992237"
     y1="32.615784"
     x2="25.18758"
     y2="48.069859"
     gradientUnits="userSpaceOnUse" /><linearGradient
     inkscape:collect="always"
     xlink:href="#linearGradient38"
     id="linearGradient33"
     x1="3.5860286"
     y1="2.9883571"
     x2="70.09832"
     y2="64.633896"
     gradientUnits="userSpaceOnUse" /><linearGradient
     inkscape:collect="always"
     xlink:href="#linearGradient26"
     id="linearGradient40"
     gradientUnits="userSpaceOnUse"
     x1="3.5860286"
     y1="2.9883571"
     x2="70.09832"
     y2="64.633896" /></defs><sodipodi:namedview
   id="namedview17"
   pagecolor="#ffffff"
   bordercolor="#111111"
   borderopacity="1"
   inkscape:showpageshadow="0"
   inkscape:pageopacity="0"
   inkscape:pagecheckerboard="1"
   inkscape:deskcolor="#d1d1d1"
   inkscape:zoom="11.712121"
   inkscape:cx="38.037516"
   inkscape:cy="33"
   inkscape:window-width="1920"
   inkscape:window-height="1017"
   inkscape:window-x="-8"
   inkscape:window-y="-8"
   inkscape:window-maximized="1"
   inkscape:current-layer="g17" />
<g
   id="Layer_2"
   style="fill:url(#linearGradient28);fill-opacity:1;opacity:1">
	<g
   id="g8"
   style="fill:url(#linearGradient28);fill-opacity:1">
		<g
   id="g3"
   style="fill:url(#linearGradient28);fill-opacity:1">
			<path
   fill="#FF61F8"
   d="M9.727,65.15C5.078,65.15,1,61.312,1,56.938c0,0,0.014-5.81,0.014-9.332c0-1.348,0.13-2.725,1.092-2.725     c0.554,0,1.032,0.544,1.58,1.36c0.712,1.062,1.736,1.622,3.13,1.71c0.083,0.005,0.163,0.008,0.242,0.008     c1.005,0,1.588-0.41,2.375-1.216c1.233-1.265,1.289-3.47,1.352-13.671c-0.063-10.194-0.119-12.397-1.352-13.662     c-0.787-0.807-1.371-1.217-2.375-1.217c-0.078,0-0.159,0.003-0.242,0.008c-1.393,0.086-2.416,0.645-3.129,1.708     c-0.547,0.817-1.025,1.362-1.58,1.362c-0.961,0-1.091-1.378-1.091-2.726C1.014,15.025,1,9.214,1,9.214C1,4.838,5.078,1,9.727,1     h47.548c4.434,0,8.039,3.684,8.039,8.213c0,0,0.105,9.542,0.105,9.749c0,3.01,0.919,3.01,1.811,3.01     c0.979,0,1.312-0.513,1.772-1.223c0.521-0.804,1.177-1.804,2.921-1.804c3.014,0,3.021,4.756,3.038,11.955l0.009,2.277     l-0.009,2.076c-0.019,7.199-0.024,11.956-3.038,11.956c-1.744,0-2.396-1.001-2.922-1.807c-0.462-0.711-0.796-1.227-1.771-1.227     c-0.892,0-1.811,0-1.811,3.016c0,0.207-0.105,9.752-0.105,9.752c0,4.521-3.605,8.209-8.039,8.209H9.727V65.15z"
   id="path1"
   style="fill:url(#linearGradient28);fill-opacity:1" />
			<g
   id="g2"
   style="fill:url(#linearGradient28);fill-opacity:1">
				<path
   fill="#AB55A1"
   d="M57.275,1.5c4.164,0,7.539,3.454,7.539,7.713c0,0,0.104,9.542,0.104,9.749      c0,3.113,0.979,3.51,2.312,3.51c2.565,0,1.824-3.027,4.692-3.027c2.763,0,2.5,5.62,2.548,13.531c0,0.035,0,0.066,0,0.1      c0,0.034,0,0.064,0,0.101c-0.048,7.909,0.215,13.532-2.548,13.532c-2.868,0-2.127-3.029-4.692-3.029      c-1.332,0-2.312,0.399-2.312,3.512c0,0.207-0.104,9.748-0.104,9.748c0,4.264-3.375,7.713-7.539,7.713H28.018H9.834H9.727      c-4.164,0-8.227-3.449-8.227-7.713c0,0,0.014-5.811,0.014-9.332c0-1.685,0.255-2.226,0.592-2.226      c0.364,0,0.825,0.634,1.164,1.14c0.586,0.873,1.588,1.811,3.514,1.933c0.094,0.006,0.185,0.009,0.273,0.009      c1.242,0,1.945-0.562,2.732-1.367c1.385-1.42,1.43-3.539,1.494-14.017C11.219,22.6,11.174,20.481,9.789,19.062      c-0.788-0.808-1.49-1.368-2.733-1.368c-0.088,0-0.179,0.003-0.273,0.009c-1.926,0.119-2.928,1.055-3.514,1.928      c-0.339,0.507-0.8,1.141-1.165,1.141c-0.337,0-0.591-0.542-0.591-2.226c0-3.521-0.014-9.332-0.014-9.332      C1.5,4.954,5.562,1.5,9.727,1.5h0.107h18.184H57.275 M57.275,0.5H28.018H9.834H9.727C4.812,0.5,0.5,4.571,0.5,9.213      c0,0.002,0.014,5.812,0.014,9.332c0,0.965,0,3.226,1.591,3.226c0.863,0,1.482-0.818,1.996-1.584      c0.395-0.589,1.11-1.385,2.744-1.486c0.073-0.004,0.143-0.007,0.211-0.007c0.836,0,1.298,0.329,2.017,1.066      c1.097,1.125,1.148,3.288,1.21,13.322c-0.062,10.023-0.113,12.188-1.21,13.312c-0.718,0.733-1.18,1.062-2.017,1.062      c-0.068,0-0.139-0.002-0.212-0.007C5.21,47.35,4.496,46.553,4.1,45.963c-0.513-0.766-1.132-1.582-1.995-1.582      c-0.305,0-1.05,0.115-1.378,1.188c-0.144,0.472-0.213,1.138-0.213,2.037c0,3.521-0.014,9.33-0.014,9.33      c0,4.646,4.312,8.715,9.227,8.715h0.107h18.184h29.257c4.709,0,8.539-3.906,8.539-8.713c0.004-0.379,0.105-9.537,0.105-9.748      c0-2.513,0.551-2.513,1.311-2.513c0.672,0,0.873,0.257,1.354,0.997c0.525,0.811,1.323,2.033,3.341,2.033      c3.511,0,3.521-4.955,3.538-12.455c0.001-0.671,0.003-1.361,0.008-2.071v-0.106v-0.1c-0.005-0.716-0.007-1.407-0.008-2.078      c-0.02-7.5-0.027-12.454-3.538-12.454c-2.018,0-2.812,1.222-3.341,2.031c-0.48,0.74-0.684,0.996-1.354,0.996      c-0.76,0-1.311,0-1.311-2.51c0-0.21-0.104-9.371-0.105-9.76C65.814,4.409,61.982,0.5,57.275,0.5L57.275,0.5z"
   id="path2"
   style="fill:url(#linearGradient28);fill-opacity:1" />
			</g>
		</g>
		
			<linearGradient
   id="SVGID_1_"
   gradientUnits="userSpaceOnUse"
   x1="37.9849"
   y1="-541.7759"
   x2="37.9849"
   y2="-489.4202"
   gradientTransform="matrix(1 0 0 -1 0 -478)"
   style="fill:url(#linearGradient28);fill-opacity:1.0">
			<stop
   offset="0.1273"
   style="stop-color:#FFFFFF;stop-opacity:0.33;fill:url(#linearGradient28);fill-opacity:1.0"
   id="stop3" />
			<stop
   offset="0.2667"
   style="stop-color:#FFFFFF;stop-opacity:0.16;fill:url(#linearGradient28);fill-opacity:1.0"
   id="stop4" />
			<stop
   offset="0.5394"
   style="stop-color:#FFFFFF;stop-opacity:0;fill:url(#linearGradient28);fill-opacity:1.0"
   id="stop5" />
		</linearGradient>
		<path
   opacity="0.33"
   fill="url(#SVGID_1_)"
   enable-background="new    "
   d="M9.727,63.659c-3.797,0-7.254-3.203-7.254-6.722    c0,0,0.012-5.812,0.012-9.332c0-0.185,0.004-0.342,0.008-0.485c0.973,1.427,2.396,2.208,4.232,2.319    c0.115,0.008,0.227,0.011,0.334,0.011c1.662,0,2.6-0.82,3.418-1.658c1.701-1.739,1.713-3.976,1.779-14.709    c-0.066-10.749-0.078-12.984-1.779-14.724C9.658,17.521,8.721,16.7,7.059,16.7c-0.107,0-0.219,0.004-0.334,0.01    c-1.838,0.113-3.26,0.895-4.232,2.32c-0.004-0.143-0.008-0.303-0.008-0.485c0-3.521-0.012-9.332-0.012-9.332    c0-3.516,3.457-6.719,7.254-6.719h47.548c3.621,0,6.57,3.016,6.57,6.719c0.031,3.298,0.104,9.558,0.105,9.749    c0,3.157,0.979,4.504,3.275,4.504c1.77,0,2.479-1.093,3.002-1.893c0.475-0.732,0.738-1.135,1.692-1.135    c1.543,0,1.554,5.079,1.565,10.454c0,0.675,0.011,2.283,0.011,2.283c-0.009,0.71-0.011,1.409-0.011,2.085    c-0.014,5.374-0.022,10.453-1.565,10.453c-0.954,0-1.221-0.404-1.692-1.135c-0.521-0.803-1.232-1.895-3.002-1.895    c-2.299,0-3.275,1.348-3.275,4.506c-0.002,0.188-0.074,6.449-0.105,9.733c0,3.72-2.949,6.732-6.57,6.732H9.727V63.659z"
   id="path5"
   style="fill:url(#linearGradient28);fill-opacity:1" />
		<g
   id="g6"
   style="fill:url(#linearGradient28);fill-opacity:1">
			<path
   opacity="0.69"
   fill="#FFFFFF"
   enable-background="new    "
   d="M9.727,3.897h47.548c3.621,0,6.57,3.014,6.57,6.719     c0.031,3.296,0.104,9.558,0.105,9.75c0,3.154,0.979,4.504,3.275,4.504c1.77,0,2.479-1.096,3.002-1.895     c0.475-0.731,0.738-1.135,1.692-1.135c1.543,0,1.554,5.077,1.565,10.453c0,0.393,0.002,1.102,0.005,1.625     c0-0.252,0-0.491,0.006-0.743c0,0-0.011-1.608-0.011-2.283c-0.014-5.375-0.022-10.454-1.565-10.454     c-0.954,0-1.221,0.402-1.692,1.135c-0.521,0.8-1.232,1.893-3.002,1.893c-2.299,0-3.275-1.347-3.275-4.504     c-0.002-0.191-0.074-6.451-0.105-9.749c0-3.703-2.949-6.719-6.57-6.719H9.727c-3.797,0-7.254,3.203-7.254,6.719     c0,0,0,0.528,0.002,1.355C2.506,7.071,5.947,3.897,9.727,3.897z"
   id="path6"
   style="fill:url(#linearGradient28);fill-opacity:1" />
		</g>
		<g
   id="g7"
   style="fill:url(#linearGradient28);fill-opacity:1">
			<path
   opacity="0.69"
   fill="#FFFFFF"
   enable-background="new    "
   d="M2.484,49.009c0-0.183,0.004-0.343,0.008-0.485     c0.973,1.428,2.396,2.207,4.232,2.319c0.115,0.009,0.227,0.013,0.334,0.013c1.662,0,2.6-0.817,3.418-1.66     c1.701-1.736,1.713-3.977,1.779-14.711c-0.002-0.236-0.004-0.471-0.006-0.699c-0.061,10.13-0.111,12.308-1.773,14.01     C9.658,48.63,8.721,49.45,7.059,49.45c-0.107,0-0.219-0.003-0.334-0.011c-1.836-0.111-3.26-0.896-4.232-2.319     c-0.004,0.144-0.008,0.304-0.008,0.485c0,3.521-0.012,9.332-0.012,9.332c0,0.017,0.002,0.029,0.002,0.049     C2.479,55.059,2.484,51.473,2.484,49.009z"
   id="path7"
   style="fill:url(#linearGradient28);fill-opacity:1" />
		</g>
		
			<linearGradient
   id="SVGID_2_"
   gradientUnits="userSpaceOnUse"
   x1="42.7871"
   y1="-477.9385"
   x2="37.311"
   y2="-502.24"
   gradientTransform="matrix(1 0 0 -1 0 -478)"
   style="fill:url(#linearGradient28);fill-opacity:1.0">
			<stop
   offset="0"
   style="stop-color:#FFFFFF;stop-opacity:0.75;fill:url(#linearGradient28);fill-opacity:1.0"
   id="stop7" />
			<stop
   offset="1"
   style="stop-color:#FFFFFF;stop-opacity:0.17;fill:url(#linearGradient28);fill-opacity:1.0"
   id="stop8" />
		</linearGradient>
		<path
   opacity="0.5"
   fill="url(#SVGID_2_)"
   enable-background="new    "
   d="M2.492,19.03c0.973-1.426,2.395-2.207,4.232-2.32    c0.115-0.006,0.227-0.01,0.334-0.01c1.662,0,2.6,0.82,3.418,1.659c1.607,1.645,1.707,6.122,1.768,15.423    c18.041,4.051,26.213-1.793,45.279-1.793c11.385,0,8.021,0.692,15.973,1.907c0.004-0.244,0.004-0.479,0.006-0.724    c0,0-0.01-1.608-0.01-2.283c-0.014-5.375-0.023-10.454-1.566-10.454c-0.955,0-1.221,0.402-1.693,1.135    c-0.521,0.8-1.231,1.893-3.002,1.893c-2.299,0-3.274-1.347-3.274-4.504c-0.002-0.191-0.074-6.451-0.104-9.749    c0-3.703-2.949-6.719-6.57-6.719H9.727c-3.797,0-7.254,3.203-7.254,6.719c0,0,0.012,5.811,0.012,9.332    C2.484,18.728,2.488,18.888,2.492,19.03z"
   id="path8"
   style="fill:url(#linearGradient28);fill-opacity:1" />
	</g>
</g>
<g
   id="Layer_3">
	<g
   id="g17">
		<g
   id="g11"
   style="fill-opacity:1;fill:url(#linearGradient29);opacity:1">
			<path
   fill="#FF61F8"
   d="M9.727,65.15C5.078,65.15,1,61.312,1,56.938c0,0,0.014-5.81,0.014-9.332c0-1.348,0.13-2.725,1.092-2.725     c0.554,0,1.032,0.544,1.58,1.36c0.712,1.062,1.736,1.622,3.13,1.71c0.083,0.005,0.163,0.008,0.242,0.008     c1.005,0,1.588-0.41,2.375-1.216c1.233-1.265,1.289-3.47,1.352-13.671c-0.063-10.194-0.119-12.397-1.352-13.662     c-0.787-0.807-1.371-1.217-2.375-1.217c-0.078,0-0.159,0.003-0.242,0.008c-1.393,0.086-2.416,0.645-3.129,1.708     c-0.547,0.817-1.025,1.362-1.58,1.362c-0.961,0-1.091-1.378-1.091-2.726C1.014,15.025,1,9.214,1,9.214C1,4.838,5.078,1,9.727,1     h47.548c4.434,0,8.039,3.684,8.039,8.213c0,0,0.107,9.542,0.107,9.749c0,3.01,0.919,3.01,1.809,3.01     c0.979,0,1.312-0.513,1.774-1.223c0.522-0.804,1.175-1.804,2.921-1.804c3.012,0,3.021,4.756,3.038,11.955l0.007,2.277     l-0.007,2.076c-0.017,7.199-0.026,11.956-3.038,11.956c-1.746,0-2.398-1.001-2.922-1.807c-0.462-0.711-0.796-1.225-1.773-1.225     c-0.89,0-1.809,0-1.809,3.014c0,0.207-0.107,9.752-0.107,9.752c0,4.523-3.605,8.209-8.039,8.209H9.727V65.15z"
   id="path9"
   style="fill-opacity:1;fill:url(#linearGradient29)" />
			<g
   id="g10"
   style="fill-opacity:1;fill:url(#linearGradient29)">
				<path
   fill="#AB55A1"
   d="M57.275,1.5c4.164,0,7.539,3.454,7.539,7.713c0,0,0.106,9.542,0.106,9.749c0,3.113,0.978,3.51,2.31,3.51      c2.567,0,1.824-3.027,4.694-3.027c2.761,0,2.5,5.62,2.546,13.531c0,0.035,0,0.066,0,0.1c0,0.034,0,0.064,0,0.101      c-0.046,7.909,0.215,13.532-2.546,13.532c-2.87,0-2.127-3.029-4.694-3.029c-1.332,0-2.31,0.399-2.31,3.512      c0,0.207-0.106,9.748-0.106,9.748c0,4.262-3.375,7.713-7.539,7.713H28.018H9.834H9.727c-4.164,0-8.227-3.451-8.227-7.713      c0,0,0.014-5.811,0.014-9.332c0-1.685,0.255-2.226,0.592-2.226c0.364,0,0.825,0.634,1.164,1.14      c0.586,0.873,1.588,1.809,3.514,1.931c0.094,0.006,0.185,0.009,0.273,0.009c1.242,0,1.945-0.561,2.732-1.367      c1.385-1.42,1.43-3.541,1.494-14.017C11.219,22.6,11.174,20.481,9.789,19.062c-0.788-0.808-1.49-1.368-2.733-1.368      c-0.088,0-0.179,0.003-0.273,0.009c-1.926,0.119-2.928,1.055-3.514,1.928c-0.339,0.507-0.8,1.141-1.165,1.141      c-0.337,0-0.591-0.542-0.591-2.226c0-3.521-0.014-9.332-0.014-9.332C1.5,4.954,5.562,1.5,9.727,1.5h0.107h18.184H57.275       M57.275,0.5H28.018H9.834H9.727C4.812,0.5,0.5,4.571,0.5,9.213c0,0.002,0.014,5.812,0.014,9.332c0,0.965,0,3.226,1.591,3.226      c0.863,0,1.482-0.818,1.996-1.584c0.395-0.589,1.11-1.385,2.744-1.486c0.073-0.004,0.143-0.007,0.211-0.007      c0.836,0,1.298,0.329,2.017,1.066c1.097,1.125,1.148,3.288,1.21,13.322c-0.062,10.023-0.113,12.188-1.21,13.312      c-0.718,0.735-1.18,1.064-2.017,1.064c-0.068,0-0.139-0.002-0.212-0.007C5.21,47.35,4.496,46.553,4.1,45.963      c-0.513-0.766-1.132-1.582-1.995-1.582c-0.305,0-1.05,0.115-1.378,1.188c-0.144,0.47-0.213,1.136-0.213,2.037      c0,3.521-0.014,9.33-0.014,9.33c0,4.644,4.312,8.715,9.227,8.715h0.107h18.184h29.257c4.709,0,8.539-3.908,8.539-8.713      c0.004-0.379,0.107-9.537,0.107-9.748c0-2.513,0.549-2.513,1.309-2.513c0.672,0,0.873,0.257,1.354,0.997      c0.526,0.811,1.323,2.033,3.341,2.033c3.51,0,3.521-4.955,3.538-12.455c0.001-0.671,0.003-1.361,0.007-2.071v-0.106v-0.1      c-0.004-0.716-0.006-1.407-0.007-2.078c-0.019-7.5-0.028-12.454-3.538-12.454c-2.018,0-2.812,1.222-3.341,2.031      c-0.481,0.74-0.683,0.996-1.354,0.996c-0.76,0-1.309,0-1.309-2.51c0-0.21-0.104-9.371-0.107-9.76      C65.814,4.409,61.982,0.5,57.275,0.5L57.275,0.5z"
   id="path10"
   style="fill-opacity:1;fill:url(#linearGradient29)" />
			</g>
		</g>
		
			<linearGradient
   id="SVGID_3_"
   gradientUnits="userSpaceOnUse"
   x1="59.852524"
   y1="12.953428"
   x2="6.2328591"
   y2="61.877102"
   gradientTransform="matrix(1,0,0,-1,0,67)"
   spreadMethod="pad">
			<stop
   offset="0.12729999"
   style="stop-color:#bdffff;stop-opacity:0.5;"
   id="stop11" />
			<stop
   offset="0.56560349"
   style="stop-color:#6e68ff;stop-opacity:0.16000001;"
   id="stop12" />
			<stop
   offset="0.68306834"
   style="stop-color:#ffbaff;stop-opacity:0;"
   id="stop13" />
		</linearGradient>
		<path
   opacity="0.33"
   fill="url(#SVGID_3_)"
   enable-background="new    "
   d="m 9.727,63.659 c -3.797,0 -7.254,-3.203 -7.254,-6.722 0,0 0.012,-5.811 0.012,-9.332 0,-0.183 0.004,-0.342 0.008,-0.485 0.973,1.427 2.396,2.208 4.232,2.319 0.115,0.008 0.227,0.011 0.334,0.011 1.662,0 2.6,-0.82 3.418,-1.658 1.701,-1.739 1.713,-3.976 1.779,-14.709 C 12.19,22.334 12.178,20.099 10.477,18.359 9.658,17.521 8.721,16.7 7.059,16.7 6.952,16.7 6.84,16.704 6.725,16.71 4.887,16.823 3.465,17.605 2.493,19.03 2.489,18.887 2.485,18.727 2.485,18.545 2.485,15.024 2.473,9.213 2.473,9.213 2.473,5.697 5.93,2.494 9.727,2.494 h 47.548 c 3.621,0 6.57,3.016 6.57,6.719 0.033,3.298 0.105,9.558 0.107,9.749 0,3.157 0.979,4.504 3.277,4.504 1.768,0 2.479,-1.093 3.002,-1.893 0.473,-0.732 0.738,-1.135 1.692,-1.135 1.543,0 1.554,5.079 1.566,10.454 0,0.675 0.01,2.283 0.01,2.283 -0.008,0.71 -0.01,1.409 -0.01,2.085 -0.015,5.374 -0.023,10.453 -1.566,10.453 -0.954,0 -1.221,-0.404 -1.692,-1.135 -0.523,-0.803 -1.234,-1.895 -3.002,-1.895 -2.299,0 -3.277,1.348 -3.277,4.506 -0.002,0.188 -0.074,6.449 -0.107,9.735 0,3.718 -2.949,6.732 -6.57,6.732 H 9.727 Z"
   id="path13"
   sodipodi:nodetypes="ccsccscccsccscssccscscccscsccscc"
   style="fill-opacity:1;fill:url(#linearGradient30);opacity:1" />
		
			<linearGradient
   id="SVGID_4_"
   gradientUnits="userSpaceOnUse"
   x1="10.758085"
   y1="60.767139"
   x2="46.61837"
   y2="7.1474776"
   gradientTransform="matrix(1 0 0 -1 0 67)">
			<stop
   offset="0"
   style="stop-color:#ff00ff;stop-opacity:0.50196081;"
   id="stop14" />
			<stop
   offset="1"
   style="stop-color:#7c4dff;stop-opacity:0.16862746;"
   id="stop15" />
		</linearGradient>
		<path
   opacity="0.76"
   fill="url(#SVGID_4_)"
   enable-background="new    "
   d="M2.492,19.03c0.973-1.426,2.395-2.207,4.232-2.32    c0.115-0.006,0.227-0.01,0.334-0.01c1.662,0,2.6,0.82,3.418,1.659c1.607,1.645,1.707,6.122,1.768,15.423    c18.041,4.051,26.213-1.793,45.279-1.793c11.385,0,8.021,0.692,15.973,1.907c0.004-0.244,0.004-0.477,0.006-0.722    c0,0-0.01-1.608-0.01-2.283c-0.014-5.375-0.023-10.454-1.566-10.454c-0.955,0-1.221,0.402-1.693,1.135    c-0.522,0.8-1.233,1.893-3.002,1.893c-2.299,0-3.276-1.347-3.276-4.504c-0.002-0.191-0.074-6.451-0.106-9.749    c0-3.703-2.949-6.719-6.57-6.719H9.727c-3.797,0-7.254,3.203-7.254,6.719c0,0,0.012,5.811,0.012,9.332    C2.484,18.728,2.488,18.888,2.492,19.03z"
   id="path15"
   style="fill-opacity:1;fill:url(#linearGradient31);opacity:1" />
		<path
   opacity="0.69"
   fill="#FFFFFF"
   enable-background="new    "
   d="M2.484,49.009c0-0.183,0.004-0.343,0.008-0.485    c0.973,1.426,2.396,2.207,4.232,2.319c0.115,0.009,0.227,0.013,0.334,0.013c1.662,0,2.6-0.819,3.418-1.66    c1.701-1.738,1.713-3.977,1.779-14.711c-0.002-0.238-0.004-0.471-0.006-0.701c-0.061,10.13-0.111,12.308-1.773,14.01    C9.658,48.63,8.721,49.45,7.059,49.45c-0.107,0-0.219-0.003-0.334-0.011c-1.836-0.111-3.26-0.894-4.232-2.319    c-0.004,0.144-0.008,0.304-0.008,0.485c0,3.521-0.012,9.332-0.012,9.332c0,0.017,0.002,0.031,0.002,0.049    C2.479,55.059,2.484,51.473,2.484,49.009z"
   id="path16"
   style="fill-opacity:1;fill:url(#linearGradient40);opacity:1" />
		<path
   opacity="0.69"
   fill="#FFFFFF"
   enable-background="new    "
   d="M9.727,3.897h47.548c3.621,0,6.57,3.014,6.57,6.719    c0.033,3.296,0.105,9.558,0.107,9.75c0,3.154,0.979,4.504,3.277,4.504c1.768,0,2.479-1.096,3.002-1.895    c0.473-0.731,0.738-1.135,1.692-1.135c1.543,0,1.554,5.077,1.566,10.453c0,0.393,0.002,1.102,0.004,1.625    c0-0.252,0-0.491,0.006-0.743c0,0-0.01-1.608-0.01-2.283c-0.015-5.375-0.023-10.454-1.566-10.454    c-0.954,0-1.221,0.402-1.692,1.135c-0.523,0.8-1.234,1.893-3.002,1.893c-2.299,0-3.277-1.347-3.277-4.504    c-0.002-0.191-0.074-6.451-0.107-9.749c0-3.703-2.949-6.719-6.57-6.719H9.727c-3.797,0-7.254,3.203-7.254,6.719    c0,0,0,0.528,0.002,1.355C2.506,7.071,5.947,3.897,9.727,3.897z"
   id="path17"
   style="fill-opacity:1;fill:url(#linearGradient33);opacity:1" />
	</g>
</g>
</svg>
