<?xml version="1.0" encoding="UTF-8" standalone="no"?>
<!-- Generator: Adobe Illustrator 15.0.0, SVG Export Plug-In . SVG Version: 6.00 Build 0)  -->

<svg
   version="1.1"
   id="Layer_1"
   x="0px"
   y="0px"
   width="51px"
   height="57px"
   viewBox="0 0 51 57"
   enable-background="new 0 0 51 57"
   xml:space="preserve"
   sodipodi:docname="MotionOn.svg"
   inkscape:version="1.4 (86a8ad7, 2024-10-11)"
   xmlns:inkscape="http://www.inkscape.org/namespaces/inkscape"
   xmlns:sodipodi="http://sodipodi.sourceforge.net/DTD/sodipodi-0.dtd"
   xmlns="http://www.w3.org/2000/svg"
   xmlns:svg="http://www.w3.org/2000/svg"><defs
   id="defs12" /><sodipodi:namedview
   id="namedview12"
   pagecolor="#ffffff"
   bordercolor="#111111"
   borderopacity="1"
   inkscape:showpageshadow="0"
   inkscape:pageopacity="0"
   inkscape:pagecheckerboard="1"
   inkscape:deskcolor="#d1d1d1"
   inkscape:zoom="1"
   inkscape:cx="25.5"
   inkscape:cy="28.5"
   inkscape:window-width="1920"
   inkscape:window-height="1017"
   inkscape:window-x="-8"
   inkscape:window-y="-8"
   inkscape:window-maximized="1"
   inkscape:current-layer="g12" />
<g
   id="g12">
	
		<linearGradient
   id="SVGID_1_"
   gradientUnits="userSpaceOnUse"
   x1="25.5566"
   y1="608.415"
   x2="25.5566"
   y2="575.5817"
   gradientTransform="matrix(1 0 0 1 0 -554)">
		<stop
   offset="0"
   style="stop-color:#FFFFFF"
   id="stop1" />
		<stop
   offset="0.0896"
   style="stop-color:#FFFFFF;stop-opacity:0.9104"
   id="stop2" />
		<stop
   offset="1"
   style="stop-color:#FFFFFF;stop-opacity:0"
   id="stop3" />
	</linearGradient>
	<path
   opacity="0.75"
   fill="url(#SVGID_1_)"
   enable-background="new    "
   d="M10.556,54.5c-4.411,0-8-3.589-8-8v-30   c0-4.411,3.589-8,8-8h30c4.41,0,8,3.589,8,8v30c0,4.411-3.59,8-8,8H10.556z"
   id="path3" />
	
		<linearGradient
   id="SVGID_2_"
   gradientUnits="userSpaceOnUse"
   x1="25.5566"
   y1="608.415"
   x2="25.5566"
   y2="575.5817"
   gradientTransform="matrix(1 0 0 1 0 -554)">
		<stop
   offset="0"
   style="stop-color:#FFFFFF"
   id="stop4" />
		<stop
   offset="0.0896"
   style="stop-color:#FFFFFF;stop-opacity:0.9104"
   id="stop5" />
		<stop
   offset="1"
   style="stop-color:#FFFFFF;stop-opacity:0"
   id="stop6" />
	</linearGradient>
	<path
   opacity="0.75"
   fill="url(#SVGID_2_)"
   enable-background="new    "
   d="M10.556,54.5c-4.411,0-8-3.589-8-8v-30   c0-4.411,3.589-8,8-8h30c4.41,0,8,3.589,8,8v30c0,4.411-3.59,8-8,8H10.556z"
   id="path6" />
	<g
   id="g9">
		<path
   fill="#3D759B"
   d="M48.057,46.5c0,4.125-3.375,7.5-7.5,7.5h-30c-4.125,0-7.5-3.375-7.5-7.5v-30c0-4.125,3.375-7.5,7.5-7.5h30    c4.125,0,7.5,3.375,7.5,7.5V46.5z"
   id="path7" />
		<g
   id="g8">
			<path
   fill="#4B8CE3"
   d="M40.557,9.5h-30c-3.86,0-7,3.14-7,7v30c0,3.859,3.14,7,7,7h30c3.859,0,7-3.141,7-7v-30     C47.557,12.64,44.416,9.5,40.557,9.5z"
   id="path8" />
		</g>
		<path
   fill-opacity="0.2"
   d="M40.557,9.5h-30c-3.86,0-7,3.14-7,7v30c0,3.859,3.14,7,7,7h30c3.859,0,7-3.141,7-7v-30    C47.557,12.64,44.416,9.5,40.557,9.5z M46.057,46.5c0,3.032-2.468,5.5-5.5,5.5h-30c-3.033,0-5.5-2.468-5.5-5.5v-30    c0-3.033,2.467-5.5,5.5-5.5h30c3.032,0,5.5,2.467,5.5,5.5V46.5z"
   id="path9" />
	</g>
	
		<linearGradient
   id="SVGID_3_"
   gradientUnits="userSpaceOnUse"
   x1="26.1016"
   y1="594.373"
   x2="26.1016"
   y2="574.0558"
   gradientTransform="matrix(1 0 0 1 0 -554)">
		<stop
   offset="0"
   style="stop-color:#FFFFFF"
   id="stop9" />
		<stop
   offset="0.0896"
   style="stop-color:#FFFFFF;stop-opacity:0.9104"
   id="stop10" />
		<stop
   offset="1"
   style="stop-color:#FFFFFF;stop-opacity:0"
   id="stop11" />
	</linearGradient>
	<polyline
   opacity="0.3"
   fill="url(#SVGID_3_)"
   enable-background="new    "
   points="30.057,41.5 20.849,41.5 27.346,35 11.556,35    11.556,27.011 26.346,27.001 19.849,20.5 30.764,20.5 40.646,30.491  "
   id="polyline11" />
	<polygon
   fill="#3D759B"
   points="30.557,21 21.056,21 27.551,27.5 12.056,27.511 12.056,34.5 28.551,34.5 22.056,41 30.057,41    40.057,30.5  "
   id="polygon11"
   style="fill:#ffffff" />
	<polygon
   fill="#FFFFFF"
   points="23.263,40.5 29.757,34 12.556,34 12.556,29.01 29.757,28.999 23.263,22.5 29.85,22.5 38.85,31.5    29.85,40.5  "
   id="polygon12" />
</g>
<path
   style="fill:#fce94f;stroke-width:0.0737387"
   d="m 26.59003,37.256468 3.200397,-3.226067 -8.608991,-0.01874 -8.608991,-0.01874 v -2.46994 -2.46994 h 8.590556 c 4.724806,0 8.590557,-0.02474 8.590557,-0.05499 0,-0.03024 -1.434996,-1.49027 -3.188881,-3.244502 l -3.18888,-3.189512 h 3.244413 3.244413 l 4.460733,4.461191 4.460735,4.461192 -4.497605,4.498058 -4.497606,4.498059 h -3.200624 -3.200625 z"
   id="path12" /></svg>
