<?xml version="1.0" encoding="UTF-8"?>
<!DOCTYPE svg PUBLIC "-//W3C//DTD SVG 1.1//EN" "http://www.w3.org/Graphics/SVG/1.1/DTD/svg11.dtd">
<svg xmlns="http://www.w3.org/2000/svg" version="1.1" width="151px" height="253px" style="shape-rendering:geometricPrecision; text-rendering:geometricPrecision; image-rendering:optimizeQuality; fill-rule:evenodd; clip-rule:evenodd" xmlns:xlink="http://www.w3.org/1999/xlink">
<g><path style="opacity:1" fill="#fbae95" d="M 69.5,21.5 C 70.8217,23.8021 70.8217,26.1354 69.5,28.5C 66.8333,30.8333 64.1667,33.1667 61.5,35.5C 60.8243,34.3984 60.1577,33.3984 59.5,32.5C 58.8333,30.1667 58.1667,27.8333 57.5,25.5C 57.5,21.8333 57.5,18.1667 57.5,14.5C 62.971,14.3031 66.971,16.6364 69.5,21.5 Z"/></g>
<g><path style="opacity:1" fill="#e8796f" d="M 120.5,29.5 C 119.35,31.6035 118.017,33.6035 116.5,35.5C 115.145,34.8118 114.145,33.8118 113.5,32.5C 113.714,30.8561 113.38,29.3561 112.5,28C 113.308,27.6924 113.975,27.1924 114.5,26.5C 114.888,24.6409 114.888,22.6409 114.5,20.5C 115.167,19.8333 115.833,19.1667 116.5,18.5C 115.398,17.8243 114.398,17.1577 113.5,16.5C 114.167,16.5 114.5,16.1667 114.5,15.5C 116.09,13.576 117.924,13.2427 120,14.5C 120.499,19.4889 120.666,24.4889 120.5,29.5 Z"/></g>
<g><path style="opacity:1" fill="#dd872c" d="M 81.5,24.5 C 80.6261,25.5251 79.4595,26.1918 78,26.5C 75.0454,24.9431 72.212,23.2764 69.5,21.5C 66.971,16.6364 62.971,14.3031 57.5,14.5C 57.5,18.1667 57.5,21.8333 57.5,25.5C 56.8333,22.1667 56.1667,18.8333 55.5,15.5C 55.7086,14.0783 56.2086,12.745 57,11.5C 58.6667,11.5 60.3333,11.5 62,11.5C 63.1011,13.3939 64.4345,14.0606 66,13.5C 66.7845,15.286 67.9512,16.786 69.5,18C 73.1353,20.7931 77.1353,22.9598 81.5,24.5 Z"/></g>
<g><path style="opacity:1" fill="#b0945e" d="M 111.5,15.5 C 107.78,19.5439 103.447,22.8772 98.5,25.5C 97.8933,25.3764 97.56,25.0431 97.5,24.5C 102.38,21.8013 106.88,18.468 111,14.5C 111.399,14.7284 111.565,15.0618 111.5,15.5 Z"/></g>
<g><path style="opacity:0.004" fill="#000000" d="M 54.5,23.5 C 53.8333,24.1667 53.8333,24.1667 54.5,23.5 Z"/></g>
<g><path style="opacity:0.004" fill="#000000" d="M 123.5,26.5 C 124.833,27.1667 124.833,27.1667 123.5,26.5 Z"/></g>
<g><path style="opacity:1" fill="#f28617" d="M 111.5,15.5 C 111.833,15.5 112.167,15.5 112.5,15.5C 113.167,15.5 113.833,15.5 114.5,15.5C 114.5,16.1667 114.167,16.5 113.5,16.5C 110.667,19.693 109,23.193 108.5,27C 109.835,29.1987 111.502,31.0321 113.5,32.5C 114.145,33.8118 115.145,34.8118 116.5,35.5C 118.017,33.6035 119.35,31.6035 120.5,29.5C 119.968,33.6935 119.968,37.6935 120.5,41.5C 120.833,41.5 121.167,41.5 121.5,41.5C 121.5,42.1667 121.5,42.8333 121.5,43.5C 121.5,45.5 121.5,47.5 121.5,49.5C 118.087,44.7546 113.754,41.0879 108.5,38.5C 103.855,35.5234 99.688,36.1901 96,40.5C 95.3333,42.5 95.3333,44.5 96,46.5C 99.7436,47.626 103.577,47.7927 107.5,47C 109.324,46.34 110.657,45.1733 111.5,43.5C 112.995,43.4148 113.995,44.0815 114.5,45.5C 111.471,46.9999 109.471,49.3332 108.5,52.5C 107.167,52.5 105.833,52.5 104.5,52.5C 102.074,50.6205 99.4077,49.2872 96.5,48.5C 96.7148,50.1788 96.0481,51.1788 94.5,51.5C 93.8333,50.8333 93.1667,50.1667 92.5,49.5C 90.3158,44.7799 88.8158,39.7799 88,34.5C 86.3883,30.9348 84.555,27.6015 82.5,24.5C 87.4001,23.2001 92.4001,23.2001 97.5,24.5C 97.56,25.0431 97.8933,25.3764 98.5,25.5C 103.447,22.8772 107.78,19.5439 111.5,15.5 Z"/></g>
<g><path style="opacity:1" fill="#b66c37" d="M 123.5,26.5 C 122.566,27.5676 122.232,28.901 122.5,30.5C 121.527,32.9479 121.194,35.6146 121.5,38.5C 120.596,39.209 120.263,40.209 120.5,41.5C 119.968,37.6935 119.968,33.6935 120.5,29.5C 120.666,24.4889 120.499,19.4889 120,14.5C 117.924,13.2427 116.09,13.576 114.5,15.5C 113.833,15.5 113.167,15.5 112.5,15.5C 113.188,13.1931 114.354,11.8598 116,11.5C 117.32,11.799 118.82,11.9657 120.5,12C 121.701,12.9025 122.535,14.0692 123,15.5C 123.499,19.1516 123.665,22.8183 123.5,26.5 Z"/></g>
<g><path style="opacity:1" fill="#efa47a" d="M 113.5,16.5 C 114.398,17.1577 115.398,17.8243 116.5,18.5C 115.833,19.1667 115.167,19.8333 114.5,20.5C 114.888,22.6409 114.888,24.6409 114.5,26.5C 113.975,27.1924 113.308,27.6924 112.5,28C 113.38,29.3561 113.714,30.8561 113.5,32.5C 111.502,31.0321 109.835,29.1987 108.5,27C 109,23.193 110.667,19.693 113.5,16.5 Z"/></g>
<g><path style="opacity:0.004" fill="#000000" d="M 55.5,29.5 C 54.8333,30.1667 54.8333,30.1667 55.5,29.5 Z"/></g>
<g><path style="opacity:0.004" fill="#fe0000" d="M 122.5,30.5 C 123.833,31.1667 123.833,31.1667 122.5,30.5 Z"/></g>
<g><path style="opacity:1" fill="#fcad2a" d="M 69.5,21.5 C 72.212,23.2764 75.0454,24.9431 78,26.5C 79.4595,26.1918 80.6261,25.5251 81.5,24.5C 81.8333,24.5 82.1667,24.5 82.5,24.5C 84.555,27.6015 86.3883,30.9348 88,34.5C 88.8158,39.7799 90.3158,44.7799 92.5,49.5C 90.4086,49.6816 88.4086,49.3482 86.5,48.5C 85.4777,48.8555 84.811,49.5222 84.5,50.5C 83.8333,50.5 83.5,50.1667 83.5,49.5C 84.5732,46.2791 84.5732,43.1124 83.5,40C 80.9171,38.5687 78.2504,37.402 75.5,36.5C 73.0582,36.2858 71.3915,37.2858 70.5,39.5C 69.8333,39.8333 69.1667,40.1667 68.5,40.5C 64.5657,42.4385 60.899,44.7719 57.5,47.5C 57.3874,44.9512 58.0541,42.6179 59.5,40.5C 58.2243,37.6969 58.2243,35.0303 59.5,32.5C 60.1577,33.3984 60.8243,34.3984 61.5,35.5C 64.1667,33.1667 66.8333,30.8333 69.5,28.5C 70.8217,26.1354 70.8217,23.8021 69.5,21.5 Z"/></g>
<g><path style="opacity:0.004" fill="#000000" d="M 56.5,33.5 C 55.8333,34.1667 55.8333,34.1667 56.5,33.5 Z"/></g>
<g><path style="opacity:0.671" fill="#c3893d" d="M 55.5,15.5 C 56.1667,18.8333 56.8333,22.1667 57.5,25.5C 58.1667,27.8333 58.8333,30.1667 59.5,32.5C 58.2243,35.0303 58.2243,37.6969 59.5,40.5C 58.0541,42.6179 57.3874,44.9512 57.5,47.5C 57.5,49.1667 57.5,50.8333 57.5,52.5C 59.6547,52.372 61.6547,52.872 63.5,54C 61.8659,54.4935 60.1992,54.6602 58.5,54.5C 58.8782,56.921 59.5448,59.2543 60.5,61.5C 59.8333,61.1667 59.1667,60.8333 58.5,60.5C 56.4788,55.3918 55.4788,50.0585 55.5,44.5C 56.404,43.791 56.7373,42.791 56.5,41.5C 57.8333,38.8333 57.8333,36.1667 56.5,33.5C 56.7678,31.901 56.4345,30.5676 55.5,29.5C 55.7947,27.2646 55.4614,25.2646 54.5,23.5C 54.4013,20.7628 54.7347,18.0961 55.5,15.5 Z"/></g>
<g><path style="opacity:1" fill="#463428" d="M 79.5,40.5 C 77.3382,47.0984 75.0049,47.0984 72.5,40.5C 71.4777,40.8555 70.811,41.5222 70.5,42.5C 69.8333,42.5 69.1667,42.5 68.5,42.5C 68.5,41.8333 68.5,41.1667 68.5,40.5C 69.1667,40.1667 69.8333,39.8333 70.5,39.5C 72.126,39.0617 73.7927,38.7284 75.5,38.5C 77.3545,38.3402 78.6879,39.0069 79.5,40.5 Z"/></g>
<g><path style="opacity:0.004" fill="#000000" d="M 121.5,38.5 C 122.833,39.1667 122.833,39.1667 121.5,38.5 Z"/></g>
<g><path style="opacity:1" fill="#493430" d="M 108.5,39.5 C 109.11,40.391 109.443,41.391 109.5,42.5C 109.5,43.1667 109.167,43.5 108.5,43.5C 108.142,41.2988 106.808,39.9655 104.5,39.5C 104.502,41.537 104.168,43.537 103.5,45.5C 100.879,44.8789 99.212,43.2123 98.5,40.5C 101.596,38.2085 104.929,37.8752 108.5,39.5 Z"/></g>
<g><path style="opacity:0.004" fill="#feff00" d="M 56.5,41.5 C 55.8333,40.1667 55.8333,40.1667 56.5,41.5 Z"/></g>
<g><path style="opacity:0.004" fill="#fe0000" d="M 121.5,40.5 C 122.833,41.1667 122.833,41.1667 121.5,40.5 Z"/></g>
<g><path style="opacity:1" fill="#cb6e09" d="M 108.5,43.5 C 107.409,46.1917 105.743,46.8584 103.5,45.5C 104.168,43.537 104.502,41.537 104.5,39.5C 106.808,39.9655 108.142,41.2988 108.5,43.5 Z"/></g>
<g><path style="opacity:0.004" fill="#fe0000" d="M 122.5,42.5 C 123.833,43.1667 123.833,43.1667 122.5,42.5 Z"/></g>
<g><path style="opacity:0.004" fill="#000000" d="M 55.5,44.5 C 54.8333,43.1667 54.8333,43.1667 55.5,44.5 Z"/></g>
<g><path style="opacity:1" fill="#d17817" d="M 79.5,40.5 C 81.9754,41.6874 82.9754,43.6874 82.5,46.5C 79.1501,46.665 75.8168,46.4983 72.5,46C 71.1772,45.1841 70.5106,44.0174 70.5,42.5C 70.811,41.5222 71.4777,40.8555 72.5,40.5C 75.0049,47.0984 77.3382,47.0984 79.5,40.5 Z"/></g>
<g><path style="opacity:1" fill="#e4c19a" d="M 83.5,49.5 C 81.6104,46.9975 79.6104,46.9975 77.5,49.5C 73.4779,48.8436 70.1445,46.8436 67.5,43.5C 67.6236,42.8933 67.9569,42.56 68.5,42.5C 69.1667,42.5 69.8333,42.5 70.5,42.5C 70.5106,44.0174 71.1772,45.1841 72.5,46C 75.8168,46.4983 79.1501,46.665 82.5,46.5C 82.9754,43.6874 81.9754,41.6874 79.5,40.5C 78.6879,39.0069 77.3545,38.3402 75.5,38.5C 73.7927,38.7284 72.126,39.0617 70.5,39.5C 71.3915,37.2858 73.0582,36.2858 75.5,36.5C 78.2504,37.402 80.9171,38.5687 83.5,40C 84.5732,43.1124 84.5732,46.2791 83.5,49.5 Z"/></g>
<g><path style="opacity:1" fill="#ba8e6c" d="M 108.5,38.5 C 108.5,38.8333 108.5,39.1667 108.5,39.5C 104.929,37.8752 101.596,38.2085 98.5,40.5C 99.212,43.2123 100.879,44.8789 103.5,45.5C 105.743,46.8584 107.409,46.1917 108.5,43.5C 109.167,43.5 109.5,43.1667 109.5,42.5C 110.492,42.3284 111.158,42.6618 111.5,43.5C 110.657,45.1733 109.324,46.34 107.5,47C 103.577,47.7927 99.7436,47.626 96,46.5C 95.3333,44.5 95.3333,42.5 96,40.5C 99.688,36.1901 103.855,35.5234 108.5,38.5 Z"/></g>
<g><path style="opacity:0.518" fill="#9b6c52" d="M 121.5,43.5 C 121.833,43.5 122.167,43.5 122.5,43.5C 122.5,46.8333 122.5,50.1667 122.5,53.5C 123.5,53.5 124.5,53.5 125.5,53.5C 124.923,55.6516 123.756,55.985 122,54.5C 121.26,55.7494 121.427,56.7494 122.5,57.5C 122.672,58.4916 122.338,59.1583 121.5,59.5C 121.5,58.8333 121.167,58.5 120.5,58.5C 120.508,55.4552 120.841,52.4552 121.5,49.5C 121.5,47.5 121.5,45.5 121.5,43.5 Z"/></g>
<g><path style="opacity:0.004" fill="#fefffe" d="M 53.5,53.5 C 52.8333,52.1667 52.8333,52.1667 53.5,53.5 Z"/></g>
<g><path style="opacity:1" fill="#f58d88" d="M 92.5,49.5 C 93.1667,50.1667 93.8333,50.8333 94.5,51.5C 92.8525,53.3264 90.8525,54.6597 88.5,55.5C 87.0837,53.8207 85.7503,52.1541 84.5,50.5C 84.811,49.5222 85.4777,48.8555 86.5,48.5C 88.4086,49.3482 90.4086,49.6816 92.5,49.5 Z"/></g>
<g><path style="opacity:0.004" fill="#fefffe" d="M 125.5,52.5 C 126.833,53.1667 126.833,53.1667 125.5,52.5 Z"/></g>
<g><path style="opacity:0.176" fill="#797d81" d="M 53.5,53.5 C 55.337,53.6395 55.6704,54.3061 54.5,55.5C 53.7025,55.0431 53.3691,54.3764 53.5,53.5 Z"/></g>
<g><path style="opacity:0.004" fill="#000000" d="M 122.5,56.5 C 123.833,57.1667 123.833,57.1667 122.5,56.5 Z"/></g>
<g><path style="opacity:0.004" fill="#000000" d="M 54.5,58.5 C 53.8333,57.1667 53.8333,57.1667 54.5,58.5 Z"/></g>
<g><path style="opacity:0.004" fill="#000000" d="M 125.5,57.5 C 126.833,58.1667 126.833,58.1667 125.5,57.5 Z"/></g>
<g><path style="opacity:0.216" fill="#757785" d="M 54.5,58.5 C 55.8333,58.5 56.5,59.1667 56.5,60.5C 56.5,59.1667 55.8333,58.5 54.5,58.5 Z"/></g>
<g><path style="opacity:1" fill="#d76b23" d="M 108.5,38.5 C 113.754,41.0879 118.087,44.7546 121.5,49.5C 120.841,52.4552 120.508,55.4552 120.5,58.5C 119.662,58.8417 119.328,59.5084 119.5,60.5C 118.5,61.1667 117.5,61.8333 116.5,62.5C 113.167,61.5 109.833,60.5 106.5,59.5C 106.5,57.8333 106.5,56.1667 106.5,54.5C 109.487,54.0022 112.487,53.5022 115.5,53C 113.19,52.5034 110.857,52.3367 108.5,52.5C 109.471,49.3332 111.471,46.9999 114.5,45.5C 113.995,44.0815 112.995,43.4148 111.5,43.5C 111.158,42.6618 110.492,42.3284 109.5,42.5C 109.443,41.391 109.11,40.391 108.5,39.5C 108.5,39.1667 108.5,38.8333 108.5,38.5 Z"/></g>
<g><path style="opacity:0.047" fill="#6e8186" d="M 125.5,58.5 C 125.361,60.337 124.694,60.6704 123.5,59.5C 123.957,58.7025 124.624,58.3691 125.5,58.5 Z"/></g>
<g><path style="opacity:0.206" fill="#6f7074" d="M 56.5,60.5 C 57.1667,60.5 57.8333,60.5 58.5,60.5C 57.8333,63.1667 57.1667,63.1667 56.5,60.5 Z"/></g>
<g><path style="opacity:1" fill="#f6f6f4" d="M 83.5,49.5 C 83.5,50.1667 83.8333,50.5 84.5,50.5C 85.7503,52.1541 87.0837,53.8207 88.5,55.5C 88.5,56.1667 88.5,56.8333 88.5,57.5C 87.9423,58.7899 86.9423,59.6232 85.5,60C 83.1667,60.3333 80.8333,60.6667 78.5,61C 81.3963,62.6976 84.3963,62.8643 87.5,61.5C 89.3435,63.2789 90.0102,65.6122 89.5,68.5C 86.8333,68.1667 84.1667,67.8333 81.5,67.5C 75.575,64.4918 72.2416,59.6584 71.5,53C 73.9096,52.4005 75.9096,51.2338 77.5,49.5C 79.6104,46.9975 81.6104,46.9975 83.5,49.5 Z"/></g>
<g><path style="opacity:0.506" fill="#767a82" d="M 120.5,58.5 C 121.167,58.5 121.5,58.8333 121.5,59.5C 121.719,60.675 121.386,61.675 120.5,62.5C 119.702,62.0431 119.369,61.3764 119.5,60.5C 119.328,59.5084 119.662,58.8417 120.5,58.5 Z"/></g>
<g><path style="opacity:1" fill="#a2878f" d="M 88.5,57.5 C 91.8171,58.8235 95.1504,60.1568 98.5,61.5C 97.8333,61.8333 97.1667,62.1667 96.5,62.5C 94.1279,61.8966 91.9613,60.8966 90,59.5C 88.699,59.6387 87.8656,60.3054 87.5,61.5C 84.3963,62.8643 81.3963,62.6976 78.5,61C 80.8333,60.6667 83.1667,60.3333 85.5,60C 86.9423,59.6232 87.9423,58.7899 88.5,57.5 Z"/></g>
<g><path style="opacity:1" fill="#c7804f" d="M 104.5,52.5 C 105.833,52.5 107.167,52.5 108.5,52.5C 110.857,52.3367 113.19,52.5034 115.5,53C 112.487,53.5022 109.487,54.0022 106.5,54.5C 106.5,56.1667 106.5,57.8333 106.5,59.5C 109.833,60.5 113.167,61.5 116.5,62.5C 116.5,63.1667 116.5,63.8333 116.5,64.5C 113.976,66.2917 111.31,67.9583 108.5,69.5C 108.062,69.5654 107.728,69.3988 107.5,69C 109.208,66.9565 111.208,65.2899 113.5,64C 111.189,61.8363 108.522,60.8363 105.5,61C 105.833,61.3333 106.167,61.6667 106.5,62C 105.552,62.4828 104.552,62.6495 103.5,62.5C 105.586,59.3215 105.92,55.9882 104.5,52.5 Z"/></g>
<g><path style="opacity:0.004" fill="#000000" d="M 126.5,61.5 C 127.833,62.1667 127.833,62.1667 126.5,61.5 Z"/></g>
<g><path style="opacity:0.067" fill="#5b5a6c" d="M 51.5,62.5 C 53.337,62.6395 53.6704,63.3061 52.5,64.5C 51.7025,64.0431 51.3691,63.3764 51.5,62.5 Z"/></g>
<g><path style="opacity:1" fill="#cddfe7" d="M 104.5,52.5 C 105.92,55.9882 105.586,59.3215 103.5,62.5C 102.26,64.9877 100.26,66.8211 97.5,68C 92.9936,70.405 88.327,70.905 83.5,69.5C 82.8333,68.8333 82.1667,68.1667 81.5,67.5C 84.1667,67.8333 86.8333,68.1667 89.5,68.5C 90.0102,65.6122 89.3435,63.2789 87.5,61.5C 87.8656,60.3054 88.699,59.6387 90,59.5C 91.9613,60.8966 94.1279,61.8966 96.5,62.5C 97.1667,62.1667 97.8333,61.8333 98.5,61.5C 95.1504,60.1568 91.8171,58.8235 88.5,57.5C 88.5,56.8333 88.5,56.1667 88.5,55.5C 90.8525,54.6597 92.8525,53.3264 94.5,51.5C 96.0481,51.1788 96.7148,50.1788 96.5,48.5C 99.4077,49.2872 102.074,50.6205 104.5,52.5 Z"/></g>
<g><path style="opacity:0.506" fill="#767a88" d="M 126.5,62.5 C 126.361,64.337 125.694,64.6704 124.5,63.5C 124.957,62.7025 125.624,62.3691 126.5,62.5 Z"/></g>
<g><path style="opacity:0.284" fill="#717085" d="M 61.5,63.5 C 61.3605,65.337 60.6939,65.6704 59.5,64.5C 59.9569,63.7025 60.6236,63.3691 61.5,63.5 Z"/></g>
<g><path style="opacity:0.255" fill="#55565f" d="M 116.5,64.5 C 118.973,64.6043 119.639,65.6043 118.5,67.5C 117.575,66.6431 116.908,65.6431 116.5,64.5 Z"/></g>
<g><path style="opacity:1" fill="#c25e11" d="M 108.5,69.5 C 108.423,70.7498 107.756,71.5831 106.5,72C 107.022,72.5613 107.355,73.228 107.5,74C 104.873,78.8901 104.873,83.7234 107.5,88.5C 106.282,89.8027 106.615,90.8027 108.5,91.5C 108.376,92.1067 108.043,92.44 107.5,92.5C 103.619,91.2261 99.9522,89.3928 96.5,87C 91.4682,81.6335 86.1349,76.6335 80.5,72C 77.9373,70.9207 75.2706,70.4207 72.5,70.5C 70.6827,69.7808 70.0161,68.7808 70.5,67.5C 74.6868,69.0653 79.0202,69.7319 83.5,69.5C 88.327,70.905 92.9936,70.405 97.5,68C 100.26,66.8211 102.26,64.9877 103.5,62.5C 104.552,62.6495 105.552,62.4828 106.5,62C 106.167,61.6667 105.833,61.3333 105.5,61C 108.522,60.8363 111.189,61.8363 113.5,64C 111.208,65.2899 109.208,66.9565 107.5,69C 107.728,69.3988 108.062,69.5654 108.5,69.5 Z"/></g>
<g><path style="opacity:1" fill="#f89c22" d="M 68.5,40.5 C 68.5,41.1667 68.5,41.8333 68.5,42.5C 67.9569,42.56 67.6236,42.8933 67.5,43.5C 70.1445,46.8436 73.4779,48.8436 77.5,49.5C 75.9096,51.2338 73.9096,52.4005 71.5,53C 72.2416,59.6584 75.575,64.4918 81.5,67.5C 82.1667,68.1667 82.8333,68.8333 83.5,69.5C 79.0202,69.7319 74.6868,69.0653 70.5,67.5C 70.0161,68.7808 70.6827,69.7808 72.5,70.5C 80.8824,77.5486 88.2157,85.5486 94.5,94.5C 93.9841,96.7182 92.9841,98.7182 91.5,100.5C 90.2038,98.6638 89.3704,96.6638 89,94.5C 87.5905,93.2125 86.0905,92.0458 84.5,91C 85.8333,90.3333 85.8333,89.6667 84.5,89C 81.1489,87.0612 78.1489,84.8945 75.5,82.5C 74.8076,83.0253 74.3076,83.6919 74,84.5C 72.2196,83.3606 70.3863,82.3606 68.5,81.5C 71.8701,72.2589 69.2034,65.5922 60.5,61.5C 59.5448,59.2543 58.8782,56.921 58.5,54.5C 60.1992,54.6602 61.8659,54.4935 63.5,54C 61.6547,52.872 59.6547,52.372 57.5,52.5C 57.5,50.8333 57.5,49.1667 57.5,47.5C 60.899,44.7719 64.5657,42.4385 68.5,40.5 Z"/></g>
<g><path style="opacity:1" fill="#faa221" d="M 68.5,81.5 C 70.3863,82.3606 72.2196,83.3606 74,84.5C 74.3076,83.6919 74.8076,83.0253 75.5,82.5C 78.1489,84.8945 81.1489,87.0612 84.5,89C 85.8333,89.6667 85.8333,90.3333 84.5,91C 86.0905,92.0458 87.5905,93.2125 89,94.5C 89.3704,96.6638 90.2038,98.6638 91.5,100.5C 92.9841,98.7182 93.9841,96.7182 94.5,94.5C 95.4013,95.2905 96.0679,96.2905 96.5,97.5C 95.5345,99.7559 93.8678,101.423 91.5,102.5C 93.6582,105.148 94.9916,108.148 95.5,111.5C 94.5,111.5 93.5,111.5 92.5,111.5C 94.4088,115.666 96.0754,119.999 97.5,124.5C 96.9728,128.331 96.3061,131.998 95.5,135.5C 95.7852,133.712 95.4519,132.045 94.5,130.5C 90.6886,135.479 86.6886,140.312 82.5,145C 76.3251,145.877 70.3251,147.377 64.5,149.5C 62.631,148.12 61.2977,146.287 60.5,144C 61.3431,142.065 61.3431,140.231 60.5,138.5C 58.7855,138.595 57.1188,138.928 55.5,139.5C 51.8847,133.884 47.8847,128.55 43.5,123.5C 44.0679,119.933 46.0679,117.599 49.5,116.5C 50.9617,120.757 52.9617,124.757 55.5,128.5C 60.3897,124.331 60.723,119.831 56.5,115C 57.1258,114.25 57.6258,113.416 58,112.5C 58.3076,113.308 58.8076,113.975 59.5,114.5C 60.4954,108.872 60.8288,103.206 60.5,97.5C 60.5,96.8333 60.5,96.1667 60.5,95.5C 62.5316,93.1495 64.3649,90.4828 66,87.5C 76.5424,94.5513 77.2091,93.5513 68,84.5C 67.5304,83.4232 67.6971,82.4232 68.5,81.5 Z"/></g>
<g><path style="opacity:1" fill="#d2832f" d="M 60.5,61.5 C 69.2034,65.5922 71.8701,72.2589 68.5,81.5C 67.6971,82.4232 67.5304,83.4232 68,84.5C 77.2091,93.5513 76.5424,94.5513 66,87.5C 64.3649,90.4828 62.5316,93.1495 60.5,95.5C 60.8333,94.1667 61.1667,92.8333 61.5,91.5C 66.3107,84.6939 68.144,77.0272 67,68.5C 65.2962,66.6266 63.4628,64.9599 61.5,63.5C 61.1667,62.8333 60.8333,62.1667 60.5,61.5 Z"/></g>
<g><path style="opacity:0.004" fill="#fe0000" d="M 61.5,91.5 C 60.8333,90.1667 60.8333,90.1667 61.5,91.5 Z"/></g>
<g><path style="opacity:0.004" fill="#fe0000" d="M 59.5,97.5 C 58.8333,96.1667 58.8333,96.1667 59.5,97.5 Z"/></g>
<g><path style="opacity:1" fill="#df731b" d="M 72.5,70.5 C 75.2706,70.4207 77.9373,70.9207 80.5,72C 86.1349,76.6335 91.4682,81.6335 96.5,87C 99.9522,89.3928 103.619,91.2261 107.5,92.5C 108.078,94.1874 109.245,95.8541 111,97.5C 115.244,109.063 115.91,120.73 113,132.5C 112.014,137.348 110.18,141.181 107.5,144C 107.835,145.503 107.835,146.836 107.5,148C 105.281,149.601 103.948,151.767 103.5,154.5C 102.833,155.5 102.167,156.5 101.5,157.5C 100.5,157.5 99.5,157.5 98.5,157.5C 98.5,156.5 98.5,155.5 98.5,154.5C 101.387,149.395 103.72,144.061 105.5,138.5C 107.129,135.49 108.129,132.156 108.5,128.5C 108.106,124.758 108.106,121.091 108.5,117.5C 106.162,109.795 102.162,103.128 96.5,97.5C 96.0679,96.2905 95.4013,95.2905 94.5,94.5C 88.2157,85.5486 80.8824,77.5486 72.5,70.5 Z"/></g>
<g><path style="opacity:0.004" fill="#feff00" d="M 58.5,101.5 C 57.8333,100.167 57.8333,100.167 58.5,101.5 Z"/></g>
<g><path style="opacity:0.004" fill="#feff00" d="M 57.5,103.5 C 56.8333,102.167 56.8333,102.167 57.5,103.5 Z"/></g>
<g><path style="opacity:1" fill="#d9e3e5" d="M 96.5,97.5 C 102.162,103.128 106.162,109.795 108.5,117.5C 108.106,121.091 108.106,124.758 108.5,128.5C 108.129,132.156 107.129,135.49 105.5,138.5C 105.877,136.206 105.377,133.873 104,131.5C 102.434,132.061 101.101,131.394 100,129.5C 98.9726,133.097 97.4726,136.43 95.5,139.5C 95.5,138.167 95.5,136.833 95.5,135.5C 96.3061,131.998 96.9728,128.331 97.5,124.5C 96.0754,119.999 94.4088,115.666 92.5,111.5C 93.5,111.5 94.5,111.5 95.5,111.5C 94.9916,108.148 93.6582,105.148 91.5,102.5C 93.8678,101.423 95.5345,99.7559 96.5,97.5 Z"/></g>
<g><path style="opacity:1" fill="#eb821a" d="M 59.5,97.5 C 59.8333,97.5 60.1667,97.5 60.5,97.5C 60.8288,103.206 60.4954,108.872 59.5,114.5C 58.8076,113.975 58.3076,113.308 58,112.5C 57.6258,113.416 57.1258,114.25 56.5,115C 60.723,119.831 60.3897,124.331 55.5,128.5C 52.9617,124.757 50.9617,120.757 49.5,116.5C 52.1667,112.167 54.8333,107.833 57.5,103.5C 58.3382,103.158 58.6716,102.492 58.5,101.5C 59.4345,100.432 59.7678,99.099 59.5,97.5 Z"/></g>
<g><path style="opacity:0.004" fill="#000000" d="M 31.5,142.5 C 30.8333,141.167 30.8333,141.167 31.5,142.5 Z"/></g>
<g><path style="opacity:1" fill="#e57915" d="M 95.5,135.5 C 95.5,136.833 95.5,138.167 95.5,139.5C 86.1318,149.923 81.4651,162.257 81.5,176.5C 81.1667,176.5 80.8333,176.5 80.5,176.5C 81.5511,167.154 81.5511,157.821 80.5,148.5C 74.559,148.59 68.8923,149.923 63.5,152.5C 63.1667,152.333 62.8333,152.167 62.5,152C 63.3805,151.292 64.0472,150.458 64.5,149.5C 70.3251,147.377 76.3251,145.877 82.5,145C 86.6886,140.312 90.6886,135.479 94.5,130.5C 95.4519,132.045 95.7852,133.712 95.5,135.5 Z"/></g>
<g><path style="opacity:0.004" fill="#000000" d="M 29.5,147.5 C 28.8333,146.167 28.8333,146.167 29.5,147.5 Z"/></g>
<g><path style="opacity:1" fill="#bdd0d9" d="M 105.5,138.5 C 103.72,144.061 101.387,149.395 98.5,154.5C 93.0236,162.768 87.5236,171.101 82,179.5C 81.5172,178.552 81.3505,177.552 81.5,176.5C 81.4651,162.257 86.1318,149.923 95.5,139.5C 97.4726,136.43 98.9726,133.097 100,129.5C 101.101,131.394 102.434,132.061 104,131.5C 105.377,133.873 105.877,136.206 105.5,138.5 Z"/></g>
<g><path style="opacity:0.004" fill="#fe0000" d="M 28.5,150.5 C 27.8333,149.167 27.8333,149.167 28.5,150.5 Z"/></g>
<g><path style="opacity:1" fill="#e98018" d="M 43.5,123.5 C 47.8847,128.55 51.8847,133.884 55.5,139.5C 55.8204,143.084 56.9871,143.751 59,141.5C 59.7528,146.375 59.5862,151.208 58.5,156C 62.1585,163.476 64.4919,171.309 65.5,179.5C 65.5,180.5 65.5,181.5 65.5,182.5C 65.5,183.5 65.5,184.5 65.5,185.5C 63.2381,181.568 60.2381,178.235 56.5,175.5C 53.368,172.399 49.5347,170.399 45,169.5C 42.2305,170.348 39.3971,170.681 36.5,170.5C 32.4848,169.488 28.4848,168.488 24.5,167.5C 24.6646,170.518 24.498,173.518 24,176.5C 23.7216,177.416 23.2216,178.082 22.5,178.5C 22.5,175.833 22.5,173.167 22.5,170.5C 23.4511,169.081 23.7845,167.415 23.5,165.5C 24.404,164.791 24.7373,163.791 24.5,162.5C 25.404,161.791 25.7373,160.791 25.5,159.5C 26.4345,158.432 26.7678,157.099 26.5,155.5C 27.404,154.791 27.7373,153.791 27.5,152.5C 28.3382,152.158 28.6716,151.492 28.5,150.5C 29.404,149.791 29.7373,148.791 29.5,147.5C 30.5375,146.07 31.2041,144.403 31.5,142.5C 35.25,135.998 39.25,129.665 43.5,123.5 Z"/></g>
<g><path style="opacity:1" fill="#f99e1f" d="M 64.5,149.5 C 64.0472,150.458 63.3805,151.292 62.5,152C 62.8333,152.167 63.1667,152.333 63.5,152.5C 68.8923,149.923 74.559,148.59 80.5,148.5C 81.5511,157.821 81.5511,167.154 80.5,176.5C 79.2209,190.857 79.2209,205.19 80.5,219.5C 78.9816,224.327 75.6483,226.327 70.5,225.5C 70.6716,224.508 70.3382,223.842 69.5,223.5C 69.7808,210.638 68.4475,197.971 65.5,185.5C 65.5,184.5 65.5,183.5 65.5,182.5C 68.5436,183.792 71.7103,184.792 75,185.5C 76.4038,185.491 77.5704,184.991 78.5,184C 74.0525,182.644 69.7192,181.144 65.5,179.5C 64.4919,171.309 62.1585,163.476 58.5,156C 59.5862,151.208 59.7528,146.375 59,141.5C 56.9871,143.751 55.8204,143.084 55.5,139.5C 57.1188,138.928 58.7855,138.595 60.5,138.5C 61.3431,140.231 61.3431,142.065 60.5,144C 61.2977,146.287 62.631,148.12 64.5,149.5 Z"/></g>
<g><path style="opacity:0.004" fill="#fe0000" d="M 27.5,152.5 C 26.8333,151.167 26.8333,151.167 27.5,152.5 Z"/></g>
<g><path style="opacity:0.004" fill="#fe0000" d="M 26.5,155.5 C 25.8333,154.167 25.8333,154.167 26.5,155.5 Z"/></g>
<g><path style="opacity:0.004" fill="#000000" d="M 103.5,154.5 C 104.833,155.167 104.833,155.167 103.5,154.5 Z"/></g>
<g><path style="opacity:0.004" fill="#feff00" d="M 25.5,159.5 C 24.8333,158.167 24.8333,158.167 25.5,159.5 Z"/></g>
<g><path style="opacity:0.004" fill="#fe0000" d="M 24.5,162.5 C 23.8333,161.167 23.8333,161.167 24.5,162.5 Z"/></g>
<g><path style="opacity:0.004" fill="#000000" d="M 100.5,162.5 C 101.833,163.167 101.833,163.167 100.5,162.5 Z"/></g>
<g><path style="opacity:0.004" fill="#000000" d="M 23.5,165.5 C 22.8333,164.167 22.8333,164.167 23.5,165.5 Z"/></g>
<g><path style="opacity:0.004" fill="#000000" d="M 22.5,170.5 C 21.8333,169.167 21.8333,169.167 22.5,170.5 Z"/></g>
<g><path style="opacity:1" fill="#fbd3a0" d="M 56.5,175.5 C 54.8612,175.074 53.5279,175.074 52.5,175.5C 45.9481,172.904 39.2814,172.404 32.5,174C 31.646,175.022 30.646,175.855 29.5,176.5C 28.2888,175.726 28.2888,174.893 29.5,174C 31.9252,172.787 34.2585,171.621 36.5,170.5C 39.3971,170.681 42.2305,170.348 45,169.5C 49.5347,170.399 53.368,172.399 56.5,175.5 Z"/></g>
<g><path style="opacity:1" fill="#fa9c1e" d="M 36.5,170.5 C 34.2585,171.621 31.9252,172.787 29.5,174C 28.2888,174.893 28.2888,175.726 29.5,176.5C 30.646,175.855 31.646,175.022 32.5,174C 39.2814,172.404 45.9481,172.904 52.5,175.5C 54.8061,177.139 56.8061,179.139 58.5,181.5C 57.8826,181.611 57.3826,181.944 57,182.5C 54.6506,181.16 52.3173,179.826 50,178.5C 48.7202,178.613 47.8869,179.28 47.5,180.5C 51.3119,182.04 54.8119,184.04 58,186.5C 57.4902,188.38 57.6569,190.213 58.5,192C 55.9023,191.874 53.569,190.874 51.5,189C 47.4834,188.329 43.4834,187.996 39.5,188C 41.3772,189.185 43.3772,190.185 45.5,191C 35.7773,189.681 27.9439,192.848 22,200.5C 21.2402,193.45 21.4069,186.45 22.5,179.5C 22.5,179.167 22.5,178.833 22.5,178.5C 23.2216,178.082 23.7216,177.416 24,176.5C 24.498,173.518 24.6646,170.518 24.5,167.5C 28.4848,168.488 32.4848,169.488 36.5,170.5 Z"/></g>
<g><path style="opacity:1" fill="#a14c11" d="M 98.5,154.5 C 98.5,155.5 98.5,156.5 98.5,157.5C 99.5,157.5 100.5,157.5 101.5,157.5C 101.371,159.216 101.038,160.883 100.5,162.5C 100.167,162.5 99.8333,162.5 99.5,162.5C 98.8407,159.592 98.0074,159.258 97,161.5C 89.2476,182.32 86.4143,203.654 88.5,225.5C 88.0432,227.773 86.7099,229.106 84.5,229.5C 83.5041,229.586 82.6708,229.252 82,228.5C 80.8512,225.607 80.3512,222.607 80.5,219.5C 79.2209,205.19 79.2209,190.857 80.5,176.5C 80.8333,176.5 81.1667,176.5 81.5,176.5C 81.3505,177.552 81.5172,178.552 82,179.5C 87.5236,171.101 93.0236,162.768 98.5,154.5 Z"/></g>
<g><path style="opacity:1" fill="#fbeed8" d="M 65.5,179.5 C 69.7192,181.144 74.0525,182.644 78.5,184C 77.5704,184.991 76.4038,185.491 75,185.5C 71.7103,184.792 68.5436,183.792 65.5,182.5C 65.5,181.5 65.5,180.5 65.5,179.5 Z"/></g>
<g><path style="opacity:1" fill="#d46d1c" d="M 99.5,162.5 C 97.4494,171.42 95.7827,180.42 94.5,189.5C 93.5233,192.287 93.19,195.287 93.5,198.5C 92.7412,203.698 92.0746,209.031 91.5,214.5C 90.5233,217.287 90.19,220.287 90.5,223.5C 89.8333,224.167 89.1667,224.833 88.5,225.5C 86.4143,203.654 89.2476,182.32 97,161.5C 98.0074,159.258 98.8407,159.592 99.5,162.5 Z"/></g>
<g><path style="opacity:0.004" fill="#000000" d="M 94.5,189.5 C 95.8333,190.167 95.8333,190.167 94.5,189.5 Z"/></g>
<g><path style="opacity:1" fill="#df7616" d="M 58.5,181.5 C 62.3585,184.888 64.3585,189.222 64.5,194.5C 64.8204,197.898 64.487,201.232 63.5,204.5C 62.8076,203.975 62.3076,203.308 62,202.5C 59.1682,202.281 56.3349,202.948 53.5,204.5C 51.4311,204.176 51.0977,203.342 52.5,202C 42.9735,202.493 34.4735,206.326 27,213.5C 24.1884,211.849 22.3551,209.516 21.5,206.5C 21.5,205.833 21.1667,205.5 20.5,205.5C 19.0022,197.136 19.1688,188.803 21,180.5C 21.3826,179.944 21.8826,179.611 22.5,179.5C 21.4069,186.45 21.2402,193.45 22,200.5C 27.9439,192.848 35.7773,189.681 45.5,191C 43.3772,190.185 41.3772,189.185 39.5,188C 43.4834,187.996 47.4834,188.329 51.5,189C 53.569,190.874 55.9023,191.874 58.5,192C 57.6569,190.213 57.4902,188.38 58,186.5C 54.8119,184.04 51.3119,182.04 47.5,180.5C 47.8869,179.28 48.7202,178.613 50,178.5C 52.3173,179.826 54.6506,181.16 57,182.5C 57.3826,181.944 57.8826,181.611 58.5,181.5 Z"/></g>
<g><path style="opacity:0.004" fill="#000000" d="M 93.5,198.5 C 94.8333,199.167 94.8333,199.167 93.5,198.5 Z"/></g>
<g><path style="opacity:0.004" fill="#000000" d="M 20.5,205.5 C 19.8333,206.167 19.8333,206.167 20.5,205.5 Z"/></g>
<g><path style="opacity:0.004" fill="#fe0000" d="M 121.5,212.5 C 120.833,211.167 120.833,211.167 121.5,212.5 Z"/></g>
<g><path style="opacity:0.004" fill="#feff00" d="M 128.5,211.5 C 129.833,212.167 129.833,212.167 128.5,211.5 Z"/></g>
<g><path style="opacity:1" fill="#cb610f" d="M 64.5,194.5 C 67.5022,205.702 65.1688,215.702 57.5,224.5C 52.2912,226.023 46.9579,227.023 41.5,227.5C 41.6107,226.883 41.944,226.383 42.5,226C 38.384,225.675 34.384,224.841 30.5,223.5C 27.9285,224.728 26.5952,226.728 26.5,229.5C 25.448,229.351 24.448,229.517 23.5,230C 24.4506,230.718 24.6172,231.551 24,232.5C 22.6244,231.295 21.4577,229.962 20.5,228.5C 21.209,227.596 22.209,227.263 23.5,227.5C 23.4521,224.708 24.7854,222.875 27.5,222C 25.5469,218.716 22.8802,217.882 19.5,219.5C 20.4749,217.807 21.8082,216.307 23.5,215C 22.0085,212.379 21.3418,209.545 21.5,206.5C 22.3551,209.516 24.1884,211.849 27,213.5C 34.4735,206.326 42.9735,202.493 52.5,202C 51.0977,203.342 51.4311,204.176 53.5,204.5C 56.3349,202.948 59.1682,202.281 62,202.5C 62.3076,203.308 62.8076,203.975 63.5,204.5C 64.487,201.232 64.8204,197.898 64.5,194.5 Z"/></g>
<g><path style="opacity:0.004" fill="#feff00" d="M 116.5,213.5 C 115.833,212.167 115.833,212.167 116.5,213.5 Z"/></g>
<g><path style="opacity:0.004" fill="#000000" d="M 131.5,212.5 C 132.833,213.167 132.833,213.167 131.5,212.5 Z"/></g>
<g><path style="opacity:0.004" fill="#fe0000" d="M 92.5,213.5 C 93.8333,214.167 93.8333,214.167 92.5,213.5 Z"/></g>
<g><path style="opacity:0.004" fill="#feff00" d="M 114.5,214.5 C 113.833,213.167 113.833,213.167 114.5,214.5 Z"/></g>
<g><path style="opacity:0.004" fill="#000000" d="M 133.5,213.5 C 134.833,214.167 134.833,214.167 133.5,213.5 Z"/></g>
<g><path style="opacity:1" fill="#f8a021" d="M 121.5,213.5 C 125.046,213.559 128.379,214.392 131.5,216C 130.366,217.016 130.699,217.683 132.5,218C 128.15,218.368 123.817,218.868 119.5,219.5C 116.898,219.533 114.898,218.533 113.5,216.5C 116.397,215.871 119.064,214.871 121.5,213.5 Z"/></g>
<g><path style="opacity:1" fill="#9f4712" d="M 116.5,213.5 C 118.167,213.5 119.833,213.5 121.5,213.5C 119.064,214.871 116.397,215.871 113.5,216.5C 111.738,216.357 110.071,216.691 108.5,217.5C 107.786,220.027 107.12,222.527 106.5,225C 109.336,226.391 111.669,228.224 113.5,230.5C 109.5,230.5 105.5,230.5 101.5,230.5C 99.0801,228.08 96.0801,226.913 92.5,227C 91.9152,225.698 91.2485,224.531 90.5,223.5C 90.19,220.287 90.5233,217.287 91.5,214.5C 91.8333,214.5 92.1667,214.5 92.5,214.5C 99.8333,215.833 107.167,215.833 114.5,214.5C 115.492,214.672 116.158,214.338 116.5,213.5 Z"/></g>
<g><path style="opacity:1" fill="#be5f17" d="M 121.5,213.5 C 121.5,213.167 121.5,212.833 121.5,212.5C 123.833,212.5 126.167,212.5 128.5,212.5C 129.209,213.404 130.209,213.737 131.5,213.5C 131.842,214.338 132.508,214.672 133.5,214.5C 138.114,221.161 136.447,225.995 128.5,229C 123.481,229.411 118.481,229.911 113.5,230.5C 111.669,228.224 109.336,226.391 106.5,225C 107.12,222.527 107.786,220.027 108.5,217.5C 110.071,216.691 111.738,216.357 113.5,216.5C 114.898,218.533 116.898,219.533 119.5,219.5C 123.817,218.868 128.15,218.368 132.5,218C 130.699,217.683 130.366,217.016 131.5,216C 128.379,214.392 125.046,213.559 121.5,213.5 Z"/></g>
<g><path style="opacity:1" fill="#f59718" d="M 20.5,228.5 C 19.8826,228.389 19.3826,228.056 19,227.5C 18.5034,225.19 18.3367,222.857 18.5,220.5C 18.5,219.833 18.8333,219.5 19.5,219.5C 22.8802,217.882 25.5469,218.716 27.5,222C 24.7854,222.875 23.4521,224.708 23.5,227.5C 22.209,227.263 21.209,227.596 20.5,228.5 Z"/></g>
<g><path style="opacity:1" fill="#a0b0b8" d="M 56.5,175.5 C 60.2381,178.235 63.2381,181.568 65.5,185.5C 68.4475,197.971 69.7808,210.638 69.5,223.5C 66.746,225.174 66.4127,226.841 68.5,228.5C 66.8333,228.5 65.1667,228.5 63.5,228.5C 61.3021,227.835 58.9688,227.168 56.5,226.5C 56.8627,225.817 57.1961,225.15 57.5,224.5C 65.1688,215.702 67.5022,205.702 64.5,194.5C 64.3585,189.222 62.3585,184.888 58.5,181.5C 56.8061,179.139 54.8061,177.139 52.5,175.5C 53.5279,175.074 54.8612,175.074 56.5,175.5 Z"/></g>
<g><path style="opacity:1" fill="#f89b18" d="M 41.5,227.5 C 36.6354,229.041 31.6354,229.708 26.5,229.5C 26.5952,226.728 27.9285,224.728 30.5,223.5C 34.384,224.841 38.384,225.675 42.5,226C 41.944,226.383 41.6107,226.883 41.5,227.5 Z"/></g>
<g><path style="opacity:1" fill="#7d3a15" d="M 69.5,223.5 C 70.3382,223.842 70.6716,224.508 70.5,225.5C 70.5,225.833 70.5,226.167 70.5,226.5C 70.8693,228.993 70.2027,229.66 68.5,228.5C 66.4127,226.841 66.746,225.174 69.5,223.5 Z"/></g>
<g><path style="opacity:0.976" fill="#f5f7f7" d="M 80.5,219.5 C 80.3512,222.607 80.8512,225.607 82,228.5C 82.6708,229.252 83.5041,229.586 84.5,229.5C 85.9288,232.308 86.5955,235.308 86.5,238.5C 85.5,238.5 84.5,238.5 83.5,238.5C 83.1667,231.833 82.8333,231.833 82.5,238.5C 78.4338,238.693 74.4338,238.36 70.5,237.5C 71.7146,233.699 71.7146,230.033 70.5,226.5C 70.5,226.167 70.5,225.833 70.5,225.5C 75.6483,226.327 78.9816,224.327 80.5,219.5 Z"/></g>
<g><path style="opacity:1" fill="#bed0d9" d="M 90.5,223.5 C 91.2485,224.531 91.9152,225.698 92.5,227C 96.0801,226.913 99.0801,228.08 101.5,230.5C 101.736,233.226 100.903,235.559 99,237.5C 98.6667,237.167 98.3333,236.833 98,236.5C 95.2751,238.758 92.2751,239.091 89,237.5C 88.5,238 88,238.5 87.5,239C 82.1667,239.667 76.8333,239.667 71.5,239C 70.944,238.617 70.6107,238.117 70.5,237.5C 74.4338,238.36 78.4338,238.693 82.5,238.5C 82.8333,231.833 83.1667,231.833 83.5,238.5C 84.5,238.5 85.5,238.5 86.5,238.5C 86.5955,235.308 85.9288,232.308 84.5,229.5C 86.7099,229.106 88.0432,227.773 88.5,225.5C 89.1667,224.833 89.8333,224.167 90.5,223.5 Z"/></g>
<g><path style="opacity:1" fill="#f9f8f6" d="M 63.5,228.5 C 65.1667,228.5 66.8333,228.5 68.5,228.5C 68.8064,231.385 68.4731,234.052 67.5,236.5C 67.1667,236.5 66.8333,236.5 66.5,236.5C 65.377,230.034 64.7104,230.034 64.5,236.5C 61.5,236.5 58.5,236.5 55.5,236.5C 55.1014,230.898 57.7681,228.232 63.5,228.5 Z"/></g>
<g><path style="opacity:1" fill="#b55214" d="M 18.5,220.5 C 18.3367,222.857 18.5034,225.19 19,227.5C 19.3826,228.056 19.8826,228.389 20.5,228.5C 21.4577,229.962 22.6244,231.295 24,232.5C 24.6172,231.551 24.4506,230.718 23.5,230C 24.448,229.517 25.448,229.351 26.5,229.5C 31.6354,229.708 36.6354,229.041 41.5,227.5C 46.9579,227.023 52.2912,226.023 57.5,224.5C 57.1961,225.15 56.8627,225.817 56.5,226.5C 58.9688,227.168 61.3021,227.835 63.5,228.5C 57.7681,228.232 55.1014,230.898 55.5,236.5C 54.8333,236.5 54.1667,236.5 53.5,236.5C 51.5896,237.094 49.5896,237.427 47.5,237.5C 38.7391,236.808 30.7391,235.641 23.5,234C 21.6667,232.167 19.8333,230.333 18,228.5C 17.1993,225.633 17.3659,222.966 18.5,220.5 Z"/></g>
<g><path style="opacity:1" fill="#a8b2b8" d="M 70.5,226.5 C 71.7146,230.033 71.7146,233.699 70.5,237.5C 68.9826,237.511 67.8159,238.177 67,239.5C 66.3333,238.833 65.6667,238.167 65,237.5C 63.0937,238.131 61.0937,238.464 59,238.5C 56.7047,238.453 54.8714,237.787 53.5,236.5C 54.1667,236.5 54.8333,236.5 55.5,236.5C 58.5,236.5 61.5,236.5 64.5,236.5C 64.7104,230.034 65.377,230.034 66.5,236.5C 66.8333,237.833 67.1667,237.833 67.5,236.5C 68.4731,234.052 68.8064,231.385 68.5,228.5C 70.2027,229.66 70.8693,228.993 70.5,226.5 Z"/></g>
</svg>
