<?xml version="1.0" encoding="UTF-8"?>
<!DOCTYPE svg PUBLIC "-//W3C//DTD SVG 1.1//EN" "http://www.w3.org/Graphics/SVG/1.1/DTD/svg11.dtd">
<svg xmlns="http://www.w3.org/2000/svg" version="1.1" width="198px" height="350px" style="shape-rendering:geometricPrecision; text-rendering:geometricPrecision; image-rendering:optimizeQuality; fill-rule:evenodd; clip-rule:evenodd" xmlns:xlink="http://www.w3.org/1999/xlink">
<g><path style="opacity:0.998" fill="#130e0a" d="M 110.5,55.5 C 110.5,56.1667 110.5,56.8333 110.5,57.5C 108.523,55.2607 106.023,53.9274 103,53.5C 88.1883,57.4834 80.0217,67.15 78.5,82.5C 76.1188,79.1177 73.1188,76.451 69.5,74.5C 64.1934,76.7853 62.3601,80.7853 64,86.5C 67.3151,94.0161 72.3151,95.6828 79,91.5C 79.9263,97.9059 82.7596,103.239 87.5,107.5C 87.1667,108.167 86.8333,108.833 86.5,109.5C 84.0787,111.623 83.9121,113.956 86,116.5C 98.5667,123.066 108.567,132.399 116,144.5C 116.822,146.788 117.489,149.122 118,151.5C 133.983,163.471 145.316,178.804 152,197.5C 152.5,219.185 143.666,235.518 125.5,246.5C 122.902,245.528 122.902,244.528 125.5,243.5C 131.167,241.167 135.167,237.167 137.5,231.5C 139.136,230.251 140.303,228.584 141,226.5C 144.377,218.11 146.543,209.443 147.5,200.5C 144.167,200.833 140.833,201.167 137.5,201.5C 137.806,204.385 137.473,207.052 136.5,209.5C 137.036,206.302 136.369,203.635 134.5,201.5C 138.615,200.057 142.948,199.057 147.5,198.5C 147.119,194.976 146.119,191.642 144.5,188.5C 142.261,190.12 140.427,189.787 139,187.5C 138.105,184.534 138.605,181.867 140.5,179.5C 134.222,169.055 126.056,160.389 116,153.5C 105.881,162.45 95.0478,170.45 83.5,177.5C 82.3165,181.99 82.3165,186.49 83.5,191C 84.1666,193.151 85.4999,194.651 87.5,195.5C 86.8333,195.5 86.1667,195.5 85.5,195.5C 84.7354,195.077 83.9021,194.743 83,194.5C 81.6136,195.729 80.1136,196.729 78.5,197.5C 78.5,197.167 78.5,196.833 78.5,196.5C 82.8071,192.541 82.4738,189.041 77.5,186C 75.2992,185.175 73.4659,185.675 72,187.5C 71.5034,189.81 71.3367,192.143 71.5,194.5C 70.5386,192.735 70.2053,190.735 70.5,188.5C 69.209,188.737 68.209,188.404 67.5,187.5C 68.4511,186.081 68.7845,184.415 68.5,182.5C 68.5774,181.25 69.244,180.417 70.5,180C 68.8659,179.506 67.1992,179.34 65.5,179.5C 67.5563,178.784 69.723,178.117 72,177.5C 72.5739,167.837 73.0739,158.17 73.5,148.5C 73.6783,143.022 73.0116,137.688 71.5,132.5C 71.5,131.833 71.5,131.167 71.5,130.5C 74.767,135.404 76.1004,140.904 75.5,147C 74.6958,159.488 74.3625,171.988 74.5,184.5C 76.9363,184.317 79.103,184.984 81,186.5C 80.3723,170.862 79.7057,155.195 79,139.5C 78.2592,133.868 76.5926,128.535 74,123.5C 71.1745,121.171 68.0078,119.504 64.5,118.5C 64.0825,117.778 63.4158,117.278 62.5,117C 63.8009,115.384 63.8009,113.884 62.5,112.5C 64.6172,108.662 65.7838,104.662 66,100.5C 64.5,106 61,109.5 55.5,111C 49.3934,118.12 43.2267,118.286 37,111.5C 32.9359,112.382 29.1026,111.549 25.5,109C 24.6634,107.989 24.33,106.822 24.5,105.5C 34.8864,103.494 34.8864,102.328 24.5,102C 21.4266,101.303 19.4266,99.4695 18.5,96.5C 22.179,96.8607 25.8457,96.3607 29.5,95C 33.8658,90.2993 38.5325,85.966 43.5,82C 39.4318,82.3451 35.4318,83.3451 31.5,85C 27.5138,85.4988 23.5138,85.6655 19.5,85.5C 19.5494,82.9009 20.5494,80.7342 22.5,79C 29.1758,75.9139 36.1758,73.9139 43.5,73C 39.3368,68.7238 37.3368,63.5571 37.5,57.5C 38.2529,51.4077 39.9196,45.5744 42.5,40C 42.1377,38.7753 41.6377,37.6086 41,36.5C 37.8492,33.593 34.5159,30.9264 31,28.5C 26.3175,19.2168 28.4842,12.0501 37.5,7C 49.1428,4.63562 54.6428,9.46895 54,21.5C 54.8333,22.5 55.6667,23.5 56.5,24.5C 64.2036,26.8435 71.8703,29.3435 79.5,32C 84.4267,33.8752 88.26,37.0418 91,41.5C 94.0453,37.2435 97.212,33.0768 100.5,29C 103.338,26.2424 106.671,25.2424 110.5,26C 111.081,26.8926 111.415,27.8926 111.5,29C 109.938,33.4743 108.104,37.641 106,41.5C 110.687,39.6603 115.52,38.327 120.5,37.5C 120.663,39.8568 120.497,42.1902 120,44.5C 116.79,48.1872 112.956,51.0206 108.5,53C 109.381,53.7083 110.047,54.5416 110.5,55.5 Z"/></g>
<g><path style="opacity:1" fill="#e8bc46" d="M 46.5,10.5 C 50.0028,11.6486 51.6695,14.1486 51.5,18C 49.0424,25.7864 43.7091,29.7864 35.5,30C 32.924,27.349 31.5907,24.1823 31.5,20.5C 37.3229,18.4205 42.3229,15.0871 46.5,10.5 Z"/></g>
<g><path style="opacity:1" fill="#e2b745" d="M 57.5,28.5 C 60.0667,28.8545 62.5667,29.5212 65,30.5C 66.2575,30.8499 66.5908,31.5165 66,32.5C 59.4295,39.1999 51.5962,43.3666 42.5,45C 43.7938,42.913 44.9605,40.7463 46,38.5C 50.6175,36.0478 54.4509,32.7145 57.5,28.5 Z"/></g>
<g><path style="opacity:1" fill="#e6bb47" d="M 75.5,33.5 C 78.9557,33.7531 80.7891,35.4198 81,38.5C 69.861,50.4861 56.361,58.4861 40.5,62.5C 40.5,59.8333 40.5,57.1667 40.5,54.5C 54.5092,51.3318 66.1759,44.3318 75.5,33.5 Z"/></g>
<g><path style="opacity:1" fill="#deb348" d="M 87.5,42.5 C 89.6859,42.5106 90.5192,43.5106 90,45.5C 84.6824,51.0969 79.1824,56.5969 73.5,62C 67.09,67.3594 59.7566,69.6928 51.5,69C 58.5,64.6667 65.5,60.3333 72.5,56C 78.2917,52.3747 83.2917,47.8747 87.5,42.5 Z"/></g>
<g><path style="opacity:1" fill="#edebea" d="M 111.5,81.5 C 111.167,82.1667 110.833,82.8333 110.5,83.5C 109.973,78.8378 108.973,74.1711 107.5,69.5C 106.349,68.269 105.183,68.269 104,69.5C 103.503,71.8098 103.337,74.1432 103.5,76.5C 101.585,76.2155 99.9187,76.5489 98.5,77.5C 97.5,77.5 96.5,77.5 95.5,77.5C 95.0728,73.1756 94.7395,68.8422 94.5,64.5C 96.0687,59.4273 99.4021,57.5939 104.5,59C 110.147,65.4086 112.48,72.9086 111.5,81.5 Z"/></g>
<g><path style="opacity:1" fill="#d6a173" d="M 110.5,57.5 C 113.596,65.2693 114.263,73.2693 112.5,81.5C 112.167,81.5 111.833,81.5 111.5,81.5C 112.48,72.9086 110.147,65.4086 104.5,59C 99.4021,57.5939 96.0687,59.4273 94.5,64.5C 93.8118,69.5667 93.1451,74.7334 92.5,80C 97.5474,81.3572 102.214,83.5238 106.5,86.5C 109.213,83.7862 110.046,84.4529 109,88.5C 108.275,89.0585 107.442,89.3918 106.5,89.5C 103.381,88.208 100.381,86.708 97.5,85C 94.6763,84.1988 92.6763,84.3654 91.5,85.5C 91.1583,86.3382 90.4916,86.6716 89.5,86.5C 88.8826,86.6107 88.3826,86.944 88,87.5C 87.751,96.8485 91.251,104.682 98.5,111C 94.5291,110.955 90.8624,109.788 87.5,107.5C 82.7596,103.239 79.9263,97.9059 79,91.5C 72.3151,95.6828 67.3151,94.0161 64,86.5C 62.3601,80.7853 64.1934,76.7853 69.5,74.5C 73.1188,76.451 76.1188,79.1177 78.5,82.5C 80.0217,67.15 88.1883,57.4834 103,53.5C 106.023,53.9274 108.523,55.2607 110.5,57.5 Z"/></g>
<g><path style="opacity:1" fill="#181818" d="M 100.5,61.5 C 102.842,61.5041 104.842,62.3375 106.5,64C 102.909,64.5788 100.076,66.4121 98,69.5C 97.0182,66.2253 97.8515,63.5586 100.5,61.5 Z"/></g>
<g><path style="opacity:1" fill="#1e1209" d="M 66.5,78.5 C 70.7233,78.5723 73.2233,80.5723 74,84.5C 69.7666,78.7255 67.0999,79.3922 66,86.5C 65.3985,83.7795 65.5651,81.1128 66.5,78.5 Z"/></g>
<g><path style="opacity:0.996" fill="#251c17" d="M 110.5,55.5 C 115.263,61.5124 117.429,68.5124 117,76.5C 123.447,73.5333 128.447,75.2 132,81.5C 133.312,87.8718 130.812,92.0385 124.5,94C 122.527,94.4955 120.527,94.6621 118.5,94.5C 117.79,98.6145 116.457,102.614 114.5,106.5C 117.222,109.71 118.056,113.376 117,117.5C 114.347,120.194 111.18,121.027 107.5,120C 104.476,118.487 101.809,116.487 99.5,114C 94.9533,113.057 90.6199,111.557 86.5,109.5C 86.8333,108.833 87.1667,108.167 87.5,107.5C 90.8624,109.788 94.5291,110.955 98.5,111C 91.251,104.682 87.751,96.8485 88,87.5C 88.3826,86.944 88.8826,86.6107 89.5,86.5C 88.3266,89.8465 88.4933,93.1798 90,96.5C 94.7038,106.03 101.537,113.363 110.5,118.5C 111.554,118.32 112.554,117.987 113.5,117.5C 116.187,110.681 113.854,107.847 106.5,109C 103.944,107.945 102.277,106.112 101.5,103.5C 103.269,104.421 104.935,105.588 106.5,107C 108.473,107.495 110.473,107.662 112.5,107.5C 112.5,106.167 112.5,104.833 112.5,103.5C 110.265,103.795 108.265,103.461 106.5,102.5C 113.12,103.046 116.286,100.046 116,93.5C 114.611,91.7727 112.944,90.4394 111,89.5C 108.547,90.4929 106.047,90.6595 103.5,90C 100.013,87.088 96.0128,85.588 91.5,85.5C 92.6763,84.3654 94.6763,84.1988 97.5,85C 100.381,86.708 103.381,88.208 106.5,89.5C 107.442,89.3918 108.275,89.0585 109,88.5C 110.046,84.4529 109.213,83.7862 106.5,86.5C 102.214,83.5238 97.5474,81.3572 92.5,80C 93.1451,74.7334 93.8118,69.5667 94.5,64.5C 94.7395,68.8422 95.0728,73.1756 95.5,77.5C 96.5,77.5 97.5,77.5 98.5,77.5C 99.9187,76.5489 101.585,76.2155 103.5,76.5C 103.337,74.1432 103.503,71.8098 104,69.5C 105.183,68.269 106.349,68.269 107.5,69.5C 108.973,74.1711 109.973,78.8378 110.5,83.5C 113.851,91.1613 119.517,93.328 127.5,90C 131.41,86.0753 131.41,82.0753 127.5,78C 121.653,75.5607 116.653,76.7274 112.5,81.5C 114.263,73.2693 113.596,65.2693 110.5,57.5C 110.5,56.8333 110.5,56.1667 110.5,55.5 Z"/></g>
<g><path style="opacity:1" fill="#1b1514" d="M 100.5,97.5 C 99.6365,96.537 98.9698,96.537 98.5,97.5C 99.5588,99.5336 100.559,101.534 101.5,103.5C 98.1533,99.4489 94.82,95.4489 91.5,91.5C 91.8405,88.9818 93.1738,87.8151 95.5,88C 98.2654,90.5961 99.9321,93.7627 100.5,97.5 Z"/></g>
<g><path style="opacity:1" fill="#c8382e" d="M 110.5,83.5 C 110.833,82.8333 111.167,82.1667 111.5,81.5C 111.833,81.5 112.167,81.5 112.5,81.5C 116.653,76.7274 121.653,75.5607 127.5,78C 131.41,82.0753 131.41,86.0753 127.5,90C 119.517,93.328 113.851,91.1613 110.5,83.5 Z"/></g>
<g><path style="opacity:1" fill="#c39c44" d="M 98.5,77.5 C 100.5,77.5 102.5,77.5 104.5,77.5C 104.719,78.675 104.386,79.675 103.5,80.5C 101.604,79.7255 99.937,78.7255 98.5,77.5 Z"/></g>
<g><path style="opacity:1" fill="#f1f1f1" d="M 91.5,85.5 C 96.0128,85.588 100.013,87.088 103.5,90C 106.047,90.6595 108.547,90.4929 111,89.5C 112.944,90.4394 114.611,91.7727 116,93.5C 116.286,100.046 113.12,103.046 106.5,102.5C 104.525,100.863 102.525,99.1964 100.5,97.5C 99.9321,93.7627 98.2654,90.5961 95.5,88C 93.1738,87.8151 91.8405,88.9818 91.5,91.5C 94.82,95.4489 98.1533,99.4489 101.5,103.5C 102.277,106.112 103.944,107.945 106.5,109C 113.854,107.847 116.187,110.681 113.5,117.5C 112.554,117.987 111.554,118.32 110.5,118.5C 101.537,113.363 94.7038,106.03 90,96.5C 88.4933,93.1798 88.3266,89.8465 89.5,86.5C 90.4916,86.6716 91.1583,86.3382 91.5,85.5 Z"/></g>
<g><path style="opacity:1" fill="#d7a172" d="M 72.5,96.5 C 77.6831,99.1621 80.6831,103.495 81.5,109.5C 81.1667,110.167 80.8333,110.833 80.5,111.5C 76.9111,110.125 73.7445,108.125 71,105.5C 71.1449,102.486 71.6449,99.4857 72.5,96.5 Z"/></g>
<g><path style="opacity:1" fill="#ad372f" d="M 100.5,97.5 C 102.525,99.1964 104.525,100.863 106.5,102.5C 108.265,103.461 110.265,103.795 112.5,103.5C 112.5,104.833 112.5,106.167 112.5,107.5C 110.473,107.662 108.473,107.495 106.5,107C 104.935,105.588 103.269,104.421 101.5,103.5C 100.559,101.534 99.5588,99.5336 98.5,97.5C 98.9698,96.537 99.6365,96.537 100.5,97.5 Z"/></g>
<g><path style="opacity:1" fill="#3e730d" d="M 84.5,119.5 C 84.1667,119.5 83.8333,119.5 83.5,119.5C 80.4816,119.665 77.4816,119.498 74.5,119C 71.2444,117.526 67.911,116.36 64.5,115.5C 64.3773,112.412 65.3773,109.745 67.5,107.5C 69.9837,109.483 72.3171,111.65 74.5,114C 77.2104,115.747 80.2104,116.747 83.5,117C 84.2524,117.671 84.5858,118.504 84.5,119.5 Z"/></g>
<g><path style="opacity:1" fill="#281713" d="M 62.5,112.5 C 63.8009,113.884 63.8009,115.384 62.5,117C 63.4158,117.278 64.0825,117.778 64.5,118.5C 61.1706,118.264 58.1706,119.097 55.5,121C 59.7158,121.72 63.7158,123.053 67.5,125C 69.4641,126.451 70.7974,128.284 71.5,130.5C 71.5,131.167 71.5,131.833 71.5,132.5C 66.3287,124.916 59.3287,122.416 50.5,125C 46.7012,127.797 43.2012,130.964 40,134.5C 33.3333,145.833 26.6667,157.167 20,168.5C 18.0085,173.901 18.1751,179.234 20.5,184.5C 19.8826,184.389 19.3826,184.056 19,183.5C 18.7679,184.737 18.2679,185.737 17.5,186.5C 15.3931,177.382 16.5598,168.715 21,160.5C 26.6667,151.5 32.3333,142.5 38,133.5C 43.5508,128.609 49.0508,123.776 54.5,119C 56.4899,117.249 58.8232,116.249 61.5,116C 62.3366,114.989 62.67,113.822 62.5,112.5 Z"/></g>
<g><path style="opacity:1" fill="#c9392e" d="M 83.5,119.5 C 83.8333,119.5 84.1667,119.5 84.5,119.5C 85.8734,119.343 87.2068,119.51 88.5,120C 97.5838,125.748 105.417,132.915 112,141.5C 113.588,144.174 114.755,147.008 115.5,150C 113.916,152.592 111.916,154.926 109.5,157C 101.177,163.323 92.344,168.823 83,173.5C 81.8437,160.625 80.8437,147.625 80,134.5C 78.763,129.527 76.5963,125.027 73.5,121C 77.0252,120.821 80.3586,120.321 83.5,119.5 Z"/></g>
<g><path style="opacity:1" fill="#c7362c" d="M 71.5,132.5 C 73.0116,137.688 73.6783,143.022 73.5,148.5C 73.0739,158.17 72.5739,167.837 72,177.5C 69.723,178.117 67.5563,178.784 65.5,179.5C 60.9425,180.62 58.1092,178.953 57,174.5C 56.3333,171.167 56.3333,167.833 57,164.5C 59.7742,158.75 60.9409,152.75 60.5,146.5C 58.6813,153.46 56.1813,160.127 53,166.5C 50.7055,162.636 47.5388,160.136 43.5,159C 45.684,161.016 47.684,163.183 49.5,165.5C 49.1667,165.833 48.8333,166.167 48.5,166.5C 46.0276,164.749 43.361,163.915 40.5,164C 43.8333,166 47.1667,168 50.5,170C 57.9468,177.045 59.2802,185.045 54.5,194C 40.1868,201.254 28.8535,198.088 20.5,184.5C 18.1751,179.234 18.0085,173.901 20,168.5C 26.6667,157.167 33.3333,145.833 40,134.5C 43.2012,130.964 46.7012,127.797 50.5,125C 59.3287,122.416 66.3287,124.916 71.5,132.5 Z"/></g>
<g><path style="opacity:1" fill="#e9d1b4" d="M 64.5,118.5 C 68.0078,119.504 71.1745,121.171 74,123.5C 76.5926,128.535 78.2592,133.868 79,139.5C 79.7057,155.195 80.3723,170.862 81,186.5C 79.103,184.984 76.9363,184.317 74.5,184.5C 74.3625,171.988 74.6958,159.488 75.5,147C 76.1004,140.904 74.767,135.404 71.5,130.5C 70.7974,128.284 69.4641,126.451 67.5,125C 63.7158,123.053 59.7158,121.72 55.5,121C 58.1706,119.097 61.1706,118.264 64.5,118.5 Z"/></g>
<g><path style="opacity:1" fill="#4c9902" d="M 134.5,201.5 C 126.493,201.666 118.493,201.5 110.5,201C 102.7,199.633 95.0332,197.8 87.5,195.5C 85.4999,194.651 84.1666,193.151 83.5,191C 82.3165,186.49 82.3165,181.99 83.5,177.5C 95.0478,170.45 105.881,162.45 116,153.5C 126.056,160.389 134.222,169.055 140.5,179.5C 138.605,181.867 138.105,184.534 139,187.5C 140.427,189.787 142.261,190.12 144.5,188.5C 146.119,191.642 147.119,194.976 147.5,198.5C 142.948,199.057 138.615,200.057 134.5,201.5 Z"/></g>
<g><path style="opacity:1" fill="#530e0e" d="M 107.5,148.5 C 108.525,148.897 108.692,149.563 108,150.5C 105.147,153.052 102.647,155.885 100.5,159C 97.8333,161 95.1667,163 92.5,165C 91.2411,165.982 89.9078,166.315 88.5,166C 96.1292,161.528 102.463,155.695 107.5,148.5 Z"/></g>
<g><path style="opacity:1" fill="#437a11" d="M 68.5,182.5 C 68.7845,184.415 68.4511,186.081 67.5,187.5C 62.0033,184.963 62.3366,183.297 68.5,182.5 Z"/></g>
<g><path style="opacity:1" fill="#0d0806" d="M 65.5,179.5 C 67.1992,179.34 68.8659,179.506 70.5,180C 69.244,180.417 68.5774,181.25 68.5,182.5C 62.3366,183.297 62.0033,184.963 67.5,187.5C 68.209,188.404 69.209,188.737 70.5,188.5C 70.2053,190.735 70.5386,192.735 71.5,194.5C 73.4786,196.168 75.812,196.834 78.5,196.5C 78.5,196.833 78.5,197.167 78.5,197.5C 77.3049,230.352 76.1382,263.352 75,296.5C 76.5737,295.016 77.907,293.349 79,291.5C 79.9272,269.746 81.9272,248.079 85,226.5C 85.4998,216.172 85.6665,205.839 85.5,195.5C 86.1667,195.5 86.8333,195.5 87.5,195.5C 95.0332,197.8 102.7,199.633 110.5,201C 118.493,201.5 126.493,201.666 134.5,201.5C 136.369,203.635 137.036,206.302 136.5,209.5C 136.028,217.001 134.695,224.334 132.5,231.5C 130.182,235.465 127.848,239.465 125.5,243.5C 122.902,244.528 122.902,245.528 125.5,246.5C 119.191,250.443 112.691,254.109 106,257.5C 103.484,266.42 101.151,275.42 99,284.5C 96.1201,291.537 91.6201,297.203 85.5,301.5C 84.2981,303.78 83.2981,306.114 82.5,308.5C 81.8333,308.5 81.5,308.167 81.5,307.5C 79.1896,305.509 76.3563,304.176 73,303.5C 70.8434,304.385 70.0101,306.052 70.5,308.5C 69.5655,307.432 69.2322,306.099 69.5,304.5C 68.209,304.263 67.209,304.596 66.5,305.5C 62.1516,306.754 57.8183,306.754 53.5,305.5C 52.791,304.596 51.791,304.263 50.5,304.5C 50.7148,306.179 50.0481,307.179 48.5,307.5C 48.6633,305.143 48.4966,302.81 48,300.5C 43.5491,297.046 40.2158,292.713 38,287.5C 36.0434,275.582 34.71,263.582 34,251.5C 33.1376,249.913 32.4709,248.246 32,246.5C 27.7002,241.199 23.0336,236.199 18,231.5C 7.20078,216.422 7.03412,201.422 17.5,186.5C 18.2679,185.737 18.7679,184.737 19,183.5C 19.3826,184.056 19.8826,184.389 20.5,184.5C 28.8535,198.088 40.1868,201.254 54.5,194C 59.2802,185.045 57.9468,177.045 50.5,170C 47.1667,168 43.8333,166 40.5,164C 43.361,163.915 46.0276,164.749 48.5,166.5C 48.8333,166.167 49.1667,165.833 49.5,165.5C 47.684,163.183 45.684,161.016 43.5,159C 47.5388,160.136 50.7055,162.636 53,166.5C 56.1813,160.127 58.6813,153.46 60.5,146.5C 60.9409,152.75 59.7742,158.75 57,164.5C 56.3333,167.833 56.3333,171.167 57,174.5C 58.1092,178.953 60.9425,180.62 65.5,179.5 Z"/></g>
<g><path style="opacity:1" fill="#9b8037" d="M 78.5,196.5 C 75.812,196.834 73.4786,196.168 71.5,194.5C 71.3367,192.143 71.5034,189.81 72,187.5C 73.4659,185.675 75.2992,185.175 77.5,186C 82.4738,189.041 82.8071,192.541 78.5,196.5 Z"/></g>
<g><path style="opacity:1" fill="#e8b948" d="M 75.5,187.5 C 80.5533,189.492 80.72,191.825 76,194.5C 74.1147,194.138 73.2814,192.971 73.5,191C 73.8618,189.566 74.5285,188.399 75.5,187.5 Z"/></g>
<g><path style="opacity:1" fill="#721f1d" d="M 54.5,197.5 C 56.2517,197.418 57.2517,198.251 57.5,200C 52.4114,205.885 46.7447,206.718 40.5,202.5C 42.0064,201.253 43.5064,201.253 45,202.5C 48.1737,200.729 51.3404,199.063 54.5,197.5 Z"/></g>
<g><path style="opacity:1" fill="#ecd2b3" d="M 137.5,231.5 C 135.833,231.5 134.167,231.5 132.5,231.5C 134.695,224.334 136.028,217.001 136.5,209.5C 137.473,207.052 137.806,204.385 137.5,201.5C 140.833,201.167 144.167,200.833 147.5,200.5C 146.543,209.443 144.377,218.11 141,226.5C 140.303,228.584 139.136,230.251 137.5,231.5 Z"/></g>
<g><path style="opacity:1" fill="#cc9b6c" d="M 37.5,204.5 C 40.0577,206.55 42.5577,208.883 45,211.5C 45.3876,213.076 44.8876,214.409 43.5,215.5C 41.9918,213.493 40.1584,211.826 38,210.5C 37.5045,208.527 37.3379,206.527 37.5,204.5 Z"/></g>
<g><path style="opacity:1" fill="#e8d0b3" d="M 85.5,195.5 C 85.6665,205.839 85.4998,216.172 85,226.5C 81.9272,248.079 79.9272,269.746 79,291.5C 77.907,293.349 76.5737,295.016 75,296.5C 76.1382,263.352 77.3049,230.352 78.5,197.5C 80.1136,196.729 81.6136,195.729 83,194.5C 83.9021,194.743 84.7354,195.077 85.5,195.5 Z"/></g>
<g><path style="opacity:1" fill="#ead2b3" d="M 123.5,231.5 C 120.391,231.264 117.391,231.597 114.5,232.5C 117.76,222.781 119.094,212.781 118.5,202.5C 121.167,202.5 123.833,202.5 126.5,202.5C 126.868,212.324 125.868,221.991 123.5,231.5 Z"/></g>
<g><path style="opacity:1" fill="#d6a172" d="M 58.5,202.5 C 59.6935,202.97 60.3601,203.97 60.5,205.5C 59.005,215.881 53.3383,222.547 43.5,225.5C 35.9333,224.514 32.9333,220.347 34.5,213C 35.8333,212.333 37.1667,212.333 38.5,213C 39.6956,213.654 39.6956,214.154 38.5,214.5C 37.549,213.674 36.549,213.508 35.5,214C 38.2953,215.793 40.7953,217.96 43,220.5C 46.0652,217.938 48.5652,214.938 50.5,211.5C 49.3523,209.851 48.019,208.351 46.5,207C 51.0969,206.7 55.0969,205.2 58.5,202.5 Z"/></g>
<g><path style="opacity:1" fill="#c99d73" d="M 34.5,223.5 C 36.9774,225.241 39.6441,226.741 42.5,228C 39.5184,228.498 36.5184,228.665 33.5,228.5C 33.366,226.708 33.6993,225.042 34.5,223.5 Z"/></g>
<g><path style="opacity:1" fill="#e5cdb0" d="M 97.5,200.5 C 100.482,200.963 103.482,201.296 106.5,201.5C 106.541,212.301 105.374,222.967 103,233.5C 96.5636,246.135 90.8969,259.135 86,272.5C 89.0925,257.529 92.4259,242.529 96,227.5C 97.2644,218.546 97.7644,209.546 97.5,200.5 Z"/></g>
<g><path style="opacity:1" fill="#d6a736" d="M 37.5,204.5 C 36.1734,207.17 34.6734,209.836 33,212.5C 32.5989,217.011 32.0989,221.511 31.5,226C 33.9865,230.392 35.6532,235.226 36.5,240.5C 36.1667,241.167 35.8333,241.833 35.5,242.5C 17.3047,234.131 11.4713,220.464 18,201.5C 19.3926,197.714 21.0593,194.048 23,190.5C 25.1667,192.667 27.3333,194.833 29.5,197C 26.3384,203.147 24.8384,209.647 25,216.5C 26.9606,213.537 29.294,210.871 32,208.5C 33.5044,205.491 35.0044,202.491 36.5,199.5C 37.4519,201.045 37.7852,202.712 37.5,204.5 Z"/></g>
<g><path style="opacity:1" fill="#c89935" d="M 132.5,231.5 C 134.167,231.5 135.833,231.5 137.5,231.5C 135.167,237.167 131.167,241.167 125.5,243.5C 127.848,239.465 130.182,235.465 132.5,231.5 Z"/></g>
<g><path style="opacity:1" fill="#d2a335" d="M 51.5,239.5 C 49.7541,241.252 47.7541,242.585 45.5,243.5C 44.4389,239.364 43.4389,235.198 42.5,231C 44.1104,228.679 46.1104,227.846 48.5,228.5C 49.7081,232.122 50.7081,235.789 51.5,239.5 Z"/></g>
<g><path style="opacity:1" fill="#d1a235" d="M 123.5,231.5 C 121.099,240.982 115.433,247.649 106.5,251.5C 106.167,251.167 105.833,250.833 105.5,250.5C 109.568,245.031 112.568,239.031 114.5,232.5C 117.391,231.597 120.391,231.264 123.5,231.5 Z"/></g>
<g><path style="opacity:1" fill="#e8ceb2" d="M 63.5,188.5 C 64.2216,188.918 64.7216,189.584 65,190.5C 68.0547,227.102 69.2213,263.769 68.5,300.5C 66.8333,300.5 65.1667,300.5 63.5,300.5C 64.5929,272.481 62.9263,244.647 58.5,217C 60.3158,213.553 61.3158,209.886 61.5,206C 60.7083,201.843 60.5417,197.677 61,193.5C 62.883,192.347 63.7163,190.681 63.5,188.5 Z"/></g>
<g><path style="opacity:1" fill="#e3ccb0" d="M 51.5,239.5 C 56.6453,259.715 57.6453,280.048 54.5,300.5C 53.8333,300.167 53.1667,299.833 52.5,299.5C 51.6676,288.515 51.1676,277.515 51,266.5C 50.312,261.53 49.1453,256.696 47.5,252C 48.2918,250.04 49.6251,248.54 51.5,247.5C 49.9936,246.253 48.4936,246.253 47,247.5C 46.2086,246.255 45.7086,244.922 45.5,243.5C 47.7541,242.585 49.7541,241.252 51.5,239.5 Z"/></g>
<g><path style="opacity:1" fill="#cfa440" d="M 41.5,257.5 C 42.2679,258.263 42.7679,259.263 43,260.5C 43.6667,270.833 43.6667,281.167 43,291.5C 37.5971,280.386 37.0971,269.053 41.5,257.5 Z"/></g>
<g><path style="opacity:1" fill="#d5ab40" d="M 96.5,272.5 C 97.5,272.5 98.5,272.5 99.5,272.5C 98.2088,281.22 94.7088,288.887 89,295.5C 89.198,287.073 91.698,279.406 96.5,272.5 Z"/></g>
<g><path style="opacity:1" fill="#cbb43b" d="M 81.5,307.5 C 80.6618,307.842 80.3284,308.508 80.5,309.5C 77.2356,308.676 73.9023,308.342 70.5,308.5C 70.0101,306.052 70.8434,304.385 73,303.5C 76.3563,304.176 79.1896,305.509 81.5,307.5 Z"/></g>
<g><path style="opacity:0.999" fill="#0c0706" d="M 35.5,330.5 C 39.649,331.08 43.3157,330.414 46.5,328.5C 46.8333,328.5 47.1667,328.5 47.5,328.5C 63.279,328.93 79.1123,330.263 95,332.5C 100.61,332.583 106.11,331.917 111.5,330.5C 111.5,328.167 111.5,325.833 111.5,323.5C 108.193,324.051 104.86,324.384 101.5,324.5C 102.833,323.833 104.167,323.167 105.5,322.5C 110.155,323.18 113.155,321.347 114.5,317C 109.227,317.339 103.893,317.506 98.5,317.5C 98.8417,316.662 99.5084,316.328 100.5,316.5C 104.582,316.656 108.582,316.156 112.5,315C 119.747,305.029 129.08,302.362 140.5,307C 146.898,312.297 150.231,319.13 150.5,327.5C 156.098,332.189 155.764,336.356 149.5,340C 143.207,341.023 136.874,341.689 130.5,342C 95.1492,342.898 59.8159,342.565 24.5,341C 18.8247,340.406 13.158,339.74 7.5,339C 3.9589,337.929 3.29224,336.263 5.5,334C 15.3134,331.546 25.3134,330.38 35.5,330.5 Z"/></g>
<g><path style="opacity:1" fill="#5f443e" d="M 125.5,306.5 C 130.947,305.826 135.947,306.992 140.5,310C 142.388,311.95 143.554,314.117 144,316.5C 135.619,309.554 126.952,308.887 118,314.5C 117.333,313.833 117.333,313.167 118,312.5C 120.114,309.879 122.614,307.879 125.5,306.5 Z"/></g>
<g><path style="opacity:1" fill="#23130a" d="M 53.5,305.5 C 51.9519,305.821 51.2852,306.821 51.5,308.5C 51.5,309.5 51.5,310.5 51.5,311.5C 51.5743,313.411 52.5743,314.578 54.5,315C 58.8333,315.667 63.1667,315.667 67.5,315C 68.3802,313.644 68.7135,312.144 68.5,310.5C 68.5,309.5 68.5,308.5 68.5,307.5C 68.5,306.167 67.8333,305.5 66.5,305.5C 67.209,304.596 68.209,304.263 69.5,304.5C 69.2322,306.099 69.5655,307.432 70.5,308.5C 70.5,309.833 70.5,311.167 70.5,312.5C 69.596,313.209 69.2627,314.209 69.5,315.5C 71.8845,315.443 74.2178,315.777 76.5,316.5C 78.4677,315.9 79.4677,314.567 79.5,312.5C 80.1098,311.609 80.4431,310.609 80.5,309.5C 80.3284,308.508 80.6618,307.842 81.5,307.5C 81.5,308.167 81.8333,308.5 82.5,308.5C 82.3505,309.552 82.5172,310.552 83,311.5C 84.7261,310.424 86.5594,310.257 88.5,311C 92.6097,312.751 96.6097,314.585 100.5,316.5C 99.5084,316.328 98.8417,316.662 98.5,317.5C 93.5453,314.57 88.212,313.403 82.5,314C 81.6433,314.689 80.9767,315.522 80.5,316.5C 88.1749,321.166 96.5083,323.166 105.5,322.5C 104.167,323.167 102.833,323.833 101.5,324.5C 92.3114,323.414 83.9781,321.08 76.5,317.5C 69.5219,316.746 62.5219,316.579 55.5,317C 53.4636,316.546 51.6303,315.713 50,314.5C 48.274,315.648 48.4407,316.815 50.5,318C 53.7699,318.995 57.1033,319.828 60.5,320.5C 57.8938,321.652 55.2272,321.818 52.5,321C 50.6313,319.398 48.6313,318.398 46.5,318C 45.3904,321.449 45.3904,324.949 46.5,328.5C 43.3157,330.414 39.649,331.08 35.5,330.5C 38.6414,329.679 41.9748,329.179 45.5,329C 42.3001,322.045 43.6334,316.045 49.5,311C 48.6634,309.989 48.33,308.822 48.5,307.5C 50.0481,307.179 50.7148,306.179 50.5,304.5C 51.791,304.263 52.791,304.596 53.5,305.5 Z"/></g>
<g><path style="opacity:1" fill="#c8a73f" d="M 70.5,312.5 C 73.5,312.5 76.5,312.5 79.5,312.5C 79.4677,314.567 78.4677,315.9 76.5,316.5C 74.2178,315.777 71.8845,315.443 69.5,315.5C 69.2627,314.209 69.596,313.209 70.5,312.5 Z"/></g>
<g><path style="opacity:1" fill="#518b0a" d="M 68.5,310.5 C 68.7135,312.144 68.3802,313.644 67.5,315C 63.1667,315.667 58.8333,315.667 54.5,315C 52.5743,314.578 51.5743,313.411 51.5,311.5C 57.2998,313.002 62.9664,312.669 68.5,310.5 Z"/></g>
<g><path style="opacity:1" fill="#559c07" d="M 70.5,308.5 C 73.9023,308.342 77.2356,308.676 80.5,309.5C 80.4431,310.609 80.1098,311.609 79.5,312.5C 76.5,312.5 73.5,312.5 70.5,312.5C 70.5,311.167 70.5,309.833 70.5,308.5 Z"/></g>
<g><path style="opacity:1" fill="#e2be3e" d="M 68.5,307.5 C 68.5,308.5 68.5,309.5 68.5,310.5C 62.9664,312.669 57.2998,313.002 51.5,311.5C 51.5,310.5 51.5,309.5 51.5,308.5C 57.227,308.74 62.8936,308.407 68.5,307.5 Z"/></g>
<g><path style="opacity:1" fill="#5e9609" d="M 53.5,305.5 C 57.8183,306.754 62.1516,306.754 66.5,305.5C 67.8333,305.5 68.5,306.167 68.5,307.5C 62.8936,308.407 57.227,308.74 51.5,308.5C 51.2852,306.821 51.9519,305.821 53.5,305.5 Z"/></g>
<g><path style="opacity:1" fill="#a72e26" d="M 98.5,317.5 C 103.893,317.506 109.227,317.339 114.5,317C 113.155,321.347 110.155,323.18 105.5,322.5C 96.5083,323.166 88.1749,321.166 80.5,316.5C 80.9767,315.522 81.6433,314.689 82.5,314C 88.212,313.403 93.5453,314.57 98.5,317.5 Z"/></g>
<g><path style="opacity:1" fill="#c4362c" d="M 76.5,317.5 C 75.8333,321.167 75.1667,324.833 74.5,328.5C 65.5,328.5 56.5,328.5 47.5,328.5C 47.1667,328.5 46.8333,328.5 46.5,328.5C 45.3904,324.949 45.3904,321.449 46.5,318C 48.6313,318.398 50.6313,319.398 52.5,321C 55.2272,321.818 57.8938,321.652 60.5,320.5C 57.1033,319.828 53.7699,318.995 50.5,318C 48.4407,316.815 48.274,315.648 50,314.5C 51.6303,315.713 53.4636,316.546 55.5,317C 62.5219,316.579 69.5219,316.746 76.5,317.5 Z"/></g>
<g><path style="opacity:1" fill="#ad2f28" d="M 76.5,317.5 C 83.9781,321.08 92.3114,323.414 101.5,324.5C 104.86,324.384 108.193,324.051 111.5,323.5C 111.5,325.833 111.5,328.167 111.5,330.5C 106.11,331.917 100.61,332.583 95,332.5C 79.1123,330.263 63.279,328.93 47.5,328.5C 56.5,328.5 65.5,328.5 74.5,328.5C 75.1667,324.833 75.8333,321.167 76.5,317.5 Z"/></g>
</svg>
