<?xml version="1.0" encoding="UTF-8"?>
<!DOCTYPE svg PUBLIC "-//W3C//DTD SVG 1.1//EN" "http://www.w3.org/Graphics/SVG/1.1/DTD/svg11.dtd">
<svg xmlns="http://www.w3.org/2000/svg" version="1.1" width="177px" height="400px" style="shape-rendering:geometricPrecision; text-rendering:geometricPrecision; image-rendering:optimizeQuality; fill-rule:evenodd; clip-rule:evenodd" xmlns:xlink="http://www.w3.org/1999/xlink">
<g><path style="opacity:0.973" fill="#0b0503" d="M 66.5,33.5 C 63.6122,32.9898 61.2789,33.6565 59.5,35.5C 56.8333,37.5 54.5,39.8333 52.5,42.5C 50.1475,43.3403 48.1475,44.6736 46.5,46.5C 45.8333,46.8333 45.1667,47.1667 44.5,47.5C 41.8483,43.1831 38.515,39.5164 34.5,36.5C 31.1783,35.3418 29.0117,33.0084 28,29.5C 26.2922,14.7072 32.7922,7.87383 47.5,9C 49.6089,10.1411 51.4422,11.6411 53,13.5C 55.1688,18.522 56.5022,23.522 57,28.5C 59.9074,30.8683 63.0741,32.535 66.5,33.5 Z"/></g>
<g><path style="opacity:1" fill="#e9bd49" d="M 52.5,26.5 C 48.1861,32.803 42.1861,36.1363 34.5,36.5C 33.5,35.1667 32.5,33.8333 31.5,32.5C 31.4809,30.9397 31.1476,29.4397 30.5,28C 31.6045,26.2847 32.9378,24.7847 34.5,23.5C 36.3403,21.3311 38.6737,19.9977 41.5,19.5C 43.7288,18.9447 45.3954,17.6114 46.5,15.5C 49.7035,14.4982 51.5368,15.8315 52,19.5C 52.4966,21.8098 52.6633,24.1432 52.5,26.5 Z"/></g>
<g><path style="opacity:1" fill="#aa9348" d="M 34.5,23.5 C 32.9378,24.7847 31.6045,26.2847 30.5,28C 31.1476,29.4397 31.4809,30.9397 31.5,32.5C 29.7773,30.22 29.1107,27.5533 29.5,24.5C 31.2161,24.3713 32.8828,24.038 34.5,23.5 Z"/></g>
<g><path style="opacity:1" fill="#b49a4e" d="M 52.5,26.5 C 52.6633,24.1432 52.4966,21.8098 52,19.5C 51.5368,15.8315 49.7035,14.4982 46.5,15.5C 45.3954,17.6114 43.7288,18.9447 41.5,19.5C 43.2162,15.9305 45.8829,13.7638 49.5,13C 53.4299,16.9374 54.4299,21.4374 52.5,26.5 Z"/></g>
<g><path style="opacity:0.946" fill="#080503" d="M 121.5,65.5 C 120.833,65.5 120.167,65.5 119.5,65.5C 118.508,65.6716 117.842,65.3382 117.5,64.5C 112.967,63.0049 108.967,64.0049 105.5,67.5C 99.161,68.9844 94.3277,72.6511 91,78.5C 88.8745,84.7949 86.8745,91.1282 85,97.5C 82.8104,95.6116 80.9771,93.4449 79.5,91C 77.3225,89.7978 74.9892,89.2978 72.5,89.5C 69.8122,90.0241 68.3122,91.6908 68,94.5C 66.3167,105.599 70.8167,110.933 81.5,110.5C 82.609,110.443 83.609,110.11 84.5,109.5C 85.1667,111.167 85.8333,112.833 86.5,114.5C 87.4807,118.464 89.4807,121.797 92.5,124.5C 92.8925,126.284 93.5592,127.95 94.5,129.5C 92.9778,130.191 91.9778,131.358 91.5,133C 92.2142,135.648 93.2142,138.148 94.5,140.5C 93.8333,140.5 93.1667,140.5 92.5,140.5C 88.7508,138.464 84.7508,136.631 80.5,135C 77.9684,132.134 75.1351,129.634 72,127.5C 68.8267,129.873 67.9934,132.873 69.5,136.5C 73.2353,137.854 76.902,139.188 80.5,140.5C 80.5,140.833 80.5,141.167 80.5,141.5C 77.1469,141.345 76.8136,142.012 79.5,143.5C 79.5,143.833 79.5,144.167 79.5,144.5C 79.5,144.833 79.5,145.167 79.5,145.5C 76.7201,143.307 73.7201,141.641 70.5,140.5C 68.7354,139.539 66.7354,139.205 64.5,139.5C 66.3462,133.655 69.0129,128.155 72.5,123C 71.5399,121.581 70.7065,120.081 70,118.5C 68.7421,120.764 67.5754,123.098 66.5,125.5C 65.0186,126.48 63.6853,127.647 62.5,129C 61.2161,129.684 60.0495,129.517 59,128.5C 56.3144,133.848 51.9811,136.848 46,137.5C 39.1761,134.003 32.0095,131.503 24.5,130C 22.9632,128.89 22.2965,127.39 22.5,125.5C 26.6039,125.116 30.2706,123.616 33.5,121C 31.4328,120.464 29.5994,120.964 28,122.5C 24.9446,121.086 21.7779,119.919 18.5,119C 17.3128,117.981 16.3128,116.814 15.5,115.5C 18.3331,115.418 21.3331,115.252 24.5,115C 31.4103,109.767 38.077,104.101 44.5,98C 46.8877,96.1395 49.5544,94.8061 52.5,94C 41.5439,96.7511 30.3772,99.2511 19,101.5C 14.89,100.04 14.7233,97.8731 18.5,95C 26.8699,91.2413 35.5365,88.4079 44.5,86.5C 35.9935,75.9384 35.3268,64.9384 42.5,53.5C 43.5,54.8333 44.5,54.8333 45.5,53.5C 53.5641,51.3031 60.5641,47.3031 66.5,41.5C 67.5,40.8333 68.5,40.1667 69.5,39.5C 71.9118,39.3059 72.9118,37.9726 72.5,35.5C 77.3266,35.9405 81.9932,37.1072 86.5,39C 91.6497,42.1559 96.1497,45.9892 100,50.5C 104.274,43.2048 109.774,36.7048 116.5,31C 118.441,30.2571 120.274,30.4238 122,31.5C 122.667,33.8333 122.667,36.1667 122,38.5C 119.5,42.3333 117,46.1667 114.5,50C 121.346,49.2162 128.013,47.7162 134.5,45.5C 133.221,53.1306 128.888,58.4639 121.5,61.5C 120.374,62.8084 120.374,64.1417 121.5,65.5 Z M 49.5,123.5 C 50.3986,124.994 50.0653,126.494 48.5,128C 46.431,129.874 44.0977,130.874 41.5,131C 44.6657,129 47.3324,126.5 49.5,123.5 Z"/></g>
<g><path style="opacity:0.973" fill="#2d1d0a" d="M 66.5,33.5 C 68.7028,33.6036 70.7028,34.2702 72.5,35.5C 72.9118,37.9726 71.9118,39.3059 69.5,39.5C 70.8499,38.1765 70.6833,37.1765 69,36.5C 65.8188,35.0616 62.6522,34.7283 59.5,35.5C 61.2789,33.6565 63.6122,32.9898 66.5,33.5 Z"/></g>
<g><path style="opacity:1" fill="#cfab4f" d="M 69.5,39.5 C 68.5,40.1667 67.5,40.8333 66.5,41.5C 66.5,40.5 66.5,39.5 66.5,38.5C 64.5082,38.6715 62.8415,38.0049 61.5,36.5C 58.4645,38.5517 55.4645,40.5517 52.5,42.5C 54.5,39.8333 56.8333,37.5 59.5,35.5C 62.6522,34.7283 65.8188,35.0616 69,36.5C 70.6833,37.1765 70.8499,38.1765 69.5,39.5 Z"/></g>
<g><path style="opacity:1" fill="#e5ba4b" d="M 66.5,41.5 C 60.5641,47.3031 53.5641,51.3031 45.5,53.5C 44.9033,53.2648 44.5699,52.7648 44.5,52C 45.3195,50.1997 45.9862,48.3664 46.5,46.5C 48.1475,44.6736 50.1475,43.3403 52.5,42.5C 55.4645,40.5517 58.4645,38.5517 61.5,36.5C 62.8415,38.0049 64.5082,38.6715 66.5,38.5C 66.5,39.5 66.5,40.5 66.5,41.5 Z"/></g>
<g><path style="opacity:0.475" fill="#523c16" d="M 46.5,46.5 C 45.9862,48.3664 45.3195,50.1997 44.5,52C 44.5699,52.7648 44.9033,53.2648 45.5,53.5C 44.5,54.8333 43.5,54.8333 42.5,53.5C 43.1667,51.5 43.8333,49.5 44.5,47.5C 45.1667,47.1667 45.8333,46.8333 46.5,46.5 Z"/></g>
<g><path style="opacity:1" fill="#927538" d="M 73.5,49.5 C 71.8525,51.3264 69.8525,52.6597 67.5,53.5C 68.8021,51.1782 70.8021,49.8449 73.5,49.5 Z"/></g>
<g><path style="opacity:1" fill="#e6bb4d" d="M 60.5,66.5 C 55.8744,67.7628 51.2077,68.9294 46.5,70C 45.635,71.3588 44.635,72.5255 43.5,73.5C 42.2749,72.8478 41.6083,71.6811 41.5,70C 41.6667,68.8333 41.8333,67.6667 42,66.5C 44.6305,66.1408 46.7971,65.1408 48.5,63.5C 52.7577,63.3717 56.0911,61.705 58.5,58.5C 61.331,56.5832 64.331,54.9166 67.5,53.5C 69.8525,52.6597 71.8525,51.3264 73.5,49.5C 76.1783,45.9885 79.345,42.9885 83,40.5C 88.7503,41.5926 89.7503,44.2592 86,48.5C 81.685,51.9806 77.5184,55.6473 73.5,59.5C 69.2608,62.1179 64.9274,64.4512 60.5,66.5 Z"/></g>
<g><path style="opacity:1" fill="#b09347" d="M 58.5,58.5 C 56.0911,61.705 52.7577,63.3717 48.5,63.5C 51.7895,61.8416 55.1228,60.1749 58.5,58.5 Z"/></g>
<g><path style="opacity:1" fill="#cea94f" d="M 79.5,72.5 C 79.762,71.0222 79.4287,69.6888 78.5,68.5C 75.352,70.4351 72.0187,71.7684 68.5,72.5C 78.629,66.3932 87.9623,59.0599 96.5,50.5C 98.5706,51.7862 98.9039,53.4529 97.5,55.5C 91.4796,61.1883 85.4796,66.8549 79.5,72.5 Z"/></g>
<g><path style="opacity:1" fill="#bc9b55" d="M 48.5,63.5 C 46.7971,65.1408 44.6305,66.1408 42,66.5C 41.8333,67.6667 41.6667,68.8333 41.5,70C 41.6083,71.6811 42.2749,72.8478 43.5,73.5C 42.791,74.404 41.791,74.7373 40.5,74.5C 40.5,71.1667 40.5,67.8333 40.5,64.5C 43.1667,64.1667 45.8333,63.8333 48.5,63.5 Z"/></g>
<g><path style="opacity:1" fill="#bd9e4e" d="M 60.5,66.5 C 54.9201,68.9819 49.2534,71.3152 43.5,73.5C 44.635,72.5255 45.635,71.3588 46.5,70C 51.2077,68.9294 55.8744,67.7628 60.5,66.5 Z"/></g>
<g><path style="opacity:1" fill="#917156" d="M 117.5,64.5 C 115.011,64.2978 112.677,64.7978 110.5,66C 118.437,68.9398 123.103,74.6065 124.5,83C 124.316,84.3756 123.649,85.2089 122.5,85.5C 122.47,79.2755 120.137,74.1088 115.5,70C 111.579,68.8613 108.246,69.6946 105.5,72.5C 106.203,70.2843 107.536,68.451 109.5,67C 108.181,66.805 106.847,66.9717 105.5,67.5C 108.967,64.0049 112.967,63.0049 117.5,64.5 Z"/></g>
<g><path style="opacity:1" fill="#cb9d79" d="M 117.5,64.5 C 117.842,65.3382 118.508,65.6716 119.5,65.5C 125.985,74.0238 128.318,83.6905 126.5,94.5C 125.5,95.1667 124.5,95.8333 123.5,96.5C 123.677,92.7657 123.344,89.0991 122.5,85.5C 123.649,85.2089 124.316,84.3756 124.5,83C 123.103,74.6065 118.437,68.9398 110.5,66C 112.677,64.7978 115.011,64.2978 117.5,64.5 Z"/></g>
<g><path style="opacity:1" fill="#ddb54d" d="M 79.5,72.5 C 75.9021,75.3133 72.2355,78.1467 68.5,81C 66.8659,81.4935 65.1992,81.6602 63.5,81.5C 61.396,81.7989 59.396,81.4656 57.5,80.5C 57.8627,79.8165 58.1961,79.1499 58.5,78.5C 61.1612,75.4977 64.4945,73.4977 68.5,72.5C 72.0187,71.7684 75.352,70.4351 78.5,68.5C 79.4287,69.6888 79.762,71.0222 79.5,72.5 Z"/></g>
<g><path style="opacity:1" fill="#ebe9e6" d="M 122.5,85.5 C 123.344,89.0991 123.677,92.7657 123.5,96.5C 123.5,96.8333 123.5,97.1667 123.5,97.5C 122.604,98.5063 121.938,98.5063 121.5,97.5C 121.725,92.752 121.225,88.0853 120,83.5C 117.045,80.6774 115.212,81.344 114.5,85.5C 113.549,86.9187 113.216,88.5853 113.5,90.5C 110.794,90.5751 108.127,90.9084 105.5,91.5C 104.836,86.5275 104.503,81.5275 104.5,76.5C 105.234,75.2921 105.567,73.9587 105.5,72.5C 108.246,69.6946 111.579,68.8613 115.5,70C 120.137,74.1088 122.47,79.2755 122.5,85.5 Z"/></g>
<g><path style="opacity:1" fill="#1c1b1a" d="M 110.5,73.5 C 113.346,73.0301 115.679,73.8634 117.5,76C 112.937,76.7019 109.77,79.2019 108,83.5C 106.861,79.5789 107.695,76.2456 110.5,73.5 Z"/></g>
<g><path style="opacity:1" fill="#b29956" d="M 58.5,78.5 C 58.1961,79.1499 57.8627,79.8165 57.5,80.5C 59.396,81.4656 61.396,81.7989 63.5,81.5C 63.1583,82.3382 62.4916,82.6716 61.5,82.5C 58.9407,82.8016 56.6074,82.4682 54.5,81.5C 55.6366,80.2112 56.9699,79.2112 58.5,78.5 Z"/></g>
<g><path style="opacity:1" fill="#524315" d="M 54.5,81.5 C 56.6074,82.4682 58.9407,82.8016 61.5,82.5C 58.9759,83.8003 56.3092,83.8003 53.5,82.5C 53.6236,81.8933 53.9569,81.56 54.5,81.5 Z"/></g>
<g><path style="opacity:0.557" fill="#6a1f1c" d="M 142.5,92.5 C 140.883,91.962 139.216,91.6287 137.5,91.5C 134.402,91.7556 131.402,92.4222 128.5,93.5C 128.833,92.8333 129.167,92.1667 129.5,91.5C 133.446,90.4731 137.446,90.3064 141.5,91C 142.056,91.3826 142.389,91.8826 142.5,92.5 Z"/></g>
<g><path style="opacity:0.133" fill="#2e160e" d="M 119.5,65.5 C 120.167,65.5 120.833,65.5 121.5,65.5C 126.557,73.4655 129.223,82.1322 129.5,91.5C 129.167,92.1667 128.833,92.8333 128.5,93.5C 127.833,93.5 127.5,93.8333 127.5,94.5C 127.167,94.5 126.833,94.5 126.5,94.5C 128.318,83.6905 125.985,74.0238 119.5,65.5 Z"/></g>
<g><path style="opacity:1" fill="#b18a6a" d="M 72.5,89.5 C 72.0472,90.4584 71.3805,91.2917 70.5,92C 72.3817,92.1981 74.0484,92.6981 75.5,93.5C 70.016,93.4382 68.1826,96.1048 70,101.5C 70.2004,99.6803 71.0337,98.347 72.5,97.5C 72.6813,100.397 72.3479,103.23 71.5,106C 71.8361,107.03 72.5028,107.53 73.5,107.5C 75.9779,108.883 78.6446,109.883 81.5,110.5C 70.8167,110.933 66.3167,105.599 68,94.5C 68.3122,91.6908 69.8122,90.0241 72.5,89.5 Z"/></g>
<g><path style="opacity:1" fill="#2a180f" d="M 75.5,93.5 C 76.3149,94.8366 77.4815,95.8366 79,96.5C 80.8707,101.467 80.0374,101.634 76.5,97C 74.9343,96.235 73.6009,96.4017 72.5,97.5C 71.0337,98.347 70.2004,99.6803 70,101.5C 68.1826,96.1048 70.016,93.4382 75.5,93.5 Z"/></g>
<g><path style="opacity:1" fill="#16100e" d="M 102.5,76.5 C 103.167,76.5 103.833,76.5 104.5,76.5C 104.503,81.5275 104.836,86.5275 105.5,91.5C 106.568,92.4345 107.901,92.7678 109.5,92.5C 110.736,94.0428 112.402,95.0428 114.5,95.5C 115.782,94.0416 115.782,92.7082 114.5,91.5C 114.5,89.5 114.5,87.5 114.5,85.5C 115.212,81.344 117.045,80.6774 120,83.5C 121.225,88.0853 121.725,92.752 121.5,97.5C 120.655,98.6715 119.989,100.005 119.5,101.5C 117.214,101.405 115.214,100.738 113.5,99.5C 111.302,97.6031 108.636,96.6031 105.5,96.5C 103.897,96.6882 102.563,96.1882 101.5,95C 102.476,88.9242 102.81,82.7576 102.5,76.5 Z"/></g>
<g><path style="opacity:1" fill="#a58f56" d="M 114.5,91.5 C 115.782,92.7082 115.782,94.0416 114.5,95.5C 112.402,95.0428 110.736,94.0428 109.5,92.5C 110.919,91.5489 112.585,91.2155 114.5,91.5 Z"/></g>
<g><path style="opacity:1" fill="#978c7b" d="M 114.5,85.5 C 114.5,87.5 114.5,89.5 114.5,91.5C 112.585,91.2155 110.919,91.5489 109.5,92.5C 107.901,92.7678 106.568,92.4345 105.5,91.5C 108.127,90.9084 110.794,90.5751 113.5,90.5C 113.216,88.5853 113.549,86.9187 114.5,85.5 Z"/></g>
<g><path style="opacity:1" fill="#cfa278" d="M 105.5,72.5 C 105.567,73.9587 105.234,75.2921 104.5,76.5C 103.833,76.5 103.167,76.5 102.5,76.5C 104.21,70.6845 103.044,69.6845 99,73.5C 98.51,74.7932 98.3433,76.1266 98.5,77.5C 95.2084,77.1196 92.8751,78.4529 91.5,81.5C 89.3004,86.9578 87.9671,92.6245 87.5,98.5C 82.7621,99.4157 78.9287,101.749 76,105.5C 75.3486,103.765 75.5153,102.098 76.5,100.5C 76.1667,99.5 75.5,98.8333 74.5,98.5C 73.5159,101.428 73.1826,104.428 73.5,107.5C 72.5028,107.53 71.8361,107.03 71.5,106C 72.3479,103.23 72.6813,100.397 72.5,97.5C 73.6009,96.4017 74.9343,96.235 76.5,97C 80.0374,101.634 80.8707,101.467 79,96.5C 77.4815,95.8366 76.3149,94.8366 75.5,93.5C 74.0484,92.6981 72.3817,92.1981 70.5,92C 71.3805,91.2917 72.0472,90.4584 72.5,89.5C 74.9892,89.2978 77.3225,89.7978 79.5,91C 80.9771,93.4449 82.8104,95.6116 85,97.5C 86.8745,91.1282 88.8745,84.7949 91,78.5C 94.3277,72.6511 99.161,68.9844 105.5,67.5C 106.847,66.9717 108.181,66.805 109.5,67C 107.536,68.451 106.203,70.2843 105.5,72.5 Z"/></g>
<g><path style="opacity:1" fill="#c99e7a" d="M 102.5,76.5 C 102.81,82.7576 102.476,88.9242 101.5,95C 102.563,96.1882 103.897,96.6882 105.5,96.5C 107.848,98.0972 110.514,99.0972 113.5,99.5C 115.214,100.738 117.214,101.405 119.5,101.5C 120.167,101.5 120.833,101.5 121.5,101.5C 121.5,101.833 121.5,102.167 121.5,102.5C 121.441,104.722 120.275,105.722 118,105.5C 114.631,104.473 111.464,102.973 108.5,101C 103.617,99.7428 99.2835,100.576 95.5,103.5C 95.33,102.178 95.6634,101.011 96.5,100C 98.7885,99.1779 101.122,98.5112 103.5,98C 102.584,97.6258 101.75,97.1258 101,96.5C 100.833,93.1667 100.667,89.8333 100.5,86.5C 100.514,82.7614 101.18,79.428 102.5,76.5 Z"/></g>
<g><path style="opacity:1" fill="#68482e" d="M 105.5,96.5 C 108.636,96.6031 111.302,97.6031 113.5,99.5C 110.514,99.0972 107.848,98.0972 105.5,96.5 Z"/></g>
<g><path style="opacity:1" fill="#7a2b20" d="M 126.5,94.5 C 126.833,94.5 127.167,94.5 127.5,94.5C 123.536,98.7078 123.869,102.708 128.5,106.5C 126.5,105.5 124.5,104.5 122.5,103.5C 122.5,102.833 122.167,102.5 121.5,102.5C 121.5,102.167 121.5,101.833 121.5,101.5C 122.167,100.167 122.833,98.8333 123.5,97.5C 123.5,97.1667 123.5,96.8333 123.5,96.5C 124.5,95.8333 125.5,95.1667 126.5,94.5 Z"/></g>
<g><path style="opacity:1" fill="#cd382e" d="M 137.5,91.5 C 139.216,91.6287 140.883,91.962 142.5,92.5C 144.052,96.0378 145.052,99.7045 145.5,103.5C 142.246,104.479 138.913,105.146 135.5,105.5C 127.451,105.816 125.117,102.482 128.5,95.5C 131.592,94.1455 134.592,92.8122 137.5,91.5 Z"/></g>
<g><path style="opacity:1" fill="#815f53" d="M 121.5,97.5 C 121.938,98.5063 122.604,98.5063 123.5,97.5C 122.833,98.8333 122.167,100.167 121.5,101.5C 120.833,101.5 120.167,101.5 119.5,101.5C 119.989,100.005 120.655,98.6715 121.5,97.5 Z"/></g>
<g><path style="opacity:1" fill="#8d3029" d="M 142.5,92.5 C 144.587,93.5846 145.92,95.2512 146.5,97.5C 146.795,99.7354 146.461,101.735 145.5,103.5C 145.052,99.7045 144.052,96.0378 142.5,92.5 Z"/></g>
<g><path style="opacity:1" fill="#b23932" d="M 137.5,91.5 C 134.592,92.8122 131.592,94.1455 128.5,95.5C 125.117,102.482 127.451,105.816 135.5,105.5C 138.913,105.146 142.246,104.479 145.5,103.5C 144.71,104.794 143.71,105.961 142.5,107C 138.514,107.499 134.514,107.666 130.5,107.5C 129.508,107.672 128.842,107.338 128.5,106.5C 123.869,102.708 123.536,98.7078 127.5,94.5C 127.5,93.8333 127.833,93.5 128.5,93.5C 131.402,92.4222 134.402,91.7556 137.5,91.5 Z"/></g>
<g><path style="opacity:0.718" fill="#2a0a03" d="M 146.5,97.5 C 147.391,98.2613 148.058,99.2613 148.5,100.5C 147.923,104.355 145.923,107.022 142.5,108.5C 138.298,108.817 134.298,108.483 130.5,107.5C 134.514,107.666 138.514,107.499 142.5,107C 143.71,105.961 144.71,104.794 145.5,103.5C 146.461,101.735 146.795,99.7354 146.5,97.5 Z"/></g>
<g><path style="opacity:0.604" fill="#140e0e" d="M 122.5,103.5 C 124.5,104.5 126.5,105.5 128.5,106.5C 128.842,107.338 129.508,107.672 130.5,107.5C 134.298,108.483 138.298,108.817 142.5,108.5C 139.742,109.761 136.742,110.594 133.5,111C 131.255,115.256 128.922,119.423 126.5,123.5C 125.5,123.167 124.833,122.5 124.5,121.5C 128.806,118.583 130.139,114.583 128.5,109.5C 126.185,108.84 124.519,107.507 123.5,105.5C 123.167,104.833 122.833,104.167 122.5,103.5 Z"/></g>
<g><path style="opacity:1" fill="#563a23" d="M 86.5,114.5 C 85.8333,112.833 85.1667,111.167 84.5,109.5C 85.0024,107.915 86.0024,107.415 87.5,108C 86.5769,110.041 86.2436,112.208 86.5,114.5 Z"/></g>
<g><path style="opacity:1" fill="#413125" d="M 121.5,102.5 C 122.167,102.5 122.5,102.833 122.5,103.5C 122.833,104.167 123.167,104.833 123.5,105.5C 121.693,106.615 119.693,107.281 117.5,107.5C 113.702,105.437 109.702,103.604 105.5,102C 100.345,100.323 97.3455,102.156 96.5,107.5C 99.0866,116.744 103.753,124.744 110.5,131.5C 108.666,132.494 106.999,132.494 105.5,131.5C 107.028,131.483 107.528,130.816 107,129.5C 99.0242,122.558 95.1909,113.891 95.5,103.5C 99.2835,100.576 103.617,99.7428 108.5,101C 111.464,102.973 114.631,104.473 118,105.5C 120.275,105.722 121.441,104.722 121.5,102.5 Z"/></g>
<g><path style="opacity:1" fill="#dba576" d="M 102.5,76.5 C 101.18,79.428 100.514,82.7614 100.5,86.5C 100.667,89.8333 100.833,93.1667 101,96.5C 101.75,97.1258 102.584,97.6258 103.5,98C 101.122,98.5112 98.7885,99.1779 96.5,100C 95.6634,101.011 95.33,102.178 95.5,103.5C 95.1909,113.891 99.0242,122.558 107,129.5C 107.528,130.816 107.028,131.483 105.5,131.5C 100.476,130.487 96.1425,128.154 92.5,124.5C 89.4807,121.797 87.4807,118.464 86.5,114.5C 86.2436,112.208 86.5769,110.041 87.5,108C 86.0024,107.415 85.0024,107.915 84.5,109.5C 83.609,110.11 82.609,110.443 81.5,110.5C 78.6446,109.883 75.9779,108.883 73.5,107.5C 73.1826,104.428 73.5159,101.428 74.5,98.5C 75.5,98.8333 76.1667,99.5 76.5,100.5C 75.5153,102.098 75.3486,103.765 76,105.5C 78.9287,101.749 82.7621,99.4157 87.5,98.5C 87.9671,92.6245 89.3004,86.9578 91.5,81.5C 92.8751,78.4529 95.2084,77.1196 98.5,77.5C 98.3433,76.1266 98.51,74.7932 99,73.5C 103.044,69.6845 104.21,70.6845 102.5,76.5 Z"/></g>
<g><path style="opacity:1" fill="#723631" d="M 110.5,113.5 C 112.117,116.784 114.45,119.451 117.5,121.5C 115.821,121.285 114.821,121.952 114.5,123.5C 110.666,121.048 109.333,117.715 110.5,113.5 Z"/></g>
<g><path style="opacity:1" fill="#431b1b" d="M 108.5,108.5 C 109.309,110.028 109.976,111.694 110.5,113.5C 109.333,117.715 110.666,121.048 114.5,123.5C 116.438,127.169 119.438,128.336 123.5,127C 124.337,125.989 124.67,124.822 124.5,123.5C 121.612,124.01 119.279,123.344 117.5,121.5C 119.833,121.5 122.167,121.5 124.5,121.5C 124.833,122.5 125.5,123.167 126.5,123.5C 126.5,124.833 126.5,126.167 126.5,127.5C 123.904,128.265 121.237,128.599 118.5,128.5C 113.372,125.274 109.372,120.94 106.5,115.5C 105.907,113.039 106.573,110.706 108.5,108.5 Z"/></g>
<g><path style="opacity:1" fill="#dca575" d="M 82.5,129.5 C 80.246,128.876 78.5794,127.543 77.5,125.5C 76.9635,122.335 77.7969,119.669 80,117.5C 80.414,117.957 80.914,118.291 81.5,118.5C 83.7403,121.559 85.407,124.893 86.5,128.5C 85.3112,129.429 83.9778,129.762 82.5,129.5 Z"/></g>
<g><path style="opacity:1" fill="#aa3c34" d="M 117.5,121.5 C 119.279,123.344 121.612,124.01 124.5,123.5C 124.67,124.822 124.337,125.989 123.5,127C 119.438,128.336 116.438,127.169 114.5,123.5C 114.821,121.952 115.821,121.285 117.5,121.5 Z"/></g>
<g><path style="opacity:1" fill="#b18c6f" d="M 82.5,129.5 C 83.9778,129.762 85.3112,129.429 86.5,128.5C 85.407,124.893 83.7403,121.559 81.5,118.5C 80.914,118.291 80.414,117.957 80,117.5C 77.7969,119.669 76.9635,122.335 77.5,125.5C 76.1201,125.038 75.4534,124.038 75.5,122.5C 76.1082,119.674 77.1082,117.008 78.5,114.5C 85.1575,118.14 88.4909,123.807 88.5,131.5C 85.9899,131.946 83.9899,131.28 82.5,129.5 Z"/></g>
<g><path style="opacity:1" fill="#f0f0ef" d="M 123.5,105.5 C 124.519,107.507 126.185,108.84 128.5,109.5C 130.139,114.583 128.806,118.583 124.5,121.5C 122.167,121.5 119.833,121.5 117.5,121.5C 114.45,119.451 112.117,116.784 110.5,113.5C 109.976,111.694 109.309,110.028 108.5,108.5C 107.248,103.676 104.748,102.676 101,105.5C 99.9655,110.432 101.799,113.766 106.5,115.5C 109.372,120.94 113.372,125.274 118.5,128.5C 121.228,129.205 124.061,129.872 127,130.5C 129.406,138.097 126.573,140.93 118.5,139C 115.938,136.267 113.271,133.767 110.5,131.5C 103.753,124.744 99.0866,116.744 96.5,107.5C 97.3455,102.156 100.345,100.323 105.5,102C 109.702,103.604 113.702,105.437 117.5,107.5C 119.693,107.281 121.693,106.615 123.5,105.5 Z"/></g>
<g><path style="opacity:1" fill="#141414" d="M 108.5,108.5 C 106.573,110.706 105.907,113.039 106.5,115.5C 101.799,113.766 99.9655,110.432 101,105.5C 104.748,102.676 107.248,103.676 108.5,108.5 Z"/></g>
<g><path style="opacity:1" fill="#375f13" d="M 92.5,140.5 C 92.5,141.167 92.1667,141.5 91.5,141.5C 87.8333,141.5 84.1667,141.5 80.5,141.5C 80.5,141.167 80.5,140.833 80.5,140.5C 76.902,139.188 73.2353,137.854 69.5,136.5C 67.9934,132.873 68.8267,129.873 72,127.5C 75.1351,129.634 77.9684,132.134 80.5,135C 84.7508,136.631 88.7508,138.464 92.5,140.5 Z"/></g>
<g><path style="opacity:1" fill="#4d8c16" d="M 73.5,131.5 C 75.256,132.552 75.9227,134.219 75.5,136.5C 74.5,136.5 73.5,136.5 72.5,136.5C 72.366,134.708 72.6993,133.042 73.5,131.5 Z"/></g>
<g><path style="opacity:1" fill="#1e1817" d="M 92.5,124.5 C 96.1425,128.154 100.476,130.487 105.5,131.5C 106.999,132.494 108.666,132.494 110.5,131.5C 113.271,133.767 115.938,136.267 118.5,139C 126.573,140.93 129.406,138.097 127,130.5C 124.061,129.872 121.228,129.205 118.5,128.5C 121.237,128.599 123.904,128.265 126.5,127.5C 129.217,130.637 130.051,134.304 129,138.5C 127.51,140.558 125.51,141.891 123,142.5C 117.74,141.235 113.573,138.401 110.5,134C 104.931,133.197 99.5979,131.697 94.5,129.5C 93.5592,127.95 92.8925,126.284 92.5,124.5 Z"/></g>
<g><path style="opacity:1" fill="#4f8417" d="M 80.5,140.5 C 80.8808,138.058 80.2141,137.391 78.5,138.5C 77.3861,137.277 77.2195,135.944 78,134.5C 80.5119,136.264 83.0119,137.931 85.5,139.5C 83.9547,140.452 82.288,140.785 80.5,140.5 Z"/></g>
<g><path style="opacity:1" fill="#887862" d="M 64.5,139.5 C 66.7354,139.205 68.7354,139.539 70.5,140.5C 66.7852,140.423 63.1185,140.756 59.5,141.5C 60.7804,140.069 62.4471,139.402 64.5,139.5 Z"/></g>
<g><path style="opacity:1" fill="#372003" d="M 80.5,141.5 C 84.1667,141.5 87.8333,141.5 91.5,141.5C 87.5,142.167 83.5,142.833 79.5,143.5C 76.8136,142.012 77.1469,141.345 80.5,141.5 Z"/></g>
<g><path style="opacity:0.816" fill="#691f1a" d="M 101.5,145.5 C 105.417,147.412 109.083,149.745 112.5,152.5C 112.5,153.167 112.5,153.833 112.5,154.5C 108.518,151.848 104.851,148.848 101.5,145.5 Z"/></g>
<g><path style="opacity:0.969" fill="#260200" d="M 112.5,152.5 C 116.566,155.563 119.899,159.229 122.5,163.5C 119.167,160.5 115.833,157.5 112.5,154.5C 112.5,153.833 112.5,153.167 112.5,152.5 Z"/></g>
<g><path style="opacity:1" fill="#491711" d="M 79.5,144.5 C 80.8846,145.574 82.0513,146.907 83,148.5C 86.9685,156.996 88.8019,165.996 88.5,175.5C 87.5489,176.919 87.2155,178.585 87.5,180.5C 86.8333,175.167 86.1667,169.833 85.5,164.5C 85.5,164.167 85.5,163.833 85.5,163.5C 85.4349,160.572 84.7682,157.905 83.5,155.5C 82.7264,151.951 81.393,148.618 79.5,145.5C 79.5,145.167 79.5,144.833 79.5,144.5 Z"/></g>
<g><path style="opacity:1" fill="#ca362d" d="M 68.5,149.5 C 69.6049,150.6 70.9382,151.267 72.5,151.5C 73.3283,155.154 74.8283,158.487 77,161.5C 77.4955,163.473 77.6621,165.473 77.5,167.5C 76.9106,181.492 76.5772,195.492 76.5,209.5C 71.4461,210.644 66.4461,210.644 61.5,209.5C 60.6618,209.158 60.3284,208.492 60.5,207.5C 59.9082,203.095 59.9082,198.762 60.5,194.5C 62.0376,191.151 63.8709,187.818 66,184.5C 67.9773,179.699 67.8107,175.033 65.5,170.5C 64.675,169.614 63.675,169.281 62.5,169.5C 62.5,171.5 62.5,173.5 62.5,175.5C 61.8826,175.611 61.3826,175.944 61,176.5C 59.7589,182.606 57.5922,188.273 54.5,193.5C 53.1482,192.476 51.8149,191.476 50.5,190.5C 48.6833,188.988 47.6833,186.988 47.5,184.5C 42.1224,182.539 40.1224,184.539 41.5,190.5C 39.5165,190.617 37.8498,189.95 36.5,188.5C 35.4063,189.868 35.7397,191.035 37.5,192C 36.2532,193.458 36.2532,194.958 37.5,196.5C 42.8494,198.274 47.8494,200.607 52.5,203.5C 53.8333,204.5 55.1667,205.5 56.5,206.5C 56.4598,209.425 57.2932,212.091 59,214.5C 59.498,217.482 59.6646,220.482 59.5,223.5C 57.6535,225.03 56.6535,227.03 56.5,229.5C 56.1667,229.5 55.8333,229.5 55.5,229.5C 47.4809,232.725 39.1475,233.392 30.5,231.5C 24.3487,226.181 19.5154,219.847 16,212.5C 15.3333,209.5 15.3333,206.5 16,203.5C 18.3639,199.781 19.8639,195.781 20.5,191.5C 23.7969,189.867 25.4636,187.2 25.5,183.5C 27.2292,182.883 28.7292,181.883 30,180.5C 34.5095,169.654 41.0095,160.154 49.5,152C 55.3571,148.218 61.6904,147.385 68.5,149.5 Z"/></g>
<g><path style="opacity:1" fill="#cc372d" d="M 101.5,145.5 C 104.851,148.848 108.518,151.848 112.5,154.5C 112.5,155.167 112.5,155.833 112.5,156.5C 111.542,156.047 110.708,155.381 110,154.5C 109.833,154.833 109.667,155.167 109.5,155.5C 112.892,158.607 115.558,162.274 117.5,166.5C 118.801,169.427 119.801,172.427 120.5,175.5C 120.167,175.5 119.833,175.5 119.5,175.5C 118.761,171.706 117.427,171.539 115.5,175C 115.957,175.414 116.291,175.914 116.5,176.5C 113.14,179.441 110.14,182.607 107.5,186C 106.5,186.667 105.5,186.667 104.5,186C 105.38,184.644 105.714,183.144 105.5,181.5C 104.178,181.33 103.011,181.663 102,182.5C 101.825,185.157 101.992,187.824 102.5,190.5C 100.194,190.007 97.861,189.674 95.5,189.5C 95.5,192.167 95.5,194.833 95.5,197.5C 98.2476,197.402 98.9143,198.402 97.5,200.5C 95.139,200.674 92.8056,201.007 90.5,201.5C 90.6665,189.495 90.4999,177.495 90,165.5C 88.9087,161.54 87.9087,157.54 87,153.5C 85.4256,150.678 83.9256,147.844 82.5,145C 86.6102,144.675 90.6102,143.842 94.5,142.5C 96.7033,143.767 99.0367,144.767 101.5,145.5 Z"/></g>
<g><path style="opacity:1" fill="#927c68" d="M 83.5,155.5 C 84.7682,157.905 85.4349,160.572 85.5,163.5C 83.9605,161.162 83.2938,158.495 83.5,155.5 Z"/></g>
<g><path style="opacity:1" fill="#be4f3e" d="M 112.5,154.5 C 115.833,157.5 119.167,160.5 122.5,163.5C 123.723,166.274 125.223,168.941 127,171.5C 127.953,174.432 128.453,177.432 128.5,180.5C 126.938,180.733 125.605,181.4 124.5,182.5C 124.67,181.178 124.337,180.011 123.5,179C 124.449,178.383 125.282,178.549 126,179.5C 126.212,173.745 124.045,168.911 119.5,165C 118.552,164.517 117.552,164.351 116.5,164.5C 117.226,160.74 115.893,158.073 112.5,156.5C 112.5,155.833 112.5,155.167 112.5,154.5 Z"/></g>
<g><path style="opacity:1" fill="#e35038" d="M 112.5,156.5 C 115.893,158.073 117.226,160.74 116.5,164.5C 117.552,164.351 118.552,164.517 119.5,165C 124.045,168.911 126.212,173.745 126,179.5C 125.282,178.549 124.449,178.383 123.5,179C 124.337,180.011 124.67,181.178 124.5,182.5C 123.178,182.67 122.011,182.337 121,181.5C 121.559,179.362 121.392,177.362 120.5,175.5C 119.801,172.427 118.801,169.427 117.5,166.5C 115.558,162.274 112.892,158.607 109.5,155.5C 109.667,155.167 109.833,154.833 110,154.5C 110.708,155.381 111.542,156.047 112.5,156.5 Z"/></g>
<g><path style="opacity:1" fill="#7f2b25" d="M 72.5,151.5 C 76.0586,154.616 78.2253,158.616 79,163.5C 79.8223,171.345 79.6557,179.011 78.5,186.5C 78.8235,179.978 78.4902,173.645 77.5,167.5C 77.6621,165.473 77.4955,163.473 77,161.5C 74.8283,158.487 73.3283,155.154 72.5,151.5 Z"/></g>
<g><path style="opacity:0.702" fill="#240904" d="M 122.5,163.5 C 127.244,167.694 129.911,173.027 130.5,179.5C 130.158,180.338 129.492,180.672 128.5,180.5C 128.453,177.432 127.953,174.432 127,171.5C 125.223,168.941 123.723,166.274 122.5,163.5 Z"/></g>
<g><path style="opacity:1" fill="#26140f" d="M 57.5,142.5 C 61.046,144.579 65.046,146.079 69.5,147C 75.2098,149.873 78.8765,154.373 80.5,160.5C 81.0496,177.473 81.0496,194.473 80.5,211.5C 79.8333,210.833 79.1667,210.167 78.5,209.5C 78.5,201.833 78.5,194.167 78.5,186.5C 79.6557,179.011 79.8223,171.345 79,163.5C 78.2253,158.616 76.0586,154.616 72.5,151.5C 70.9382,151.267 69.6049,150.6 68.5,149.5C 67.3192,147.933 65.6526,147.099 63.5,147C 60.1832,146.502 56.8499,146.335 53.5,146.5C 54.5,144.833 55.8333,143.5 57.5,142.5 Z"/></g>
<g><path style="opacity:1" fill="#a83933" d="M 92.5,140.5 C 93.1667,140.5 93.8333,140.5 94.5,140.5C 97.3702,141.433 99.7036,143.1 101.5,145.5C 99.0367,144.767 96.7033,143.767 94.5,142.5C 90.6102,143.842 86.6102,144.675 82.5,145C 83.9256,147.844 85.4256,150.678 87,153.5C 87.9087,157.54 88.9087,161.54 90,165.5C 90.4999,177.495 90.6665,189.495 90.5,201.5C 92.8056,201.007 95.139,200.674 97.5,200.5C 96.1007,201.89 94.4341,202.89 92.5,203.5C 91.1667,203.5 89.8333,203.5 88.5,203.5C 88.5,194.167 88.5,184.833 88.5,175.5C 88.8019,165.996 86.9685,156.996 83,148.5C 82.0513,146.907 80.8846,145.574 79.5,144.5C 79.5,144.167 79.5,143.833 79.5,143.5C 83.5,142.833 87.5,142.167 91.5,141.5C 92.1667,141.5 92.5,141.167 92.5,140.5 Z"/></g>
<g><path style="opacity:1" fill="#9c322e" d="M 53.5,146.5 C 56.8499,146.335 60.1832,146.502 63.5,147C 65.6526,147.099 67.3192,147.933 68.5,149.5C 61.6904,147.385 55.3571,148.218 49.5,152C 41.0095,160.154 34.5095,169.654 30,180.5C 28.7292,181.883 27.2292,182.883 25.5,183.5C 30.2235,173.055 36.2235,163.389 43.5,154.5C 46.429,151.364 49.7623,148.697 53.5,146.5 Z"/></g>
<g><path style="opacity:1" fill="#9b342f" d="M 62.5,175.5 C 61.9253,179.622 60.9253,183.622 59.5,187.5C 58.6897,189.798 57.8564,192.132 57,194.5C 55.9887,195.337 54.8221,195.67 53.5,195.5C 49.259,189.955 48.0923,190.288 50,196.5C 47.7908,196.011 45.9575,195.011 44.5,193.5C 45.675,193.719 46.675,193.386 47.5,192.5C 46.5,191.167 45.5,189.833 44.5,188.5C 44.8333,188.167 45.1667,187.833 45.5,187.5C 46.9397,188.952 48.6064,189.952 50.5,190.5C 51.8149,191.476 53.1482,192.476 54.5,193.5C 57.5922,188.273 59.7589,182.606 61,176.5C 61.3826,175.944 61.8826,175.611 62.5,175.5 Z"/></g>
<g><path style="opacity:1" fill="#b83732" d="M 60.5,194.5 C 61.1495,192.565 61.4828,190.565 61.5,188.5C 62.9369,184.258 64.2702,179.924 65.5,175.5C 65.1667,174.5 64.8333,173.5 64.5,172.5C 63.8243,173.602 63.1577,174.602 62.5,175.5C 62.5,173.5 62.5,171.5 62.5,169.5C 63.675,169.281 64.675,169.614 65.5,170.5C 67.8107,175.033 67.9773,179.699 66,184.5C 63.8709,187.818 62.0376,191.151 60.5,194.5 Z"/></g>
<g><path style="opacity:1" fill="#f0d6ba" d="M 70.5,140.5 C 73.7201,141.641 76.7201,143.307 79.5,145.5C 81.393,148.618 82.7264,151.951 83.5,155.5C 83.2938,158.495 83.9605,161.162 85.5,163.5C 85.5,163.833 85.5,164.167 85.5,164.5C 85.0855,177.047 85.7522,189.38 87.5,201.5C 87.5,202.833 87.5,204.167 87.5,205.5C 87.5,207.5 87.5,209.5 87.5,211.5C 87.5,213.5 87.5,215.5 87.5,217.5C 85.5,217.5 83.5,217.5 81.5,217.5C 81.8283,199.495 81.9949,181.495 82,163.5C 81.7679,162.263 81.2679,161.263 80.5,160.5C 78.8765,154.373 75.2098,149.873 69.5,147C 65.046,146.079 61.046,144.579 57.5,142.5C 57.8417,141.662 58.5084,141.328 59.5,141.5C 63.1185,140.756 66.7852,140.423 70.5,140.5 Z"/></g>
<g><path style="opacity:1" fill="#b9a38d" d="M 85.5,164.5 C 86.1667,169.833 86.8333,175.167 87.5,180.5C 87.5,187.5 87.5,194.5 87.5,201.5C 85.7522,189.38 85.0855,177.047 85.5,164.5 Z"/></g>
<g><path style="opacity:1" fill="#bc3830" d="M 119.5,175.5 C 113.44,184.1 105.774,190.933 96.5,196C 97,196.167 97.5,196.333 98,196.5C 108.22,192.325 115.72,185.325 120.5,175.5C 121.392,177.362 121.559,179.362 121,181.5C 122.011,182.337 123.178,182.67 124.5,182.5C 120.865,185.659 117.198,188.826 113.5,192C 108.008,194.689 102.674,197.523 97.5,200.5C 98.9143,198.402 98.2476,197.402 95.5,197.5C 95.5,194.833 95.5,192.167 95.5,189.5C 97.861,189.674 100.194,190.007 102.5,190.5C 101.992,187.824 101.825,185.157 102,182.5C 103.011,181.663 104.178,181.33 105.5,181.5C 105.714,183.144 105.38,184.644 104.5,186C 105.5,186.667 106.5,186.667 107.5,186C 110.14,182.607 113.14,179.441 116.5,176.5C 116.291,175.914 115.957,175.414 115.5,175C 117.427,171.539 118.761,171.706 119.5,175.5 Z"/></g>
<g><path style="opacity:1" fill="#4a090a" d="M 61.5,188.5 C 61.5912,186.302 60.9245,185.969 59.5,187.5C 60.9253,183.622 61.9253,179.622 62.5,175.5C 63.1577,174.602 63.8243,173.602 64.5,172.5C 64.8333,173.5 65.1667,174.5 65.5,175.5C 64.2702,179.924 62.9369,184.258 61.5,188.5 Z"/></g>
<g><path style="opacity:1" fill="#6b0f0a" d="M 119.5,175.5 C 119.833,175.5 120.167,175.5 120.5,175.5C 115.72,185.325 108.22,192.325 98,196.5C 97.5,196.333 97,196.167 96.5,196C 105.774,190.933 113.44,184.1 119.5,175.5 Z"/></g>
<g><path style="opacity:1" fill="#3f6a0a" d="M 133.5,184.5 C 136.109,185.443 138.109,187.11 139.5,189.5C 136.865,188.527 134.865,186.86 133.5,184.5 Z"/></g>
<g><path style="opacity:1" fill="#8f2f2c" d="M 25.5,183.5 C 25.4636,187.2 23.7969,189.867 20.5,191.5C 21.6693,188.489 23.336,185.822 25.5,183.5 Z"/></g>
<g><path style="opacity:1" fill="#be3831" d="M 50.5,190.5 C 48.6064,189.952 46.9397,188.952 45.5,187.5C 45.1667,187.833 44.8333,188.167 44.5,188.5C 45.5,189.833 46.5,191.167 47.5,192.5C 46.675,193.386 45.675,193.719 44.5,193.5C 43.0222,193.238 41.6888,193.571 40.5,194.5C 44.5316,196.884 48.5316,199.217 52.5,201.5C 52.5,202.167 52.5,202.833 52.5,203.5C 47.8494,200.607 42.8494,198.274 37.5,196.5C 36.2532,194.958 36.2532,193.458 37.5,192C 35.7397,191.035 35.4063,189.868 36.5,188.5C 37.8498,189.95 39.5165,190.617 41.5,190.5C 40.1224,184.539 42.1224,182.539 47.5,184.5C 47.6833,186.988 48.6833,188.988 50.5,190.5 Z"/></g>
<g><path style="opacity:1" fill="#4c9a02" d="M 128.5,181.5 C 130.933,181.273 132.599,182.273 133.5,184.5C 134.865,186.86 136.865,188.527 139.5,189.5C 144.111,193.375 148.278,197.708 152,202.5C 152.791,203.745 153.291,205.078 153.5,206.5C 154.447,211.809 154.614,217.142 154,222.5C 156.305,224.93 159.138,225.93 162.5,225.5C 162.575,228.206 162.908,230.873 163.5,233.5C 147.838,235.199 132.172,235.365 116.5,234C 107.91,232.461 99.5768,230.294 91.5,227.5C 91.3341,222.489 91.5007,217.489 92,212.5C 94.0643,210.699 95.8977,208.699 97.5,206.5C 100.918,204.388 104.585,202.721 108.5,201.5C 109.26,199.64 110.26,197.973 111.5,196.5C 114.764,194.906 117.431,192.573 119.5,189.5C 122.474,186.862 125.474,184.195 128.5,181.5 Z"/></g>
<g><path style="opacity:1" fill="#2a0401" d="M 88.5,175.5 C 88.5,184.833 88.5,194.167 88.5,203.5C 89.8333,203.5 91.1667,203.5 92.5,203.5C 92.189,204.478 91.5223,205.145 90.5,205.5C 89.4728,204.209 88.4728,204.209 87.5,205.5C 87.5,204.167 87.5,202.833 87.5,201.5C 87.5,194.5 87.5,187.5 87.5,180.5C 87.2155,178.585 87.5489,176.919 88.5,175.5 Z"/></g>
<g><path style="opacity:1" fill="#3c6414" d="M 119.5,189.5 C 117.431,192.573 114.764,194.906 111.5,196.5C 113.569,193.427 116.236,191.094 119.5,189.5 Z"/></g>
<g><path style="opacity:1" fill="#290907" d="M 61.5,188.5 C 61.4828,190.565 61.1495,192.565 60.5,194.5C 59.8826,194.611 59.3826,194.944 59,195.5C 58.5045,197.473 58.3379,199.473 58.5,201.5C 57.5489,200.081 57.2155,198.415 57.5,196.5C 55.901,196.768 54.5676,196.434 53.5,195.5C 54.8221,195.67 55.9887,195.337 57,194.5C 57.8564,192.132 58.6897,189.798 59.5,187.5C 60.9245,185.969 61.5912,186.302 61.5,188.5 Z"/></g>
<g><path style="opacity:1" fill="#7d2725" d="M 60.5,194.5 C 59.9082,198.762 59.9082,203.095 60.5,207.5C 59.8333,205.5 59.1667,203.5 58.5,201.5C 58.3379,199.473 58.5045,197.473 59,195.5C 59.3826,194.944 59.8826,194.611 60.5,194.5 Z"/></g>
<g><path style="opacity:1" fill="#407c12" d="M 111.5,196.5 C 110.26,197.973 109.26,199.64 108.5,201.5C 104.585,202.721 100.918,204.388 97.5,206.5C 97.9371,204.926 98.9371,203.759 100.5,203C 104.071,200.579 107.738,198.413 111.5,196.5 Z"/></g>
<g><path style="opacity:1" fill="#64201b" d="M 52.5,201.5 C 54.5869,202.585 55.9202,204.251 56.5,206.5C 55.1667,205.5 53.8333,204.5 52.5,203.5C 52.5,202.833 52.5,202.167 52.5,201.5 Z"/></g>
<g><path style="opacity:1" fill="#c9b9a3" d="M 80.5,160.5 C 81.2679,161.263 81.7679,162.263 82,163.5C 81.9949,181.495 81.8283,199.495 81.5,217.5C 83.5,217.5 85.5,217.5 87.5,217.5C 87.5,215.5 87.5,213.5 87.5,211.5C 87.8333,211.5 88.1667,211.5 88.5,211.5C 88.6646,214.518 88.498,217.518 88,220.5C 86.9887,219.663 85.8221,219.33 84.5,219.5C 83.4324,218.566 82.099,218.232 80.5,218.5C 80.5,216.167 80.5,213.833 80.5,211.5C 81.0496,194.473 81.0496,177.473 80.5,160.5 Z"/></g>
<g><path style="opacity:1" fill="#140b03" d="M 128.5,180.5 C 128.5,180.833 128.5,181.167 128.5,181.5C 125.474,184.195 122.474,186.862 119.5,189.5C 116.236,191.094 113.569,193.427 111.5,196.5C 107.738,198.413 104.071,200.579 100.5,203C 98.9371,203.759 97.9371,204.926 97.5,206.5C 95.5659,207.11 93.8993,208.11 92.5,209.5C 90.9731,209.427 89.9731,210.094 89.5,211.5C 89.1667,211.5 88.8333,211.5 88.5,211.5C 88.1667,211.5 87.8333,211.5 87.5,211.5C 87.5,209.5 87.5,207.5 87.5,205.5C 88.4728,204.209 89.4728,204.209 90.5,205.5C 91.5223,205.145 92.189,204.478 92.5,203.5C 94.4341,202.89 96.1007,201.89 97.5,200.5C 102.674,197.523 108.008,194.689 113.5,192C 117.198,188.826 120.865,185.659 124.5,182.5C 125.605,181.4 126.938,180.733 128.5,180.5 Z"/></g>
<g><path style="opacity:1" fill="#9d362f" d="M 77.5,167.5 C 78.4902,173.645 78.8235,179.978 78.5,186.5C 78.5,194.167 78.5,201.833 78.5,209.5C 78.5,210.167 78.1667,210.5 77.5,210.5C 72.3028,212.087 66.9695,212.754 61.5,212.5C 61.5,211.5 61.5,210.5 61.5,209.5C 66.4461,210.644 71.4461,210.644 76.5,209.5C 76.5772,195.492 76.9106,181.492 77.5,167.5 Z"/></g>
<g><path style="opacity:1" fill="#4d8115" d="M 97.5,206.5 C 95.8977,208.699 94.0643,210.699 92,212.5C 91.5007,217.489 91.3341,222.489 91.5,227.5C 90.5489,226.081 90.2155,224.415 90.5,222.5C 89.9749,217.86 90.6416,213.527 92.5,209.5C 93.8993,208.11 95.5659,207.11 97.5,206.5 Z"/></g>
<g><path style="opacity:1" fill="#210402" d="M 53.5,195.5 C 54.5676,196.434 55.901,196.768 57.5,196.5C 57.2155,198.415 57.5489,200.081 58.5,201.5C 59.1667,203.5 59.8333,205.5 60.5,207.5C 60.3284,208.492 60.6618,209.158 61.5,209.5C 61.5,210.5 61.5,211.5 61.5,212.5C 66.9695,212.754 72.3028,212.087 77.5,210.5C 77.3893,211.117 77.056,211.617 76.5,212C 71.5474,213.16 66.5474,213.993 61.5,214.5C 61.8064,217.385 61.4731,220.052 60.5,222.5C 61.2581,216.527 59.9248,211.194 56.5,206.5C 55.9202,204.251 54.5869,202.585 52.5,201.5C 48.5316,199.217 44.5316,196.884 40.5,194.5C 41.6888,193.571 43.0222,193.238 44.5,193.5C 45.9575,195.011 47.7908,196.011 50,196.5C 48.0923,190.288 49.259,189.955 53.5,195.5 Z"/></g>
<g><path style="opacity:1" fill="#752923" d="M 56.5,206.5 C 59.9248,211.194 61.2581,216.527 60.5,222.5C 60.5,222.833 60.5,223.167 60.5,223.5C 60.1667,223.5 59.8333,223.5 59.5,223.5C 59.6646,220.482 59.498,217.482 59,214.5C 57.2932,212.091 56.4598,209.425 56.5,206.5 Z"/></g>
<g><path style="opacity:1" fill="#90312d" d="M 20.5,191.5 C 19.8639,195.781 18.3639,199.781 16,203.5C 15.3333,206.5 15.3333,209.5 16,212.5C 19.5154,219.847 24.3487,226.181 30.5,231.5C 19.4959,224.819 14.3292,215.153 15,202.5C 16.3366,198.493 18.1699,194.827 20.5,191.5 Z"/></g>
<g><path style="opacity:1" fill="#4e8916" d="M 153.5,206.5 C 157.051,208.266 158.384,210.932 157.5,214.5C 156.007,215.312 155.34,216.645 155.5,218.5C 155.52,219.726 155.853,220.726 156.5,221.5C 158.588,223.02 160.922,224.02 163.5,224.5C 164.368,227.673 164.368,230.673 163.5,233.5C 162.908,230.873 162.575,228.206 162.5,225.5C 159.138,225.93 156.305,224.93 154,222.5C 154.614,217.142 154.447,211.809 153.5,206.5 Z"/></g>
<g><path style="opacity:0.996" fill="#0b0806" d="M 130.5,179.5 C 148.56,191.934 161.06,208.601 168,229.5C 171.102,231.704 172.602,234.704 172.5,238.5C 169.744,254.843 163.077,269.343 152.5,282C 149.208,285.138 145.542,287.638 141.5,289.5C 133.938,294.2 126.105,298.534 118,302.5C 116.561,304.275 115.561,306.275 115,308.5C 113.498,321.176 109.832,333.176 104,344.5C 102.629,346.041 101.129,347.375 99.5,348.5C 95.4488,352.071 92.2821,356.404 90,361.5C 89.5034,363.81 89.3367,366.143 89.5,368.5C 89.1583,369.338 88.4916,369.672 87.5,369.5C 87.5,368.167 87.5,366.833 87.5,365.5C 87.5,364.833 87.5,364.167 87.5,363.5C 88.404,362.791 88.7373,361.791 88.5,360.5C 86.0971,360.552 83.7638,360.219 81.5,359.5C 79.866,358.839 78.0326,358.506 76,358.5C 73.7047,358.547 71.8714,359.213 70.5,360.5C 65.4688,361.783 60.4688,361.783 55.5,360.5C 54.791,359.596 53.791,359.263 52.5,359.5C 52.1936,362.385 52.5269,365.052 53.5,367.5C 53.5,367.833 53.5,368.167 53.5,368.5C 53.8333,370.833 55.1667,372.167 57.5,372.5C 61.2984,373.483 65.2984,373.817 69.5,373.5C 69.5,373.833 69.5,374.167 69.5,374.5C 64.8215,374.666 60.1548,374.499 55.5,374C 54.3474,372.117 52.6807,371.284 50.5,371.5C 50.1667,371.5 49.8333,371.5 49.5,371.5C 53.3262,362.151 51.1596,354.151 43,347.5C 41.3333,344.833 39.6667,342.167 38,339.5C 35.6736,324.921 34.0069,310.254 33,295.5C 32.3623,292.236 31.1957,289.236 29.5,286.5C 30.5,286.5 31.5,286.5 32.5,286.5C 33.5,286.5 34.5,286.5 35.5,286.5C 35.1015,281.588 34.1015,276.921 32.5,272.5C 31.8333,272.167 31.1667,271.833 30.5,271.5C 30.5,270.833 30.8333,270.5 31.5,270.5C 35.226,270.823 38.8927,270.489 42.5,269.5C 39.4086,268.023 36.4086,266.356 33.5,264.5C 32.4777,264.855 31.811,265.522 31.5,266.5C 30.8761,266.083 30.5427,265.416 30.5,264.5C 30.9289,261.971 31.5955,259.638 32.5,257.5C 32.2627,258.791 32.596,259.791 33.5,260.5C 38.9578,267.351 45.2911,268.184 52.5,263C 55.0666,260.604 57.4,258.104 59.5,255.5C 60.1667,256.167 60.8333,256.833 61.5,257.5C 61.5,258.167 61.8333,258.5 62.5,258.5C 62.9157,263.493 63.2491,268.493 63.5,273.5C 64.5864,283.635 65.5864,293.635 66.5,303.5C 67.4964,319.325 67.8297,335.325 67.5,351.5C 67.5,352.833 67.5,354.167 67.5,355.5C 69.5,355.5 71.5,355.5 73.5,355.5C 73.7804,328.148 73.4471,300.815 72.5,273.5C 72.5,270.833 72.5,268.167 72.5,265.5C 72.6787,259.596 72.0121,253.929 70.5,248.5C 70.042,239.795 69.2086,231.129 68,222.5C 67.7767,224.881 66.61,226.547 64.5,227.5C 61.1289,228.805 59.7955,227.471 60.5,223.5C 60.5,223.167 60.5,222.833 60.5,222.5C 61.4731,220.052 61.8064,217.385 61.5,214.5C 66.5474,213.993 71.5474,213.16 76.5,212C 77.056,211.617 77.3893,211.117 77.5,210.5C 78.1667,210.5 78.5,210.167 78.5,209.5C 79.1667,210.167 79.8333,210.833 80.5,211.5C 80.5,213.833 80.5,216.167 80.5,218.5C 82.099,218.232 83.4324,218.566 84.5,219.5C 79.7164,219.108 76.7164,221.275 75.5,226C 76.7164,230.725 79.7164,232.892 84.5,232.5C 84.5,232.833 84.5,233.167 84.5,233.5C 83.7304,272.522 82.5637,311.522 81,350.5C 82.6667,348.5 84.3333,346.5 86,344.5C 86.1987,331.969 87.032,319.636 88.5,307.5C 89.6956,301.03 90.3623,294.363 90.5,287.5C 91.5417,279.538 92.2084,271.538 92.5,263.5C 93.4946,252.679 93.8279,241.679 93.5,230.5C 94.8333,230.833 96.1667,231.167 97.5,231.5C 103.335,233.458 109.335,234.791 115.5,235.5C 117.838,237.04 120.505,237.706 123.5,237.5C 124.209,238.404 125.209,238.737 126.5,238.5C 127.919,239.451 129.585,239.784 131.5,239.5C 131.5,244.167 131.5,248.833 131.5,253.5C 131.5,254.833 131.5,256.167 131.5,257.5C 129.77,261.883 128.77,266.55 128.5,271.5C 128.5,271.833 128.5,272.167 128.5,272.5C 127.651,274.888 126.651,277.221 125.5,279.5C 122.865,285.149 120.198,290.816 117.5,296.5C 119.97,296.346 121.97,295.346 123.5,293.5C 128.519,290.837 132.186,286.837 134.5,281.5C 136.048,281.179 136.715,280.179 136.5,278.5C 137.345,277.329 138.011,275.995 138.5,274.5C 140.811,263.294 141.811,251.961 141.5,240.5C 142.167,239.833 142.833,239.167 143.5,238.5C 144.5,238.5 145.5,238.5 146.5,238.5C 151.103,238.138 155.436,237.138 159.5,235.5C 160.833,235.167 162.167,234.833 163.5,234.5C 164.5,234.5 165.5,234.5 166.5,234.5C 166.277,230.838 165.277,227.505 163.5,224.5C 160.922,224.02 158.588,223.02 156.5,221.5C 156.448,219.097 156.781,216.764 157.5,214.5C 158.384,210.932 157.051,208.266 153.5,206.5C 153.291,205.078 152.791,203.745 152,202.5C 148.278,197.708 144.111,193.375 139.5,189.5C 138.109,187.11 136.109,185.443 133.5,184.5C 132.599,182.273 130.933,181.273 128.5,181.5C 128.5,181.167 128.5,180.833 128.5,180.5C 129.492,180.672 130.158,180.338 130.5,179.5 Z"/></g>
<g><path style="opacity:1" fill="#96824f" d="M 84.5,219.5 C 88.2522,221.749 89.4188,225.082 88,229.5C 86.8549,230.636 85.6883,231.636 84.5,232.5C 79.7164,232.892 76.7164,230.725 75.5,226C 76.7164,221.275 79.7164,219.108 84.5,219.5 Z"/></g>
<g><path style="opacity:1" fill="#957425" d="M 83.5,221.5 C 87.1461,222.462 88.3128,224.795 87,228.5C 84.8471,230.444 82.3471,230.944 79.5,230C 76.5948,226.626 76.9281,223.626 80.5,221C 81.7494,220.26 82.7494,220.427 83.5,221.5 Z"/></g>
<g><path style="opacity:1" fill="#46771b" d="M 67.5,216.5 C 69.5,216.5 71.5,216.5 73.5,216.5C 73.5,218.167 73.5,219.833 73.5,221.5C 69.6509,221.981 67.6509,220.314 67.5,216.5 Z"/></g>
<g><path style="opacity:1" fill="#0b2900" d="M 157.5,214.5 C 156.781,216.764 156.448,219.097 156.5,221.5C 155.853,220.726 155.52,219.726 155.5,218.5C 155.34,216.645 156.007,215.312 157.5,214.5 Z"/></g>
<g><path style="opacity:1" fill="#345608" d="M 92.5,209.5 C 90.6416,213.527 89.9749,217.86 90.5,222.5C 89.5184,219.038 89.185,215.371 89.5,211.5C 89.9731,210.094 90.9731,209.427 92.5,209.5 Z"/></g>
<g><path style="opacity:1" fill="#e8b94f" d="M 83.5,221.5 C 88.0486,226.362 87.0486,228.862 80.5,229C 78.6076,225.242 79.6076,222.742 83.5,221.5 Z"/></g>
<g><path style="opacity:1" fill="#20230b" d="M 88.5,211.5 C 88.8333,211.5 89.1667,211.5 89.5,211.5C 89.185,215.371 89.5184,219.038 90.5,222.5C 90.2155,224.415 90.5489,226.081 91.5,227.5C 93.5,228.833 95.5,230.167 97.5,231.5C 96.1667,231.167 94.8333,230.833 93.5,230.5C 92.8333,230.5 92.1667,230.5 91.5,230.5C 88.9616,231.043 86.6282,232.043 84.5,233.5C 84.5,233.167 84.5,232.833 84.5,232.5C 85.6883,231.636 86.8549,230.636 88,229.5C 89.4188,225.082 88.2522,221.749 84.5,219.5C 85.8221,219.33 86.9887,219.663 88,220.5C 88.498,217.518 88.6646,214.518 88.5,211.5 Z"/></g>
<g><path style="opacity:0.83" fill="#040302" d="M 13.5,215.5 C 15.3166,218.959 17.3166,222.292 19.5,225.5C 16.7459,229.695 15.0792,234.362 14.5,239.5C 13.6554,240.671 12.9887,242.005 12.5,243.5C 10.9783,244.431 9.64492,245.598 8.5,247C 9.42486,252.116 9.75819,257.283 9.5,262.5C 2.98507,247.72 4.48507,233.72 14,220.5C 14.3845,218.803 14.2178,217.137 13.5,215.5 Z"/></g>
<g><path style="opacity:1" fill="#3d6117" d="M 163.5,224.5 C 165.277,227.505 166.277,230.838 166.5,234.5C 165.5,234.5 164.5,234.5 163.5,234.5C 163.5,234.167 163.5,233.833 163.5,233.5C 164.368,230.673 164.368,227.673 163.5,224.5 Z"/></g>
<g><path style="opacity:1" fill="#1b0804" d="M 43.5,154.5 C 36.2235,163.389 30.2235,173.055 25.5,183.5C 23.336,185.822 21.6693,188.489 20.5,191.5C 18.1699,194.827 16.3366,198.493 15,202.5C 14.3292,215.153 19.4959,224.819 30.5,231.5C 30.9175,232.222 31.5842,232.722 32.5,233C 38.5,233.667 44.5,233.667 50.5,233C 52.5844,232.303 54.2511,231.136 55.5,229.5C 55.8333,229.5 56.1667,229.5 56.5,229.5C 58.539,228.089 59.539,226.089 59.5,223.5C 59.8333,223.5 60.1667,223.5 60.5,223.5C 59.7955,227.471 61.1289,228.805 64.5,227.5C 63.2337,231.532 63.2337,235.532 64.5,239.5C 64.6716,240.492 64.3382,241.158 63.5,241.5C 63.6309,240.624 63.2975,239.957 62.5,239.5C 61.1502,240.95 59.4835,241.617 57.5,241.5C 57.38,242.586 56.7133,243.253 55.5,243.5C 52.8546,244.108 50.1879,244.608 47.5,245C 50.0343,246.734 51.5343,248.9 52,251.5C 48.9838,254.349 46.1504,257.349 43.5,260.5C 42.1451,259.812 41.1451,258.812 40.5,257.5C 39.9394,255.934 40.6061,254.601 42.5,253.5C 44.4101,254.705 45.7434,254.038 46.5,251.5C 43.7823,248.455 41.1156,245.455 38.5,242.5C 37.9518,240.374 37.2852,238.374 36.5,236.5C 33.504,240.428 30.504,244.428 27.5,248.5C 26.4138,248.38 25.7472,247.713 25.5,246.5C 25.2763,242.954 25.6097,239.287 26.5,235.5C 26.9234,234.735 27.2568,233.902 27.5,233C 25.3178,230.65 22.9845,228.484 20.5,226.5C 20.5,225.833 20.1667,225.5 19.5,225.5C 17.3166,222.292 15.3166,218.959 13.5,215.5C 12.006,210.445 12.1727,205.445 14,200.5C 21.1548,184.844 29.8215,170.178 40,156.5C 40.8159,155.177 41.9826,154.511 43.5,154.5 Z"/></g>
<g><path style="opacity:1" fill="#9a3330" d="M 55.5,229.5 C 54.2511,231.136 52.5844,232.303 50.5,233C 44.5,233.667 38.5,233.667 32.5,233C 31.5842,232.722 30.9175,232.222 30.5,231.5C 39.1475,233.392 47.4809,232.725 55.5,229.5 Z"/></g>
<g><path style="opacity:1" fill="#7a2923" d="M 59.5,223.5 C 59.539,226.089 58.539,228.089 56.5,229.5C 56.6535,227.03 57.6535,225.03 59.5,223.5 Z"/></g>
<g><path style="opacity:1" fill="#508e14" d="M 91.5,227.5 C 99.5768,230.294 107.91,232.461 116.5,234C 132.172,235.365 147.838,235.199 163.5,233.5C 163.5,233.833 163.5,234.167 163.5,234.5C 162.167,234.833 160.833,235.167 159.5,235.5C 155.837,235.952 152.17,236.452 148.5,237C 147.584,237.278 146.918,237.778 146.5,238.5C 145.5,238.5 144.5,238.5 143.5,238.5C 137.833,238.5 132.167,238.5 126.5,238.5C 125.209,238.737 124.209,238.404 123.5,237.5C 121.095,236.232 118.428,235.565 115.5,235.5C 109.335,234.791 103.335,233.458 97.5,231.5C 95.5,230.167 93.5,228.833 91.5,227.5 Z"/></g>
<g><path style="opacity:1" fill="#a17d35" d="M 19.5,225.5 C 20.1667,225.5 20.5,225.833 20.5,226.5C 18.5,230.833 16.5,235.167 14.5,239.5C 15.0792,234.362 16.7459,229.695 19.5,225.5 Z"/></g>
<g><path style="opacity:1" fill="#234705" d="M 115.5,235.5 C 118.428,235.565 121.095,236.232 123.5,237.5C 120.505,237.706 117.838,237.04 115.5,235.5 Z"/></g>
<g><path style="opacity:1" fill="#732523" d="M 57.5,241.5 C 53.7983,241.421 50.1317,241.754 46.5,242.5C 44.2915,242.431 42.2915,241.764 40.5,240.5C 46.9798,237.624 53.6465,235.29 60.5,233.5C 59.9244,236.848 58.9244,239.515 57.5,241.5 Z"/></g>
<g><path style="opacity:1" fill="#2c540e" d="M 159.5,235.5 C 155.436,237.138 151.103,238.138 146.5,238.5C 146.918,237.778 147.584,237.278 148.5,237C 152.17,236.452 155.837,235.952 159.5,235.5 Z"/></g>
<g><path style="opacity:1" fill="#152e02" d="M 126.5,238.5 C 132.167,238.5 137.833,238.5 143.5,238.5C 142.833,239.167 142.167,239.833 141.5,240.5C 141.167,240.5 140.833,240.5 140.5,240.5C 137.713,239.523 134.713,239.19 131.5,239.5C 129.585,239.784 127.919,239.451 126.5,238.5 Z"/></g>
<g><path style="opacity:1" fill="#d9aa3a" d="M 20.5,226.5 C 22.9845,228.484 25.3178,230.65 27.5,233C 27.2568,233.902 26.9234,234.735 26.5,235.5C 23.6037,241.752 21.937,248.418 21.5,255.5C 20.5823,262.666 20.249,269.666 20.5,276.5C 10.8016,267.368 8.13491,256.368 12.5,243.5C 12.9887,242.005 13.6554,240.671 14.5,239.5C 16.5,235.167 18.5,230.833 20.5,226.5 Z"/></g>
<g><path style="opacity:1" fill="#9b9277" d="M 131.5,239.5 C 134.713,239.19 137.713,239.523 140.5,240.5C 137.833,240.5 135.167,240.5 132.5,240.5C 132.818,245.032 132.485,249.366 131.5,253.5C 131.5,248.833 131.5,244.167 131.5,239.5 Z"/></g>
<g><path style="opacity:1" fill="#5d5244" d="M 114.5,238.5 C 112.565,237.85 110.565,237.517 108.5,237.5C 108.819,242.363 108.486,247.03 107.5,251.5C 107.5,246.5 107.5,241.5 107.5,236.5C 109.527,236.338 111.527,236.505 113.5,237C 114.056,237.383 114.389,237.883 114.5,238.5 Z"/></g>
<g><path style="opacity:1" fill="#5e3e11" d="M 36.5,236.5 C 37.2852,238.374 37.9518,240.374 38.5,242.5C 36.6921,243.918 36.0254,245.918 36.5,248.5C 35.8333,248.5 35.1667,248.5 34.5,248.5C 35.1667,244.5 35.8333,240.5 36.5,236.5 Z"/></g>
<g><path style="opacity:1" fill="#a0917f" d="M 116.5,238.5 C 117.973,241.017 118.64,243.85 118.5,247C 118.128,253.016 117.462,258.849 116.5,264.5C 116.5,255.833 116.5,247.167 116.5,238.5 Z"/></g>
<g><path style="opacity:1" fill="#231705" d="M 26.5,235.5 C 25.6097,239.287 25.2763,242.954 25.5,246.5C 25.7472,247.713 26.4138,248.38 27.5,248.5C 26.2213,251.112 24.5547,253.445 22.5,255.5C 22.1667,255.5 21.8333,255.5 21.5,255.5C 21.937,248.418 23.6037,241.752 26.5,235.5 Z"/></g>
<g><path style="opacity:1" fill="#a09280" d="M 91.5,230.5 C 92.1667,230.5 92.8333,230.5 93.5,230.5C 93.8279,241.679 93.4946,252.679 92.5,263.5C 92.8099,252.419 92.4766,241.419 91.5,230.5 Z"/></g>
<g><path style="opacity:1" fill="#c79a71" d="M 38.5,242.5 C 41.1156,245.455 43.7823,248.455 46.5,251.5C 45.7434,254.038 44.4101,254.705 42.5,253.5C 40.5,251.833 38.5,250.167 36.5,248.5C 36.0254,245.918 36.6921,243.918 38.5,242.5 Z"/></g>
<g><path style="opacity:1" fill="#3c291a" d="M 64.5,239.5 C 65.6341,241.966 65.8007,244.633 65,247.5C 63.5263,250.756 62.3597,254.089 61.5,257.5C 60.8333,256.833 60.1667,256.167 59.5,255.5C 60.3795,252.738 61.5462,250.071 63,247.5C 63.4955,245.527 63.6621,243.527 63.5,241.5C 64.3382,241.158 64.6716,240.492 64.5,239.5 Z"/></g>
<g><path style="opacity:1" fill="#987a61" d="M 35.5,254.5 C 33.6921,255.918 33.0254,257.918 33.5,260.5C 32.596,259.791 32.2627,258.791 32.5,257.5C 32.5,255.5 32.5,253.5 32.5,251.5C 34.9892,251.298 37.3225,251.798 39.5,253C 40.6956,253.654 40.6956,254.154 39.5,254.5C 38.1667,253.833 36.8333,253.167 35.5,252.5C 34.537,252.97 34.537,253.637 35.5,254.5 Z"/></g>
<g><path style="opacity:1" fill="#3f2810" d="M 34.5,248.5 C 35.1667,248.5 35.8333,248.5 36.5,248.5C 38.5,250.167 40.5,251.833 42.5,253.5C 40.6061,254.601 39.9394,255.934 40.5,257.5C 38.5887,256.925 36.922,255.925 35.5,254.5C 34.537,253.637 34.537,252.97 35.5,252.5C 36.8333,253.167 38.1667,253.833 39.5,254.5C 40.6956,254.154 40.6956,253.654 39.5,253C 37.3225,251.798 34.9892,251.298 32.5,251.5C 32.5,253.5 32.5,255.5 32.5,257.5C 31.5955,259.638 30.9289,261.971 30.5,264.5C 30.5427,265.416 30.8761,266.083 31.5,266.5C 31.5,267.833 31.5,269.167 31.5,270.5C 30.8333,270.5 30.5,270.833 30.5,271.5C 29.8333,271.5 29.5,271.167 29.5,270.5C 29.7348,264.151 30.2348,257.817 31,251.5C 32.1451,250.364 33.3117,249.364 34.5,248.5 Z"/></g>
<g><path style="opacity:1" fill="#ecd3b6" d="M 155.5,273.5 C 153.167,273.5 150.833,273.5 148.5,273.5C 152.3,262.162 154.3,250.495 154.5,238.5C 158.36,237.356 162.36,236.689 166.5,236.5C 164.845,249.46 161.178,261.793 155.5,273.5 Z"/></g>
<g><path style="opacity:1" fill="#c8a044" d="M 36.5,236.5 C 35.8333,240.5 35.1667,244.5 34.5,248.5C 33.3117,249.364 32.1451,250.364 31,251.5C 30.2348,257.817 29.7348,264.151 29.5,270.5C 28.8334,264.654 28.1668,258.654 27.5,252.5C 26.5224,252.977 25.6891,253.643 25,254.5C 23.5649,263.166 23.3982,271.833 24.5,280.5C 23.6618,280.158 23.3284,279.492 23.5,278.5C 21.761,270.911 21.4276,263.244 22.5,255.5C 24.5547,253.445 26.2213,251.112 27.5,248.5C 30.504,244.428 33.504,240.428 36.5,236.5 Z"/></g>
<g><path style="opacity:1" fill="#edd4b5" d="M 140.5,240.5 C 140.833,240.5 141.167,240.5 141.5,240.5C 141.811,251.961 140.811,263.294 138.5,274.5C 135.059,273.903 131.725,273.237 128.5,272.5C 128.5,272.167 128.5,271.833 128.5,271.5C 130.23,267.117 131.23,262.45 131.5,257.5C 131.5,256.167 131.5,254.833 131.5,253.5C 132.485,249.366 132.818,245.032 132.5,240.5C 135.167,240.5 137.833,240.5 140.5,240.5 Z"/></g>
<g><path style="opacity:1" fill="#473b2e" d="M 70.5,248.5 C 72.0121,253.929 72.6787,259.596 72.5,265.5C 71.8333,264.833 71.1667,264.167 70.5,263.5C 70.5,258.5 70.5,253.5 70.5,248.5 Z"/></g>
<g><path style="opacity:1" fill="#845e14" d="M 21.5,255.5 C 21.8333,255.5 22.1667,255.5 22.5,255.5C 21.4276,263.244 21.761,270.911 23.5,278.5C 21.9731,278.573 20.9731,277.906 20.5,276.5C 20.249,269.666 20.5823,262.666 21.5,255.5 Z"/></g>
<g><path style="opacity:1" fill="#d5a476" d="M 63.5,241.5 C 63.6621,243.527 63.4955,245.527 63,247.5C 61.5462,250.071 60.3795,252.738 59.5,255.5C 57.4,258.104 55.0666,260.604 52.5,263C 45.2911,268.184 38.9578,267.351 33.5,260.5C 33.0254,257.918 33.6921,255.918 35.5,254.5C 36.922,255.925 38.5887,256.925 40.5,257.5C 41.1451,258.812 42.1451,259.812 43.5,260.5C 46.1504,257.349 48.9838,254.349 52,251.5C 51.5343,248.9 50.0343,246.734 47.5,245C 50.1879,244.608 52.8546,244.108 55.5,243.5C 56.7133,243.253 57.38,242.586 57.5,241.5C 59.4835,241.617 61.1502,240.95 62.5,239.5C 63.2975,239.957 63.6309,240.624 63.5,241.5 Z"/></g>
<g><path style="opacity:1" fill="#b99878" d="M 31.5,270.5 C 31.5,269.167 31.5,267.833 31.5,266.5C 31.811,265.522 32.4777,264.855 33.5,264.5C 36.4086,266.356 39.4086,268.023 42.5,269.5C 38.8927,270.489 35.226,270.823 31.5,270.5 Z"/></g>
<g><path style="opacity:1" fill="#a19382" d="M 131.5,257.5 C 131.23,262.45 130.23,267.117 128.5,271.5C 128.77,266.55 129.77,261.883 131.5,257.5 Z"/></g>
<g><path style="opacity:1" fill="#3c3228" d="M 106.5,267.5 C 106.053,272.654 104.72,277.32 102.5,281.5C 102.75,276.39 104.084,271.723 106.5,267.5 Z"/></g>
<g><path style="opacity:1" fill="#ead2b7" d="M 114.5,238.5 C 115.167,238.5 115.833,238.5 116.5,238.5C 116.5,247.167 116.5,255.833 116.5,264.5C 115.422,269.713 114.255,275.046 113,280.5C 109.667,286.5 106.333,292.5 103,298.5C 101.22,304.062 99.0537,309.396 96.5,314.5C 95.8333,314.5 95.5,314.167 95.5,313.5C 95.414,309.681 96.0807,306.015 97.5,302.5C 99.4159,298.837 100.416,294.837 100.5,290.5C 101.417,287.583 102.084,284.583 102.5,281.5C 104.72,277.32 106.053,272.654 106.5,267.5C 106.833,262.167 107.167,256.833 107.5,251.5C 108.486,247.03 108.819,242.363 108.5,237.5C 110.565,237.517 112.565,237.85 114.5,238.5 Z"/></g>
<g><path style="opacity:1" fill="#96897a" d="M 70.5,263.5 C 71.1667,264.167 71.8333,264.833 72.5,265.5C 72.5,268.167 72.5,270.833 72.5,273.5C 71.7784,273.082 71.2784,272.416 71,271.5C 70.5026,268.854 70.3359,266.187 70.5,263.5 Z"/></g>
<g><path style="opacity:1" fill="#1e1002" d="M 12.5,243.5 C 8.13491,256.368 10.8016,267.368 20.5,276.5C 20.9731,277.906 21.9731,278.573 23.5,278.5C 23.3284,279.492 23.6618,280.158 24.5,280.5C 26.8089,282.987 29.4756,284.987 32.5,286.5C 31.5,286.5 30.5,286.5 29.5,286.5C 20.2246,280.568 13.5579,272.568 9.5,262.5C 9.75819,257.283 9.42486,252.116 8.5,247C 9.64492,245.598 10.9783,244.431 12.5,243.5 Z"/></g>
<g><path style="opacity:1" fill="#e1af3a" d="M 29.5,270.5 C 29.5,271.167 29.8333,271.5 30.5,271.5C 31.1667,271.833 31.8333,272.167 32.5,272.5C 31.8413,275.455 31.5079,278.455 31.5,281.5C 29.1944,281.007 26.861,280.674 24.5,280.5C 23.3982,271.833 23.5649,263.166 25,254.5C 25.6891,253.643 26.5224,252.977 27.5,252.5C 28.1668,258.654 28.8334,264.654 29.5,270.5 Z"/></g>
<g><path style="opacity:1" fill="#685217" d="M 43.5,271.5 C 44.1587,274.455 44.4921,277.455 44.5,280.5C 42.7125,277.591 42.3792,274.591 43.5,271.5 Z"/></g>
<g><path style="opacity:1" fill="#cda341" d="M 53.5,284.5 C 51.3718,285.957 49.0384,286.957 46.5,287.5C 46.0733,284.99 45.4067,282.657 44.5,280.5C 44.4921,277.455 44.1587,274.455 43.5,271.5C 45.5188,270.245 47.5188,269.911 49.5,270.5C 51.7582,274.86 53.0915,279.527 53.5,284.5 Z"/></g>
<g><path style="opacity:1" fill="#cca042" d="M 148.5,273.5 C 150.833,273.5 153.167,273.5 155.5,273.5C 153.853,276.473 151.853,279.14 149.5,281.5C 147.744,280.448 147.077,278.781 147.5,276.5C 147.263,275.209 147.596,274.209 148.5,273.5 Z"/></g>
<g><path style="opacity:1" fill="#d7a83c" d="M 128.5,272.5 C 131.725,273.237 135.059,273.903 138.5,274.5C 138.011,275.995 137.345,277.329 136.5,278.5C 135.599,279.29 134.932,280.29 134.5,281.5C 132.186,286.837 128.519,290.837 123.5,293.5C 122.414,293.38 121.747,292.713 121.5,291.5C 124.2,288.059 125.533,284.059 125.5,279.5C 126.651,277.221 127.651,274.888 128.5,272.5 Z"/></g>
<g><path style="opacity:1" fill="#8c7e6f" d="M 63.5,273.5 C 65.0911,277.204 65.9244,281.204 66,285.5C 66.4995,291.491 66.6662,297.491 66.5,303.5C 65.5864,293.635 64.5864,283.635 63.5,273.5 Z"/></g>
<g><path style="opacity:1" fill="#554615" d="M 136.5,278.5 C 136.715,280.179 136.048,281.179 134.5,281.5C 134.932,280.29 135.599,279.29 136.5,278.5 Z"/></g>
<g><path style="opacity:1" fill="#c19b41" d="M 32.5,272.5 C 34.1015,276.921 35.1015,281.588 35.5,286.5C 34.5,286.5 33.5,286.5 32.5,286.5C 29.4756,284.987 26.8089,282.987 24.5,280.5C 26.861,280.674 29.1944,281.007 31.5,281.5C 31.5079,278.455 31.8413,275.455 32.5,272.5 Z"/></g>
<g><path style="opacity:1" fill="#a6853e" d="M 147.5,276.5 C 147.077,278.781 147.744,280.448 149.5,281.5C 146.527,283.806 143.86,286.473 141.5,289.5C 140.624,289.631 139.957,289.298 139.5,288.5C 141.834,284.187 144.5,280.187 147.5,276.5 Z"/></g>
<g><path style="opacity:1" fill="#e1c7a7" d="M 53.5,284.5 C 54.3414,286.379 54.6747,288.379 54.5,290.5C 52.1806,291.167 49.8473,291.334 47.5,291C 46.6634,289.989 46.33,288.822 46.5,287.5C 49.0384,286.957 51.3718,285.957 53.5,284.5 Z"/></g>
<g><path style="opacity:1" fill="#756956" d="M 100.5,290.5 C 100.416,294.837 99.4159,298.837 97.5,302.5C 97.8984,298.239 98.8984,294.239 100.5,290.5 Z"/></g>
<g><path style="opacity:1" fill="#aa8941" d="M 125.5,279.5 C 125.533,284.059 124.2,288.059 121.5,291.5C 121.747,292.713 122.414,293.38 123.5,293.5C 121.97,295.346 119.97,296.346 117.5,296.5C 120.198,290.816 122.865,285.149 125.5,279.5 Z"/></g>
<g><path style="opacity:1" fill="#f4d9bc" d="M 67.5,351.5 C 67.8297,335.325 67.4964,319.325 66.5,303.5C 66.6662,297.491 66.4995,291.491 66,285.5C 65.9244,281.204 65.0911,277.204 63.5,273.5C 63.2491,268.493 62.9157,263.493 62.5,258.5C 62.5,257.5 62.5,256.5 62.5,255.5C 63.5,255.5 64.5,255.5 65.5,255.5C 65.5622,252.247 66.3956,249.247 68,246.5C 70.4512,271.131 70.9512,295.798 69.5,320.5C 70.9723,330.669 71.639,341.669 71.5,353.5C 69.8007,353.473 68.4674,352.806 67.5,351.5 Z"/></g>
<g><path style="opacity:1" fill="#3a2f24" d="M 90.5,287.5 C 90.3623,294.363 89.6956,301.03 88.5,307.5C 88.2945,300.604 88.9611,293.937 90.5,287.5 Z"/></g>
<g><path style="opacity:1" fill="#e9d2b7" d="M 56.5,303.5 C 58.1954,319.444 58.8621,335.444 58.5,351.5C 58.5,352.5 58.5,353.5 58.5,354.5C 56.8561,354.714 55.3561,354.38 54,353.5C 53.6667,340.833 53.3333,328.167 53,315.5C 52.0457,309.53 50.5457,303.697 48.5,298C 49.8394,294.82 52.1727,292.986 55.5,292.5C 55.9422,296.154 56.2756,299.821 56.5,303.5 Z"/></g>
<g><path style="opacity:1" fill="#e7d0b5" d="M 91.5,230.5 C 92.4766,241.419 92.8099,252.419 92.5,263.5C 92.2084,271.538 91.5417,279.538 90.5,287.5C 88.9611,293.937 88.2945,300.604 88.5,307.5C 87.032,319.636 86.1987,331.969 86,344.5C 84.3333,346.5 82.6667,348.5 81,350.5C 82.5637,311.522 83.7304,272.522 84.5,233.5C 86.6282,232.043 88.9616,231.043 91.5,230.5 Z"/></g>
<g><path style="opacity:1" fill="#dfc9b1" d="M 70.5,248.5 C 70.5,253.5 70.5,258.5 70.5,263.5C 70.3359,266.187 70.5026,268.854 71,271.5C 71.2784,272.416 71.7784,273.082 72.5,273.5C 73.4471,300.815 73.7804,328.148 73.5,355.5C 71.5,355.5 69.5,355.5 67.5,355.5C 67.5,354.167 67.5,352.833 67.5,351.5C 68.4674,352.806 69.8007,353.473 71.5,353.5C 71.639,341.669 70.9723,330.669 69.5,320.5C 70.9512,295.798 70.4512,271.131 68,246.5C 66.3956,249.247 65.5622,252.247 65.5,255.5C 64.5,255.5 63.5,255.5 62.5,255.5C 62.5,256.5 62.5,257.5 62.5,258.5C 61.8333,258.5 61.5,258.167 61.5,257.5C 62.3597,254.089 63.5263,250.756 65,247.5C 65.8007,244.633 65.6341,241.966 64.5,239.5C 63.2337,235.532 63.2337,231.532 64.5,227.5C 66.61,226.547 67.7767,224.881 68,222.5C 69.2086,231.129 70.042,239.795 70.5,248.5 Z"/></g>
<g><path style="opacity:1" fill="#e0b34c" d="M 41.5,341.5 C 41.1667,340.167 40.8333,338.833 40.5,337.5C 37.3615,327.911 37.8615,318.577 42,309.5C 42.3333,310.5 42.6667,311.5 43,312.5C 43.1667,317.333 43.3333,322.167 43.5,327C 43.4937,332.216 42.8271,337.049 41.5,341.5 Z"/></g>
<g><path style="opacity:1" fill="#6c6961" d="M 95.5,313.5 C 95.5,314.167 95.8333,314.5 96.5,314.5C 95.9695,316.924 95.1362,319.257 94,321.5C 93.5674,318.581 94.0674,315.914 95.5,313.5 Z"/></g>
<g><path style="opacity:1" fill="#8c7237" d="M 41.5,341.5 C 42.8271,337.049 43.4937,332.216 43.5,327C 43.3333,322.167 43.1667,317.333 43,312.5C 42.6667,311.5 42.3333,310.5 42,309.5C 37.8615,318.577 37.3615,327.911 40.5,337.5C 38.8356,336.051 38.0023,334.051 38,331.5C 37.3333,325.833 37.3333,320.167 38,314.5C 38.5482,311.127 39.8816,308.127 42,305.5C 42.2896,307.044 42.9563,308.377 44,309.5C 44.8325,321.181 44.6659,332.848 43.5,344.5C 42.5748,343.643 41.9081,342.643 41.5,341.5 Z"/></g>
<g><path style="opacity:1" fill="#655625" d="M 107.5,322.5 C 108.209,321.596 109.209,321.263 110.5,321.5C 110.784,323.415 110.451,325.081 109.5,326.5C 109.843,324.517 109.176,323.183 107.5,322.5 Z"/></g>
<g><path style="opacity:1" fill="#cfac52" d="M 107.5,322.5 C 109.176,323.183 109.843,324.517 109.5,326.5C 108.037,329.203 107.204,332.203 107,335.5C 106.617,336.056 106.117,336.389 105.5,336.5C 105.877,333.475 106.044,330.475 106,327.5C 105.667,327.167 105.333,326.833 105,326.5C 103.961,327.71 102.794,328.71 101.5,329.5C 102.566,326.316 104.566,323.982 107.5,322.5 Z"/></g>
<g><path style="opacity:1" fill="#948775" d="M 56.5,303.5 C 57.6389,307.301 58.4723,311.301 59,315.5C 59.8263,327.674 59.6597,339.674 58.5,351.5C 58.8621,335.444 58.1954,319.444 56.5,303.5 Z"/></g>
<g><path style="opacity:1" fill="#e8ba3f" d="M 105.5,336.5 C 104.533,337.806 103.199,338.473 101.5,338.5C 101.5,335.833 101.5,333.167 101.5,330.5C 101.5,330.167 101.5,329.833 101.5,329.5C 102.794,328.71 103.961,327.71 105,326.5C 105.333,326.833 105.667,327.167 106,327.5C 106.044,330.475 105.877,333.475 105.5,336.5 Z"/></g>
<g><path style="opacity:1" fill="#c8a34b" d="M 101.5,330.5 C 101.5,333.167 101.5,335.833 101.5,338.5C 103.199,338.473 104.533,337.806 105.5,336.5C 105.579,337.93 105.246,339.264 104.5,340.5C 102.42,342.573 100.754,344.907 99.5,347.5C 97.8235,346.817 97.1568,345.483 97.5,343.5C 98.0184,339.453 98.8518,335.453 100,331.5C 100.383,330.944 100.883,330.611 101.5,330.5 Z"/></g>
<g><path style="opacity:1" fill="#574b2c" d="M 97.5,343.5 C 97.1568,345.483 97.8235,346.817 99.5,347.5C 99.5,347.833 99.5,348.167 99.5,348.5C 98.5041,348.414 97.6708,348.748 97,349.5C 96.2109,347.288 96.3775,345.288 97.5,343.5 Z"/></g>
<g><path style="opacity:1" fill="#687a23" d="M 81.5,359.5 C 83.7638,360.219 86.0971,360.552 88.5,360.5C 88.7373,361.791 88.404,362.791 87.5,363.5C 84.3157,361.586 80.649,360.92 76.5,361.5C 76.5,362.5 76.5,363.5 76.5,364.5C 76.5,366.167 76.5,367.833 76.5,369.5C 76.1667,369.5 75.8333,369.5 75.5,369.5C 75.5,366.167 75.5,362.833 75.5,359.5C 77.5,359.5 79.5,359.5 81.5,359.5 Z"/></g>
<g><path style="opacity:1" fill="#628e14" d="M 55.5,360.5 C 60.4688,361.783 65.4688,361.783 70.5,360.5C 71.5,360.5 72.5,360.5 73.5,360.5C 73.5,361.5 73.5,362.5 73.5,363.5C 66.8333,363.5 60.1667,363.5 53.5,363.5C 53.2852,361.821 53.9519,360.821 55.5,360.5 Z"/></g>
<g><path style="opacity:1" fill="#d3c141" d="M 87.5,363.5 C 87.5,364.167 87.5,364.833 87.5,365.5C 83.8815,364.756 80.2148,364.423 76.5,364.5C 76.5,363.5 76.5,362.5 76.5,361.5C 80.649,360.92 84.3157,361.586 87.5,363.5 Z"/></g>
<g><path style="opacity:1" fill="#42430a" d="M 55.5,360.5 C 53.9519,360.821 53.2852,361.821 53.5,363.5C 53.5,364.833 53.5,366.167 53.5,367.5C 52.5269,365.052 52.1936,362.385 52.5,359.5C 53.791,359.263 54.791,359.596 55.5,360.5 Z"/></g>
<g><path style="opacity:1" fill="#d3bf3e" d="M 53.5,363.5 C 60.1667,363.5 66.8333,363.5 73.5,363.5C 73.5,364.833 73.5,366.167 73.5,367.5C 66.8549,369.409 60.1882,369.743 53.5,368.5C 53.5,368.167 53.5,367.833 53.5,367.5C 53.5,366.167 53.5,364.833 53.5,363.5 Z"/></g>
<g><path style="opacity:1" fill="#1f2706" d="M 81.5,359.5 C 79.5,359.5 77.5,359.5 75.5,359.5C 75.5,362.833 75.5,366.167 75.5,369.5C 74.596,370.209 74.2627,371.209 74.5,372.5C 73.0813,373.451 71.4147,373.784 69.5,373.5C 65.2984,373.817 61.2984,373.483 57.5,372.5C 62.5111,372.666 67.5111,372.499 72.5,372C 73.3802,370.644 73.7135,369.144 73.5,367.5C 73.5,366.167 73.5,364.833 73.5,363.5C 73.5,362.5 73.5,361.5 73.5,360.5C 72.5,360.5 71.5,360.5 70.5,360.5C 71.8714,359.213 73.7047,358.547 76,358.5C 78.0326,358.506 79.866,358.839 81.5,359.5 Z"/></g>
<g><path style="opacity:1" fill="#639310" d="M 76.5,364.5 C 80.2148,364.423 83.8815,364.756 87.5,365.5C 87.5,366.833 87.5,368.167 87.5,369.5C 87.573,371.027 86.9063,372.027 85.5,372.5C 85.4226,371.25 84.756,370.417 83.5,370C 81.1902,369.503 78.8568,369.337 76.5,369.5C 76.5,367.833 76.5,366.167 76.5,364.5 Z"/></g>
<g><path style="opacity:1" fill="#588914" d="M 73.5,367.5 C 73.7135,369.144 73.3802,370.644 72.5,372C 67.5111,372.499 62.5111,372.666 57.5,372.5C 55.1667,372.167 53.8333,370.833 53.5,368.5C 60.1882,369.743 66.8549,369.409 73.5,367.5 Z"/></g>
<g><path style="opacity:1" fill="#ccb353" d="M 75.5,369.5 C 75.8333,369.5 76.1667,369.5 76.5,369.5C 78.8568,369.337 81.1902,369.503 83.5,370C 84.756,370.417 85.4226,371.25 85.5,372.5C 81.9335,373.089 78.2668,373.089 74.5,372.5C 74.2627,371.209 74.596,370.209 75.5,369.5 Z"/></g>
<g><path style="opacity:1" fill="#43190a" d="M 74.5,372.5 C 78.2668,373.089 81.9335,373.089 85.5,372.5C 85.2178,373.778 84.5511,374.778 83.5,375.5C 78.8696,374.771 74.2029,374.437 69.5,374.5C 69.5,374.167 69.5,373.833 69.5,373.5C 71.4147,373.784 73.0813,373.451 74.5,372.5 Z"/></g>
<g><path style="opacity:1" fill="#b1382d" d="M 106.5,374.5 C 107.301,376.042 107.634,377.708 107.5,379.5C 100.557,378.851 93.8902,377.184 87.5,374.5C 88.5153,371.564 90.682,370.231 94,370.5C 98.4153,371.404 102.582,372.738 106.5,374.5 Z"/></g>
<g><path style="opacity:0.886" fill="#210302" d="M 89.5,368.5 C 95.7258,369.075 101.726,370.575 107.5,373C 112.37,373.958 117.037,374.458 121.5,374.5C 121.5,374.833 121.5,375.167 121.5,375.5C 116.438,375.726 111.438,375.392 106.5,374.5C 102.582,372.738 98.4153,371.404 94,370.5C 90.682,370.231 88.5153,371.564 87.5,374.5C 86.4324,375.434 85.099,375.768 83.5,375.5C 84.5511,374.778 85.2178,373.778 85.5,372.5C 86.9063,372.027 87.573,371.027 87.5,369.5C 88.4916,369.672 89.1583,369.338 89.5,368.5 Z"/></g>
<g><path style="opacity:0.678" fill="#71312d" d="M 125.5,378.5 C 125.5,377.5 125.5,376.5 125.5,375.5C 124.167,375.5 122.833,375.5 121.5,375.5C 121.5,375.167 121.5,374.833 121.5,374.5C 125.933,372.932 127.266,374.265 125.5,378.5 Z"/></g>
<g><path style="opacity:1" fill="#b43533" d="M 121.5,375.5 C 122.833,375.5 124.167,375.5 125.5,375.5C 125.5,376.5 125.5,377.5 125.5,378.5C 125.5,379.167 125.167,379.5 124.5,379.5C 123.833,379.5 123.167,379.5 122.5,379.5C 121.5,379.5 120.5,379.5 119.5,379.5C 119.527,377.801 120.194,376.467 121.5,375.5 Z"/></g>
<g><path style="opacity:0.486" fill="#340a09" d="M 49.5,371.5 C 49.8333,371.5 50.1667,371.5 50.5,371.5C 50.5,372.833 50.5,374.167 50.5,375.5C 48.8762,375.36 47.7096,376.027 47,377.5C 46.5046,380.531 46.6713,383.531 47.5,386.5C 46.8826,386.389 46.3826,386.056 46,385.5C 45.3333,382.167 45.3333,378.833 46,375.5C 46.66,373.676 47.8267,372.343 49.5,371.5 Z"/></g>
<g><path style="opacity:1" fill="#761a15" d="M 106.5,374.5 C 111.438,375.392 116.438,375.726 121.5,375.5C 120.194,376.467 119.527,377.801 119.5,379.5C 120.5,379.5 121.5,379.5 122.5,379.5C 121.081,380.451 119.415,380.784 117.5,380.5C 117.5,379.167 117.5,377.833 117.5,376.5C 114.833,376.5 112.167,376.5 109.5,376.5C 109.5,377.5 109.5,378.5 109.5,379.5C 108.833,379.5 108.167,379.5 107.5,379.5C 107.634,377.708 107.301,376.042 106.5,374.5 Z"/></g>
<g><path style="opacity:1" fill="#b53b36" d="M 117.5,380.5 C 114.615,380.806 111.948,380.473 109.5,379.5C 109.5,378.5 109.5,377.5 109.5,376.5C 112.167,376.5 114.833,376.5 117.5,376.5C 117.5,377.833 117.5,379.167 117.5,380.5 Z"/></g>
<g><path style="opacity:1" fill="#591c19" d="M 87.5,374.5 C 93.8902,377.184 100.557,378.851 107.5,379.5C 108.167,379.5 108.833,379.5 109.5,379.5C 111.948,380.473 114.615,380.806 117.5,380.5C 119.415,380.784 121.081,380.451 122.5,379.5C 123.167,379.5 123.833,379.5 124.5,379.5C 124.512,382.552 124.179,385.552 123.5,388.5C 123.5,386.833 123.5,385.167 123.5,383.5C 118.5,383.5 113.5,383.5 108.5,383.5C 106.194,383.007 103.861,382.674 101.5,382.5C 100.833,382.167 100.167,381.833 99.5,381.5C 98.209,381.737 97.209,381.404 96.5,380.5C 94.1572,379.656 91.8239,378.656 89.5,377.5C 86.9102,375.745 85.2435,376.412 84.5,379.5C 83.5655,378.432 83.2322,377.099 83.5,375.5C 85.099,375.768 86.4324,375.434 87.5,374.5 Z"/></g>
<g><path style="opacity:1" fill="#c3372d" d="M 89.5,377.5 C 91.2797,381.596 91.9463,385.929 91.5,390.5C 88.8333,390.167 86.1667,389.833 83.5,389.5C 83.3424,386.098 83.6758,382.764 84.5,379.5C 85.2435,376.412 86.9102,375.745 89.5,377.5 Z"/></g>
<g><path style="opacity:1" fill="#c23830" d="M 96.5,380.5 C 97.209,381.404 98.209,381.737 99.5,381.5C 98.5863,384.728 98.2529,388.061 98.5,391.5C 96.8333,391.5 95.1667,391.5 93.5,391.5C 93.5,387.833 93.5,384.167 93.5,380.5C 94.5,380.5 95.5,380.5 96.5,380.5 Z"/></g>
<g><path style="opacity:1" fill="#86201d" d="M 89.5,377.5 C 91.8239,378.656 94.1572,379.656 96.5,380.5C 95.5,380.5 94.5,380.5 93.5,380.5C 93.5,384.167 93.5,387.833 93.5,391.5C 89.8405,391.841 86.5072,391.175 83.5,389.5C 86.1667,389.833 88.8333,390.167 91.5,390.5C 91.9463,385.929 91.2797,381.596 89.5,377.5 Z"/></g>
<g><path style="opacity:1" fill="#89231b" d="M 99.5,381.5 C 100.167,381.833 100.833,382.167 101.5,382.5C 100.586,385.728 100.253,389.061 100.5,392.5C 102.833,392.5 105.167,392.5 107.5,392.5C 104.324,393.359 101.157,393.693 98,393.5C 96.3775,392.901 94.8775,392.234 93.5,391.5C 95.1667,391.5 96.8333,391.5 98.5,391.5C 98.2529,388.061 98.5863,384.728 99.5,381.5 Z"/></g>
<g><path style="opacity:1" fill="#8d2a24" d="M 108.5,383.5 C 113.5,383.5 118.5,383.5 123.5,383.5C 123.5,385.167 123.5,386.833 123.5,388.5C 123.423,389.75 122.756,390.583 121.5,391C 119.527,391.495 117.527,391.662 115.5,391.5C 113.052,392.473 110.385,392.806 107.5,392.5C 107.368,389.43 107.701,386.43 108.5,383.5 Z"/></g>
<g><path style="opacity:1" fill="#bb342b" d="M 115.5,391.5 C 113.5,391.5 111.5,391.5 109.5,391.5C 109.5,389.167 109.5,386.833 109.5,384.5C 113.833,384.5 118.167,384.5 122.5,384.5C 122.762,385.978 122.429,387.311 121.5,388.5C 118.953,388.771 116.953,389.771 115.5,391.5 Z"/></g>
<g><path style="opacity:0.314" fill="#952f28" d="M 50.5,371.5 C 52.6807,371.284 54.3474,372.117 55.5,374C 60.1548,374.499 64.8215,374.666 69.5,374.5C 74.2029,374.437 78.8696,374.771 83.5,375.5C 83.2322,377.099 83.5655,378.432 84.5,379.5C 83.6758,382.764 83.3424,386.098 83.5,389.5C 72.495,389.667 61.495,389.5 50.5,389C 49.0577,388.623 48.0577,387.79 47.5,386.5C 46.6713,383.531 46.5046,380.531 47,377.5C 47.7096,376.027 48.8762,375.36 50.5,375.5C 50.5,374.167 50.5,372.833 50.5,371.5 Z"/></g>
<g><path style="opacity:1" fill="#c5362c" d="M 51.5,377.5 C 53.4621,379.017 55.7954,379.684 58.5,379.5C 60.1667,379.333 61.8333,379.167 63.5,379C 62.2625,378.768 61.2625,378.268 60.5,377.5C 66.979,376.509 73.6457,376.176 80.5,376.5C 80.5,380.5 80.5,384.5 80.5,388.5C 70.0878,388.926 59.7544,388.426 49.5,387C 48.5495,383.943 48.2161,380.777 48.5,377.5C 49.5,377.5 50.5,377.5 51.5,377.5 Z"/></g>
<g><path style="opacity:1" fill="#53080a" d="M 50.5,375.5 C 53.698,376.787 57.0314,377.453 60.5,377.5C 61.2625,378.268 62.2625,378.768 63.5,379C 61.8333,379.167 60.1667,379.333 58.5,379.5C 55.7954,379.684 53.4621,379.017 51.5,377.5C 51.1667,376.833 50.8333,376.167 50.5,375.5 Z"/></g>
<g><path style="opacity:1" fill="#c03930" d="M 101.5,382.5 C 103.861,382.674 106.194,383.007 108.5,383.5C 107.701,386.43 107.368,389.43 107.5,392.5C 105.167,392.5 102.833,392.5 100.5,392.5C 100.253,389.061 100.586,385.728 101.5,382.5 Z"/></g>
</svg>
