
<?xml version="1.0" encoding="UTF-8"?>
<!DOCTYPE svg PUBLIC "-//W3C//DTD SVG 1.1//EN" "http://www.w3.org/Graphics/SVG/1.1/DTD/svg11.dtd">
<svg xmlns="http://www.w3.org/2000/svg" version="1.1" width="151px" height="253px" style="shape-rendering:geometricPrecision; text-rendering:geometricPrecision; image-rendering:optimizeQuality; fill-rule:evenodd; clip-rule:evenodd" xmlns:xlink="http://www.w3.org/1999/xlink">
<g><path style="opacity:0.714" fill="#f8e8d7" d="M 78.5,42.5 C 77.5,43.1667 76.5,43.8333 75.5,44.5C 75.6682,41.9486 76.6682,41.2819 78.5,42.5 Z"/></g>
<g><path style="opacity:0.275" fill="#fed196" d="M 25.5,45.5 C 24.8501,45.1961 24.1835,44.8627 23.5,44.5C 22.8492,46.8474 21.5159,48.5141 19.5,49.5C 20.0087,46.8078 21.0087,44.3078 22.5,42C 24.4784,42.033 25.4784,43.1996 25.5,45.5 Z"/></g>
<g><path style="opacity:0.988" fill="#fadfbb" d="M 75.5,44.5 C 75.2624,46.4044 74.2624,47.7377 72.5,48.5C 72.7376,46.5956 73.7376,45.2623 75.5,44.5 Z"/></g>
<g><path style="opacity:1" fill="#fda146" d="M 25.5,45.5 C 27.8606,47.1939 29.8606,49.1939 31.5,51.5C 32.2632,53.3684 33.2632,55.0351 34.5,56.5C 36.0598,58.9535 37.0598,61.6202 37.5,64.5C 38.5,64.5 39.5,64.5 40.5,64.5C 40.1583,65.3382 39.4916,65.6716 38.5,65.5C 37.5041,65.5858 36.6708,65.2524 36,64.5C 34.6608,60.0931 32.1608,56.7598 28.5,54.5C 27.4045,52.642 26.0712,50.9754 24.5,49.5C 23.0815,50.0047 22.4148,51.0047 22.5,52.5C 21.207,53.842 20.3736,55.5087 20,57.5C 19.3292,58.2524 18.4959,58.5858 17.5,58.5C 17.916,55.4173 18.5826,52.4173 19.5,49.5C 21.5159,48.5141 22.8492,46.8474 23.5,44.5C 24.1835,44.8627 24.8501,45.1961 25.5,45.5 Z"/></g>
<g><path style="opacity:0.004" fill="#fe0000" d="M 31.5,50.5 C 32.8333,51.1667 32.8333,51.1667 31.5,50.5 Z"/></g>
<g><path style="opacity:1" fill="#ea732e" d="M 28.5,54.5 C 28.5,54.8333 28.5,55.1667 28.5,55.5C 26.8267,54.657 25.66,53.3237 25,51.5C 23.5022,54.9674 22.5022,58.634 22,62.5C 21.3333,69.8333 21.3333,77.1667 22,84.5C 22.687,81.5428 24.187,79.2094 26.5,77.5C 25.1103,80.8164 23.6103,84.1498 22,87.5C 20.0412,75.9045 20.2079,64.2378 22.5,52.5C 22.4148,51.0047 23.0815,50.0047 24.5,49.5C 26.0712,50.9754 27.4045,52.642 28.5,54.5 Z"/></g>
<g><path style="opacity:1" fill="#f09e7c" d="M 76.5,81.5 C 75.8486,78.197 74.182,75.5303 71.5,73.5C 70.5652,71.1386 69.2318,68.9719 67.5,67C 69.9414,61.9525 72.7748,57.1191 76,52.5C 76.8624,54.087 77.5291,55.7536 78,57.5C 78.6667,65.8333 78.6667,74.1667 78,82.5C 77.6174,81.944 77.1174,81.6107 76.5,81.5 Z"/></g>
<g><path style="opacity:1" fill="#f09c78" d="M 28.5,55.5 C 30.0624,59.3454 31.7291,63.1787 33.5,67C 30.5416,70.1173 28.2083,73.6173 26.5,77.5C 24.187,79.2094 22.687,81.5428 22,84.5C 21.3333,77.1667 21.3333,69.8333 22,62.5C 22.5022,58.634 23.5022,54.9674 25,51.5C 25.66,53.3237 26.8267,54.657 28.5,55.5 Z"/></g>
<g><path style="opacity:0.004" fill="#fefffe" d="M 81.5,59.5 C 82.8333,60.1667 82.8333,60.1667 81.5,59.5 Z"/></g>
<g><path style="opacity:1" fill="#f99027" d="M 78.5,42.5 C 78.5,43.5 78.5,44.5 78.5,45.5C 78.6621,47.5273 78.4955,49.5273 78,51.5C 77,50.1667 76,50.1667 75,51.5C 71.0779,56.3378 67.9112,61.6712 65.5,67.5C 67.1878,69.8545 69.1878,71.8545 71.5,73.5C 74.182,75.5303 75.8486,78.197 76.5,81.5C 77.5169,86.6228 78.8502,91.6228 80.5,96.5C 80.9801,101.822 81.3135,107.155 81.5,112.5C 76.0808,112.984 70.7474,113.984 65.5,115.5C 64.8333,115.167 64.1667,114.833 63.5,114.5C 64.2427,113.818 64.9094,113.151 65.5,112.5C 69.5649,110.767 72.2316,107.767 73.5,103.5C 75.7893,99.5507 76.6226,95.2174 76,90.5C 73.116,87.315 69.9493,84.4816 66.5,82C 64.5,81.3333 62.5,81.3333 60.5,82C 54.8369,89.7943 52.1703,98.6276 52.5,108.5C 50.8333,108.5 49.1667,108.5 47.5,108.5C 46.473,101.669 44.8063,95.0025 42.5,88.5C 36.2899,79.0488 30.4565,79.3821 25,89.5C 24.3333,92.5 24.3333,95.5 25,98.5C 25.2784,99.4158 25.7784,100.082 26.5,100.5C 27.9826,106.181 31.3159,110.181 36.5,112.5C 37.7803,114.106 37.2803,115.106 35,115.5C 28.046,113.118 20.8794,111.951 13.5,112C 12.2567,110.846 11.2567,109.512 10.5,108C 11.7433,106.846 12.7433,105.512 13.5,104C 12.9056,103.536 12.2389,103.369 11.5,103.5C 10.5829,101.338 10.5829,99.0048 11.5,96.5C 14.1685,95.9011 16.0018,94.2344 17,91.5C 17.4986,87.8484 17.6653,84.1817 17.5,80.5C 18.7773,79.3064 19.4439,77.6397 19.5,75.5C 19.4439,73.3603 18.7773,71.6936 17.5,70.5C 17.5,66.5 17.5,62.5 17.5,58.5C 18.4959,58.5858 19.3292,58.2524 20,57.5C 20.3736,55.5087 21.207,53.842 22.5,52.5C 20.2079,64.2378 20.0412,75.9045 22,87.5C 23.6103,84.1498 25.1103,80.8164 26.5,77.5C 28.2083,73.6173 30.5416,70.1173 33.5,67C 31.7291,63.1787 30.0624,59.3454 28.5,55.5C 28.5,55.1667 28.5,54.8333 28.5,54.5C 32.1608,56.7598 34.6608,60.0931 36,64.5C 36.6708,65.2524 37.5041,65.5858 38.5,65.5C 37.5269,67.0683 37.3603,68.735 38,70.5C 40.0937,72.9213 41.7604,75.588 43,78.5C 43.6667,74.1667 43.6667,69.8333 43,65.5C 42.6174,64.944 42.1174,64.6107 41.5,64.5C 46.9003,63.8131 52.4003,63.1464 58,62.5C 60.8358,65.1768 62.6692,64.5101 63.5,60.5C 65.7018,55.9562 68.7018,51.9562 72.5,48.5C 74.2624,47.7377 75.2624,46.4044 75.5,44.5C 76.5,43.8333 77.5,43.1667 78.5,42.5 Z"/></g>
<g><path style="opacity:1" fill="#e25f1d" d="M 58.5,65.5 C 59.8734,65.3433 61.2068,65.51 62.5,66C 60.6254,70.3698 59.1254,74.8698 58,79.5C 57.4361,74.8065 57.6027,70.1398 58.5,65.5 Z"/></g>
<g><path style="opacity:1" fill="#e25d1a" d="M 46.5,64.5 C 49.1667,64.5 51.8333,64.5 54.5,64.5C 53.5185,70.6147 52.0185,76.6147 50,82.5C 47.8761,76.6736 46.7094,70.6736 46.5,64.5 Z"/></g>
<g><path style="opacity:1" fill="#e66923" d="M 40.5,64.5 C 40.8333,64.5 41.1667,64.5 41.5,64.5C 42.1174,64.6107 42.6174,64.944 43,65.5C 43.6667,69.8333 43.6667,74.1667 43,78.5C 41.7604,75.588 40.0937,72.9213 38,70.5C 37.3603,68.735 37.5269,67.0683 38.5,65.5C 39.4916,65.6716 40.1583,65.3382 40.5,64.5 Z"/></g>
<g><path style="opacity:0.004" fill="#fefffe" d="M 63.5,60.5 C 62.8333,59.1667 62.8333,59.1667 63.5,60.5 Z"/></g>
<g><path style="opacity:0.004" fill="#fefffe" d="M 34.5,55.5 C 35.8333,56.1667 35.8333,56.1667 34.5,55.5 Z"/></g>
<g><path style="opacity:1" fill="#fccf97" d="M 17.5,70.5 C 18.7773,71.6936 19.4439,73.3603 19.5,75.5C 19.4439,77.6397 18.7773,79.3064 17.5,80.5C 17.5,77.1667 17.5,73.8333 17.5,70.5 Z"/></g>
<g><path style="opacity:0.004" fill="#feff00" d="M 137.5,77.5 C 136.833,76.1667 136.833,76.1667 137.5,77.5 Z"/></g>
<g><path style="opacity:0.004" fill="#fefffe" d="M 132.5,78.5 C 131.833,77.1667 131.833,77.1667 132.5,78.5 Z"/></g>
<g><path style="opacity:1" fill="#ee8b45" d="M 78.5,45.5 C 80.7349,49.7874 81.7349,54.4541 81.5,59.5C 80.1667,59.8333 80.1667,60.1667 81.5,60.5C 81.5,71.1667 81.5,81.8333 81.5,92.5C 82.2026,94.7157 83.5359,96.549 85.5,98C 83.4567,98.64 81.7901,98.14 80.5,96.5C 78.8502,91.6228 77.5169,86.6228 76.5,81.5C 77.1174,81.6107 77.6174,81.944 78,82.5C 78.6667,74.1667 78.6667,65.8333 78,57.5C 77.5291,55.7536 76.8624,54.087 76,52.5C 72.7748,57.1191 69.9414,61.9525 67.5,67C 69.2318,68.9719 70.5652,71.1386 71.5,73.5C 69.1878,71.8545 67.1878,69.8545 65.5,67.5C 67.9112,61.6712 71.0779,56.3378 75,51.5C 76,50.1667 77,50.1667 78,51.5C 78.4955,49.5273 78.6621,47.5273 78.5,45.5 Z"/></g>
<g><path style="opacity:1" fill="#fdc766" d="M 132.5,79.5 C 134.527,79.3379 136.527,79.5045 138.5,80C 130.07,89.1153 126.07,99.9486 126.5,112.5C 123.12,115.279 119.62,117.946 116,120.5C 115.51,121.793 115.343,123.127 115.5,124.5C 114.71,123.391 114.21,122.058 114,120.5C 111.658,108.762 113.825,98.0956 120.5,88.5C 121.833,87.1667 123.167,85.8333 124.5,84.5C 125.837,83.6851 126.837,82.5185 127.5,81C 129.154,80.3923 130.821,79.8923 132.5,79.5 Z"/></g>
<g><path style="opacity:0.004" fill="#fefffe" d="M 124.5,84.5 C 123.833,83.1667 123.833,83.1667 124.5,84.5 Z"/></g>
<g><path style="opacity:0.004" fill="#fefffe" d="M 120.5,88.5 C 119.833,87.1667 119.833,87.1667 120.5,88.5 Z"/></g>
<g><path style="opacity:1" fill="#ecbd72" d="M 137.5,77.5 C 138.833,77.5 140.167,77.5 141.5,77.5C 139.262,83.7107 137.096,90.044 135,96.5C 133.497,101.491 133.33,106.491 134.5,111.5C 131.833,111.833 129.167,112.167 126.5,112.5C 126.07,99.9486 130.07,89.1153 138.5,80C 136.527,79.5045 134.527,79.3379 132.5,79.5C 132.5,79.1667 132.5,78.8333 132.5,78.5C 134.415,78.7845 136.081,78.4511 137.5,77.5 Z"/></g>
<g><path style="opacity:0.999" fill="#e5a15f" d="M 81.5,92.5 C 84.8726,95.1775 88.2059,97.8442 91.5,100.5C 91.5,101.167 91.5,101.833 91.5,102.5C 90.0267,103.072 88.6934,103.905 87.5,105C 89.6079,105.36 91.6079,106.027 93.5,107C 92.9558,107.717 92.2891,108.217 91.5,108.5C 87.2494,107.078 84.416,104.078 83,99.5C 83.7342,104.172 83.5675,108.839 82.5,113.5C 81.8333,113.5 81.5,113.167 81.5,112.5C 81.3135,107.155 80.9801,101.822 80.5,96.5C 81.7901,98.14 83.4567,98.64 85.5,98C 83.5359,96.549 82.2026,94.7157 81.5,92.5 Z"/></g>
<g><path style="opacity:0.004" fill="#fe0000" d="M 91.5,99.5 C 92.8333,100.167 92.8333,100.167 91.5,99.5 Z"/></g>
<g><path style="opacity:1" fill="#f8bf5e" d="M 73.5,103.5 C 73.8331,97.3381 70.9998,93.6714 65,92.5C 62.849,92.6431 61.1824,93.6431 60,95.5C 52.4702,104.406 54.3035,110.073 65.5,112.5C 64.9094,113.151 64.2427,113.818 63.5,114.5C 64.1667,114.833 64.8333,115.167 65.5,115.5C 70.7474,113.984 76.0808,112.984 81.5,112.5C 81.5,113.167 81.8333,113.5 82.5,113.5C 85.4534,113.85 87.7867,112.85 89.5,110.5C 89.5858,111.496 89.2524,112.329 88.5,113C 89.8228,113.816 90.4894,114.983 90.5,116.5C 89.8333,116.833 89.1667,117.167 88.5,117.5C 86.5242,115.989 84.1909,115.156 81.5,115C 78.9615,114.204 76.6282,114.371 74.5,115.5C 71.3117,115.618 68.3117,116.451 65.5,118C 69.7444,119.803 74.0777,121.303 78.5,122.5C 80.0418,123.301 81.7085,123.634 83.5,123.5C 83.2627,122.209 83.596,121.209 84.5,120.5C 84.8333,121.833 85.1667,123.167 85.5,124.5C 84.8333,125.833 84.1667,127.167 83.5,128.5C 83.5858,127.504 83.2524,126.671 82.5,126C 80.4817,125.495 78.4817,124.995 76.5,124.5C 72.7119,122.553 68.7119,121.886 64.5,122.5C 61.2908,133.94 53.9575,137.773 42.5,134C 38.3876,130.829 36.0542,126.662 35.5,121.5C 29.7514,122.694 24.0848,124.194 18.5,126C 19.056,126.383 19.3893,126.883 19.5,127.5C 18.8333,127.5 18.1667,127.5 17.5,127.5C 16.6043,128.506 15.9377,128.506 15.5,127.5C 17.5102,124.973 20.1769,123.139 23.5,122C 27.6019,121.142 31.6019,119.975 35.5,118.5C 33.1178,116.929 30.4512,116.096 27.5,116C 21.5398,115.407 15.8731,115.573 10.5,116.5C 10.3601,114.876 11.0267,113.71 12.5,113C 9.12196,110.036 8.78863,106.869 11.5,103.5C 12.2389,103.369 12.9056,103.536 13.5,104C 12.7433,105.512 11.7433,106.846 10.5,108C 11.2567,109.512 12.2567,110.846 13.5,112C 20.8794,111.951 28.046,113.118 35,115.5C 37.2803,115.106 37.7803,114.106 36.5,112.5C 39.6421,112.201 41.8088,110.534 43,107.5C 44.6149,97.5352 40.4483,93.0352 30.5,94C 28.2663,95.6379 26.933,97.8045 26.5,100.5C 25.7784,100.082 25.2784,99.4158 25,98.5C 24.3333,95.5 24.3333,92.5 25,89.5C 30.4565,79.3821 36.2899,79.0488 42.5,88.5C 44.8063,95.0025 46.473,101.669 47.5,108.5C 49.1667,108.5 50.8333,108.5 52.5,108.5C 52.1703,98.6276 54.8369,89.7943 60.5,82C 62.5,81.3333 64.5,81.3333 66.5,82C 69.9493,84.4816 73.116,87.315 76,90.5C 76.6226,95.2174 75.7893,99.5507 73.5,103.5 Z"/></g>
<g><path style="opacity:1" fill="#549b43" d="M 73.5,103.5 C 72.2316,107.767 69.5649,110.767 65.5,112.5C 54.3035,110.073 52.4702,104.406 60,95.5C 61.1824,93.6431 62.849,92.6431 65,92.5C 70.9998,93.6714 73.8331,97.3381 73.5,103.5 Z"/></g>
<g><path style="opacity:1" fill="#191c14" d="M 65.5,100.5 C 66.209,101.404 67.209,101.737 68.5,101.5C 66.4176,109.314 63.7509,109.481 60.5,102C 61.5451,97.1042 63.2118,96.6042 65.5,100.5 Z"/></g>
<g><path style="opacity:1" fill="#d6dcd4" d="M 68.5,101.5 C 67.209,101.737 66.209,101.404 65.5,100.5C 65.5,99.1667 65.5,97.8333 65.5,96.5C 66.5,96.5 67.5,96.5 68.5,96.5C 68.5,98.1667 68.5,99.8333 68.5,101.5 Z"/></g>
<g><path style="opacity:0.004" fill="#feff00" d="M 91.5,102.5 C 92.8333,103.167 92.8333,103.167 91.5,102.5 Z"/></g>
<g><path style="opacity:1" fill="#549b43" d="M 36.5,112.5 C 31.3159,110.181 27.9826,106.181 26.5,100.5C 26.933,97.8045 28.2663,95.6379 30.5,94C 40.4483,93.0352 44.6149,97.5352 43,107.5C 41.8088,110.534 39.6421,112.201 36.5,112.5 Z"/></g>
<g><path style="opacity:1" fill="#1d2417" d="M 36.5,96.5 C 36.5,98.1667 36.5,99.8333 36.5,101.5C 37.5,101.5 38.5,101.5 39.5,101.5C 39.336,107.488 36.836,108.821 32,105.5C 30.2463,100.618 31.7463,97.6179 36.5,96.5 Z"/></g>
<g><path style="opacity:1" fill="#c8d9c6" d="M 36.5,96.5 C 37.5,96.5 38.5,96.5 39.5,96.5C 39.5,98.1667 39.5,99.8333 39.5,101.5C 38.5,101.5 37.5,101.5 36.5,101.5C 36.5,99.8333 36.5,98.1667 36.5,96.5 Z"/></g>
<g><path style="opacity:1" fill="#db8228" d="M 91.5,108.5 C 91.1667,109.5 90.5,110.167 89.5,110.5C 87.7867,112.85 85.4534,113.85 82.5,113.5C 83.5675,108.839 83.7342,104.172 83,99.5C 84.416,104.078 87.2494,107.078 91.5,108.5 Z"/></g>
<g><path style="opacity:1" fill="#7c5955" d="M 50.5,116.5 C 50.1667,116.5 49.8333,116.5 49.5,116.5C 46.9078,114.964 45.9078,112.631 46.5,109.5C 48.8333,109.5 51.1667,109.5 53.5,109.5C 53.8504,112.453 52.8504,114.787 50.5,116.5 Z"/></g>
<g><path style="opacity:1" fill="#dd5f26" d="M 134.5,111.5 C 135.167,114.833 135.833,118.167 136.5,121.5C 135.833,121.5 135.5,121.833 135.5,122.5C 132.921,123.228 130.254,123.728 127.5,124C 126.748,124.671 126.414,125.504 126.5,126.5C 125.127,126.343 123.793,126.51 122.5,127C 121.211,128.802 119.544,129.969 117.5,130.5C 117.167,130.5 116.833,130.5 116.5,130.5C 116.737,129.209 116.404,128.209 115.5,127.5C 115.5,126.5 115.5,125.5 115.5,124.5C 115.343,123.127 115.51,121.793 116,120.5C 119.62,117.946 123.12,115.279 126.5,112.5C 129.167,112.167 131.833,111.833 134.5,111.5 Z"/></g>
<g><path style="opacity:1" fill="#f88e2a" d="M 15.5,127.5 C 13.8624,126.295 13.5291,124.962 14.5,123.5C 16.6516,122.923 16.985,121.756 15.5,120C 14.5632,119.308 13.8966,119.475 13.5,120.5C 12.1224,119.455 11.1224,118.122 10.5,116.5C 15.8731,115.573 21.5398,115.407 27.5,116C 30.4512,116.096 33.1178,116.929 35.5,118.5C 31.6019,119.975 27.6019,121.142 23.5,122C 20.1769,123.139 17.5102,124.973 15.5,127.5 Z"/></g>
<g><path style="opacity:1" fill="#fb921f" d="M 74.5,115.5 C 76.5,115.5 78.5,115.5 80.5,115.5C 80.1218,117.921 79.4552,120.254 78.5,122.5C 74.0777,121.303 69.7444,119.803 65.5,118C 68.3117,116.451 71.3117,115.618 74.5,115.5 Z"/></g>
<g><path style="opacity:1" fill="#e2913e" d="M 74.5,115.5 C 76.6282,114.371 78.9615,114.204 81.5,115C 84.1909,115.156 86.5242,115.989 88.5,117.5C 88.1667,118.167 87.8333,118.833 87.5,119.5C 86.8333,119.5 86.5,119.833 86.5,120.5C 85.8333,120.5 85.1667,120.5 84.5,120.5C 83.596,121.209 83.2627,122.209 83.5,123.5C 81.7085,123.634 80.0418,123.301 78.5,122.5C 79.4552,120.254 80.1218,117.921 80.5,115.5C 78.5,115.5 76.5,115.5 74.5,115.5 Z"/></g>
<g><path style="opacity:0.004" fill="#fefffe" d="M 90.5,116.5 C 91.8333,117.167 91.8333,117.167 90.5,116.5 Z"/></g>
<g><path style="opacity:0.004" fill="#feff00" d="M 87.5,119.5 C 88.8333,120.167 88.8333,120.167 87.5,119.5 Z"/></g>
<g><path style="opacity:0.482" fill="#efbea8" d="M 13.5,120.5 C 13.8966,119.475 14.5632,119.308 15.5,120C 16.985,121.756 16.6516,122.923 14.5,123.5C 14.7373,122.209 14.404,121.209 13.5,120.5 Z"/></g>
<g><path style="opacity:0.004" fill="#feff00" d="M 86.5,120.5 C 86.8333,120.5 87.1667,120.5 87.5,120.5C 87.3147,121.17 86.9813,121.17 86.5,120.5 Z"/></g>
<g><path style="opacity:1" fill="#fa9124" d="M 76.5,124.5 C 76.6602,126.199 76.4935,127.866 76,129.5C 72.9319,132.083 69.7652,134.416 66.5,136.5C 65.5084,136.328 64.8417,136.662 64.5,137.5C 56.6074,139.386 48.6074,139.886 40.5,139C 36.1834,137.063 31.8501,135.23 27.5,133.5C 24.9748,131.323 22.3081,129.323 19.5,127.5C 19.3893,126.883 19.056,126.383 18.5,126C 24.0848,124.194 29.7514,122.694 35.5,121.5C 36.0542,126.662 38.3876,130.829 42.5,134C 53.9575,137.773 61.2908,133.94 64.5,122.5C 68.7119,121.886 72.7119,122.553 76.5,124.5 Z"/></g>
<g><path style="opacity:1" fill="#82653e" d="M 49.5,116.5 C 49.8333,116.5 50.1667,116.5 50.5,116.5C 49.8224,120.273 51.1558,123.106 54.5,125C 52.6332,125.711 51.1332,125.211 50,123.5C 48.4447,125.515 46.6114,125.848 44.5,124.5C 48.1788,123.151 49.8455,120.484 49.5,116.5 Z"/></g>
<g><path style="opacity:0.396" fill="#f6d1c6" d="M 136.5,121.5 C 137.11,122.391 137.443,123.391 137.5,124.5C 136.5,124.167 135.833,123.5 135.5,122.5C 135.5,121.833 135.833,121.5 136.5,121.5 Z"/></g>
<g><path style="opacity:0.004" fill="#fe0000" d="M 85.5,124.5 C 86.8333,125.167 86.8333,125.167 85.5,124.5 Z"/></g>
<g><path style="opacity:0.004" fill="#feff00" d="M 115.5,127.5 C 114.833,128.167 114.833,128.167 115.5,127.5 Z"/></g>
<g><path style="opacity:0.998" fill="#f99330" d="M 126.5,126.5 C 127.649,126.791 128.316,127.624 128.5,129C 129.007,132.213 129.674,135.38 130.5,138.5C 128.369,139.169 126.369,139.835 124.5,140.5C 123.065,141.913 122.065,143.58 121.5,145.5C 121.167,145.5 120.833,145.5 120.5,145.5C 119.812,140.45 118.812,135.45 117.5,130.5C 119.544,129.969 121.211,128.802 122.5,127C 123.793,126.51 125.127,126.343 126.5,126.5 Z"/></g>
<g><path style="opacity:0.004" fill="#fe0000" d="M 82.5,129.5 C 83.8333,130.167 83.8333,130.167 82.5,129.5 Z"/></g>
<g><path style="opacity:0.004" fill="#fe0000" d="M 116.5,130.5 C 115.833,131.167 115.833,131.167 116.5,130.5 Z"/></g>
<g><path style="opacity:1" fill="#f7ad88" d="M 17.5,127.5 C 18.1667,127.5 18.8333,127.5 19.5,127.5C 22.3081,129.323 24.9748,131.323 27.5,133.5C 28.5,135.167 29.8333,136.5 31.5,137.5C 31.1667,138.5 30.5,139.167 29.5,139.5C 29.1714,136.968 28.0048,135.968 26,136.5C 23.3279,133.329 20.4946,130.329 17.5,127.5 Z"/></g>
<g><path style="opacity:0.004" fill="#feff00" d="M 85.5,132.5 C 86.8333,133.167 86.8333,133.167 85.5,132.5 Z"/></g>
<g><path style="opacity:0.843" fill="#edbaa3" d="M 80.5,130.5 C 79.9423,131.79 78.9423,132.623 77.5,133C 80.146,133.497 82.8127,133.664 85.5,133.5C 85.5,133.833 85.5,134.167 85.5,134.5C 82.8333,134.5 80.1667,134.5 77.5,134.5C 76.8333,134.5 76.1667,134.5 75.5,134.5C 75.1667,134.5 74.8333,134.5 74.5,134.5C 75.8021,132.178 77.8021,130.845 80.5,130.5 Z"/></g>
<g><path style="opacity:0.004" fill="#fefffe" d="M 90.5,133.5 C 91.8333,134.167 91.8333,134.167 90.5,133.5 Z"/></g>
<g><path style="opacity:1" fill="#e87a3f" d="M 76.5,124.5 C 78.4817,124.995 80.4817,125.495 82.5,126C 83.2524,126.671 83.5858,127.504 83.5,128.5C 82.8333,128.5 82.5,128.833 82.5,129.5C 81.8333,129.833 81.1667,130.167 80.5,130.5C 77.8021,130.845 75.8021,132.178 74.5,134.5C 72.0721,135.212 69.7388,136.212 67.5,137.5C 66.8933,137.376 66.56,137.043 66.5,136.5C 69.7652,134.416 72.9319,132.083 76,129.5C 76.4935,127.866 76.6602,126.199 76.5,124.5 Z"/></g>
<g><path style="opacity:1" fill="#f98e20" d="M 75.5,134.5 C 76.1667,134.5 76.8333,134.5 77.5,134.5C 79.1829,145.37 80.0162,156.37 80,167.5C 84.7625,157.456 86.9292,146.789 86.5,135.5C 91.3654,135.366 93.3654,137.699 92.5,142.5C 92.1176,151.713 90.9509,160.713 89,169.5C 93.2793,161.94 97.2793,154.273 101,146.5C 102.764,148.389 104.264,150.389 105.5,152.5C 106.371,156.182 107.371,159.848 108.5,163.5C 108.775,172.221 108.442,180.887 107.5,189.5C 106.895,196.88 105.895,204.213 104.5,211.5C 104.52,212.726 104.853,213.726 105.5,214.5C 105.5,215.167 105.5,215.833 105.5,216.5C 104.503,216.47 103.836,216.97 103.5,218C 104.127,220.411 104.127,222.911 103.5,225.5C 103.5,225.833 103.5,226.167 103.5,226.5C 102.5,226.5 101.5,226.5 100.5,226.5C 97.0291,225.367 95.0291,223.033 94.5,219.5C 96.4233,219.205 98.0899,218.372 99.5,217C 98.1741,214.842 96.5075,213.008 94.5,211.5C 96.3586,209.808 98.3586,208.308 100.5,207C 97.0637,204.613 93.7304,202.113 90.5,199.5C 88.193,192.039 87.0263,184.372 87,176.5C 86.4536,183.184 86.6203,189.851 87.5,196.5C 84.2727,196.676 81.2727,197.343 78.5,198.5C 76.5,198.5 74.5,198.5 72.5,198.5C 72.6662,192.491 72.4995,186.491 72,180.5C 71.5004,187.492 71.3337,194.492 71.5,201.5C 70.196,207.067 70.196,212.734 71.5,218.5C 71.8333,219.167 72.1667,219.833 72.5,220.5C 71.6618,220.842 71.3284,221.508 71.5,222.5C 71.6068,224.379 71.1068,224.712 70,223.5C 69.5065,225.134 69.3398,226.801 69.5,228.5C 69.1667,228.5 68.8333,228.5 68.5,228.5C 67.319,225.331 64.9856,223.664 61.5,223.5C 60.824,219.486 62.1573,216.486 65.5,214.5C 63.9733,212.807 62.6399,210.973 61.5,209C 63.3451,207.577 65.3451,206.41 67.5,205.5C 65.1918,203.529 62.8585,201.529 60.5,199.5C 59.8182,200.243 59.1515,200.909 58.5,201.5C 57.8333,201.5 57.1667,201.5 56.5,201.5C 56.5,201.167 56.5,200.833 56.5,200.5C 56.6107,199.883 56.944,199.383 57.5,199C 51.1929,196.365 45.6929,192.532 41,187.5C 39.2935,182.844 37.1269,178.51 34.5,174.5C 33.7777,173.449 32.7777,172.782 31.5,172.5C 31.5,172.167 31.5,171.833 31.5,171.5C 32.6291,169.372 32.7958,167.039 32,164.5C 31.9504,162.256 31.1171,160.589 29.5,159.5C 29.5,158.833 29.5,158.167 29.5,157.5C 30.8333,152.833 30.8333,148.167 29.5,143.5C 29.5,142.833 29.5,142.167 29.5,141.5C 31.0481,141.821 31.7148,142.821 31.5,144.5C 31.6646,152.328 33.6646,159.662 37.5,166.5C 38.3914,167.59 39.3914,167.59 40.5,166.5C 42,168.833 43.5,171.167 45,173.5C 48.7349,177.706 52.0682,177.373 55,172.5C 56.4131,169.339 58.0797,166.339 60,163.5C 61.1827,164.731 62.3493,164.731 63.5,163.5C 66.2279,158.308 68.5613,152.975 70.5,147.5C 71.5597,142.996 73.2264,138.663 75.5,134.5 Z M 73.5,201.5 C 75.256,202.552 75.9227,204.219 75.5,206.5C 76.3439,210.099 76.6773,213.766 76.5,217.5C 75.205,218.488 73.8717,219.488 72.5,220.5C 72.1667,219.833 71.8333,219.167 71.5,218.5C 72.7373,213.04 73.404,207.373 73.5,201.5 Z M 91.5,211.5 C 91.5,212.833 91.5,214.167 91.5,215.5C 91.5,217.167 91.5,218.833 91.5,220.5C 90.7326,221.172 90.0659,222.005 89.5,223C 88.5632,223.692 87.8966,223.525 87.5,222.5C 88.9005,218.318 89.7338,213.985 90,209.5C 90.2784,210.416 90.7784,211.082 91.5,211.5 Z"/></g>
<g><path style="opacity:0.004" fill="#feff00" d="M 95.5,135.5 C 96.8333,136.167 96.8333,136.167 95.5,135.5 Z"/></g>
<g><path style="opacity:1" fill="#e6ae5b" d="M 74.5,134.5 C 74.8333,134.5 75.1667,134.5 75.5,134.5C 73.2264,138.663 71.5597,142.996 70.5,147.5C 70.2648,146.903 69.7648,146.57 69,146.5C 64.8562,148.262 60.5229,149.262 56,149.5C 47.6736,148.543 39.5069,146.876 31.5,144.5C 31.7148,142.821 31.0481,141.821 29.5,141.5C 29.5,140.833 29.5,140.167 29.5,139.5C 30.5,139.167 31.1667,138.5 31.5,137.5C 41.531,141.669 51.8644,142.503 62.5,140C 63.3279,139.085 64.3279,138.419 65.5,138C 65.2716,137.601 64.9382,137.435 64.5,137.5C 64.8417,136.662 65.5084,136.328 66.5,136.5C 66.56,137.043 66.8933,137.376 67.5,137.5C 69.7388,136.212 72.0721,135.212 74.5,134.5 Z"/></g>
<g><path style="opacity:1" fill="#e16629" d="M 77.5,134.5 C 80.1667,134.5 82.8333,134.5 85.5,134.5C 87.1667,134.5 88.8333,134.5 90.5,134.5C 91.9303,135.537 93.597,136.204 95.5,136.5C 98.8515,138.854 101.518,141.854 103.5,145.5C 104.455,147.746 105.122,150.079 105.5,152.5C 104.264,150.389 102.764,148.389 101,146.5C 97.2793,154.273 93.2793,161.94 89,169.5C 90.9509,160.713 92.1176,151.713 92.5,142.5C 93.3654,137.699 91.3654,135.366 86.5,135.5C 86.9292,146.789 84.7625,157.456 80,167.5C 80.0162,156.37 79.1829,145.37 77.5,134.5 Z"/></g>
<g><path style="opacity:1" fill="#ea8549" d="M 27.5,133.5 C 31.8501,135.23 36.1834,137.063 40.5,139C 48.6074,139.886 56.6074,139.386 64.5,137.5C 64.9382,137.435 65.2716,137.601 65.5,138C 64.3279,138.419 63.3279,139.085 62.5,140C 51.8644,142.503 41.531,141.669 31.5,137.5C 29.8333,136.5 28.5,135.167 27.5,133.5 Z"/></g>
<g><path style="opacity:1" fill="#c64c19" d="M 140.5,144.5 C 140.5,145.5 140.5,146.5 140.5,147.5C 139.927,150.147 139.26,152.813 138.5,155.5C 136.424,153.712 134.257,152.046 132,150.5C 131.502,147.183 131.335,143.85 131.5,140.5C 135.453,139.981 138.453,141.314 140.5,144.5 Z"/></g>
<g><path style="opacity:1" fill="#e25f20" d="M 124.5,140.5 C 126.5,140.5 128.5,140.5 130.5,140.5C 131.069,144.329 130.402,147.663 128.5,150.5C 126.5,150.5 124.5,150.5 122.5,150.5C 121.699,148.958 121.366,147.292 121.5,145.5C 122.065,143.58 123.065,141.913 124.5,140.5 Z"/></g>
<g><path style="opacity:1" fill="#fcc35a" d="M 31.5,144.5 C 39.5069,146.876 47.6736,148.543 56,149.5C 60.5229,149.262 64.8562,148.262 69,146.5C 69.7648,146.57 70.2648,146.903 70.5,147.5C 68.5613,152.975 66.2279,158.308 63.5,163.5C 62.3493,164.731 61.1827,164.731 60,163.5C 58.0797,166.339 56.4131,169.339 55,172.5C 52.0682,177.373 48.7349,177.706 45,173.5C 43.5,171.167 42,168.833 40.5,166.5C 39.3914,167.59 38.3914,167.59 37.5,166.5C 33.6646,159.662 31.6646,152.328 31.5,144.5 Z"/></g>
<g><path style="opacity:0.004" fill="#fefffe" d="M 120.5,145.5 C 119.833,146.167 119.833,146.167 120.5,145.5 Z"/></g>
<g><path style="opacity:0.004" fill="#fefffe" d="M 106.5,147.5 C 107.833,148.167 107.833,148.167 106.5,147.5 Z"/></g>
<g><path style="opacity:0.004" fill="#fefffe" d="M 107.5,149.5 C 108.833,150.167 108.833,150.167 107.5,149.5 Z"/></g>
<g><path style="opacity:1" fill="#fcbea0" d="M 29.5,143.5 C 30.8333,148.167 30.8333,152.833 29.5,157.5C 28.1667,152.833 28.1667,148.167 29.5,143.5 Z"/></g>
<g><path style="opacity:1" fill="#de883d" d="M 135.5,122.5 C 135.833,123.5 136.5,124.167 137.5,124.5C 139.533,130.999 140.533,137.666 140.5,144.5C 138.453,141.314 135.453,139.981 131.5,140.5C 131.335,143.85 131.502,147.183 132,150.5C 134.257,152.046 136.424,153.712 138.5,155.5C 139.26,152.813 139.927,150.147 140.5,147.5C 141.294,153.09 140.96,158.757 139.5,164.5C 137.204,164.804 136.871,165.804 138.5,167.5C 138.208,171.066 136.874,174.066 134.5,176.5C 134.071,175.047 133.904,173.381 134,171.5C 131.17,169.19 129.003,166.524 127.5,163.5C 129.894,161.668 130.894,159.168 130.5,156C 130.302,153.879 129.636,152.046 128.5,150.5C 130.402,147.663 131.069,144.329 130.5,140.5C 128.5,140.5 126.5,140.5 124.5,140.5C 126.369,139.835 128.369,139.169 130.5,138.5C 129.674,135.38 129.007,132.213 128.5,129C 128.316,127.624 127.649,126.791 126.5,126.5C 126.414,125.504 126.748,124.671 127.5,124C 130.254,123.728 132.921,123.228 135.5,122.5 Z"/></g>
<g><path style="opacity:0.004" fill="#fefffe" d="M 120.5,157.5 C 119.833,156.167 119.833,156.167 120.5,157.5 Z"/></g>
<g><path style="opacity:0.004" fill="#fe0000" d="M 119.5,159.5 C 118.833,158.167 118.833,158.167 119.5,159.5 Z"/></g>
<g><path style="opacity:1" fill="#f09466" d="M 103.5,145.5 C 104.728,146.306 105.728,147.306 106.5,148.5C 106.328,149.492 106.662,150.158 107.5,150.5C 108.777,154.194 109.777,157.861 110.5,161.5C 110.5,162.167 110.5,162.833 110.5,163.5C 109.833,163.5 109.167,163.5 108.5,163.5C 107.371,159.848 106.371,156.182 105.5,152.5C 105.122,150.079 104.455,147.746 103.5,145.5 Z"/></g>
<g><path style="opacity:0.004" fill="#feff00" d="M 110.5,160.5 C 111.833,161.167 111.833,161.167 110.5,160.5 Z"/></g>
<g><path style="opacity:1" fill="#ce521c" d="M 127.5,163.5 C 129.003,166.524 131.17,169.19 134,171.5C 133.904,173.381 134.071,175.047 134.5,176.5C 134.5,177.167 134.167,177.5 133.5,177.5C 131.211,179.448 128.878,181.448 126.5,183.5C 125.582,178.782 123.915,174.449 121.5,170.5C 120.84,168.184 120.173,165.851 119.5,163.5C 120.09,161.037 121.423,159.537 123.5,159C 125.07,160.397 126.404,161.897 127.5,163.5 Z"/></g>
<g><path style="opacity:1" fill="#f99431" d="M 122.5,150.5 C 124.5,150.5 126.5,150.5 128.5,150.5C 129.636,152.046 130.302,153.879 130.5,156C 130.894,159.168 129.894,161.668 127.5,163.5C 126.404,161.897 125.07,160.397 123.5,159C 121.423,159.537 120.09,161.037 119.5,163.5C 120.173,165.851 120.84,168.184 121.5,170.5C 120.539,173.835 118.206,175.501 114.5,175.5C 112.958,171.67 111.624,167.67 110.5,163.5C 114.186,164.166 117.186,162.833 119.5,159.5C 120.338,159.158 120.672,158.492 120.5,157.5C 121.267,156.828 121.934,155.995 122.5,155C 121.199,153.384 121.199,151.884 122.5,150.5 Z"/></g>
<g><path style="opacity:1" fill="#dd5d1f" d="M 108.5,163.5 C 109.167,163.5 109.833,163.5 110.5,163.5C 111.624,167.67 112.958,171.67 114.5,175.5C 114.884,179.747 115.551,183.914 116.5,188C 115.263,188.232 114.263,188.732 113.5,189.5C 112.167,189.5 110.833,189.5 109.5,189.5C 108.833,189.5 108.167,189.5 107.5,189.5C 108.442,180.887 108.775,172.221 108.5,163.5 Z"/></g>
<g><path style="opacity:0.01" fill="#f5e7df" d="M 139.5,164.5 C 139.737,165.791 139.404,166.791 138.5,167.5C 136.871,165.804 137.204,164.804 139.5,164.5 Z"/></g>
<g><path style="opacity:0.714" fill="#f39f73" d="M 29.5,159.5 C 31.1171,160.589 31.9504,162.256 32,164.5C 32.7958,167.039 32.6291,169.372 31.5,171.5C 29.7501,167.817 29.0834,163.817 29.5,159.5 Z"/></g>
<g><path style="opacity:1" fill="#db812c" d="M 121.5,170.5 C 123.915,174.449 125.582,178.782 126.5,183.5C 125.473,185.194 124.139,186.527 122.5,187.5C 119.727,188.657 116.727,189.324 113.5,189.5C 114.263,188.732 115.263,188.232 116.5,188C 115.551,183.914 114.884,179.747 114.5,175.5C 118.206,175.501 120.539,173.835 121.5,170.5 Z"/></g>
<g><path style="opacity:0.722" fill="#f5b58d" d="M 31.5,172.5 C 32.7777,172.782 33.7777,173.449 34.5,174.5C 34.8693,176.441 35.536,178.275 36.5,180C 36.1667,180.333 35.8333,180.667 35.5,181C 36.7014,181.903 37.5348,183.069 38,184.5C 38.8136,189.02 38.647,193.354 37.5,197.5C 36.6753,193.353 36.1753,189.019 36,184.5C 34.1926,180.595 32.6926,176.595 31.5,172.5 Z"/></g>
<g><path style="opacity:0.102" fill="#e1a082" d="M 133.5,177.5 C 131.691,182.9 128.024,186.234 122.5,187.5C 124.139,186.527 125.473,185.194 126.5,183.5C 128.878,181.448 131.211,179.448 133.5,177.5 Z"/></g>
<g><path style="opacity:1" fill="#d9762a" d="M 90.5,199.5 C 90.8635,202.563 91.5302,205.563 92.5,208.5C 92.4805,209.726 92.1471,210.726 91.5,211.5C 90.7784,211.082 90.2784,210.416 90,209.5C 89.7338,213.985 88.9005,218.318 87.5,222.5C 86.2618,223.412 84.9285,223.579 83.5,223C 81.5779,220.57 79.2446,218.737 76.5,217.5C 76.6773,213.766 76.3439,210.099 75.5,206.5C 76.1174,206.389 76.6174,206.056 77,205.5C 78.6035,211.564 81.4368,212.064 85.5,207C 82.5,205.167 79.5,203.333 76.5,201.5C 77.09,200.201 78.09,199.368 79.5,199C 79.2716,198.601 78.9382,198.435 78.5,198.5C 81.2727,197.343 84.2727,196.676 87.5,196.5C 86.6203,189.851 86.4536,183.184 87,176.5C 87.0263,184.372 88.193,192.039 90.5,199.5 Z"/></g>
<g><path style="opacity:0.004" fill="#fefffe" d="M 56.5,201.5 C 55.8333,202.167 55.8333,202.167 56.5,201.5 Z"/></g>
<g><path style="opacity:1" fill="#d45b1f" d="M 90.5,199.5 C 93.7304,202.113 97.0637,204.613 100.5,207C 98.3586,208.308 96.3586,209.808 94.5,211.5C 96.5075,213.008 98.1741,214.842 99.5,217C 98.0899,218.372 96.4233,219.205 94.5,219.5C 93.9779,217.781 92.9779,216.448 91.5,215.5C 91.5,214.167 91.5,212.833 91.5,211.5C 92.1471,210.726 92.4805,209.726 92.5,208.5C 91.5302,205.563 90.8635,202.563 90.5,199.5 Z"/></g>
<g><path style="opacity:1" fill="#e07a2c" d="M 34.5,174.5 C 37.1269,178.51 39.2935,182.844 41,187.5C 45.6929,192.532 51.1929,196.365 57.5,199C 56.944,199.383 56.6107,199.883 56.5,200.5C 55.5,200.5 54.5,200.5 53.5,200.5C 52.9412,204.853 52.2745,209.186 51.5,213.5C 50.4138,213.62 49.7472,214.287 49.5,215.5C 49.5427,216.416 49.8761,217.083 50.5,217.5C 50.678,221.122 50.0114,224.456 48.5,227.5C 46.3478,225.222 43.6812,223.888 40.5,223.5C 40.6604,220.116 40.327,216.783 39.5,213.5C 39.8178,212.353 40.4844,211.519 41.5,211C 40.552,210.517 39.552,210.351 38.5,210.5C 38.81,207.287 38.4767,204.287 37.5,201.5C 37.5,200.167 37.5,198.833 37.5,197.5C 38.647,193.354 38.8136,189.02 38,184.5C 37.5348,183.069 36.7014,181.903 35.5,181C 35.8333,180.667 36.1667,180.333 36.5,180C 35.536,178.275 34.8693,176.441 34.5,174.5 Z"/></g>
<g><path style="opacity:1" fill="#ce531c" d="M 78.5,198.5 C 78.9382,198.435 79.2716,198.601 79.5,199C 78.09,199.368 77.09,200.201 76.5,201.5C 79.5,203.333 82.5,205.167 85.5,207C 81.4368,212.064 78.6035,211.564 77,205.5C 76.6174,206.056 76.1174,206.389 75.5,206.5C 75.9227,204.219 75.256,202.552 73.5,201.5C 72.8333,201.5 72.1667,201.5 71.5,201.5C 71.3337,194.492 71.5004,187.492 72,180.5C 72.4995,186.491 72.6662,192.491 72.5,198.5C 74.5,198.5 76.5,198.5 78.5,198.5 Z"/></g>
<g><path style="opacity:0.949" fill="#ec9367" d="M 107.5,189.5 C 108.167,189.5 108.833,189.5 109.5,189.5C 108.89,197.881 107.89,206.214 106.5,214.5C 106.167,214.5 105.833,214.5 105.5,214.5C 104.853,213.726 104.52,212.726 104.5,211.5C 105.895,204.213 106.895,196.88 107.5,189.5 Z"/></g>
<g><path style="opacity:0.671" fill="#de9b71" d="M 71.5,201.5 C 72.1667,201.5 72.8333,201.5 73.5,201.5C 73.404,207.373 72.7373,213.04 71.5,218.5C 70.196,212.734 70.196,207.067 71.5,201.5 Z"/></g>
<g><path style="opacity:1" fill="#e37840" d="M 61.5,223.5 C 60.8333,223.5 60.1667,223.5 59.5,223.5C 58.536,216.254 58.2027,208.92 58.5,201.5C 59.1515,200.909 59.8182,200.243 60.5,199.5C 62.8585,201.529 65.1918,203.529 67.5,205.5C 65.3451,206.41 63.3451,207.577 61.5,209C 62.6399,210.973 63.9733,212.807 65.5,214.5C 62.1573,216.486 60.824,219.486 61.5,223.5 Z"/></g>
<g><path style="opacity:0.573" fill="#ec8f5f" d="M 37.5,201.5 C 38.4767,204.287 38.81,207.287 38.5,210.5C 39.552,210.351 40.552,210.517 41.5,211C 40.4844,211.519 39.8178,212.353 39.5,213.5C 40.327,216.783 40.6604,220.116 40.5,223.5C 39.7487,220.754 38.7487,218.087 37.5,215.5C 37.5,210.833 37.5,206.167 37.5,201.5 Z"/></g>
<g><path style="opacity:0.004" fill="#000000" d="M 106.5,214.5 C 107.833,215.167 107.833,215.167 106.5,214.5 Z"/></g>
<g><path style="opacity:0.741" fill="#e3aa8f" d="M 51.5,213.5 C 51.7678,215.099 51.4345,216.432 50.5,217.5C 49.8761,217.083 49.5427,216.416 49.5,215.5C 49.7472,214.287 50.4138,213.62 51.5,213.5 Z"/></g>
<g><path style="opacity:1" fill="#e39d7f" d="M 105.5,216.5 C 105.932,219.877 105.265,222.877 103.5,225.5C 104.127,222.911 104.127,220.411 103.5,218C 103.836,216.97 104.503,216.47 105.5,216.5 Z"/></g>
<g><path style="opacity:1" fill="#fac162" d="M 91.5,215.5 C 92.9779,216.448 93.9779,217.781 94.5,219.5C 95.0291,223.033 97.0291,225.367 100.5,226.5C 99.8126,230.352 97.4792,232.019 93.5,231.5C 92.8333,224.833 92.1667,224.833 91.5,231.5C 90.5,231.5 89.5,231.5 88.5,231.5C 88.8541,227.77 90.1874,224.437 92.5,221.5C 92.3764,220.893 92.0431,220.56 91.5,220.5C 91.5,218.833 91.5,217.167 91.5,215.5 Z"/></g>
<g><path style="opacity:1" fill="#eebb61" d="M 59.5,223.5 C 60.1667,223.5 60.8333,223.5 61.5,223.5C 64.9856,223.664 67.319,225.331 68.5,228.5C 68.5123,232.446 66.5123,234.113 62.5,233.5C 62.4427,228.318 61.776,228.318 60.5,233.5C 59.5165,226.972 58.3498,226.972 57,233.5C 56.3333,231.833 56.3333,230.167 57,228.5C 58.0945,226.922 58.9278,225.255 59.5,223.5 Z"/></g>
<g><path style="opacity:0.004" fill="#fe0000" d="M 103.5,227.5 C 104.833,228.167 104.833,228.167 103.5,227.5 Z"/></g>
<g><path style="opacity:0.004" fill="#fe0000" d="M 102.5,228.5 C 102.833,228.5 103.167,228.5 103.5,228.5C 103.315,229.17 102.981,229.17 102.5,228.5 Z"/></g>
<g><path style="opacity:1" fill="#e6bc6b" d="M 37.5,215.5 C 38.7487,218.087 39.7487,220.754 40.5,223.5C 43.6812,223.888 46.3478,225.222 48.5,227.5C 49.7788,231.239 48.4455,233.572 44.5,234.5C 41.8333,233.167 39.1667,233.167 36.5,234.5C 35.5,234.5 34.5,234.5 33.5,234.5C 31.9809,230.963 32.3142,227.63 34.5,224.5C 35.325,223.614 36.325,223.281 37.5,223.5C 37.5,220.833 37.5,218.167 37.5,215.5 Z"/></g>
<g><path style="opacity:0.129" fill="#ebe1d0" d="M 81.5,230.5 C 79.1667,231.833 76.8333,231.833 74.5,230.5C 76.8333,229.167 79.1667,229.167 81.5,230.5 Z"/></g>
<g><path style="opacity:1" fill="#d6b468" d="M 76.5,217.5 C 79.2446,218.737 81.5779,220.57 83.5,223C 84.9285,223.579 86.2618,223.412 87.5,222.5C 87.8966,223.525 88.5632,223.692 89.5,223C 90.0659,222.005 90.7326,221.172 91.5,220.5C 92.0431,220.56 92.3764,220.893 92.5,221.5C 90.1874,224.437 88.8541,227.77 88.5,231.5C 89.5,231.5 90.5,231.5 91.5,231.5C 92.1667,224.833 92.8333,224.833 93.5,231.5C 97.4792,232.019 99.8126,230.352 100.5,226.5C 101.5,226.5 102.5,226.5 103.5,226.5C 103.5,226.833 103.5,227.167 103.5,227.5C 102.833,227.5 102.5,227.833 102.5,228.5C 101.698,229.952 101.198,231.618 101,233.5C 99.9887,234.337 98.8221,234.67 97.5,234.5C 95.1667,233.167 92.8333,233.167 90.5,234.5C 87.5,233.167 84.5,231.833 81.5,230.5C 79.1667,229.167 76.8333,229.167 74.5,230.5C 72.8007,230.473 71.4674,229.806 70.5,228.5C 70.1667,228.5 69.8333,228.5 69.5,228.5C 69.3398,226.801 69.5065,225.134 70,223.5C 71.1068,224.712 71.6068,224.379 71.5,222.5C 72.3382,222.158 72.6716,221.492 72.5,220.5C 73.8717,219.488 75.205,218.488 76.5,217.5 Z"/></g>
<g><path style="opacity:0.74" fill="#eee8cd" d="M 44.5,234.5 C 41.8333,235.833 39.1667,235.833 36.5,234.5C 39.1667,233.167 41.8333,233.167 44.5,234.5 Z"/></g>
<g><path style="opacity:1" fill="#665a48" d="M 59.5,223.5 C 58.9278,225.255 58.0945,226.922 57,228.5C 56.3333,230.167 56.3333,231.833 57,233.5C 58.3498,226.972 59.5165,226.972 60.5,233.5C 61.776,228.318 62.4427,228.318 62.5,233.5C 66.5123,234.113 68.5123,232.446 68.5,228.5C 68.8333,228.5 69.1667,228.5 69.5,228.5C 69.8333,228.5 70.1667,228.5 70.5,228.5C 70.9452,231.365 70.2785,233.865 68.5,236C 64.3299,236.325 60.3299,236.491 56.5,236.5C 53.124,231.066 54.124,226.733 59.5,223.5 Z"/></g>
<g><path style="opacity:0.027" fill="#ddd6d2" d="M 97.5,234.5 C 95.1667,235.833 92.8333,235.833 90.5,234.5C 92.8333,233.167 95.1667,233.167 97.5,234.5 Z"/></g>
</svg>
