<?xml version="1.0" encoding="UTF-8"?>
<!DOCTYPE svg PUBLIC "-//W3C//DTD SVG 1.1//EN" "http://www.w3.org/Graphics/SVG/1.1/DTD/svg11.dtd">
<svg xmlns="http://www.w3.org/2000/svg" version="1.1" width="400px" height="244px" style="shape-rendering:geometricPrecision; text-rendering:geometricPrecision; image-rendering:optimizeQuality; fill-rule:evenodd; clip-rule:evenodd" xmlns:xlink="http://www.w3.org/1999/xlink">
<g><path style="opacity:0.427" fill="#d4d4d4" d="M 286.5,21.5 C 284.956,21.7031 283.622,22.3698 282.5,23.5C 281.478,23.1445 280.811,22.4778 280.5,21.5C 282.371,21.1412 283.871,20.1412 285,18.5C 286.039,19.2438 286.539,20.2438 286.5,21.5 Z"/></g>
<g><path style="opacity:0.776" fill="#dbdbda" d="M 337.5,24.5 C 336.07,24.4208 334.736,24.7542 333.5,25.5C 325.015,22.9388 316.515,21.2721 308,20.5C 301.107,20.9842 294.274,21.9842 287.5,23.5C 286.702,23.0431 286.369,22.3764 286.5,21.5C 288.482,21.0046 290.482,20.5046 292.5,20C 291.112,19.1107 291.278,18.6107 293,18.5C 299.416,19.1268 305.416,19.1268 311,18.5C 311.667,19.1667 312.333,19.8333 313,20.5C 316.686,19.8431 320.519,19.8431 324.5,20.5C 327.71,22.4757 331.043,23.1424 334.5,22.5C 335.739,22.9424 336.739,23.6091 337.5,24.5 Z"/></g>
<g><path style="opacity:1" fill="#676862" d="M 337.5,24.5 C 337.5,25.1667 337.5,25.8333 337.5,26.5C 334.761,30.3037 332.261,34.3037 330,38.5C 329.196,45.4918 327.696,52.3252 325.5,59C 325.833,59.5 326.167,60 326.5,60.5C 330.508,56.4845 333.508,51.8178 335.5,46.5C 339.476,47.0471 343.143,48.3804 346.5,50.5C 348.029,50.4712 349.196,49.8045 350,48.5C 350.505,46.4817 351.005,44.4817 351.5,42.5C 358.848,44.4475 360.182,42.4475 355.5,36.5C 363.119,38.5927 368.619,43.5927 372,51.5C 372.635,49.3646 372.301,47.3646 371,45.5C 366.256,39.7603 360.59,35.0936 354,31.5C 353.814,34.0356 353.314,36.369 352.5,38.5C 352.658,35.0977 352.324,31.7644 351.5,28.5C 352.167,28.5 352.5,28.1667 352.5,27.5C 353.267,28.172 353.934,29.0053 354.5,30C 357.723,31.1264 360.889,31.2931 364,30.5C 365.99,33.0702 367.823,33.0702 369.5,30.5C 370.514,29.3263 371.847,28.6596 373.5,28.5C 376.682,28.416 379.015,27.0827 380.5,24.5C 381.609,24.4431 382.609,24.1098 383.5,23.5C 380.396,27.5197 377.396,31.6864 374.5,36C 373.167,36 371.833,36 370.5,36C 374,38.1667 376.833,41 379,44.5C 379.464,43.9056 379.631,43.2389 379.5,42.5C 380.167,43.1667 380.833,43.8333 381.5,44.5C 386.353,52.0728 387.686,60.0728 385.5,68.5C 385.5,72.1667 385.5,75.8333 385.5,79.5C 385.025,82.3126 386.025,84.3126 388.5,85.5C 390.579,90.5908 388.912,92.4242 383.5,91C 379.134,86.2993 374.467,81.966 369.5,78C 364.289,79.1311 358.956,79.4645 353.5,79C 350.875,76.8038 349.875,73.9705 350.5,70.5C 346.407,70.8566 342.407,70.8566 338.5,70.5C 336.035,71.5882 334.369,73.4215 333.5,76C 329.5,76.6667 329.5,77.3333 333.5,78C 331.639,79.0283 330.305,80.5283 329.5,82.5C 328.385,85.6187 328.385,88.6187 329.5,91.5C 328.903,91.7352 328.57,92.2352 328.5,93C 330.044,94.5865 331.211,96.4198 332,98.5C 332.333,98.1667 332.667,97.8333 333,97.5C 333.401,99.5212 334.568,100.855 336.5,101.5C 337.386,102.325 337.719,103.325 337.5,104.5C 338.5,104.5 339.5,104.5 340.5,104.5C 341.376,107.799 341.543,111.132 341,114.5C 340.333,113.833 339.667,113.167 339,112.5C 338.605,114.179 338.772,115.845 339.5,117.5C 339.253,118.713 338.586,119.38 337.5,119.5C 336.563,115.57 335.563,115.57 334.5,119.5C 331.771,115.297 329.605,115.63 328,120.5C 327,119.167 326,117.833 325,116.5C 324.71,118.044 324.044,119.377 323,120.5C 321.398,118.693 320.064,116.693 319,114.5C 318.536,118.982 316.703,119.982 313.5,117.5C 310.97,119.928 308.303,121.261 305.5,121.5C 305.539,120.244 305.039,119.244 304,118.5C 303.29,119.973 302.124,120.64 300.5,120.5C 300.5,118.167 300.5,115.833 300.5,113.5C 301.043,113.44 301.376,113.107 301.5,112.5C 300.721,107.887 300.221,103.22 300,98.5C 299.077,99.7588 298.243,101.092 297.5,102.5C 294.847,94.8888 292.347,87.2222 290,79.5C 289.111,80.8882 288.611,80.7215 288.5,79C 288.735,78.1268 289.069,77.2935 289.5,76.5C 288.045,74.7801 287.212,72.7801 287,70.5C 286.259,71.6405 285.425,71.6405 284.5,70.5C 281.834,68.1649 279.501,65.4982 277.5,62.5C 272.836,59.5331 268.836,60.3665 265.5,65C 266.815,66.3946 266.481,67.3946 264.5,68C 265.591,70.0639 265.758,72.2305 265,74.5C 263.691,77.3004 262.191,79.9671 260.5,82.5C 257.833,83.1667 255.167,83.8333 252.5,84.5C 246.551,83.7082 240.551,83.2082 234.5,83C 228.961,81.1987 223.294,79.8654 217.5,79C 217.833,78.6667 218.167,78.3333 218.5,78C 213.415,76.1607 208.415,74.1607 203.5,72C 197.989,65.5783 190.989,62.4117 182.5,62.5C 176.169,63.0255 169.835,63.5255 163.5,64C 153.559,65.5327 143.559,67.1994 133.5,69C 130.064,72.7565 128.564,77.2565 129,82.5C 128.097,83.7014 126.931,84.5348 125.5,85C 120.167,85.6667 114.833,85.6667 109.5,85C 108.926,80.8517 107.26,77.1851 104.5,74C 103.833,73.3333 103.167,73.3333 102.5,74C 100.65,76.0176 98.6499,77.8509 96.5,79.5C 95.291,77.0592 93.6243,75.0592 91.5,73.5C 91.7076,71.0799 91.3742,68.7466 90.5,66.5C 91.5,65.6667 92.5,64.8333 93.5,64C 91.0925,61.6309 91.0925,59.1309 93.5,56.5C 94.6853,55.147 96.0186,53.9803 97.5,53C 95.749,49.956 94.249,46.7893 93,43.5C 89.5064,48.6622 86.0064,53.8289 82.5,59C 83.1905,60.9214 83.5238,62.7547 83.5,64.5C 82.6348,64.5639 81.6348,64.8973 80.5,65.5C 78.0102,69.8105 76.0102,74.3105 74.5,79C 75.3081,79.3076 75.9747,79.8076 76.5,80.5C 75.1845,81.8066 74.1845,83.3066 73.5,85C 73.7175,91.1301 73.7175,97.4635 73.5,104C 74.9542,106.407 76.2875,108.907 77.5,111.5C 75.6652,112.428 75.3318,113.594 76.5,115C 75.1667,115.333 73.8333,115.667 72.5,116C 73.6091,117.813 72.9424,118.646 70.5,118.5C 71.7353,120.773 71.4019,122.606 69.5,124C 71.8912,125.309 71.8912,126.309 69.5,127C 72.1667,128.333 72.1667,129.667 69.5,131C 70.3081,131.308 70.9747,131.808 71.5,132.5C 67.8006,135.703 63.9672,138.703 60,141.5C 59.6667,141.167 59.3333,140.833 59,140.5C 58.3161,142.359 57.3161,144.026 56,145.5C 55.3333,144.833 54.6667,144.167 54,143.5C 51.4078,147.955 48.4078,148.622 45,145.5C 44.6667,146.833 44.3333,148.167 44,149.5C 43.6924,148.692 43.1924,148.025 42.5,147.5C 41.8333,148.833 41.1667,150.167 40.5,151.5C 38.5967,151.306 36.7633,151.306 35,151.5C 33.2942,152.308 32.4609,153.641 32.5,155.5C 29.9315,155.738 28.2648,157.071 27.5,159.5C 26.5,160.5 25.5,161.5 24.5,162.5C 22.815,161.291 21.1484,160.291 19.5,159.5C 16.6462,163.599 15.1462,163.266 15,158.5C 14.2828,159.044 13.7828,159.711 13.5,160.5C 13.1667,160.5 12.8333,160.5 12.5,160.5C 13.5353,158.795 13.5353,157.128 12.5,155.5C 10.5143,155.685 8.5143,155.018 6.5,153.5C 5.28891,152.28 5.28891,151.113 6.5,150C 4.19018,149.503 1.85684,149.337 -0.5,149.5C -0.5,148.833 -0.5,148.167 -0.5,147.5C 1.60395,147.799 3.60395,147.466 5.5,146.5C 4.38809,145.735 3.72142,144.735 3.5,143.5C 3.83333,143.5 4.16667,143.5 4.5,143.5C 5.23891,143.631 5.90558,143.464 6.5,143C 7.0606,141.434 6.39393,140.101 4.5,139C 10.3868,138.461 16.0535,137.128 21.5,135C 22.2524,134.329 22.5858,133.496 22.5,132.5C 27.4156,130.403 32.0823,127.737 36.5,124.5C 37.4287,123.311 37.762,121.978 37.5,120.5C 37.8333,120.5 38.1667,120.5 38.5,120.5C 39.5417,121.791 40.7083,121.791 42,120.5C 43.6369,117.151 45.1369,113.817 46.5,110.5C 48.2083,108.282 50.2083,106.116 52.5,104C 52.1667,103.667 51.8333,103.333 51.5,103C 54.5393,100.548 56.8726,97.5478 58.5,94C 58.1667,93.6667 57.8333,93.3333 57.5,93C 60.1353,91.0395 61.9686,88.5395 63,85.5C 65.4449,84.0229 67.6116,82.1896 69.5,80C 68.5842,79.7216 67.9175,79.2216 67.5,78.5C 68.2066,76.7693 69.2066,75.1026 70.5,73.5C 69.8333,72.8333 69.1667,72.1667 68.5,71.5C 69.6094,68.1532 71.276,65.1532 73.5,62.5C 73.3062,60.9299 73.3062,59.4299 73.5,58C 74.9882,56.2828 76.8215,55.1161 79,54.5C 79.4696,53.4232 79.3029,52.4232 78.5,51.5C 80.7117,50.3548 83.045,49.3548 85.5,48.5C 84.5,47.6667 83.5,46.8333 82.5,46C 83.938,45.7811 85.2713,45.2811 86.5,44.5C 87.8078,41.7049 89.4745,39.2049 91.5,37C 109.358,33.1621 127.191,29.3288 145,25.5C 152.193,26.3915 159.36,27.3915 166.5,28.5C 166.263,27.209 166.596,26.209 167.5,25.5C 170.008,27.554 173.008,28.554 176.5,28.5C 179.731,29.7815 183.064,29.7815 186.5,28.5C 188.028,29.3092 189.694,29.9759 191.5,30.5C 200.705,31.1985 209.372,29.3652 217.5,25C 222.705,24.7595 227.872,24.2595 233,23.5C 236.366,25.5351 239.866,25.8685 243.5,24.5C 247.004,25.9664 250.67,26.6331 254.5,26.5C 263.34,25.3315 272.006,23.6648 280.5,21.5C 280.811,22.4778 281.478,23.1445 282.5,23.5C 283.622,22.3698 284.956,21.7031 286.5,21.5C 286.369,22.3764 286.702,23.0431 287.5,23.5C 294.274,21.9842 301.107,20.9842 308,20.5C 316.515,21.2721 325.015,22.9388 333.5,25.5C 334.736,24.7542 336.07,24.4208 337.5,24.5 Z"/></g>
<g><path style="opacity:0.463" fill="#d3d3d1" d="M 280.5,21.5 C 272.006,23.6648 263.34,25.3315 254.5,26.5C 250.67,26.6331 247.004,25.9664 243.5,24.5C 239.866,25.8685 236.366,25.5351 233,23.5C 227.872,24.2595 222.705,24.7595 217.5,25C 209.372,29.3652 200.705,31.1985 191.5,30.5C 193.948,29.5269 196.615,29.1936 199.5,29.5C 201.258,28.0015 203.091,27.6681 205,28.5C 206.676,27.9389 208.009,26.9389 209,25.5C 209.414,25.9574 209.914,26.2907 210.5,26.5C 212.576,24.7123 214.743,23.0456 217,21.5C 222.155,22.2949 227.155,22.2949 232,21.5C 235.192,23.548 238.358,23.8813 241.5,22.5C 250.973,26.2838 260.14,25.6171 269,20.5C 271.667,20.5 274.333,20.5 277,20.5C 278.515,18.0948 279.682,18.4281 280.5,21.5 Z"/></g>
<g><path style="opacity:0.682" fill="#d6d6d4" d="M 369.5,30.5 C 367.823,33.0702 365.99,33.0702 364,30.5C 360.889,31.2931 357.723,31.1264 354.5,30C 353.934,29.0053 353.267,28.172 352.5,27.5C 353.041,23.7053 351.375,21.7053 347.5,21.5C 344.156,23.1853 340.823,24.852 337.5,26.5C 337.5,25.8333 337.5,25.1667 337.5,24.5C 340.09,23.8717 342.423,22.705 344.5,21C 350.618,18.9582 353.952,21.1248 354.5,27.5C 357.032,28.1189 359.365,29.1189 361.5,30.5C 364.16,29.2974 366.827,29.2974 369.5,30.5 Z"/></g>
<g><path style="opacity:0.067" fill="#fbfbfa" d="M 132.5,26.5 C 132.158,27.3382 131.492,27.6716 130.5,27.5C 130.711,25.5759 131.377,25.2426 132.5,26.5 Z"/></g>
<g><path style="opacity:1" fill="#c3c3c2" d="M 380.5,24.5 C 379.015,27.0827 376.682,28.416 373.5,28.5C 375.336,26.412 377.669,25.0787 380.5,24.5 Z"/></g>
<g><path style="opacity:0.608" fill="#e6e6e5" d="M 167.5,25.5 C 171.312,26.0264 174.979,26.6931 178.5,27.5C 178.158,28.3382 177.492,28.6716 176.5,28.5C 173.008,28.554 170.008,27.554 167.5,25.5 Z"/></g>
<g><path style="opacity:1" fill="#bec2c0" d="M 351.5,28.5 C 352.324,31.7644 352.658,35.0977 352.5,38.5C 352.567,39.9587 352.234,41.2921 351.5,42.5C 351.005,44.4817 350.505,46.4817 350,48.5C 349.196,49.8045 348.029,50.4712 346.5,50.5C 343.143,48.3804 339.476,47.0471 335.5,46.5C 332.954,45.0213 332.954,43.5213 335.5,42C 334.715,39.5571 334.881,37.0571 336,34.5C 338.043,32.792 339.71,30.792 341,28.5C 344.702,24.6333 348.202,24.6333 351.5,28.5 Z"/></g>
<g><path style="opacity:0.157" fill="#f0f0f0" d="M 199.5,29.5 C 196.615,29.1936 193.948,29.5269 191.5,30.5C 189.694,29.9759 188.028,29.3092 186.5,28.5C 191.219,27.4803 195.552,27.8136 199.5,29.5 Z"/></g>
<g><path style="opacity:0.831" fill="#adadab" d="M 178.5,27.5 C 181.385,27.1936 184.052,27.5269 186.5,28.5C 183.064,29.7815 179.731,29.7815 176.5,28.5C 177.492,28.6716 178.158,28.3382 178.5,27.5 Z"/></g>
<g><path style="opacity:1" fill="#c1c4c3" d="M 385.5,36.5 C 384.883,36.3893 384.383,36.056 384,35.5C 382.57,38.3527 381.737,41.3527 381.5,44.5C 380.833,43.8333 380.167,43.1667 379.5,42.5C 378.696,40.8113 377.696,39.1446 376.5,37.5C 378.788,33.5442 381.788,30.2109 385.5,27.5C 386.429,26.3112 386.762,24.9778 386.5,23.5C 385.5,23.5 384.5,23.5 383.5,23.5C 382.609,24.1098 381.609,24.4431 380.5,24.5C 382.678,21.266 385.178,20.9327 388,23.5C 388.385,28.0762 387.551,32.4095 385.5,36.5 Z"/></g>
<g><path style="opacity:1" fill="#50504a" d="M 383.5,23.5 C 384.5,23.5 385.5,23.5 386.5,23.5C 386.762,24.9778 386.429,26.3112 385.5,27.5C 381.788,30.2109 378.788,33.5442 376.5,37.5C 377.696,39.1446 378.696,40.8113 379.5,42.5C 379.631,43.2389 379.464,43.9056 379,44.5C 376.833,41 374,38.1667 370.5,36C 371.833,36 373.167,36 374.5,36C 377.396,31.6864 380.396,27.5197 383.5,23.5 Z"/></g>
<g><path style="opacity:1" fill="#ccccca" d="M 167.5,25.5 C 166.596,26.209 166.263,27.209 166.5,28.5C 159.36,27.3915 152.193,26.3915 145,25.5C 127.191,29.3288 109.358,33.1621 91.5,37C 89.4745,39.2049 87.8078,41.7049 86.5,44.5C 85.2713,45.2811 83.938,45.7811 82.5,46C 83.5,46.8333 84.5,47.6667 85.5,48.5C 83.045,49.3548 80.7117,50.3548 78.5,51.5C 78.584,48.3055 79.9174,47.1388 82.5,48C 80.9926,47.1627 80.4926,45.9961 81,44.5C 81.6667,43.1667 82.3333,43.1667 83,44.5C 84.7688,41.71 86.6022,38.8767 88.5,36C 91.5725,35.7003 94.2391,34.5336 96.5,32.5C 100.009,33.0234 103.509,33.3567 107,33.5C 114.266,30.5958 122.099,28.5958 130.5,27.5C 131.492,27.6716 132.158,27.3382 132.5,26.5C 137.219,25.7562 141.886,24.7562 146.5,23.5C 150.797,24.0554 154.964,25.0554 159,26.5C 159.308,25.6919 159.808,25.0253 160.5,24.5C 161.5,25.1667 162.5,25.8333 163.5,26.5C 164.714,24.6203 166.048,24.2869 167.5,25.5 Z"/></g>
<g><path style="opacity:1" fill="#6a6b67" d="M 341.5,32.5 C 342.5,32.5 343.5,32.5 344.5,32.5C 344.579,33.9305 344.246,35.2638 343.5,36.5C 346.45,40.0942 347.117,44.0942 345.5,48.5C 342.041,47.0845 341.041,44.7512 342.5,41.5C 341.726,40.2888 340.893,40.2888 340,41.5C 339.068,38.1769 339.568,35.1769 341.5,32.5 Z"/></g>
<g><path style="opacity:1" fill="#4e4f49" d="M 351.5,42.5 C 352.234,41.2921 352.567,39.9587 352.5,38.5C 353.314,36.369 353.814,34.0356 354,31.5C 360.59,35.0936 366.256,39.7603 371,45.5C 372.301,47.3646 372.635,49.3646 372,51.5C 368.619,43.5927 363.119,38.5927 355.5,36.5C 360.182,42.4475 358.848,44.4475 351.5,42.5 Z"/></g>
<g><path style="opacity:1" fill="#504f4a" d="M 352.5,27.5 C 352.5,28.1667 352.167,28.5 351.5,28.5C 348.202,24.6333 344.702,24.6333 341,28.5C 339.71,30.792 338.043,32.792 336,34.5C 334.881,37.0571 334.715,39.5571 335.5,42C 332.954,43.5213 332.954,45.0213 335.5,46.5C 333.508,51.8178 330.508,56.4845 326.5,60.5C 326.167,60 325.833,59.5 325.5,59C 327.696,52.3252 329.196,45.4918 330,38.5C 332.261,34.3037 334.761,30.3037 337.5,26.5C 340.823,24.852 344.156,23.1853 347.5,21.5C 351.375,21.7053 353.041,23.7053 352.5,27.5 Z"/></g>
<g><path style="opacity:1" fill="#898580" d="M 91.5,73.5 C 90.507,77.3078 88.8404,80.8078 86.5,84C 85.3808,94.1536 83.2141,104.32 80,114.5C 79.3219,118.221 79.4886,121.888 80.5,125.5C 78.9192,127.142 78.2525,129.142 78.5,131.5C 77.5902,133.019 76.7568,134.685 76,136.5C 75.586,136.043 75.086,135.709 74.5,135.5C 73.52,138.086 73.1866,140.753 73.5,143.5C 70.234,143.433 68.734,145.099 69,148.5C 67.6081,146.158 66.7748,146.158 66.5,148.5C 64.1329,149.079 62.2995,150.412 61,152.5C 60.6924,151.692 60.1924,151.025 59.5,150.5C 58.7189,151.729 58.2189,153.062 58,154.5C 55.9551,152.957 54.4551,153.29 53.5,155.5C 51.2612,157.046 49.0945,158.046 47,158.5C 45.4419,157.655 44.4419,158.321 44,160.5C 43.6924,159.692 43.1924,159.025 42.5,158.5C 40.2674,158.864 38.434,159.864 37,161.5C 36.7508,160.376 36.2508,159.376 35.5,158.5C 32.8059,159.859 30.1393,160.192 27.5,159.5C 28.2648,157.071 29.9315,155.738 32.5,155.5C 32.4609,153.641 33.2942,152.308 35,151.5C 36.7633,151.306 38.5967,151.306 40.5,151.5C 41.1667,150.167 41.8333,148.833 42.5,147.5C 43.1924,148.025 43.6924,148.692 44,149.5C 44.3333,148.167 44.6667,146.833 45,145.5C 48.4078,148.622 51.4078,147.955 54,143.5C 54.6667,144.167 55.3333,144.833 56,145.5C 57.3161,144.026 58.3161,142.359 59,140.5C 59.3333,140.833 59.6667,141.167 60,141.5C 63.9672,138.703 67.8006,135.703 71.5,132.5C 70.9747,131.808 70.3081,131.308 69.5,131C 72.1667,129.667 72.1667,128.333 69.5,127C 71.8912,126.309 71.8912,125.309 69.5,124C 71.4019,122.606 71.7353,120.773 70.5,118.5C 72.9424,118.646 73.6091,117.813 72.5,116C 73.8333,115.667 75.1667,115.333 76.5,115C 75.3318,113.594 75.6652,112.428 77.5,111.5C 76.2875,108.907 74.9542,106.407 73.5,104C 73.7175,97.4635 73.7175,91.1301 73.5,85C 74.1845,83.3066 75.1845,81.8066 76.5,80.5C 75.9747,79.8076 75.3081,79.3076 74.5,79C 76.0102,74.3105 78.0102,69.8105 80.5,65.5C 81.6348,64.8973 82.6348,64.5639 83.5,64.5C 83.5238,62.7547 83.1905,60.9214 82.5,59C 86.0064,53.8289 89.5064,48.6622 93,43.5C 94.249,46.7893 95.749,49.956 97.5,53C 96.0186,53.9803 94.6853,55.147 93.5,56.5C 91.0925,59.1309 91.0925,61.6309 93.5,64C 92.5,64.8333 91.5,65.6667 90.5,66.5C 91.3742,68.7466 91.7076,71.0799 91.5,73.5 Z"/></g>
<g><path style="opacity:1" fill="#dcdcdc" d="M 385.5,36.5 C 385.451,39.0991 384.451,41.2658 382.5,43C 387.121,50.9773 389.121,59.4773 388.5,68.5C 387.5,68.5 386.5,68.5 385.5,68.5C 387.686,60.0728 386.353,52.0728 381.5,44.5C 381.737,41.3527 382.57,38.3527 384,35.5C 384.383,36.056 384.883,36.3893 385.5,36.5 Z"/></g>
<g><path style="opacity:1" fill="#878171" d="M 300.5,113.5 C 299.79,111.254 299.29,108.92 299,106.5C 296.335,107.621 293.835,108.288 291.5,108.5C 290.833,107.833 290.167,107.167 289.5,106.5C 286.966,107.776 284.466,108.11 282,107.5C 276.156,110.673 271.99,114.84 269.5,120C 270.022,120.561 270.355,121.228 270.5,122C 267.594,127.855 267.927,133.355 271.5,138.5C 273.709,143.381 277.043,147.381 281.5,150.5C 281.369,151.239 281.536,151.906 282,152.5C 287.301,156.8 292.301,161.466 297,166.5C 297.456,167.744 296.956,168.577 295.5,169C 271.03,168.546 253.197,157.38 242,135.5C 240.491,134.91 238.991,134.244 237.5,133.5C 238.833,132.167 238.833,130.833 237.5,129.5C 237.977,128.522 238.643,127.689 239.5,127C 237.311,126.323 236.978,125.156 238.5,123.5C 237.833,122.833 237.167,122.167 236.5,121.5C 237.246,120.264 237.579,118.93 237.5,117.5C 235.323,117.586 233.323,118.253 231.5,119.5C 230.148,117.364 228.482,117.03 226.5,118.5C 225.749,117.624 225.249,116.624 225,115.5C 223.098,115.185 221.098,115.185 219,115.5C 218.612,114.572 217.945,113.905 217,113.5C 214.38,114.206 211.88,115.206 209.5,116.5C 209.331,114.883 208.997,113.216 208.5,111.5C 205.754,113.623 202.921,115.623 200,117.5C 199.798,115.744 199.298,114.078 198.5,112.5C 196.5,113.833 194.5,115.167 192.5,116.5C 191.749,115.624 191.249,114.624 191,113.5C 189.806,115.525 188.306,115.859 186.5,114.5C 184.833,115.833 183.167,117.167 181.5,118.5C 180.614,117.675 180.281,116.675 180.5,115.5C 178.061,114.947 175.727,114.947 173.5,115.5C 172.949,113.587 172.782,111.587 173,109.5C 171.092,112.332 170.259,111.999 170.5,108.5C 169.5,108.5 168.5,108.5 167.5,108.5C 167.5,107.5 167.5,106.5 167.5,105.5C 165.533,105.261 163.699,105.594 162,106.5C 161.506,104.866 161.34,103.199 161.5,101.5C 158.856,101.84 156.523,101.173 154.5,99.5C 153.167,100.167 151.833,100.833 150.5,101.5C 149.833,100.5 149.167,99.5 148.5,98.5C 147.086,99.624 145.586,100.624 144,101.5C 143.751,100.376 143.251,99.376 142.5,98.5C 141.729,100.862 140.895,103.196 140,105.5C 139,104.167 138,102.833 137,101.5C 136.901,104.74 137.401,107.906 138.5,111C 137.551,111.617 136.718,111.451 136,110.5C 135.818,113.226 135.318,115.893 134.5,118.5C 133.914,118.291 133.414,117.957 133,117.5C 132.105,119.804 131.271,122.138 130.5,124.5C 124.543,132.551 119.043,140.885 114,149.5C 104.687,157.988 94.1868,164.488 82.5,169C 67.8169,181.837 64.3169,197.337 72,215.5C 75.6208,217.388 79.4541,218.888 83.5,220C 85.607,221.264 86.607,223.097 86.5,225.5C 85.2241,226.386 85.2241,227.386 86.5,228.5C 87.2975,228.043 87.6309,227.376 87.5,226.5C 88.404,227.209 88.7373,228.209 88.5,229.5C 80.8718,229.925 73.5385,228.925 66.5,226.5C 66.8551,217.936 65.1884,209.936 61.5,202.5C 61.5,202.167 61.5,201.833 61.5,201.5C 61.506,196.363 60.6726,191.363 59,186.5C 58.3333,181.5 58.3333,176.5 59,171.5C 63,167.5 67,163.5 71,159.5C 73.6346,154.238 76.6346,149.238 80,144.5C 80.6838,143.216 80.5171,142.049 79.5,141C 80.5,140 81.5,139 82.5,138C 80.1088,137.309 80.1088,136.309 82.5,135C 80.1088,134.309 80.1088,133.309 82.5,132C 79.3762,130.459 79.0429,128.625 81.5,126.5C 81.3764,125.893 81.0431,125.56 80.5,125.5C 79.4886,121.888 79.3219,118.221 80,114.5C 83.2141,104.32 85.3808,94.1536 86.5,84C 88.8404,80.8078 90.507,77.3078 91.5,73.5C 93.6243,75.0592 95.291,77.0592 96.5,79.5C 98.6499,77.8509 100.65,76.0176 102.5,74C 103.167,73.3333 103.833,73.3333 104.5,74C 107.26,77.1851 108.926,80.8517 109.5,85C 114.833,85.6667 120.167,85.6667 125.5,85C 126.931,84.5348 128.097,83.7014 129,82.5C 128.564,77.2565 130.064,72.7565 133.5,69C 143.559,67.1994 153.559,65.5327 163.5,64C 169.835,63.5255 176.169,63.0255 182.5,62.5C 190.989,62.4117 197.989,65.5783 203.5,72C 208.415,74.1607 213.415,76.1607 218.5,78C 218.167,78.3333 217.833,78.6667 217.5,79C 223.294,79.8654 228.961,81.1987 234.5,83C 240.551,83.2082 246.551,83.7082 252.5,84.5C 255.167,83.8333 257.833,83.1667 260.5,82.5C 262.191,79.9671 263.691,77.3004 265,74.5C 265.758,72.2305 265.591,70.0639 264.5,68C 266.481,67.3946 266.815,66.3946 265.5,65C 268.836,60.3665 272.836,59.5331 277.5,62.5C 279.501,65.4982 281.834,68.1649 284.5,70.5C 285.425,71.6405 286.259,71.6405 287,70.5C 287.212,72.7801 288.045,74.7801 289.5,76.5C 289.069,77.2935 288.735,78.1268 288.5,79C 288.611,80.7215 289.111,80.8882 290,79.5C 292.347,87.2222 294.847,94.8888 297.5,102.5C 298.243,101.092 299.077,99.7588 300,98.5C 300.221,103.22 300.721,107.887 301.5,112.5C 301.376,113.107 301.043,113.44 300.5,113.5 Z"/></g>
<g><path style="opacity:1" fill="#bec2c0" d="M 367.5,69.5 C 367.5,69.1667 367.5,68.8333 367.5,68.5C 367.337,66.1432 367.503,63.8098 368,61.5C 369.707,60.8617 371.54,60.8617 373.5,61.5C 374.815,66.836 372.815,69.5026 367.5,69.5 Z"/></g>
<g><path style="opacity:1" fill="#c1c4c1" d="M 380.5,60.5 C 381.5,60.5 382.5,60.5 383.5,60.5C 382.5,72.5 381.5,72.5 380.5,60.5 Z"/></g>
<g><path style="opacity:0.729" fill="#d9d9d7" d="M 78.5,51.5 C 79.3029,52.4232 79.4696,53.4232 79,54.5C 76.8215,55.1161 74.9882,56.2828 73.5,58C 73.3062,59.4299 73.3062,60.9299 73.5,62.5C 71.276,65.1532 69.6094,68.1532 68.5,71.5C 69.1667,72.1667 69.8333,72.8333 70.5,73.5C 69.2066,75.1026 68.2066,76.7693 67.5,78.5C 67.0617,76.874 66.7284,75.2073 66.5,73.5C 67.0139,68.55 68.6806,64.05 71.5,60C 71.2645,59.1268 70.9312,58.2935 70.5,57.5C 72.8055,55.9069 75.1389,54.4069 77.5,53C 76.1602,50.8215 76.4935,50.3215 78.5,51.5 Z"/></g>
<g><path style="opacity:1" fill="#272826" d="M 367.5,68.5 C 367.5,68.8333 367.5,69.1667 367.5,69.5C 367.631,70.3764 367.298,71.0431 366.5,71.5C 364.885,70.846 363.218,70.346 361.5,70C 363.076,69.5604 364.41,68.727 365.5,67.5C 366.183,67.8627 366.85,68.1961 367.5,68.5 Z"/></g>
<g><path style="opacity:1" fill="#c3c9c7" d="M 388.5,85.5 C 391,88.4937 393,91.827 394.5,95.5C 390.734,92.8635 386.9,92.8635 383,95.5C 382.333,96.5 382.333,97.5 383,98.5C 384.594,100.526 386.094,102.526 387.5,104.5C 386.71,105.401 385.71,106.068 384.5,106.5C 374.886,106.291 367.219,102.291 361.5,94.5C 361.167,94.6667 360.833,94.8333 360.5,95C 361.999,97.3279 363.666,99.4946 365.5,101.5C 363.181,100.833 360.847,100.666 358.5,101C 356.712,103.184 355.046,105.351 353.5,107.5C 353.756,109.912 352.756,111.579 350.5,112.5C 348.314,113.221 346.147,113.887 344,114.5C 343.667,113.5 343.333,112.5 343,111.5C 342.442,114.934 341.609,118.267 340.5,121.5C 338.821,121.715 337.821,121.048 337.5,119.5C 338.586,119.38 339.253,118.713 339.5,117.5C 338.772,115.845 338.605,114.179 339,112.5C 339.667,113.167 340.333,113.833 341,114.5C 341.543,111.132 341.376,107.799 340.5,104.5C 336.413,100.539 332.746,96.2054 329.5,91.5C 328.385,88.6187 328.385,85.6187 329.5,82.5C 330.305,80.5283 331.639,79.0283 333.5,78C 329.5,77.3333 329.5,76.6667 333.5,76C 334.369,73.4215 336.035,71.5882 338.5,70.5C 342.407,70.8566 346.407,70.8566 350.5,70.5C 349.875,73.9705 350.875,76.8038 353.5,79C 358.956,79.4645 364.289,79.1311 369.5,78C 374.467,81.966 379.134,86.2993 383.5,91C 388.912,92.4242 390.579,90.5908 388.5,85.5 Z"/></g>
<g><path style="opacity:1" fill="#b8b8b5" d="M 385.5,79.5 C 386.492,81.4561 387.492,83.4561 388.5,85.5C 386.025,84.3126 385.025,82.3126 385.5,79.5 Z"/></g>
<g><path style="opacity:1" fill="#2a2b2b" d="M 394.5,95.5 C 394.122,99.2585 392.456,102.258 389.5,104.5C 388.833,104.5 388.167,104.5 387.5,104.5C 386.094,102.526 384.594,100.526 383,98.5C 382.333,97.5 382.333,96.5 383,95.5C 386.9,92.8635 390.734,92.8635 394.5,95.5 Z"/></g>
<g><path style="opacity:1" fill="#929592" d="M 329.5,91.5 C 332.746,96.2054 336.413,100.539 340.5,104.5C 339.5,104.5 338.5,104.5 337.5,104.5C 337.719,103.325 337.386,102.325 336.5,101.5C 334.568,100.855 333.401,99.5212 333,97.5C 332.667,97.8333 332.333,98.1667 332,98.5C 331.211,96.4198 330.044,94.5865 328.5,93C 328.57,92.2352 328.903,91.7352 329.5,91.5 Z"/></g>
<g><path style="opacity:1" fill="#525554" d="M 384.5,106.5 C 377.409,107.466 371.076,105.799 365.5,101.5C 363.666,99.4946 361.999,97.3279 360.5,95C 360.833,94.8333 361.167,94.6667 361.5,94.5C 367.219,102.291 374.886,106.291 384.5,106.5 Z"/></g>
<g><path style="opacity:0.753" fill="#cfcfcf" d="M 394.5,95.5 C 395.965,98.6555 395.299,101.489 392.5,104C 391.552,104.483 390.552,104.649 389.5,104.5C 392.456,102.258 394.122,99.2585 394.5,95.5 Z"/></g>
<g><path style="opacity:1" fill="#c6cbc9" d="M 281.5,150.5 C 287.11,154.772 292.443,159.438 297.5,164.5C 300.688,167.539 302.855,171.206 304,175.5C 303.454,186.577 302.288,197.577 300.5,208.5C 297.777,214.475 294.944,220.475 292,226.5C 288.792,230.401 285.626,230.401 282.5,226.5C 285.797,226.368 287.463,224.702 287.5,221.5C 285.265,221.205 283.265,221.539 281.5,222.5C 280.335,221.504 279.668,220.171 279.5,218.5C 283.281,209.056 285.948,199.556 287.5,190C 286.933,184.704 284.433,180.538 280,177.5C 279.617,178.056 279.117,178.389 278.5,178.5C 271.731,175.614 265.398,171.948 259.5,167.5C 257.95,175.426 256.95,183.426 256.5,191.5C 253.633,192.768 252.966,194.768 254.5,197.5C 253.553,199.059 252.887,200.726 252.5,202.5C 253.873,209.801 256.873,216.301 261.5,222C 262.437,222.692 263.103,222.525 263.5,221.5C 267.042,221.187 270.375,221.521 273.5,222.5C 273.511,224.017 274.177,225.184 275.5,226C 277.405,227.421 279.405,228.588 281.5,229.5C 281.5,229.833 281.5,230.167 281.5,230.5C 282.434,231.568 282.768,232.901 282.5,234.5C 272.861,234.873 263.194,234.873 253.5,234.5C 251.582,233.132 249.415,232.132 247,231.5C 245.672,223.85 243.339,216.516 240,209.5C 239.29,208.027 238.124,207.36 236.5,207.5C 235.928,202.922 236.262,198.255 237.5,193.5C 237.768,183.37 236.435,173.37 233.5,163.5C 234.488,157.754 233.988,152.087 232,146.5C 229.978,143.453 227.145,141.786 223.5,141.5C 222.522,141.977 221.689,142.643 221,143.5C 218.333,142.833 215.667,142.167 213,141.5C 211.887,142.305 210.721,142.972 209.5,143.5C 209.565,143.062 209.399,142.728 209,142.5C 206.697,144.835 204.197,144.835 201.5,142.5C 199.744,143.407 197.911,143.407 196,142.5C 190.916,140.154 186.416,137.821 182.5,135.5C 177.907,136.912 174.073,135.579 171,131.5C 167.276,132.487 163.442,133.987 159.5,136C 158.748,136.671 158.414,137.504 158.5,138.5C 148.254,145.927 136.921,151.26 124.5,154.5C 123.448,154.351 122.448,154.517 121.5,155C 113.833,161.674 111.666,169.84 115,179.5C 118.838,186.842 121.838,194.508 124,202.5C 124.417,203.756 125.25,204.423 126.5,204.5C 129.659,210.302 129.992,216.302 127.5,222.5C 118.195,224.852 112.195,221.519 109.5,212.5C 111.161,208.133 110.495,204.133 107.5,200.5C 108.485,198.902 108.651,197.235 108,195.5C 106.076,190.656 103.91,185.99 101.5,181.5C 102.75,181.423 103.583,180.756 104,179.5C 105.305,173.217 107.471,167.217 110.5,161.5C 103.791,160.518 98.4579,162.851 94.5,168.5C 89.0915,170.054 84.9248,173.388 82,178.5C 77.7484,184.914 75.7484,191.914 76,199.5C 76.2321,198.263 76.7321,197.263 77.5,196.5C 78.8906,202.509 80.3906,208.509 82,214.5C 85.0554,215.914 88.2221,217.081 91.5,218C 94,220.5 96.5,223 99,225.5C 99.4935,227.134 99.6602,228.801 99.5,230.5C 89.8809,231.394 80.2143,231.227 70.5,230C 68.4556,229.502 67.1223,228.335 66.5,226.5C 73.5385,228.925 80.8718,229.925 88.5,229.5C 88.7373,228.209 88.404,227.209 87.5,226.5C 87.5,225.833 87.1667,225.5 86.5,225.5C 86.607,223.097 85.607,221.264 83.5,220C 79.4541,218.888 75.6208,217.388 72,215.5C 64.3169,197.337 67.8169,181.837 82.5,169C 94.1868,164.488 104.687,157.988 114,149.5C 119.043,140.885 124.543,132.551 130.5,124.5C 131.271,122.138 132.105,119.804 133,117.5C 133.414,117.957 133.914,118.291 134.5,118.5C 135.318,115.893 135.818,113.226 136,110.5C 136.718,111.451 137.551,111.617 138.5,111C 137.401,107.906 136.901,104.74 137,101.5C 138,102.833 139,104.167 140,105.5C 140.895,103.196 141.729,100.862 142.5,98.5C 143.251,99.376 143.751,100.376 144,101.5C 145.586,100.624 147.086,99.624 148.5,98.5C 149.167,99.5 149.833,100.5 150.5,101.5C 151.833,100.833 153.167,100.167 154.5,99.5C 156.523,101.173 158.856,101.84 161.5,101.5C 161.34,103.199 161.506,104.866 162,106.5C 163.699,105.594 165.533,105.261 167.5,105.5C 167.5,106.5 167.5,107.5 167.5,108.5C 168.5,108.5 169.5,108.5 170.5,108.5C 170.259,111.999 171.092,112.332 173,109.5C 172.782,111.587 172.949,113.587 173.5,115.5C 175.727,114.947 178.061,114.947 180.5,115.5C 180.281,116.675 180.614,117.675 181.5,118.5C 183.167,117.167 184.833,115.833 186.5,114.5C 188.306,115.859 189.806,115.525 191,113.5C 191.249,114.624 191.749,115.624 192.5,116.5C 194.5,115.167 196.5,113.833 198.5,112.5C 199.298,114.078 199.798,115.744 200,117.5C 202.921,115.623 205.754,113.623 208.5,111.5C 208.997,113.216 209.331,114.883 209.5,116.5C 211.88,115.206 214.38,114.206 217,113.5C 217.945,113.905 218.612,114.572 219,115.5C 221.098,115.185 223.098,115.185 225,115.5C 225.249,116.624 225.749,117.624 226.5,118.5C 228.482,117.03 230.148,117.364 231.5,119.5C 233.323,118.253 235.323,117.586 237.5,117.5C 237.579,118.93 237.246,120.264 236.5,121.5C 237.167,122.167 237.833,122.833 238.5,123.5C 236.978,125.156 237.311,126.323 239.5,127C 238.643,127.689 237.977,128.522 237.5,129.5C 238.833,130.833 238.833,132.167 237.5,133.5C 238.991,134.244 240.491,134.91 242,135.5C 253.197,157.38 271.03,168.546 295.5,169C 296.956,168.577 297.456,167.744 297,166.5C 292.301,161.466 287.301,156.8 282,152.5C 281.536,151.906 281.369,151.239 281.5,150.5 Z M 278.5,178.5 C 286.626,184.888 287.626,192.388 281.5,201C 281.585,202.107 281.919,203.107 282.5,204C 278.576,210.731 277.576,217.898 279.5,225.5C 277.5,224.5 275.5,223.5 273.5,222.5C 270.375,221.521 267.042,221.187 263.5,221.5C 255.801,212.706 253.468,202.706 256.5,191.5C 256.95,183.426 257.95,175.426 259.5,167.5C 265.398,171.948 271.731,175.614 278.5,178.5 Z"/></g>
<g><path style="opacity:0.842" fill="#dadad9" d="M 67.5,78.5 C 67.9175,79.2216 68.5842,79.7216 69.5,80C 67.6116,82.1896 65.4449,84.0229 63,85.5C 61.9686,88.5395 60.1353,91.0395 57.5,93C 57.8333,93.3333 58.1667,93.6667 58.5,94C 56.8726,97.5478 54.5393,100.548 51.5,103C 51.8333,103.333 52.1667,103.667 52.5,104C 50.2083,106.116 48.2083,108.282 46.5,110.5C 46.1961,109.85 45.8627,109.183 45.5,108.5C 47.4691,105.337 49.9691,102.337 53,99.5C 53.1992,97.5975 54.0325,96.0975 55.5,95C 55.1667,94.6667 54.8333,94.3333 54.5,94C 58.3359,88.3381 62.6692,83.1715 67.5,78.5 Z"/></g>
<g><path style="opacity:0.784" fill="#dbdedd" d="M 365.5,101.5 C 371.076,105.799 377.409,107.466 384.5,106.5C 385.71,106.068 386.71,105.401 387.5,104.5C 388.167,104.5 388.833,104.5 389.5,104.5C 389.631,105.376 389.298,106.043 388.5,106.5C 384.833,107.833 381.167,109.167 377.5,110.5C 371.833,107.833 366.167,105.167 360.5,102.5C 358.443,104.269 356.61,106.269 355,108.5C 354.617,107.944 354.117,107.611 353.5,107.5C 355.046,105.351 356.712,103.184 358.5,101C 360.847,100.666 363.181,100.833 365.5,101.5 Z"/></g>
<g><path style="opacity:1" fill="#c7cbc9" d="M 300.5,113.5 C 300.5,115.833 300.5,118.167 300.5,120.5C 302.124,120.64 303.29,119.973 304,118.5C 305.039,119.244 305.539,120.244 305.5,121.5C 303.99,122.728 302.49,122.728 301,121.5C 295.216,127.487 288.716,132.653 281.5,137C 280.207,137.49 278.873,137.657 277.5,137.5C 275.402,136.516 273.402,136.849 271.5,138.5C 267.927,133.355 267.594,127.855 270.5,122C 270.355,121.228 270.022,120.561 269.5,120C 271.99,114.84 276.156,110.673 282,107.5C 284.466,108.11 286.966,107.776 289.5,106.5C 290.167,107.167 290.833,107.833 291.5,108.5C 293.835,108.288 296.335,107.621 299,106.5C 299.29,108.92 299.79,111.254 300.5,113.5 Z"/></g>
<g><path style="opacity:0.352" fill="#c9c9c7" d="M 46.5,110.5 C 45.1369,113.817 43.6369,117.151 42,120.5C 40.7083,121.791 39.5417,121.791 38.5,120.5C 41.4268,118.006 42.7601,115.006 42.5,111.5C 43.7362,110.754 45.0695,110.421 46.5,110.5 Z"/></g>
<g><path style="opacity:1" fill="#c4c5c3" d="M 337.5,119.5 C 334.831,121.018 331.997,122.351 329,123.5C 327.437,120.956 325.937,120.956 324.5,123.5C 319.17,119.47 313.836,119.803 308.5,124.5C 306.787,124.121 305.787,123.121 305.5,121.5C 308.303,121.261 310.97,119.928 313.5,117.5C 316.703,119.982 318.536,118.982 319,114.5C 320.064,116.693 321.398,118.693 323,120.5C 324.044,119.377 324.71,118.044 325,116.5C 326,117.833 327,119.167 328,120.5C 329.605,115.63 331.771,115.297 334.5,119.5C 335.563,115.57 336.563,115.57 337.5,119.5 Z"/></g>
<g><path style="opacity:1" fill="#8c8885" d="M 141.5,118.5 C 142.496,118.414 143.329,118.748 144,119.5C 144.842,122.689 146.175,125.689 148,128.5C 148.595,129.899 148.428,131.232 147.5,132.5C 143.612,137.865 138.778,142.198 133,145.5C 132.667,144.833 132.333,144.167 132,143.5C 129.143,146.37 125.81,148.37 122,149.5C 121.25,148.874 120.416,148.374 119.5,148C 122.023,145.332 125.023,143.499 128.5,142.5C 128.238,141.022 128.571,139.689 129.5,138.5C 134.056,132.036 138.056,125.37 141.5,118.5 Z"/></g>
<g><path style="opacity:0.6" fill="#c9c9c8" d="M 37.5,120.5 C 37.762,121.978 37.4287,123.311 36.5,124.5C 32.0823,127.737 27.4156,130.403 22.5,132.5C 26.704,128.863 31.3707,125.696 36.5,123C 35.1175,121.539 35.4508,120.706 37.5,120.5 Z"/></g>
<g><path style="opacity:0.337" fill="#e5e7e7" d="M 182.5,135.5 C 180.434,136.398 178.1,137.732 175.5,139.5C 173.86,137.86 172.194,136.194 170.5,134.5C 168.833,135.833 167.167,135.833 165.5,134.5C 163.132,135.889 160.799,137.222 158.5,138.5C 158.414,137.504 158.748,136.671 159.5,136C 163.442,133.987 167.276,132.487 171,131.5C 174.073,135.579 177.907,136.912 182.5,135.5 Z"/></g>
<g><path style="opacity:1" fill="#cbcbca" d="M 22.5,132.5 C 22.5858,133.496 22.2524,134.329 21.5,135C 16.0535,137.128 10.3868,138.461 4.5,139C 6.39393,140.101 7.0606,141.434 6.5,143C 5.90558,143.464 5.23891,143.631 4.5,143.5C 4.5,142.833 4.16667,142.5 3.5,142.5C 3.52801,140.418 2.86135,138.584 1.5,137C 3.19616,135.734 5.02949,135.9 7,137.5C 7.38789,136.572 8.05456,135.905 9,135.5C 11.4339,136.322 13.9339,136.656 16.5,136.5C 16.5,135.5 16.5,134.5 16.5,133.5C 18.5648,133.483 20.5648,133.15 22.5,132.5 Z"/></g>
<g><path style="opacity:0.557" fill="#ebeae6" d="M 277.5,137.5 C 276.027,138.072 274.693,138.905 273.5,140C 275.311,142.978 277.644,145.478 280.5,147.5C 281.386,148.325 281.719,149.325 281.5,150.5C 277.043,147.381 273.709,143.381 271.5,138.5C 273.402,136.849 275.402,136.516 277.5,137.5 Z"/></g>
<g><path style="opacity:0.435" fill="#e4e7e6" d="M 253.5,234.5 C 250.455,234.658 247.621,233.991 245,232.5C 243.778,225.277 241.778,218.277 239,211.5C 237.951,209.893 236.451,209.227 234.5,209.5C 234.499,204.897 234.166,200.564 233.5,196.5C 233.808,195.692 234.308,195.025 235,194.5C 235.667,189.833 235.667,185.167 235,180.5C 233.555,169.088 231.721,157.755 229.5,146.5C 228.201,145.91 227.368,144.91 227,143.5C 221.019,145.81 215.185,145.81 209.5,143.5C 210.721,142.972 211.887,142.305 213,141.5C 215.667,142.167 218.333,142.833 221,143.5C 221.689,142.643 222.522,141.977 223.5,141.5C 227.145,141.786 229.978,143.453 232,146.5C 233.988,152.087 234.488,157.754 233.5,163.5C 236.435,173.37 237.768,183.37 237.5,193.5C 236.262,198.255 235.928,202.922 236.5,207.5C 238.124,207.36 239.29,208.027 240,209.5C 243.339,216.516 245.672,223.85 247,231.5C 249.415,232.132 251.582,233.132 253.5,234.5 Z"/></g>
<g><path style="opacity:0.165" fill="#deddd8" d="M 80.5,125.5 C 81.0431,125.56 81.3764,125.893 81.5,126.5C 79.0429,128.625 79.3762,130.459 82.5,132C 80.1088,133.309 80.1088,134.309 82.5,135C 80.1088,136.309 80.1088,137.309 82.5,138C 81.5,139 80.5,140 79.5,141C 80.5171,142.049 80.6838,143.216 80,144.5C 76.6346,149.238 73.6346,154.238 71,159.5C 67,163.5 63,167.5 59,171.5C 58.3333,176.5 58.3333,181.5 59,186.5C 60.6726,191.363 61.506,196.363 61.5,201.5C 60.5723,196.371 58.9056,191.371 56.5,186.5C 56.992,181.007 57.6587,175.341 58.5,169.5C 59.1667,169.5 59.5,169.167 59.5,168.5C 63.8031,165.029 67.6365,161.029 71,156.5C 73.0504,151.007 75.2171,145.674 77.5,140.5C 75.5029,142.717 73.5029,145.05 71.5,147.5C 70.846,149.115 70.346,150.782 70,152.5C 68.4499,151.409 67.2832,150.076 66.5,148.5C 66.7748,146.158 67.6081,146.158 69,148.5C 68.734,145.099 70.234,143.433 73.5,143.5C 73.1866,140.753 73.52,138.086 74.5,135.5C 75.086,135.709 75.586,136.043 76,136.5C 76.7568,134.685 77.5902,133.019 78.5,131.5C 78.2525,129.142 78.9192,127.142 80.5,125.5 Z M 77.5,140.5 C 77.2105,136.446 77.8771,135.946 79.5,139C 78.9558,139.717 78.2891,140.217 77.5,140.5 Z"/></g>
<g><path style="opacity:0.6" fill="#d7d7d5" d="M 3.5,142.5 C 3.5,142.833 3.5,143.167 3.5,143.5C 3.72142,144.735 4.38809,145.735 5.5,146.5C 3.60395,147.466 1.60395,147.799 -0.5,147.5C -0.5,147.167 -0.5,146.833 -0.5,146.5C 2.79731,146.671 3.13065,146.005 0.5,144.5C 1.00475,143.081 2.00475,142.415 3.5,142.5 Z"/></g>
<g><path style="opacity:1" fill="#8c8985" d="M 234.5,146.5 C 237.716,149.009 241.049,151.509 244.5,154C 247.818,158.397 251.651,162.23 256,165.5C 256.781,166.944 256.614,168.277 255.5,169.5C 253.566,169.099 252.066,168.099 251,166.5C 250.717,169.742 249.883,170.076 248.5,167.5C 247.5,168.833 246.5,168.833 245.5,167.5C 242.987,165.672 241.321,163.339 240.5,160.5C 239.5,160.5 238.5,160.5 237.5,160.5C 235.042,156.215 234.042,151.548 234.5,146.5 Z"/></g>
<g><path style="opacity:0.467" fill="#d6d6d5" d="M 66.5,148.5 C 66.2914,149.922 65.7914,151.255 65,152.5C 64.3333,153.833 63.6667,153.833 63,152.5C 60.8576,156.503 57.6909,157.503 53.5,155.5C 54.4551,153.29 55.9551,152.957 58,154.5C 58.2189,153.062 58.7189,151.729 59.5,150.5C 60.1924,151.025 60.6924,151.692 61,152.5C 62.2995,150.412 64.1329,149.079 66.5,148.5 Z"/></g>
<g><path style="opacity:0.576" fill="#b6b7b2" d="M -0.5,150.5 C -0.5,150.167 -0.5,149.833 -0.5,149.5C 1.85684,149.337 4.19018,149.503 6.5,150C 5.28891,151.113 5.28891,152.28 6.5,153.5C 8.5143,155.018 10.5143,155.685 12.5,155.5C 13.5353,157.128 13.5353,158.795 12.5,160.5C 11.607,158.703 10.2737,157.37 8.5,156.5C 5.46277,156.552 2.7961,155.552 0.5,153.5C 1.66508,152.416 2.99842,151.583 4.5,151C 2.86586,150.506 1.19919,150.34 -0.5,150.5 Z"/></g>
<g><path style="opacity:0.745" fill="#cecdcd" d="M 53.5,155.5 C 50.8142,158.258 47.8142,160.758 44.5,163C 42.8876,163.72 41.3876,163.554 40,162.5C 37.0319,166.532 35.3652,165.865 35,160.5C 32.2257,161.687 29.559,163.02 27,164.5C 26.5831,163.244 25.7498,162.577 24.5,162.5C 25.5,161.5 26.5,160.5 27.5,159.5C 30.1393,160.192 32.8059,159.859 35.5,158.5C 36.2508,159.376 36.7508,160.376 37,161.5C 38.434,159.864 40.2674,158.864 42.5,158.5C 43.1924,159.025 43.6924,159.692 44,160.5C 44.4419,158.321 45.4419,157.655 47,158.5C 49.0945,158.046 51.2612,157.046 53.5,155.5 Z"/></g>
<g><path style="opacity:0.091" fill="#e3e3e2" d="M 8.5,156.5 C 10.2737,157.37 11.607,158.703 12.5,160.5C 12.8333,160.5 13.1667,160.5 13.5,160.5C 13.7828,159.711 14.2828,159.044 15,158.5C 15.1462,163.266 16.6462,163.599 19.5,159.5C 21.1484,160.291 22.815,161.291 24.5,162.5C 22.3362,162.839 20.1695,162.839 18,162.5C 15.9281,165.094 13.7615,165.094 11.5,162.5C 10.4912,160.482 9.49117,158.482 8.5,156.5 Z"/></g>
<g><path style="opacity:1" fill="#8c8884" d="M 101.5,181.5 C 100.951,179.099 100.118,176.765 99,174.5C 97.2476,172.649 95.7476,170.649 94.5,168.5C 98.4579,162.851 103.791,160.518 110.5,161.5C 107.471,167.217 105.305,173.217 104,179.5C 103.583,180.756 102.75,181.423 101.5,181.5 Z"/></g>
<g><path style="opacity:0.11" fill="#fdfeea" d="M 59.5,168.5 C 58.8333,168.5 58.5,168.833 58.5,169.5C 57.9569,169.44 57.6236,169.107 57.5,168.5C 58.2565,167.227 58.9232,167.227 59.5,168.5 Z"/></g>
<g><path style="opacity:0.749" fill="#e0e2e1" d="M 94.5,168.5 C 95.7476,170.649 97.2476,172.649 99,174.5C 100.118,176.765 100.951,179.099 101.5,181.5C 103.91,185.99 106.076,190.656 108,195.5C 108.651,197.235 108.485,198.902 107.5,200.5C 110.495,204.133 111.161,208.133 109.5,212.5C 108.751,211.469 108.085,210.302 107.5,209C 108.517,207.951 108.684,206.784 108,205.5C 107.028,203.695 105.861,202.028 104.5,200.5C 105.167,199.5 105.833,198.5 106.5,197.5C 103.566,191.362 101.233,185.029 99.5,178.5C 98.325,178.719 97.325,178.386 96.5,177.5C 95.6948,175.085 94.6948,172.751 93.5,170.5C 92.9984,169.479 92.3317,169.312 91.5,170C 83.7547,177.329 79.0881,186.162 77.5,196.5C 76.7321,197.263 76.2321,198.263 76,199.5C 75.7484,191.914 77.7484,184.914 82,178.5C 84.9248,173.388 89.0915,170.054 94.5,168.5 Z"/></g>
<g><path style="opacity:0.931" fill="#dfe2e1" d="M 124.5,154.5 C 116.562,160.729 114.062,168.729 117,178.5C 121.028,186.883 124.195,195.55 126.5,204.5C 125.25,204.423 124.417,203.756 124,202.5C 121.838,194.508 118.838,186.842 115,179.5C 111.666,169.84 113.833,161.674 121.5,155C 122.448,154.517 123.448,154.351 124.5,154.5 Z"/></g>
<g><path style="opacity:1" fill="#bfbcb4" d="M 61.5,202.5 C 65.1884,209.936 66.8551,217.936 66.5,226.5C 64.3428,218.719 62.6762,210.719 61.5,202.5 Z"/></g>
<g><path style="opacity:0.878" fill="#dee1e0" d="M 256.5,191.5 C 253.468,202.706 255.801,212.706 263.5,221.5C 263.103,222.525 262.437,222.692 261.5,222C 256.873,216.301 253.873,209.801 252.5,202.5C 252.887,200.726 253.553,199.059 254.5,197.5C 252.966,194.768 253.633,192.768 256.5,191.5 Z"/></g>
<g><path style="opacity:1" fill="#393b3a" d="M 118.5,211.5 C 121.709,212.297 122.209,213.963 120,216.5C 119.692,215.692 119.192,215.025 118.5,214.5C 116.902,215.485 115.235,215.651 113.5,215C 115.881,214.777 117.547,213.61 118.5,211.5 Z"/></g>
<g><path style="opacity:1" fill="#3a3c3b" d="M 247.5,217.5 C 249.976,219.121 250.142,221.121 248,223.5C 247.355,222.354 246.522,221.354 245.5,220.5C 246.612,219.735 247.279,218.735 247.5,217.5 Z"/></g>
<g><path style="opacity:1" fill="#545555" d="M 124.5,217.5 C 126.273,218.314 126.773,219.648 126,221.5C 125.209,220.255 124.709,218.922 124.5,217.5 Z"/></g>
<g><path style="opacity:1" fill="#272622" d="M 86.5,225.5 C 87.1667,225.5 87.5,225.833 87.5,226.5C 87.6309,227.376 87.2975,228.043 86.5,228.5C 85.2241,227.386 85.2241,226.386 86.5,225.5 Z"/></g>
<g><path style="opacity:1" fill="#424443" d="M 95.5,225.5 C 96.9953,225.415 97.9953,226.081 98.5,227.5C 96.6043,228.639 95.6043,227.973 95.5,225.5 Z"/></g>
<g><path style="opacity:0.81" fill="#e3e6e5" d="M 281.5,222.5 C 283.842,223.211 284.175,224.544 282.5,226.5C 285.626,230.401 288.792,230.401 292,226.5C 294.944,220.475 297.777,214.475 300.5,208.5C 299.253,216.661 296.086,223.994 291,230.5C 287.571,232.013 284.571,231.347 282,228.5C 281.601,228.728 281.435,229.062 281.5,229.5C 279.405,228.588 277.405,227.421 275.5,226C 274.177,225.184 273.511,224.017 273.5,222.5C 275.5,223.5 277.5,224.5 279.5,225.5C 277.576,217.898 278.576,210.731 282.5,204C 281.919,203.107 281.585,202.107 281.5,201C 287.626,192.388 286.626,184.888 278.5,178.5C 279.117,178.389 279.617,178.056 280,177.5C 284.433,180.538 286.933,184.704 287.5,190C 285.948,199.556 283.281,209.056 279.5,218.5C 279.668,220.171 280.335,221.504 281.5,222.5 Z"/></g>
<g><path style="opacity:1" fill="#383a39" d="M 281.5,222.5 C 283.265,221.539 285.265,221.205 287.5,221.5C 287.463,224.702 285.797,226.368 282.5,226.5C 284.175,224.544 283.842,223.211 281.5,222.5 Z"/></g>
<g><path style="opacity:1" fill="#464847" d="M 267.5,229.5 C 271.31,230.754 271.31,231.754 267.5,232.5C 267.5,231.5 267.5,230.5 267.5,229.5 Z"/></g>
<g><path style="opacity:1" fill="#383838" d="M 281.5,230.5 C 281.361,232.337 280.694,232.67 279.5,231.5C 279.957,230.702 280.624,230.369 281.5,230.5 Z"/></g>
</svg>
