<svg xmlns="http://www.w3.org/2000/svg" width="44.955306238681715" height="49.776535455640555" style=""><rect id="backgroundrect" width="100%" height="100%" x="0" y="0" fill="none" stroke="none" class="" style=""/>
  
<g class="currentLayer" style=""><title>Layer 1</title><g style="" id="svg_1" class="">
    <polygon style="fill: rgb(254, 220, 61);" points="11.265605926513672,32.41749572753906 2.3121337890625,46.72023010253906 43.427730560302734,46.72023010253906 43.427730560302734,16.039016723632812 " stroke-width="0" id="svg_2"/>
    <g style="" stroke-width="0" id="svg_3">
      <polygon style="fill:#FFE777;" points="17.730815887451172,31.379806518554688 2.311756134033203,46.720672607421875 2.311756134033203,16.039108276367188 17.730815887451172,22.520751953125 " stroke-width="0" id="svg_4"/>
      <polygon style="fill:#FFE777;" points="40.71706771850586,18.736328125 40.71706771850586,44.023651123046875 28.056957244873047,31.327484130859375 " stroke-width="0" id="svg_5"/>
    </g>
    <polygon style="fill: rgb(115, 115, 115);" points="2.3121337890625,16.039016723632812 10.670856475830078,24.35516357421875 22.870330810546875,31.545135498046875 35.06977462768555,24.35516357421875 43.427730560302734,16.039016723632812 35.06901168823242,16.039016723632812 10.670856475830078,16.039016723632812 " stroke-width="0" id="svg_6"/>
    <polygon style="fill: rgb(220, 220, 220);" points="10.670856475830078,20.343276977539062 10.670856475830078,24.35516357421875 22.870330810546875,36.493438720703125 35.06901168823242,24.35516357421875 35.06901168823242,20.343276977539062 " stroke-width="0" id="svg_7"/>
    <polygon style="fill: rgb(238, 238, 238);" points="35.06901168823242,1.6877975463867188 35.06901168823242,20.343276977539062 22.870330810546875,32.48237609863281 10.670856475830078,20.343276977539062 10.670856475830078,1.6877975463867188 " stroke-width="0" id="svg_8"/>
    <g style="" stroke-width="0" id="svg_9">
      <path style="fill:#4D4D4D;" d="M29.6473127089684,8.368590346159436 H16.09244169265355 c-0.37430241840278855,0 -0.6777756728855479,-0.33238048559092936 -0.6777756728855479,-0.7423369405629631 s0.3034732544827584,-0.7423369405629631 0.6777756728855479,-0.7423369405629631 h13.55479071114032 c0.37430241840278855,0 0.6777756728855479,0.33238048559092936 0.6777756728855479,0.7423369405629631 S30.021615127371177,8.368590346159436 29.6473127089684,8.368590346159436 z" stroke-width="0" id="svg_10"/>
      <path style="fill:#4D4D4D;" d="M29.6473127089684,12.32751546839637 H16.09244169265355 c-0.37430241840278855,0 -0.6777756728855479,-0.33238048559092936 -0.6777756728855479,-0.7423369405629631 c0,-0.4099564549720348 0.3034732544827584,-0.7423369405629631 0.6777756728855479,-0.7423369405629631 h13.55479071114032 c0.37430241840278855,0 0.6777756728855479,0.33238048559092936 0.6777756728855479,0.7423369405629631 C30.32500807667944,11.995134982805439 30.021615127371177,12.32751546839637 29.6473127089684,12.32751546839637 z" stroke-width="0" id="svg_11"/>
      <path style="fill:#4D4D4D;" d="M22.869877200810976,16.286440590633276 h-6.777435508157417 c-0.37430241840278855,0 -0.6777756728855479,-0.33238048559092936 -0.6777756728855479,-0.7423369405629631 s0.3034732544827584,-0.7423369405629631 0.6777756728855479,-0.7423369405629631 H22.869877200810976 c0.37430241840278855,0 0.6777756728855479,0.33238048559092936 0.6777756728855479,0.7423369405629631 S23.244179619213753,16.286440590633276 22.869877200810976,16.286440590633276 z" stroke-width="0" id="svg_12"/>
    </g>
  </g></g></svg>