<?xml version="1.0" encoding="UTF-8" standalone="no"?><!-- Generator: Gravit.io --><svg xmlns="http://www.w3.org/2000/svg" xmlns:xlink="http://www.w3.org/1999/xlink" style="isolation:isolate" viewBox="0 0 64 64" width="64pt" height="64pt"><defs><clipPath id="_clipPath_DPq591H7X5UWGwFMdlrB0U9y7Ao7cEEh"><rect width="64" height="64"/></clipPath></defs><g clip-path="url(#_clipPath_DPq591H7X5UWGwFMdlrB0U9y7Ao7cEEh)"><clipPath id="_clipPath_NhKdIYfKcAu3wCjTxYlDjifqCQc6Xhsy"><rect x="0" y="0" width="64" height="64" transform="matrix(1,0,0,1,0,0)" fill="rgb(255,255,255)"/></clipPath><g clip-path="url(#_clipPath_NhKdIYfKcAu3wCjTxYlDjifqCQc6Xhsy)"><g><g><g style="opacity:0.1;"><g opacity="0.1"><linearGradient id="_lgradient_0" x1="0" y1="0.5" x2="0.013344691913553777" y2="1.4999109556344168" gradientTransform="matrix(50.58,0,0,46.62,7.5,8.5)" gradientUnits="userSpaceOnUse"><stop offset="0.18630601431520652%" stop-opacity="0.58823532" style="stop-color:rgb(0,0,0)"/><stop offset="98.4471675762865%" stop-opacity="1" style="stop-color:rgb(0,0,0)"/></linearGradient><path d=" M 17.616 8.5 L 47.964 8.5 C 53.547 8.5 58.08 13.033 58.08 18.617 L 58.08 45.003 C 58.08 50.587 53.547 55.12 47.964 55.12 L 17.616 55.12 C 12.033 55.12 7.5 50.587 7.5 45.003 L 7.5 18.617 C 7.5 13.033 12.033 8.5 17.616 8.5 Z " fill="url(#_lgradient_0)"/></g></g><g style="opacity:0.07999998;"><g opacity="0.07999998"><linearGradient id="_lgradient_1" x1="0" y1="0.5" x2="0.013346712404950264" y2="1.4999109286671386" gradientTransform="matrix(51,0,0,47,7.5,8.5)" gradientUnits="userSpaceOnUse"><stop offset="0.18624834112716374%" stop-opacity="0.58823532" style="stop-color:rgb(0,0,0)"/><stop offset="98.44710274597503%" stop-opacity="1" style="stop-color:rgb(0,0,0)"/></linearGradient><path d=" M 17.7 8.5 L 48.3 8.5 C 53.93 8.5 58.5 13.07 58.5 18.7 L 58.5 45.3 C 58.5 50.93 53.93 55.5 48.3 55.5 L 17.7 55.5 C 12.07 55.5 7.5 50.93 7.5 45.3 L 7.5 18.7 C 7.5 13.07 12.07 8.5 17.7 8.5 Z " fill="url(#_lgradient_1)"/></g></g><g style="opacity:0.2;"><g opacity="0.2"><linearGradient id="_lgradient_2" x1="0" y1="0.5" x2="0.013348183958932437" y2="1.4999109090238982" gradientTransform="matrix(50.17,0,0,46.23,7.5,8.5)" gradientUnits="userSpaceOnUse"><stop offset="0.1862041069120243%" stop-opacity="0.58823532" style="stop-color:rgb(0,0,0)"/><stop offset="98.44706334224627%" stop-opacity="1" style="stop-color:rgb(0,0,0)"/></linearGradient><path d=" M 17.534 8.5 L 47.636 8.5 C 53.174 8.5 57.67 12.996 57.67 18.533 L 57.67 44.697 C 57.67 50.234 53.174 54.73 47.636 54.73 L 17.534 54.73 C 11.996 54.73 7.5 50.234 7.5 44.697 L 7.5 18.533 C 7.5 12.996 11.996 8.5 17.534 8.5 Z " fill="url(#_lgradient_2)"/></g></g><g style="opacity:0.25;"><g opacity="0.25"><linearGradient id="_lgradient_3" x1="0" y1="0.5" x2="0.013346141731824919" y2="1.4999109362842642" gradientTransform="matrix(49.75,0,0,45.85,7.5,8.5)" gradientUnits="userSpaceOnUse"><stop offset="0.18626232801088585%" stop-opacity="0.58823532" style="stop-color:rgb(0,0,0)"/><stop offset="98.44712888034117%" stop-opacity="1" style="stop-color:rgb(0,0,0)"/></linearGradient><path d=" M 17.45 8.5 L 47.3 8.5 C 52.792 8.5 57.25 12.959 57.25 18.45 L 57.25 44.4 C 57.25 49.891 52.792 54.35 47.3 54.35 L 17.45 54.35 C 11.958 54.35 7.5 49.891 7.5 44.4 L 7.5 18.45 C 7.5 12.959 11.958 8.5 17.45 8.5 Z " fill="url(#_lgradient_3)"/></g></g><g style="opacity:0.25;"><g opacity="0.25"><linearGradient id="_lgradient_4" x1="0" y1="0.5" x2="0.013345620265453821" y2="1.4999109432443123" gradientTransform="matrix(49.39,0,0,45.52,7.5,8.5)" gradientUnits="userSpaceOnUse"><stop offset="0.18626984751099004%" stop-opacity="0.58823532" style="stop-color:rgb(0,0,0)"/><stop offset="98.44714168397674%" stop-opacity="1" style="stop-color:rgb(0,0,0)"/></linearGradient><path d=" M 17.378 8.5 L 47.012 8.5 C 52.464 8.5 56.89 12.926 56.89 18.379 L 56.89 44.141 C 56.89 49.594 52.464 54.02 47.012 54.02 L 17.378 54.02 C 11.926 54.02 7.5 49.594 7.5 44.141 L 7.5 18.379 C 7.5 12.926 11.926 8.5 17.378 8.5 Z " fill="url(#_lgradient_4)"/></g></g></g><linearGradient id="_lgradient_5" x1="1.2953621300876799" y1="0.04783678033367311" x2="1.2966379132320602" y2="0.15810722789582948" gradientTransform="matrix(49.027,0,0,45.181,7.5,8.5)" gradientUnits="userSpaceOnUse"><stop offset="0%" stop-opacity="1" style="stop-color:rgb(218,185,128)"/><stop offset="71.691591%" stop-opacity="1" style="stop-color:rgb(194,152,86)"/><stop offset="100%" stop-opacity="1" style="stop-color:rgb(162,119,58)"/></linearGradient><path d=" M 17.715 8.5 C 12.056 8.5 7.5 12.699 7.5 17.914 L 7.5 20.121 L 7.5 44.268 C 7.5 49.482 12.056 53.681 17.715 53.681 L 46.312 53.681 C 51.97 53.681 56.527 49.482 56.527 44.268 L 56.527 20.121 L 56.527 17.914 C 56.527 12.699 51.97 8.5 46.312 8.5 L 17.715 8.5 L 17.715 8.5 Z " fill="url(#_lgradient_5)"/><g style="opacity:0.3;"><g opacity="0.3"><linearGradient id="_lgradient_6" x1="0.46578771911277117" y1="0.0028989088983051026" x2="0.455928738150691" y2="0.6125034155674057" gradientTransform="matrix(49.027,0,0,45.181,7.5,8.5)" gradientUnits="userSpaceOnUse"><stop offset="0%" stop-opacity="1" style="stop-color:rgb(255,255,255)"/><stop offset="100%" stop-opacity="0" style="stop-color:rgb(255,255,255)"/></linearGradient><path d=" M 17.712 8.5 C 12.053 8.5 7.5 12.696 7.5 17.911 L 7.5 44.268 C 7.5 49.482 12.053 53.681 17.712 53.681 L 18.017 53.681 C 12.478 53.681 8.019 49.572 8.019 44.468 L 8.019 18.671 C 8.019 13.566 12.478 9.457 18.017 9.457 L 46.01 9.457 C 51.548 9.457 56.007 13.566 56.007 18.671 L 56.007 44.468 C 56.007 49.572 51.548 53.681 46.01 53.681 L 46.312 53.681 C 51.97 53.681 56.527 49.482 56.527 44.268 L 56.527 17.911 C 56.527 12.696 51.97 8.5 46.312 8.5 L 17.712 8.5 L 17.712 8.5 L 17.712 8.5 Z " fill="url(#_lgradient_6)"/></g></g><linearGradient id="_lgradient_7" x1="1.5714285067796607" y1="0.8766044145361522" x2="1.5714285067796607" y2="0.02628578921519764" gradientTransform="matrix(49.027,0,0,39.758,7.5,13.923)" gradientUnits="userSpaceOnUse"><stop offset="0%" stop-opacity="1" style="stop-color:rgb(195,163,115)"/><stop offset="100%" stop-opacity="1" style="stop-color:rgb(221,192,139)"/></linearGradient><path d=" M 12.388 13.923 C 9.874 13.923 7.5 15.75 7.5 18.048 L 7.5 29.14 L 7.5 31.144 L 7.5 40.352 L 7.5 44.268 C 7.5 49.482 12.056 53.681 17.715 53.681 L 46.312 53.681 C 51.97 53.681 56.527 49.482 56.527 44.268 L 56.527 40.352 L 56.527 31.144 L 56.527 29.14 L 56.527 21.082 C 56.527 18.783 54.464 16.957 51.638 16.957 L 27.154 16.957 C 25.22 15.107 25.066 14.226 23.084 13.923 L 12.388 13.923 L 12.388 13.923 Z " fill="url(#_lgradient_7)"/><g style="opacity:0.2;"><g opacity="0.2"><linearGradient id="_lgradient_8" x1="0.4501308368366872" y1="0.9873156779661019" x2="0.4481003287923033" y2="0.574299599699484" gradientTransform="matrix(49.027,0,0,45.181,7.5,8.5)" gradientUnits="userSpaceOnUse"><stop offset="0%" stop-opacity="1" style="stop-color:rgb(0,0,0)"/><stop offset="100%" stop-opacity="0.2" style="stop-color:rgb(255,255,255)"/></linearGradient><path d=" M 17.712 53.681 C 12.053 53.681 7.5 49.485 7.5 44.27 L 7.5 17.914 C 7.5 12.699 12.053 8.5 17.712 8.5 L 18.017 8.5 C 12.478 8.5 8.019 12.609 8.019 17.713 L 8.019 43.511 C 8.019 48.615 12.478 52.724 18.017 52.724 L 46.01 52.724 C 51.548 52.724 56.007 48.615 56.007 43.511 L 56.007 17.713 C 56.007 12.609 51.548 8.5 46.01 8.5 L 46.312 8.5 C 51.97 8.5 56.527 12.699 56.527 17.914 L 56.527 44.27 C 56.527 49.485 51.97 53.681 46.312 53.681 L 17.712 53.681 L 17.712 53.681 L 17.712 53.681 Z " fill="url(#_lgradient_8)"/></g></g><clipPath id="_clipPath_iKHXsm0V7PpCpN7uen1Jap39VQgOIIOl"><path d=" M 664.877 119.55 L 1073.883 119.55 C 1091.267 119.55 1105.38 133.663 1105.38 151.047 L 1105.38 441.163 C 1105.38 458.547 1091.267 472.66 1073.883 472.66 L 664.877 472.66 C 647.493 472.66 633.38 458.547 633.38 441.163 L 633.38 151.047 C 633.38 133.663 647.493 119.55 664.877 119.55 Z " fill="rgb(255,255,255)"/></clipPath><g clip-path="url(#_clipPath_iKHXsm0V7PpCpN7uen1Jap39VQgOIIOl)"><g><g style="opacity:0.15;" filter="url(#LvdsMzBTgGph6XyiNzDWdQ7hsxHHgZUu)"><g opacity="0.15"><linearGradient id="_lgradient_9" x1="0.5002895479566405" y1="0.006822888653234216" x2="0.5002895479566403" y2="1.0002142439024393" gradientTransform="matrix(7.48,0,0,6.838,598.734,30.303)" gradientUnits="userSpaceOnUse"><stop offset="0%" stop-opacity="1" style="stop-color:rgb(255,255,255)"/><stop offset="100%" stop-opacity="0" style="stop-color:rgb(255,255,255)"/></linearGradient><path d=" M 599.277 30.303 C 598.993 30.304 598.735 30.604 598.734 30.934 L 598.734 36.51 C 598.735 36.841 598.993 37.141 599.277 37.141 L 605.672 37.141 C 605.956 37.141 606.214 36.841 606.214 36.51 L 606.214 30.934 C 606.214 30.604 605.956 30.304 605.672 30.303 L 599.277 30.303 L 599.277 30.303 Z " fill="url(#_lgradient_9)"/></g></g><defs><filter id="LvdsMzBTgGph6XyiNzDWdQ7hsxHHgZUu" x="-200%" y="-200%" width="400%" height="400%" filterUnits="objectBoundingBox" color-interpolation-filters="sRGB"><feGaussianBlur xmlns="http://www.w3.org/2000/svg" stdDeviation="0.9531511827795122"/></filter></defs></g></g><g style="opacity:0.35;"><g opacity="0.35"><linearGradient id="_lgradient_10" x1="0.15577008441859788" y1="0.4279113318098047" x2="0.15577008441859733" y2="0.9457994107960311" gradientTransform="matrix(49.027,0,0,8.116,7.5,13.923)" gradientUnits="userSpaceOnUse"><stop offset="0%" stop-opacity="1" style="stop-color:rgb(255,255,255)"/><stop offset="100%" stop-opacity="0" style="stop-color:rgb(255,255,255)"/></linearGradient><path d=" M 12.388 13.923 C 9.874 13.923 7.5 15.75 7.5 18.048 L 7.5 19.006 C 7.5 16.707 9.874 14.881 12.388 14.881 L 23.084 14.881 C 25.066 15.183 25.22 16.064 27.154 17.914 L 51.638 17.914 C 54.464 17.914 56.527 19.74 56.527 22.039 L 56.527 21.082 C 56.527 18.783 54.464 16.957 51.638 16.957 L 27.154 16.957 C 25.22 15.107 25.066 14.226 23.084 13.923 L 12.388 13.923 L 12.388 13.923 Z " fill="url(#_lgradient_10)"/></g></g><linearGradient id="_lgradient_11" x1="1.5714285491525424" y1="0.8623194487575554" x2="1.5714285491525424" y2="-0.08643683474990005" gradientTransform="matrix(472,0,0,372.25,588,119.75)" gradientUnits="userSpaceOnUse"><stop offset="0%" stop-opacity="1" style="stop-color:rgb(194,150,86)"/><stop offset="100%" stop-opacity="1" style="stop-color:rgb(221,192,139)"/></linearGradient><path d=" M 588 119.75 L 588 235.625 L 588 256.563 L 588 352.75 L 588 393.656 C 588 448.133 631.867 492 686.344 492 L 961.656 492 C 1016.133 492 1060 448.133 1060 393.656 L 1060 352.75 L 1060 256.563 L 1060 235.625 L 1060 151.438 C 1060 127.422 1040.141 119.75 1012.938 119.75 L 777.219 119.75 L 588 119.75 L 588 119.75 Z " fill="url(#_lgradient_11)"/><path d=" M 22.53 23.569 C 22.046 23.568 21.606 23.917 21.606 24.3 L 21.606 35.684 C 19.763 35.519 18.108 35.291 16.338 35.094 C 16.291 35.089 16.243 35.088 16.196 35.091 C 15.936 35.103 15.69 35.239 15.584 35.428 C 15.479 35.617 15.516 35.85 15.679 36.012 L 26.16 46.357 C 26.223 46.418 26.288 46.476 26.362 46.519 L 35.402 53.681 L 44.108 53.681 C 50.987 53.681 56.527 49.294 56.527 43.847 L 56.527 43.575 L 31.642 23.869 C 31.468 23.691 31.201 23.568 30.915 23.569 L 22.53 23.569 Z " fill="rgb(0,0,0)" fill-opacity="0.23529412"/><path d=" M 28.563 38.857 C 28.165 38.857 27.803 38.644 27.804 38.412 L 27.804 31.488 C 26.287 31.589 24.926 31.727 23.47 31.847 C 23.432 31.85 23.392 31.851 23.353 31.849 C 23.139 31.841 22.938 31.759 22.851 31.644 C 22.764 31.529 22.795 31.387 22.928 31.288 L 31.549 24.998 C 31.674 24.906 31.805 24.826 32.046 24.868 C 32.25 24.907 33.351 25.642 33.815 25.98 C 34.623 26.57 35.7 27.357 36.779 28.143 C 38.936 29.715 41.096 31.287 41.096 31.287 C 41.242 31.393 41.266 31.552 41.152 31.672 C 41.039 31.792 40.795 31.864 40.563 31.847 C 38.904 31.731 37.601 31.599 36.22 31.499 L 36.22 38.412 C 36.221 38.644 35.859 38.857 35.461 38.857 L 28.563 38.857 L 28.563 38.857 Z " fill="rgb(0,255,0)"/></g></g><path d=" M 28.372 48.483 L 27.273 48.483 L 28.589 45.151 L 25.705 45.151 L 25.705 44.269 L 29.73 44.269 L 29.73 44.92 L 28.372 48.483 L 28.372 48.483 Z  M 26.755 50.163 L 25.705 50.163 L 25.705 45.879 L 26.755 45.879 L 26.755 50.163 L 26.755 50.163 Z  M 24.79 48.483 L 23.74 48.483 L 23.74 44.269 L 24.79 44.269 L 24.79 48.483 L 24.79 48.483 Z  M 23.184 48.483 L 19.355 48.483 L 19.355 47.601 L 21.588 47.601 L 21.588 45.865 L 21.588 45.865 Q 21.588 45.473 21.448 45.312 L 21.448 45.312 L 21.448 45.312 Q 21.308 45.151 20.979 45.151 L 20.979 45.151 L 19.355 45.151 L 19.355 44.269 L 21.021 44.269 L 21.021 44.269 Q 22.638 44.269 22.638 45.746 L 22.638 45.746 L 22.638 47.601 L 23.184 47.601 L 23.184 48.483 L 23.184 48.483 Z  M 17.231 50.163 L 16.181 50.163 L 16.181 46.915 L 15.201 44.269 L 16.3 44.269 L 17.105 46.572 L 17.294 46.516 L 17.294 46.516 Q 17.511 46.446 17.62 46.268 L 17.62 46.268 L 17.62 46.268 Q 17.728 46.089 17.756 45.739 L 17.756 45.739 L 17.896 44.269 L 18.946 44.269 L 18.82 45.641 L 18.82 45.641 Q 18.792 45.956 18.736 46.219 L 18.736 46.219 L 18.736 46.219 Q 18.68 46.481 18.551 46.695 L 18.551 46.695 L 18.551 46.695 Q 18.421 46.908 18.173 47.076 L 18.173 47.076 L 18.173 47.076 Q 17.924 47.244 17.511 47.37 L 17.511 47.37 L 17.231 47.454 L 17.231 50.163 L 17.231 50.163 Z  M 44.17 48.483 L 42.315 48.483 L 42.315 47.601 L 44.17 47.601 L 44.17 47.601 Q 44.66 47.601 44.923 47.335 L 44.923 47.335 L 44.923 47.335 Q 45.185 47.069 45.185 46.432 L 45.185 46.432 L 45.185 46.432 Q 45.185 45.774 44.891 45.463 L 44.891 45.463 L 44.891 45.463 Q 44.597 45.151 43.995 45.151 L 43.995 45.151 L 43.365 45.151 L 43.365 45.424 L 43.365 45.424 Q 43.365 45.704 43.428 45.844 L 43.428 45.844 L 43.428 45.844 Q 43.491 45.984 43.607 46.033 L 43.607 46.033 L 43.607 46.033 Q 43.722 46.082 43.869 46.082 L 43.869 46.082 L 43.869 46.082 Q 43.925 46.082 43.978 46.079 L 43.978 46.079 L 43.978 46.079 Q 44.03 46.075 44.079 46.068 L 44.079 46.068 L 44.079 46.95 L 44.079 46.95 Q 44.002 46.957 43.908 46.964 L 43.908 46.964 L 43.908 46.964 Q 43.813 46.971 43.736 46.971 L 43.736 46.971 L 43.736 46.971 Q 43.05 46.971 42.683 46.583 L 42.683 46.583 L 42.683 46.583 Q 42.315 46.194 42.315 45.48 L 42.315 45.48 L 42.315 44.269 L 44.065 44.269 L 44.065 44.269 Q 44.744 44.269 45.234 44.525 L 45.234 44.525 L 45.234 44.525 Q 45.724 44.78 45.99 45.26 L 45.99 45.26 L 45.99 45.26 Q 46.256 45.739 46.256 46.411 L 46.256 46.411 L 46.256 46.411 Q 46.256 47.076 45.997 47.538 L 45.997 47.538 L 45.997 47.538 Q 45.738 48 45.269 48.242 L 45.269 48.242 L 45.269 48.242 Q 44.8 48.483 44.17 48.483 L 44.17 48.483 L 44.17 48.483 Z  M 37.847 48.483 L 37.21 48.483 L 37.21 47.601 L 37.679 47.601 L 37.679 47.601 Q 37.784 47.601 37.851 47.531 L 37.851 47.531 L 37.851 47.531 Q 37.917 47.461 37.917 47.328 L 37.917 47.328 L 37.917 45.151 L 37.238 45.151 L 37.238 44.269 L 39.877 44.269 L 39.877 44.269 Q 41.494 44.269 41.494 45.746 L 41.494 45.746 L 41.494 48.483 L 40.444 48.483 L 40.444 45.865 L 40.444 45.865 Q 40.444 45.473 40.304 45.312 L 40.304 45.312 L 40.304 45.312 Q 40.164 45.151 39.835 45.151 L 39.835 45.151 L 38.967 45.151 L 38.967 47.209 L 38.967 47.209 Q 38.967 47.853 38.694 48.168 L 38.694 48.168 L 38.694 48.168 Q 38.421 48.483 37.847 48.483 L 37.847 48.483 L 37.847 48.483 Z  M 32.56 44.269 L 34.912 44.269 L 34.912 44.269 Q 36.529 44.269 36.529 45.746 L 36.529 45.746 L 36.529 48.483 L 35.479 48.483 L 35.479 45.865 L 35.479 45.865 Q 35.479 45.473 35.335 45.312 L 35.335 45.312 L 35.335 45.312 Q 35.192 45.151 34.87 45.151 L 34.87 45.151 L 33.61 45.151 L 33.61 48.483 L 32.56 48.483 L 32.56 44.269 L 32.56 44.269 Z " fill="rgb(255,255,255)"/></g></svg>