<?xml version="1.0" encoding="UTF-8" standalone="no"?><!-- Generator: Gravit.io --><svg xmlns="http://www.w3.org/2000/svg" xmlns:xlink="http://www.w3.org/1999/xlink" style="isolation:isolate" viewBox="0 0 64 64" width="64pt" height="64pt"><defs><clipPath id="_clipPath_pzJASy5d27fH8oBWwqDO1csUpau5WkbK"><rect width="64" height="64"/></clipPath></defs><g clip-path="url(#_clipPath_pzJASy5d27fH8oBWwqDO1csUpau5WkbK)"><path d=" M 52.794 14.097 C 52.794 13.053 51.904 12.206 50.806 12.206 L 13.192 12.206 C 12.096 12.206 11.206 13.053 11.206 14.097 L 11.206 49.903 C 11.206 50.947 12.096 51.794 13.192 51.794 L 50.806 51.794 C 51.904 51.794 52.794 50.947 52.794 49.903 L 52.794 14.097 Z " fill-rule="evenodd" fill="rgb(255,153,0)"/><path d=" M 31.5 50.03 L 38.29 35.97 L 24.71 35.97 L 31.5 50.03 Z " fill-rule="evenodd" fill="rgb(0,150,136)"/><path d=" M 30.362 26.758 L 29.106 26.758 L 30.61 22.95 L 27.314 22.95 L 27.314 21.942 L 31.914 21.942 L 31.914 22.686 L 30.362 26.758 L 30.362 26.758 Z  M 28.514 28.678 L 27.314 28.678 L 27.314 23.782 L 28.514 23.782 L 28.514 28.678 L 28.514 28.678 Z  M 26.554 26.758 L 25.354 26.758 L 25.354 21.942 L 26.554 21.942 L 26.554 26.758 L 26.554 26.758 Z  M 24.29 26.758 L 19.914 26.758 L 19.914 25.75 L 22.466 25.75 L 22.466 23.766 L 22.466 23.766 Q 22.466 23.318 22.306 23.134 L 22.306 23.134 L 22.306 23.134 Q 22.146 22.95 21.77 22.95 L 21.77 22.95 L 19.914 22.95 L 19.914 21.942 L 21.818 21.942 L 21.818 21.942 Q 23.666 21.942 23.666 23.63 L 23.666 23.63 L 23.666 25.75 L 24.29 25.75 L 24.29 26.758 L 24.29 26.758 Z  M 18.058 28.678 L 16.858 28.678 L 16.858 24.966 L 15.738 21.942 L 16.994 21.942 L 17.914 24.574 L 18.13 24.51 L 18.13 24.51 Q 18.378 24.43 18.502 24.226 L 18.502 24.226 L 18.502 24.226 Q 18.626 24.022 18.658 23.622 L 18.658 23.622 L 18.818 21.942 L 20.018 21.942 L 19.874 23.51 L 19.874 23.51 Q 19.842 23.87 19.778 24.17 L 19.778 24.17 L 19.778 24.17 Q 19.714 24.47 19.566 24.714 L 19.566 24.714 L 19.566 24.714 Q 19.418 24.958 19.134 25.15 L 19.134 25.15 L 19.134 25.15 Q 18.85 25.342 18.378 25.486 L 18.378 25.486 L 18.058 25.582 L 18.058 28.678 L 18.058 28.678 Z  M 49.418 26.758 L 47.522 26.758 L 47.074 21.942 L 48.274 21.942 L 48.482 24.11 L 48.746 24.03 L 48.746 24.03 Q 49.01 23.942 49.114 23.718 L 49.114 23.718 L 49.114 23.718 Q 49.218 23.494 49.274 23.054 L 49.274 23.054 L 49.402 21.942 L 50.602 21.942 L 50.498 22.942 L 50.498 22.942 Q 50.458 23.286 50.398 23.586 L 50.398 23.586 L 50.398 23.586 Q 50.338 23.886 50.19 24.134 L 50.19 24.134 L 50.19 24.134 Q 50.042 24.382 49.758 24.578 L 49.758 24.578 L 49.758 24.578 Q 49.474 24.774 48.994 24.918 L 48.994 24.918 L 48.57 25.046 L 48.634 25.75 L 49.418 25.75 L 49.418 25.75 Q 50.202 25.75 50.682 25.242 L 50.682 25.242 L 50.682 25.242 Q 51.162 24.734 51.266 23.726 L 51.266 23.726 L 51.45 21.942 L 52.65 21.942 L 52.474 23.758 L 52.474 23.758 Q 52.378 24.702 51.99 25.374 L 51.99 25.374 L 51.99 25.374 Q 51.602 26.046 50.95 26.402 L 50.95 26.402 L 50.95 26.402 Q 50.298 26.758 49.418 26.758 L 49.418 26.758 L 49.418 26.758 Z  M 44.058 21.862 L 44.058 21.862 L 44.058 21.862 Q 44.586 21.862 44.97 22.094 L 44.97 22.094 L 44.97 22.094 Q 45.354 22.326 45.566 22.75 L 45.566 22.75 L 45.566 22.75 Q 45.778 23.174 45.778 23.742 L 45.778 23.742 L 45.778 26.758 L 43.218 26.758 L 43.218 25.75 L 44.578 25.75 L 44.578 23.854 L 44.578 23.854 Q 44.578 22.926 43.77 22.926 L 43.77 22.926 L 43.77 22.926 Q 43.282 22.926 43.01 23.274 L 43.01 23.274 L 43.01 23.274 Q 42.738 23.622 42.65 24.35 L 42.65 24.35 L 42.354 26.758 L 41.154 26.758 L 41.53 23.678 L 41.17 21.942 L 42.37 21.942 L 42.514 22.726 L 42.546 22.726 L 42.546 22.726 Q 42.666 22.558 42.85 22.354 L 42.85 22.354 L 42.85 22.354 Q 43.034 22.15 43.322 22.006 L 43.322 22.006 L 43.322 22.006 Q 43.61 21.862 44.058 21.862 Z  M 40.634 26.758 L 39.434 26.758 L 39.434 21.942 L 40.634 21.942 L 40.634 26.758 L 40.634 26.758 Z  M 37.93 26.758 L 36.73 26.758 L 36.73 23.766 L 36.73 23.766 Q 36.73 23.318 36.566 23.134 L 36.566 23.134 L 36.566 23.134 Q 36.402 22.95 36.034 22.95 L 36.034 22.95 L 33.874 22.95 L 33.874 21.942 L 36.082 21.942 L 36.082 21.942 Q 37.93 21.942 37.93 23.63 L 37.93 23.63 L 37.93 26.758 L 37.93 26.758 Z " fill="rgb(255,255,255)"/></g></svg>