<?xml version="1.0" encoding="UTF-8" standalone="no"?><!-- Generator: Gravit.io --><svg xmlns="http://www.w3.org/2000/svg" xmlns:xlink="http://www.w3.org/1999/xlink" style="isolation:isolate" viewBox="0 0 64 64" width="64pt" height="64pt"><defs><clipPath id="_clipPath_SC9Lvy9YgkmQJuzWJfLd6pWxCp9wvbZm"><rect width="64" height="64"/></clipPath></defs><g clip-path="url(#_clipPath_SC9Lvy9YgkmQJuzWJfLd6pWxCp9wvbZm)"><clipPath id="_clipPath_reYfEIPePuizuJ6kySYP0ptgySSRxErB"><rect x="0" y="2" width="64" height="64" transform="matrix(1,0,0,1,0,0)" fill="rgb(255,255,255)"/></clipPath><g clip-path="url(#_clipPath_reYfEIPePuizuJ6kySYP0ptgySSRxErB)"><g><clipPath id="_clipPath_YB7D0nhnsR7qsVXA6Uc3M9CNsyDHXE3W"><rect x="0" y="2" width="64" height="64" transform="matrix(1,0,0,1,0,0)" fill="rgb(255,255,255)"/></clipPath><g clip-path="url(#_clipPath_YB7D0nhnsR7qsVXA6Uc3M9CNsyDHXE3W)"><g><g><g><g style="opacity:0.1;"><g style="opacity:0.1;"><g opacity="0.1"><linearGradient id="_lgradient_0" x1="0" y1="0.5000000000000001" x2="0.01334469191355378" y2="1.4216261121327904" gradientTransform="matrix(50.58,0,0,46.62,7.5,10.5)" gradientUnits="userSpaceOnUse"><stop offset="0.18630601431520652%" stop-opacity="0.58823532" style="stop-color:rgb(0,0,0)"/><stop offset="98.4471675762865%" stop-opacity="1" style="stop-color:rgb(0,0,0)"/></linearGradient><path d=" M 17.616 10.5 L 47.964 10.5 C 53.547 10.5 58.08 15.033 58.08 20.617 L 58.08 47.003 C 58.08 52.587 53.547 57.12 47.964 57.12 L 17.616 57.12 C 12.033 57.12 7.5 52.587 7.5 47.003 L 7.5 20.617 C 7.5 15.033 12.033 10.5 17.616 10.5 Z " fill="url(#_lgradient_0)"/></g></g></g><g style="opacity:0.07999998;"><g style="opacity:0.07999998;"><g opacity="0.07999998"><linearGradient id="_lgradient_1" x1="0" y1="0.5" x2="0.01334671240495025" y2="1.4214865421050182" gradientTransform="matrix(51,0,0,47,7.5,10.5)" gradientUnits="userSpaceOnUse"><stop offset="0.18624834112716374%" stop-opacity="0.58823532" style="stop-color:rgb(0,0,0)"/><stop offset="98.44710274597503%" stop-opacity="1" style="stop-color:rgb(0,0,0)"/></linearGradient><path d=" M 17.7 10.5 L 48.3 10.5 C 53.93 10.5 58.5 15.07 58.5 20.7 L 58.5 47.3 C 58.5 52.93 53.93 57.5 48.3 57.5 L 17.7 57.5 C 12.07 57.5 7.5 52.93 7.5 47.3 L 7.5 20.7 C 7.5 15.07 12.07 10.5 17.7 10.5 Z " fill="url(#_lgradient_1)"/></g></g></g><g style="opacity:0.2;"><g style="opacity:0.2;"><g opacity="0.2"><linearGradient id="_lgradient_2" x1="0" y1="0.5" x2="0.013348183958932447" y2="1.4213849177631404" gradientTransform="matrix(50.17,0,0,46.23,7.5,10.5)" gradientUnits="userSpaceOnUse"><stop offset="0.1862041069120243%" stop-opacity="0.58823532" style="stop-color:rgb(0,0,0)"/><stop offset="98.44706334224627%" stop-opacity="1" style="stop-color:rgb(0,0,0)"/></linearGradient><path d=" M 17.534 10.5 L 47.636 10.5 C 53.174 10.5 57.67 14.996 57.67 20.533 L 57.67 46.697 C 57.67 52.234 53.174 56.73 47.636 56.73 L 17.534 56.73 C 11.996 56.73 7.5 52.234 7.5 46.697 L 7.5 20.533 C 7.5 14.996 11.996 10.5 17.534 10.5 Z " fill="url(#_lgradient_2)"/></g></g></g><g style="opacity:0.25;"><g style="opacity:0.25;"><g opacity="0.25"><linearGradient id="_lgradient_3" x1="0" y1="0.5" x2="0.013346141731824912" y2="1.4215259583645095" gradientTransform="matrix(49.75,0,0,45.85,7.5,10.5)" gradientUnits="userSpaceOnUse"><stop offset="0.18626232801088585%" stop-opacity="0.58823532" style="stop-color:rgb(0,0,0)"/><stop offset="98.44712888034117%" stop-opacity="1" style="stop-color:rgb(0,0,0)"/></linearGradient><path d=" M 17.45 10.5 L 47.3 10.5 C 52.792 10.5 57.25 14.959 57.25 20.45 L 57.25 46.4 C 57.25 51.891 52.792 56.35 47.3 56.35 L 17.45 56.35 C 11.958 56.35 7.5 51.891 7.5 46.4 L 7.5 20.45 C 7.5 14.959 11.958 10.5 17.45 10.5 Z " fill="url(#_lgradient_3)"/></g></g></g><g style="opacity:0.25;"><g style="opacity:0.25;"><g opacity="0.25"><linearGradient id="_lgradient_4" x1="0" y1="0.5" x2="0.013345620265453828" y2="1.4215619788718752" gradientTransform="matrix(49.39,0,0,45.52,7.5,10.5)" gradientUnits="userSpaceOnUse"><stop offset="0.18626984751099004%" stop-opacity="0.58823532" style="stop-color:rgb(0,0,0)"/><stop offset="98.44714168397674%" stop-opacity="1" style="stop-color:rgb(0,0,0)"/></linearGradient><path d=" M 17.378 10.5 L 47.012 10.5 C 52.464 10.5 56.89 14.926 56.89 20.379 L 56.89 46.141 C 56.89 51.594 52.464 56.02 47.012 56.02 L 17.378 56.02 C 11.926 56.02 7.5 51.594 7.5 46.141 L 7.5 20.379 C 7.5 14.926 11.926 10.5 17.378 10.5 Z " fill="url(#_lgradient_4)"/></g></g></g></g><linearGradient id="_lgradient_5" x1="1.2953621300876799" y1="0.04783678033367311" x2="1.2966379132320602" y2="0.14945688948385427" gradientTransform="matrix(49.027,0,0,45.181,7.5,10.5)" gradientUnits="userSpaceOnUse"><stop offset="0%" stop-opacity="1" style="stop-color:rgb(218,185,128)"/><stop offset="71.691591%" stop-opacity="1" style="stop-color:rgb(194,152,86)"/><stop offset="100%" stop-opacity="1" style="stop-color:rgb(162,119,58)"/></linearGradient><path d=" M 17.715 10.5 C 12.056 10.5 7.5 14.699 7.5 19.914 L 7.5 22.121 L 7.5 46.268 C 7.5 51.482 12.056 55.681 17.715 55.681 L 46.312 55.681 C 51.97 55.681 56.527 51.482 56.527 46.268 L 56.527 22.121 L 56.527 19.914 C 56.527 14.699 51.97 10.5 46.312 10.5 L 17.715 10.5 L 17.715 10.5 Z " fill="url(#_lgradient_5)"/><g style="opacity:0.3;"><g style="opacity:0.3;"><g opacity="0.3"><linearGradient id="_lgradient_6" x1="0.46578771911277117" y1="0.0028989088983051026" x2="0.455928738150691" y2="0.5646820328058639" gradientTransform="matrix(49.027,0,0,45.181,7.5,10.5)" gradientUnits="userSpaceOnUse"><stop offset="0%" stop-opacity="1" style="stop-color:rgb(255,255,255)"/><stop offset="100%" stop-opacity="0" style="stop-color:rgb(255,255,255)"/></linearGradient><path d=" M 17.712 10.5 C 12.053 10.5 7.5 14.696 7.5 19.911 L 7.5 46.268 C 7.5 51.482 12.053 55.681 17.712 55.681 L 18.017 55.681 C 12.478 55.681 8.019 51.572 8.019 46.468 L 8.019 20.671 C 8.019 15.566 12.478 11.457 18.017 11.457 L 46.01 11.457 C 51.548 11.457 56.007 15.566 56.007 20.671 L 56.007 46.468 C 56.007 51.572 51.548 55.681 46.01 55.681 L 46.312 55.681 C 51.97 55.681 56.527 51.482 56.527 46.268 L 56.527 19.911 C 56.527 14.696 51.97 10.5 46.312 10.5 L 17.712 10.5 L 17.712 10.5 L 17.712 10.5 Z " fill="url(#_lgradient_6)"/></g></g></g><linearGradient id="_lgradient_7" x1="1.5714285067796607" y1="0.8766044145361522" x2="1.5714285067796607" y2="0.02628578921519764" gradientTransform="matrix(49.027,0,0,39.758,7.5,15.923)" gradientUnits="userSpaceOnUse"><stop offset="0%" stop-opacity="1" style="stop-color:rgb(195,163,115)"/><stop offset="100%" stop-opacity="1" style="stop-color:rgb(221,192,139)"/></linearGradient><path d=" M 12.388 15.923 C 9.874 15.923 7.5 17.75 7.5 20.048 L 7.5 31.14 L 7.5 33.144 L 7.5 42.352 L 7.5 46.268 C 7.5 51.482 12.056 55.681 17.715 55.681 L 46.312 55.681 C 51.97 55.681 56.527 51.482 56.527 46.268 L 56.527 42.352 L 56.527 33.144 L 56.527 31.14 L 56.527 23.082 C 56.527 20.783 54.464 18.957 51.638 18.957 L 27.154 18.957 C 25.22 17.107 25.066 16.226 23.084 15.923 L 12.388 15.923 L 12.388 15.923 Z " fill="url(#_lgradient_7)"/><g style="opacity:0.2;"><g style="opacity:0.2;"><g opacity="0.2"><linearGradient id="_lgradient_8" x1="0.4501308368366872" y1="0.9873156779661019" x2="0.4481003287923033" y2="0.6066992945005856" gradientTransform="matrix(49.027,0,0,45.181,7.5,10.5)" gradientUnits="userSpaceOnUse"><stop offset="0%" stop-opacity="1" style="stop-color:rgb(0,0,0)"/><stop offset="100%" stop-opacity="0.2" style="stop-color:rgb(255,255,255)"/></linearGradient><path d=" M 17.712 55.681 C 12.053 55.681 7.5 51.485 7.5 46.27 L 7.5 19.914 C 7.5 14.699 12.053 10.5 17.712 10.5 L 18.017 10.5 C 12.478 10.5 8.019 14.609 8.019 19.713 L 8.019 45.511 C 8.019 50.615 12.478 54.724 18.017 54.724 L 46.01 54.724 C 51.548 54.724 56.007 50.615 56.007 45.511 L 56.007 19.713 C 56.007 14.609 51.548 10.5 46.01 10.5 L 46.312 10.5 C 51.97 10.5 56.527 14.699 56.527 19.914 L 56.527 46.27 C 56.527 51.485 51.97 55.681 46.312 55.681 L 17.712 55.681 L 17.712 55.681 L 17.712 55.681 Z " fill="url(#_lgradient_8)"/></g></g></g><clipPath id="_clipPath_hlotgUsx4CqKIGrlDCzBQxhDxdMv9wwn"><path d=" M 664.877 121.55 L 1073.883 121.55 C 1091.267 121.55 1105.38 135.663 1105.38 153.047 L 1105.38 443.163 C 1105.38 460.547 1091.267 474.66 1073.883 474.66 L 664.877 474.66 C 647.493 474.66 633.38 460.547 633.38 443.163 L 633.38 153.047 C 633.38 135.663 647.493 121.55 664.877 121.55 Z " fill="rgb(255,255,255)"/></clipPath><g clip-path="url(#_clipPath_hlotgUsx4CqKIGrlDCzBQxhDxdMv9wwn)"><g><g><g style="opacity:0.15;" filter="url(#64ZQTXwXruoL100v7t0P53fHOLrO1wkd)"><g style="opacity:0.15;"><g opacity="0.15"><linearGradient id="_lgradient_9" x1="0.5002895479566405" y1="0.006822888653234216" x2="0.5002895479566403" y2="1.0002142439024393" gradientTransform="matrix(7.48,0,0,6.838,598.734,32.303)" gradientUnits="userSpaceOnUse"><stop offset="0%" stop-opacity="1" style="stop-color:rgb(255,255,255)"/><stop offset="100%" stop-opacity="0" style="stop-color:rgb(255,255,255)"/></linearGradient><path d=" M 599.277 32.303 C 598.993 32.304 598.735 32.604 598.734 32.934 L 598.734 38.51 C 598.735 38.841 598.993 39.141 599.277 39.141 L 605.672 39.141 C 605.956 39.141 606.214 38.841 606.214 38.51 L 606.214 32.934 C 606.214 32.604 605.956 32.304 605.672 32.303 L 599.277 32.303 L 599.277 32.303 Z " fill="url(#_lgradient_9)"/></g></g></g><defs><filter id="64ZQTXwXruoL100v7t0P53fHOLrO1wkd" x="-200%" y="-200%" width="400%" height="400%" filterUnits="objectBoundingBox" color-interpolation-filters="sRGB"><feGaussianBlur xmlns="http://www.w3.org/2000/svg" stdDeviation="0.9531511827795122"/></filter></defs></g></g></g><g style="opacity:0.35;"><g style="opacity:0.35;"><g opacity="0.35"><linearGradient id="_lgradient_10" x1="0.15577008441859788" y1="0.4279113318098047" x2="0.15577008441859733" y2="0.5146346873848473" gradientTransform="matrix(49.027,0,0,8.116,7.5,15.923)" gradientUnits="userSpaceOnUse"><stop offset="0%" stop-opacity="1" style="stop-color:rgb(255,255,255)"/><stop offset="100%" stop-opacity="0" style="stop-color:rgb(255,255,255)"/></linearGradient><path d=" M 12.388 15.923 C 9.874 15.923 7.5 17.75 7.5 20.048 L 7.5 21.006 C 7.5 18.707 9.874 16.881 12.388 16.881 L 23.084 16.881 C 25.066 17.183 25.22 18.064 27.154 19.914 L 51.638 19.914 C 54.464 19.914 56.527 21.74 56.527 24.039 L 56.527 23.082 C 56.527 20.783 54.464 18.957 51.638 18.957 L 27.154 18.957 C 25.22 17.107 25.066 16.226 23.084 15.923 L 12.388 15.923 L 12.388 15.923 Z " fill="url(#_lgradient_10)"/></g></g></g><linearGradient id="_lgradient_11" x1="1.5714285491525424" y1="0.8623194487575554" x2="1.5714285491525424" y2="-0.08643683474990005" gradientTransform="matrix(472,0,0,372.25,588,121.75)" gradientUnits="userSpaceOnUse"><stop offset="0%" stop-opacity="1" style="stop-color:rgb(194,150,86)"/><stop offset="100%" stop-opacity="1" style="stop-color:rgb(221,192,139)"/></linearGradient><path d=" M 588 121.75 L 588 237.625 L 588 258.563 L 588 354.75 L 588 395.656 C 588 450.133 631.867 494 686.344 494 L 961.656 494 C 1016.133 494 1060 450.133 1060 395.656 L 1060 354.75 L 1060 258.563 L 1060 237.625 L 1060 153.438 C 1060 129.422 1040.141 121.75 1012.938 121.75 L 777.219 121.75 L 588 121.75 L 588 121.75 Z " fill="url(#_lgradient_11)"/><path d=" M 22.53 25.569 C 22.046 25.568 21.606 25.917 21.606 26.3 L 21.606 37.684 C 19.763 37.519 18.108 37.291 16.338 37.094 C 16.291 37.089 16.243 37.088 16.196 37.091 C 15.936 37.103 15.69 37.239 15.584 37.428 C 15.479 37.617 15.516 37.85 15.679 38.012 L 26.16 48.357 C 26.223 48.418 26.288 48.476 26.362 48.519 L 35.402 55.681 L 44.108 55.681 C 50.987 55.681 56.527 51.294 56.527 45.847 L 56.527 45.575 L 31.642 25.869 C 31.468 25.691 31.201 25.568 30.915 25.569 L 22.53 25.569 Z " fill="rgb(0,0,0)" fill-opacity="0.23529412"/><path d=" M 28.563 40.857 C 28.165 40.857 27.803 40.644 27.804 40.412 L 27.804 33.488 C 26.287 33.589 24.926 33.727 23.47 33.847 C 23.432 33.85 23.392 33.851 23.353 33.849 C 23.139 33.841 22.938 33.759 22.851 33.644 C 22.764 33.529 22.795 33.387 22.928 33.288 L 31.549 26.998 C 31.674 26.906 31.805 26.826 32.046 26.868 C 32.25 26.907 33.351 27.642 33.815 27.98 C 34.623 28.57 35.7 29.357 36.779 30.143 C 38.936 31.715 41.096 33.287 41.096 33.287 C 41.242 33.393 41.266 33.552 41.152 33.672 C 41.039 33.792 40.795 33.864 40.563 33.847 C 38.904 33.731 37.601 33.599 36.22 33.499 L 36.22 40.412 C 36.221 40.644 35.859 40.857 35.461 40.857 L 28.563 40.857 L 28.563 40.857 Z " fill="rgb(0,255,0)"/></g></g></g><path d=" M 28.372 50.483 L 27.273 50.483 L 28.589 47.151 L 25.705 47.151 L 25.705 46.269 L 29.73 46.269 L 29.73 46.92 L 28.372 50.483 L 28.372 50.483 Z  M 26.755 52.163 L 25.705 52.163 L 25.705 47.879 L 26.755 47.879 L 26.755 52.163 L 26.755 52.163 Z  M 24.79 50.483 L 23.74 50.483 L 23.74 46.269 L 24.79 46.269 L 24.79 50.483 L 24.79 50.483 Z  M 23.184 50.483 L 19.355 50.483 L 19.355 49.601 L 21.588 49.601 L 21.588 47.865 L 21.588 47.865 Q 21.588 47.473 21.448 47.312 L 21.448 47.312 L 21.448 47.312 Q 21.308 47.151 20.979 47.151 L 20.979 47.151 L 19.355 47.151 L 19.355 46.269 L 21.021 46.269 L 21.021 46.269 Q 22.638 46.269 22.638 47.746 L 22.638 47.746 L 22.638 49.601 L 23.184 49.601 L 23.184 50.483 L 23.184 50.483 Z  M 17.231 52.163 L 16.181 52.163 L 16.181 48.915 L 15.201 46.269 L 16.3 46.269 L 17.105 48.572 L 17.294 48.516 L 17.294 48.516 Q 17.511 48.446 17.62 48.268 L 17.62 48.268 L 17.62 48.268 Q 17.728 48.089 17.756 47.739 L 17.756 47.739 L 17.896 46.269 L 18.946 46.269 L 18.82 47.641 L 18.82 47.641 Q 18.792 47.956 18.736 48.219 L 18.736 48.219 L 18.736 48.219 Q 18.68 48.481 18.551 48.695 L 18.551 48.695 L 18.551 48.695 Q 18.421 48.908 18.173 49.076 L 18.173 49.076 L 18.173 49.076 Q 17.924 49.244 17.511 49.37 L 17.511 49.37 L 17.231 49.454 L 17.231 52.163 L 17.231 52.163 Z  M 44.17 50.483 L 42.315 50.483 L 42.315 49.601 L 44.17 49.601 L 44.17 49.601 Q 44.66 49.601 44.923 49.335 L 44.923 49.335 L 44.923 49.335 Q 45.185 49.069 45.185 48.432 L 45.185 48.432 L 45.185 48.432 Q 45.185 47.774 44.891 47.463 L 44.891 47.463 L 44.891 47.463 Q 44.597 47.151 43.995 47.151 L 43.995 47.151 L 43.365 47.151 L 43.365 47.424 L 43.365 47.424 Q 43.365 47.704 43.428 47.844 L 43.428 47.844 L 43.428 47.844 Q 43.491 47.984 43.607 48.033 L 43.607 48.033 L 43.607 48.033 Q 43.722 48.082 43.869 48.082 L 43.869 48.082 L 43.869 48.082 Q 43.925 48.082 43.978 48.079 L 43.978 48.079 L 43.978 48.079 Q 44.03 48.075 44.079 48.068 L 44.079 48.068 L 44.079 48.95 L 44.079 48.95 Q 44.002 48.957 43.908 48.964 L 43.908 48.964 L 43.908 48.964 Q 43.813 48.971 43.736 48.971 L 43.736 48.971 L 43.736 48.971 Q 43.05 48.971 42.683 48.583 L 42.683 48.583 L 42.683 48.583 Q 42.315 48.194 42.315 47.48 L 42.315 47.48 L 42.315 46.269 L 44.065 46.269 L 44.065 46.269 Q 44.744 46.269 45.234 46.525 L 45.234 46.525 L 45.234 46.525 Q 45.724 46.78 45.99 47.26 L 45.99 47.26 L 45.99 47.26 Q 46.256 47.739 46.256 48.411 L 46.256 48.411 L 46.256 48.411 Q 46.256 49.076 45.997 49.538 L 45.997 49.538 L 45.997 49.538 Q 45.738 50 45.269 50.242 L 45.269 50.242 L 45.269 50.242 Q 44.8 50.483 44.17 50.483 L 44.17 50.483 L 44.17 50.483 Z  M 37.847 50.483 L 37.21 50.483 L 37.21 49.601 L 37.679 49.601 L 37.679 49.601 Q 37.784 49.601 37.851 49.531 L 37.851 49.531 L 37.851 49.531 Q 37.917 49.461 37.917 49.328 L 37.917 49.328 L 37.917 47.151 L 37.238 47.151 L 37.238 46.269 L 39.877 46.269 L 39.877 46.269 Q 41.494 46.269 41.494 47.746 L 41.494 47.746 L 41.494 50.483 L 40.444 50.483 L 40.444 47.865 L 40.444 47.865 Q 40.444 47.473 40.304 47.312 L 40.304 47.312 L 40.304 47.312 Q 40.164 47.151 39.835 47.151 L 39.835 47.151 L 38.967 47.151 L 38.967 49.209 L 38.967 49.209 Q 38.967 49.853 38.694 50.168 L 38.694 50.168 L 38.694 50.168 Q 38.421 50.483 37.847 50.483 L 37.847 50.483 L 37.847 50.483 Z  M 32.56 46.269 L 34.912 46.269 L 34.912 46.269 Q 36.529 46.269 36.529 47.746 L 36.529 47.746 L 36.529 50.483 L 35.479 50.483 L 35.479 47.865 L 35.479 47.865 Q 35.479 47.473 35.335 47.312 L 35.335 47.312 L 35.335 47.312 Q 35.192 47.151 34.87 47.151 L 34.87 47.151 L 33.61 47.151 L 33.61 50.483 L 32.56 50.483 L 32.56 46.269 L 32.56 46.269 Z " fill="rgb(255,255,255)"/></g></g></g></svg>