<?xml version="1.0" encoding="utf-8"?>
<svg viewBox="0 0 512 512" xmlns="http://www.w3.org/2000/svg">
  <g style="" transform="matrix(0.7499969601631165, 0, 0, 0.821429967880249, 59.47268676757812, 9.055047988891602)">
    <polygon style="fill: rgb(254, 220, 61);" points="148.015 290.962 136.077 308.374 190.898 308.374 190.898 271.023"/>
    <g style="" transform="matrix(0.107074, 0, 0, 0.107075, 136.076477, 253.552139)">
      <polygon style="fill:#FFE777;" points="192.006,337.582 0,512 0,163.166 192.006,236.859 &#9;"/>
      <polygon style="fill:#FFE777;" points="478.242,193.832 478.242,481.336 320.592,336.987 &#9;"/>
    </g>
    <polygon style="fill: rgb(115, 115, 115);" points="136.077 271.023 147.222 281.147 163.488 289.9 179.754 281.147 190.898 271.023 179.753 271.023 147.222 271.023"/>
    <polygon style="fill: rgb(220, 220, 220);" points="147.222 276.263 147.222 281.147 163.488 295.924 179.753 281.147 179.753 276.263"/>
    <polygon style="fill: rgb(238, 238, 238);" points="179.753 253.552 179.753 276.263 163.488 291.041 147.222 276.263 147.222 253.552"/>
    <g style="" transform="matrix(0.107074, 0, 0, 0.107075, 136.076477, 253.552139)">
      <path style="fill:#4D4D4D;" d="M340.396,75.956H171.604c-4.661,0-8.44-3.779-8.44-8.44s3.779-8.44,8.44-8.44h168.791&#10;&#9;&#9;c4.661,0,8.44,3.779,8.44,8.44S345.057,75.956,340.396,75.956z"/>
      <path style="fill:#4D4D4D;" d="M340.396,120.967H171.604c-4.661,0-8.44-3.779-8.44-8.44c0-4.661,3.779-8.44,8.44-8.44h168.791&#10;&#9;&#9;c4.661,0,8.44,3.779,8.44,8.44C348.835,117.188,345.057,120.967,340.396,120.967z"/>
      <path style="fill:#4D4D4D;" d="M256,165.978h-84.396c-4.661,0-8.44-3.779-8.44-8.44s3.779-8.44,8.44-8.44H256&#10;&#9;&#9;c4.661,0,8.44,3.779,8.44,8.44S260.661,165.978,256,165.978z"/>
    </g>
  </g>
</svg>